<?xml version="1.0" encoding="utf-8"?>
<!-- Generator: Adobe Illustrator 19.1.0, SVG Export Plug-In . SVG Version: 6.00 Build 0)  -->
<svg version="1.1" id="Слой_1" xmlns="http://www.w3.org/2000/svg" xmlns:xlink="http://www.w3.org/1999/xlink" x="0px" y="0px"
	 viewBox="0 0 254 254.1" style="enable-background:new 0 0 254 254.1;" xml:space="preserve">
<style type="text/css">
	.st0{fill:#B5B5B5;}
	.st1{fill:#00129B;}
	.st2{fill:#92E8FF;}
	.st3{fill:#FFFFFF;}
</style>
<path d="M174.1,84.5h-0.3h-54h-2.9c-5.6,0-10.2,4.6-10.2,10.2s4.6,10.2,10.2,10.2h57.2c5.6,0,10.2-4.6,10.2-10.2
	S179.7,84.5,174.1,84.5z M174.1,99.9h-57.2c-2.9,0-5.2-2.3-5.2-5.2s2.3-5.2,5.2-5.2h2.9h54h0.3c2.9,0,5.2,2.3,5.2,5.2
	S177,99.9,174.1,99.9z"/>
<path class="st0" d="M174.1,81.5h-0.3h-54h-2.9c-7.3,0-13.2,5.9-13.2,13.2s5.9,13.2,13.2,13.2h57.2c7.3,0,13.2-5.9,13.2-13.2
	S181.4,81.5,174.1,81.5z M174.1,104.9h-57.2c-5.6,0-10.2-4.6-10.2-10.2s4.6-10.2,10.2-10.2h2.9h54h0.3c5.6,0,10.2,4.6,10.2,10.2
	S179.7,104.9,174.1,104.9z"/>
<path class="st0" d="M174.1,89.5h-0.3h-54h-2.9c-2.9,0-5.2,2.3-5.2,5.2s2.3,5.2,5.2,5.2h57.2c2.9,0,5.2-2.3,5.2-5.2
	S177,89.5,174.1,89.5z M174.1,96.9h-57.2c-1.2,0-2.2-1-2.2-2.2s1-2.2,2.2-2.2h2.9h54h0.3c1.2,0,2.2,1,2.2,2.2S175.3,96.9,174.1,96.9
	z"/>
<path class="st1" d="M204.4,129.3h2.9H249h5c0-0.7,0-1.5,0-2.2c0-0.9,0-1.8,0-2.8c0-1-0.1-2-0.1-3c-0.8-18.5-5.6-36-13.6-51.6
	c-0.5-1-1-2-1.6-3c-0.9-1.7-1.9-3.4-2.9-5H230H116.9c-2.9,0-5.2-2.3-5.2-5.2s2.3-5.2,5.2-5.2h3.8h58.1h21.9
	c5.6,0,10.2-4.6,10.2-10.2c0-1-0.2-2-0.4-2.9v0c-1.1-3.8-4.4-6.6-8.4-7.2c-0.5-0.1-0.9-0.1-1.4-0.1h-37.4h-0.9h-2
	c-2.9,0-5.2-2.3-5.2-5.2s2.3-5.2,5.2-5.2h25.8l0,0h9.7c-2.7-1.8-5.5-3.4-8.4-5c-1.9-1.1-3.9-2-5.9-3l0,0C165,4.4,146.5,0,127,0
	C94.3,0,64.5,12.4,41.9,32.8c-1.1,1-2.2,2-3.2,3c-1.7,1.6-3.3,3.3-4.9,5H34h6.7h32.9H74c2.9,0,5.2,2.3,5.2,5.2s-2.3,5.2-5.2,5.2
	H31.4h-6.3c-1.2,1.6-2.4,3.3-3.5,5c-0.7,1-1.3,2-2,3C15.3,66,11.7,73.2,8.7,80.7c-0.4,1-0.8,2-1.1,3c-0.6,1.7-1.2,3.3-1.7,5h5.3
	h38.6c2.9,0,5.2,2.3,5.2,5.2s-2.3,5.2-5.2,5.2h-2.9h-10H25.5c-5.6,0-10.2,4.6-10.2,10.2c0,5.6,4.6,10.2,10.2,10.2h21.9h35.5h3.8
	c2.9,0,5.2,2.3,5.2,5.2s-2.3,5.2-5.2,5.2H5H0c0,1.7,0.1,3.3,0.2,5c0.1,1,0.1,2,0.2,3c0.3,3.5,0.7,6.9,1.3,10.2c0.2,1,0.4,2,0.5,3
	c0.3,1.7,0.7,3.3,1.1,5c0.2,1,0.5,2,0.7,3c0.4,1.5,0.8,3,1.3,4.5c0.3,1,0.6,2,0.9,3c0.6,1.7,1.1,3.3,1.8,5c0.4,1,0.8,2,1.2,3
	c1.4,3.5,3,6.9,4.7,10.2c0.5,1,1.1,2,1.6,3c0.9,1.7,1.9,3.4,2.9,5c0.6,1,1.2,2,1.9,3c1,1.5,2,3,3,4.5c0.7,1,1.5,2,2.2,3
	c1.3,1.7,2.6,3.4,4,5c1.6,1.9,3.3,3.8,5,5.7c1.3,1.4,2.6,2.7,4,4.1c0.7,0.7,1.5,1.4,2.3,2.1c4.3,4,8.9,7.7,13.7,11c1.5,1,3,2,4.5,3
	c2.8,1.8,5.7,3.4,8.6,5c2,1.1,4,2.1,6,3c16.2,7.5,34.3,11.8,53.4,11.8c49.2,0,92-28.1,113-69.1c0.5-1,1-2,1.5-3
	c0.8-1.6,1.5-3.3,2.3-5h-5.5h-72.8c-2.9,0-5.2-2.3-5.2-5.2s2.3-5.2,5.2-5.2h2.9h74h5.3c0.5-1.7,1.1-3.3,1.5-5c0.3-1,0.5-2,0.8-3
	c0.9-3.5,1.7-7.1,2.3-10.8c0.2-1,0.3-2,0.5-3c0.2-1.7,0.4-3.3,0.6-5h-5h-44c-2.9,0-5.2-2.3-5.2-5.2S201.5,129.3,204.4,129.3z
	 M204.4,144.7h43.3c-0.1,1-0.3,2-0.5,3c-0.6,3.6-1.4,7.2-2.4,10.8c-0.3,1-0.5,2-0.8,3h-75.6h-2.9c-5.6,0-10.2,4.6-10.2,10.2
	s4.6,10.2,10.2,10.2H236c-0.5,1-1,2-1.6,3c-20.7,38.2-61,64.1-107.4,64.1c-14,0-27.5-2.4-40.1-6.8c-2.6-0.9-5.2-1.9-7.8-3
	c-3.5-1.5-7-3.2-10.3-5c-1.8-1-3.5-2-5.2-3c-7.6-4.7-14.7-10.1-21.1-16.3c-1-1-2.1-2-3.1-3.1c-2.5-2.6-4.9-5.3-7.2-8.1
	c-0.9-1.1-1.8-2.3-2.7-3.4c-1.1-1.5-2.2-3-3.2-4.5c-0.7-1-1.4-2-2-3c-1.1-1.6-2.1-3.3-3.1-5c-0.6-1-1.1-2-1.7-3
	c-1.8-3.3-3.4-6.7-4.9-10.2c-0.4-1-0.8-2-1.2-3c-0.7-1.6-1.3-3.3-1.8-5c-0.3-1-0.7-2-1-3c-0.5-1.5-0.9-3-1.3-4.5c-0.3-1-0.5-2-0.8-3
	c-0.4-1.7-0.8-3.3-1.1-5c-0.2-1-0.4-2-0.6-3c-0.6-3.4-1-6.8-1.4-10.2c-0.1-1-0.2-2-0.2-3h81.3c5.6,0,10.2-4.6,10.2-10.2
	s-4.6-10.2-10.2-10.2h-3.8H47.4H25.5c-2.9,0-5.2-2.3-5.2-5.2c0-2.9,2.3-5.2,5.2-5.2h11.4h10h2.9c5.6,0,10.2-4.6,10.2-10.2
	s-4.6-10.2-10.2-10.2H12.9c0.4-1,0.8-2,1.2-3c3.1-7.6,7-14.7,11.5-21.5c0.7-1,1.4-2,2.1-3H74c5.6,0,10.2-4.6,10.2-10.2
	S79.7,35.8,74,35.8h-0.3H46.1c1.1-1,2.3-2,3.5-3C70.7,15.4,97.6,5,127,5c14.6,0,28.6,2.6,41.6,7.3l0,0c2.5,0.9,5,1.9,7.4,3
	c1.7,0.8,3.4,1.6,5.1,2.4c-1.7-0.8-3.4-1.6-5.1-2.4h-15.8c-5.6,0-10.2,4.6-10.2,10.2s4.6,10.2,10.2,10.2h2h0.9h37.4
	c2.9,0,5.2,2.3,5.2,5.2s-2.3,5.2-5.2,5.2h-21.9h-58.1h-3.8c-5.6,0-10.2,4.6-10.2,10.2s4.6,10.2,10.2,10.2H233c0.6,1,1.1,2,1.7,3
	c8.3,15.5,13.3,33,14.2,51.6c0,1,0.1,2,0.1,3h-41.7h-2.9c-5.6,0-10.2,4.6-10.2,10.2S198.8,144.7,204.4,144.7z"/>
<g>
	<path class="st1" d="M138.8,198.2c0-5.6-4.6-10.2-10.2-10.2H21.3c1,1.7,2,3.4,3.1,5h104.2c2.9,0,5.2,2.3,5.2,5.2s-2.3,5.2-5.2,5.2
		h-3.8h-16.1H86.8c-5.6,0-10.2,4.6-10.2,10.2c0,5.6,4.6,10.2,10.2,10.2h10.4h0.9h2c2.9,0,5.2,2.3,5.2,5.2s-2.3,5.2-5.2,5.2H68.9
		c3.4,1.8,6.8,3.5,10.3,5h21c5.6,0,10.2-4.6,10.2-10.2s-4.6-10.2-10.2-10.2h-2h-0.9H86.8c-2.9,0-5.2-2.3-5.2-5.2s2.3-5.2,5.2-5.2
		h21.9h16.1h3.8C134.2,208.4,138.8,203.8,138.8,198.2z"/>
	<path class="st1" d="M88.8,161.5c0-5.6-4.6-10.2-10.2-10.2h-0.3H38.6H7.4c0.3,1.7,0.7,3.3,1.1,5h30.1h39.7h0.3
		c2.9,0,5.2,2.3,5.2,5.2s-2.3,5.2-5.2,5.2h-67c0.6,1.7,1.2,3.4,1.8,5h65.1C84.2,171.7,88.8,167.1,88.8,161.5z"/>
	<path class="st1" d="M184.7,194c-6.4,0-11.7,5.2-11.7,11.7s5.2,11.7,11.7,11.7s11.7-5.2,11.7-11.7S191.1,194,184.7,194z
		 M184.7,212.3c-3.7,0-6.7-3-6.7-6.7s3-6.7,6.7-6.7s6.7,3,6.7,6.7S188.4,212.3,184.7,212.3z"/>
	<path class="st1" d="M145.5,215.3c-6.4,0-11.7,5.2-11.7,11.7s5.2,11.7,11.7,11.7s11.7-5.2,11.7-11.7S151.9,215.3,145.5,215.3z
		 M145.5,233.7c-3.7,0-6.7-3-6.7-6.7s3-6.7,6.7-6.7s6.7,3,6.7,6.7S149.2,233.7,145.5,233.7z"/>
	<path class="st1" d="M221.9,83c-6.4,0-11.7,5.2-11.7,11.7s5.2,11.7,11.7,11.7s11.7-5.2,11.7-11.7S228.3,83,221.9,83z M221.9,101.4
		c-3.7,0-6.7-3-6.7-6.7s3-6.7,6.7-6.7s6.7,3,6.7,6.7S225.6,101.4,221.9,101.4z"/>
	<path class="st1" d="M120.6,35c6.4,0,11.7-5.2,11.7-11.7s-5.2-11.7-11.7-11.7S109,16.8,109,23.3S114.2,35,120.6,35z M120.6,16.6
		c3.7,0,6.7,3,6.7,6.7c0,1.3-0.4,2.5-1,3.5c-1.2,1.9-3.3,3.2-5.7,3.2c-0.3,0-0.6,0-0.8-0.1c-3.3-0.4-5.9-3.2-5.9-6.6
		C114,19.6,117,16.6,120.6,16.6z"/>
</g>
<g>
	<path class="st2" d="M128.6,193H24.3c0.7,1,1.3,2,2,3h102.2c1.2,0,2.2,1,2.2,2.2s-1,2.2-2.2,2.2h-3.8h-16.1H86.8
		c-7.3,0-13.2,5.9-13.2,13.2c0,7.3,5.9,13.2,13.2,13.2h10.4h0.9h2c1.2,0,2.2,1,2.2,2.2s-1,2.2-2.2,2.2H63.7c1.7,1,3.4,2,5.2,3h31.3
		c2.9,0,5.2-2.3,5.2-5.2s-2.3-5.2-5.2-5.2h-2h-0.9H86.8c-5.6,0-10.2-4.6-10.2-10.2c0-5.6,4.6-10.2,10.2-10.2h21.9h16.1h3.8
		c2.9,0,5.2-2.3,5.2-5.2S131.5,193,128.6,193z"/>
	<path class="st2" d="M160.3,30.8h2h0.9h37.4c0.5,0,1,0,1.4,0.1c4,0.6,7.2,3.4,8.4,7.2c0.3,0.9,0.4,1.9,0.4,2.9
		c0,5.6-4.6,10.2-10.2,10.2h-21.9h-58.1h-3.8c-2.9,0-5.2,2.3-5.2,5.2s2.3,5.2,5.2,5.2H230h5.9c-0.6-1-1.2-2-1.9-3h-6H116.9
		c-1.2,0-2.2-1-2.2-2.2s1-2.2,2.2-2.2h3.8h58.1h21.9c7.2,0,13-5.7,13.2-12.8c0-0.1,0-0.3,0-0.4c0-7.3-5.9-13.2-13.2-13.2h-2.7h-34.7
		h-0.9h-2c-1.2,0-2.2-1-2.2-2.2s1-2.2,2.2-2.2h30.9h9c-1.5-1-2.9-2-4.4-3h-9.7h-25.8c-2.9,0-5.2,2.3-5.2,5.2S157.4,30.8,160.3,30.8z
		"/>
	<path class="st2" d="M74,35.8c5.6,0,10.2,4.6,10.2,10.2S79.7,56.2,74,56.2H27.7c-0.7,1-1.4,2-2.1,3H74c7.3,0,13.2-5.9,13.2-13.2
		c0-7.3-5.9-13.2-13.2-13.2h-0.3H49.6c-1.2,1-2.4,2-3.5,3h27.6H74z"/>
	<path class="st2" d="M74,51.2c2.9,0,5.2-2.3,5.2-5.2s-2.3-5.2-5.2-5.2h-0.3H40.8H34h-0.2c-0.9,1-1.8,2-2.7,3H34h3.8h35.8H74
		c1.2,0,2.2,1,2.2,2.2c0,1.2-1,2.2-2.2,2.2H33.9h-6.5c-0.8,1-1.6,2-2.3,3h6.3H74z"/>
	<path class="st2" d="M204.4,132.3h2.9h41.6h5c0-1,0.1-2,0.1-3h-5h-41.7h-2.9c-2.9,0-5.2,2.3-5.2,5.2s2.3,5.2,5.2,5.2h44h5
		c0.1-1,0.2-2,0.3-3h-5h-44.2c-1.2,0-2.2-1-2.2-2.2C202.2,133.3,203.2,132.3,204.4,132.3z"/>
	<path class="st2" d="M91.8,161.5c0-7.3-5.9-13.2-13.2-13.2h-0.3H38.6H6.8c0.2,1,0.4,2,0.6,3h31.2h39.7h0.3
		c5.6,0,10.2,4.6,10.2,10.2s-4.6,10.2-10.2,10.2H13.4c0.4,1,0.8,2,1.2,3h63.9C85.9,174.7,91.8,168.8,91.8,161.5z"/>
	<path class="st2" d="M165.6,158.5c-7.3,0-13.2,5.9-13.2,13.2c0,7.3,5.9,13.2,13.2,13.2h68.8c0.5-1,1.1-2,1.6-3h-70.4
		c-5.6,0-10.2-4.6-10.2-10.2s4.6-10.2,10.2-10.2h2.9h75.6c0.3-1,0.6-2,0.8-3h-76.5H165.6z"/>
	<path class="st2" d="M86.6,130c2.9,0,5.2-2.3,5.2-5.2s-2.3-5.2-5.2-5.2h-3.8H47.4H25.5c-5.6,0-10.2-4.6-10.2-10.2
		c0-5.6,4.6-10.2,10.2-10.2h11.4h10h2.9c2.9,0,5.2-2.3,5.2-5.2s-2.3-5.2-5.2-5.2H11.1l0,0H5.9c-0.3,1-0.6,2-0.9,3h5.2l0,0h39.5
		c1.2,0,2.2,1,2.2,2.2c0,1.2-1,2.2-2.2,2.2h-2.9h-10H25.5c-7.3,0-13.2,5.9-13.2,13.2c0,7.3,5.9,13.2,13.2,13.2h21.9h35.5h3.8
		c1.2,0,2.2,1,2.2,2.2c0,1.2-1,2.2-2.2,2.2H5c0,0,0,0,0,0H0c0,1,0,2,0,3h5c0,0,0,0,0,0H86.6z"/>
	<path class="st2" d="M184.7,199c-3.7,0-6.7,3-6.7,6.7s3,6.7,6.7,6.7s6.7-3,6.7-6.7S188.4,199,184.7,199z M184.7,209.3
		c-2,0-3.7-1.7-3.7-3.7s1.7-3.7,3.7-3.7c2,0,3.7,1.7,3.7,3.7S186.7,209.3,184.7,209.3z"/>
	<path class="st2" d="M215.2,94.7c0,3.7,3,6.7,6.7,6.7s6.7-3,6.7-6.7s-3-6.7-6.7-6.7S215.2,91,215.2,94.7z M225.6,94.7
		c0,2-1.7,3.7-3.7,3.7c-2,0-3.7-1.7-3.7-3.7s1.7-3.7,3.7-3.7C223.9,91,225.6,92.7,225.6,94.7z"/>
	<path class="st2" d="M120.6,38c8.1,0,14.7-6.6,14.7-14.7s-6.6-14.7-14.7-14.7c-8.1,0-14.7,6.6-14.7,14.7S112.5,38,120.6,38z
		 M120.6,11.6c6.4,0,11.7,5.2,11.7,11.7S127.1,35,120.6,35S109,29.7,109,23.3S114.2,11.6,120.6,11.6z"/>
</g>
<g>
	<path class="st3" d="M189.4,57.1H66c-5.2,0-9.5,4.3-9.5,9.5V190c0,5.2,4.3,9.5,9.5,9.5h123.4c5.2,0,9.5-4.3,9.5-9.5V66.6
		C198.9,61.4,194.6,57.1,189.4,57.1z"/>
	<g>
		<path class="st1" d="M189.4,52.1H66c-8,0-14.5,6.5-14.5,14.5V190c0,8,6.5,14.5,14.5,14.5h123.4c8,0,14.5-6.5,14.5-14.5V66.6
			C203.9,58.6,197.4,52.1,189.4,52.1z M198.9,190c0,5.2-4.3,9.5-9.5,9.5H66c-5.2,0-9.5-4.3-9.5-9.5V66.6c0-5.2,4.3-9.5,9.5-9.5
			h123.4c5.2,0,9.5,4.3,9.5,9.5V190z"/>
	</g>
</g>
<g>
	<path class="st1" d="M127.8,152.8C127.7,152.8,127.7,152.8,127.8,152.8c-0.1,0-0.1,0-0.1,0c-1.5,0-2.7,1.3-2.7,2.7
		c0,1.3,1,2.4,2.3,2.7c0,0,0,0,0,0c0.1,0,0.1,0,0.2,0c0,0,0.1,0,0.1,0c0,0,0.1,0,0.1,0c0,0,0,0,0,0c0,0,0,0,0,0c0,0,0.1,0,0.1,0
		c0,0,0.1,0,0.1,0c0.1,0,0.1,0,0.2,0c0,0,0,0,0,0c1.2-0.3,2.3-1.4,2.3-2.7C130.5,154.1,129.2,152.8,127.8,152.8z"/>
	<path class="st1" d="M183,87.2c0-0.1,0-0.1,0-0.2c0-4.3-3.6-7.8-8-7.8c-0.1,0-0.3,0-0.4,0c0,0-0.1,0-0.1,0c-1.5,0-2.9,0-4.4,0
		c-7.4,0-77.1,0-84.5,0c-1.5,0-2.9,0-4.4,0c0,0-0.1,0-0.1,0c-0.1,0-0.3,0-0.4,0c-4.4,0-8,3.5-8,7.8c0,0.1,0,0.1,0,0.2
		c0,0.2,0,0.4,0,0.7c0,7.3,0,56.1,0,73.2c0,4.2,3.6,7.7,7.8,7.8c4.6,0,9.1,0,13.7,0c6.4,0,12.8,0,19.2,0c0.7,0,1.3-0.1,1.3,0.9
		c0,0.4-0.1,7.5-0.2,7.7c0,0,0,0,0,0.1c0,0,0,0.1,0,0.1c-0.1,0.3-0.3,0.5-0.5,0.7l0,0c-0.4,0.4-1.1,0.7-1.8,0.7c-0.8,0-1.7,0-2.5,0
		c-1,0-1.8,0.4-2.4,1.2c-0.6,0.9-0.7,1.8-0.2,2.8c0.6,1.1,1.5,1.5,2.7,1.5c1.2,0,2.4,0,3.5,0c0,0,0,0,0,0c4.9,0,9.9,0,14.8,0
		c4.9,0,9.8,0,14.7,0c0,0,0,0,0,0c1.1,0,2.2,0,3.2,0c1.2,0,2.1-0.5,2.7-1.5c0.5-1,0.4-1.9-0.2-2.8c-0.6-0.8-1.4-1.2-2.4-1.2
		c-0.8,0-1.7,0-2.5,0c-0.6,0-1.1-0.2-1.5-0.5c0,0-0.1,0-0.1-0.1c0,0,0,0,0,0c-0.3-0.2-0.5-0.5-0.7-0.9c0,0,0,0,0,0c0,0,0-0.1,0-0.1
		c-0.1-0.2-0.1-7.3-0.1-7.7c0-0.1,0-0.1,0-0.1c0.1-0.5,0.3-0.7,0.8-0.7c0.1,0,0.3,0,0.4,0c0.4,0,0.9,0,1.3,0c0,0,0,0,0,0
		c6,0,12,0,18,0c4.6,0,9.1,0,13.7,0c4.2,0,7.8-3.5,7.8-7.8c0-16.9,0-65.6,0-73.2C183,87.7,183,87.4,183,87.2z M134.8,179
		c-2.3,0-4.7,0-7,0v0c0,0,0,0-0.1,0c0,0,0,0-0.1,0v0c-2.3,0-4.7,0-7,0c-0.5,0-1,0-0.9-0.7c0.4-2.7,0.2-8.8,0.3-9
		c0.1-0.3,0.3-0.5,0.8-0.5c0.2,0,0.4,0,0.6,0c2.1,0,4.2,0,6.2,0c2.1,0,4.2,0,6.2,0c0.3,0,0.5,0,0.6,0c0.5,0,0.7,0.1,0.8,0.5
		c0,0.2-0.2,6.3,0.3,9C135.7,179.1,135.2,179,134.8,179z M177.4,160.2c0,2.2-0.8,3-3,3c-14,0-28,0-42,0c-0.1,0-0.2,0-0.4,0
		c-1.4,0-2.9,0-4.3,0c-1.4,0-2.9,0-4.3,0c-0.1,0-0.2,0-0.4,0c-14,0-28,0-42,0c-2.2,0-3-0.8-3-3c0-3.6,0-7.3,0-10.9
		c0-1.5,0.1-1.5,1.6-1.5c10.8,0,21.5,0,32.3,0v0c5.2,0,10.3,0,15.5,0c5.4,0,10.9,0,16.3,0v0c10.8,0,21.5,0,32.3,0
		c1.5,0,1.5,0,1.6,1.5C177.4,152.9,177.4,156.6,177.4,160.2z M176.1,142.3c-11.5,0-85.7,0-96.8,0c-1.1,0-1.4-0.4-1.4-1.4
		c0-10,0-45.3,0-53.1c0-1.7,0.6-2.6,2-2.9c0.3-0.1,0.7-0.1,1.1-0.1c15.5,0,77.6,0,93.1,0c0.4,0,0.8,0,1.1,0.1c1.4,0.3,2,1.2,2,2.9
		c0,8.4,0,43.8,0,53.1C177.4,141.9,177.1,142.3,176.1,142.3z"/>
	<path class="st1" d="M121.7,95.7c2.8,0,5.7,0,8.5,0c2.9,0,5.8,0,8.6,0c1.4,0,2.2-0.7,2.2-1.8c0-1.1-0.8-1.8-2.2-1.8
		c-5.7,0-11.4,0-17.1,0c-1.3,0-2.2,0.8-2.2,1.9C119.6,95.1,120.4,95.7,121.7,95.7z"/>
	<path class="st1" d="M121.1,131.3c-2.7,0-5.4,0-8.1,0c0,0,0,0,0,0c-2.7,0-5.4,0-8.1,0c-1.2,0-2,0.7-2,1.8c0,1,0.7,1.8,1.9,1.8
		c5.5,0,11,0,16.5,0c0.9,0,1.6-0.4,1.9-1.2C123.5,132.5,122.6,131.4,121.1,131.3z"/>
	<path class="st1" d="M105,106.3c2.6,0,5.3,0,7.9,0c2.7,0,5.3,0,8,0c1.4,0,2.2-0.7,2.2-1.8c0-1.1-0.8-1.8-2.2-1.8
		c-5.3,0-10.6,0-15.9,0c-1.4,0-2.2,0.6-2.3,1.7C102.7,105.5,103.6,106.2,105,106.3z"/>
	<path class="st1" d="M131.3,115.1c0-1.2-0.8-1.9-2.3-1.9c-4.6,0-9.3,0-13.9,0c-1.4,0-2.2,0.7-2.3,1.8c0,1.1,0.8,1.8,2.2,1.8
		c2.4,0,4.7,0,7.1,0c2.3,0,4.6,0,6.9,0C130.5,116.9,131.3,116.2,131.3,115.1z"/>
	<path class="st1" d="M149.1,121.9c-4.7,0-9.4,0-14.1,0c-1.4,0-2.2,0.8-2.2,1.9c0,1.1,0.8,1.7,2.1,1.8c2.4,0,4.7,0,7.1,0
		c2.4,0,4.7,0,7.1,0c1.4,0,2.2-0.7,2.2-1.8C151.2,122.7,150.3,121.9,149.1,121.9z"/>
	<path class="st1" d="M149.3,131.4c-1.5-0.1-3-0.1-4.4,0c-1,0.1-1.6,0.7-1.6,1.7c0,1,0.6,1.7,1.7,1.8c0.7,0.1,1.4,0,2.1,0
		c0,0,0,0,0,0c0.8,0,1.5,0.1,2.3,0c1-0.1,1.6-0.7,1.6-1.7C151,132.2,150.4,131.4,149.3,131.4z"/>
	<path class="st1" d="M134.7,131.4c-1.4-0.1-2.9-0.1-4.3,0c-1,0.1-1.6,0.7-1.6,1.7c-0.1,1,0.6,1.7,1.7,1.8c0.7,0.1,1.4,0,2,0
		c0.7,0,1.4,0.1,2.1,0c1.1-0.1,1.7-0.8,1.7-1.8C136.3,132.1,135.7,131.4,134.7,131.4z"/>
	<path class="st1" d="M94.4,131.4c-0.7-0.1-1.4,0-2.1,0c-0.7,0-1.4-0.1-2,0c-1.1,0.1-1.7,0.8-1.7,1.8c0,1,0.6,1.7,1.6,1.7
		c1.4,0.1,2.8,0.1,4.2,0c1.1-0.1,1.7-0.8,1.7-1.8C96.1,132.2,95.4,131.5,94.4,131.4z"/>
	<path class="st1" d="M163.8,131.4c-0.7-0.1-1.4,0-2.1,0c0,0,0,0,0,0c-0.7,0-1.4,0-2,0c-1.1,0.1-1.7,0.8-1.8,1.7
		c0,1,0.6,1.8,1.7,1.8c1.4,0.1,2.9,0.1,4.3,0c1-0.1,1.6-0.7,1.6-1.8C165.4,132.1,164.8,131.5,163.8,131.4z"/>
	<path class="st1" d="M145.1,106.2c0.6,0,1.3,0,1.9,0c0.4,0,0.7,0,1.1,0c0.4,0,0.7,0,1.1,0c1.1-0.1,1.8-0.8,1.8-1.9
		c0-1-0.8-1.7-1.9-1.7c-1.3,0-2.6,0-3.9,0c-1.2,0-1.9,0.7-1.9,1.7C143.2,105.4,143.9,106.2,145.1,106.2z"/>
	<path class="st1" d="M106.5,95.7c0.7,0,1.4,0,2,0c0.7,0,1.4,0,2.2,0c1-0.1,1.6-0.7,1.7-1.7c0.1-0.9-0.6-1.8-1.6-1.9
		c-1.4-0.1-2.9-0.1-4.3,0c-1,0.1-1.7,1-1.6,1.9C104.9,95,105.4,95.7,106.5,95.7z"/>
	<path class="st1" d="M99.5,116.9c0.7,0,1.4,0,2.2,0c0.6,0,1.3,0,1.9,0c1-0.1,1.8-0.8,1.8-1.7c0-1-0.6-1.7-1.6-1.8
		c-1.5-0.1-3-0.1-4.4,0c-1,0.1-1.7,1-1.6,1.9C97.8,116.2,98.4,116.8,99.5,116.9z"/>
	<path class="st1" d="M130.6,102.6c-1.1,0-1.8,0.7-1.8,1.7c-0.1,1,0.6,1.8,1.6,1.9c1.5,0.1,3,0.1,4.4,0c1-0.1,1.7-1,1.5-1.9
		c-0.1-1-0.7-1.6-1.8-1.6c-0.6,0-1.3,0-1.9,0c0,0,0,0,0,0C132,102.6,131.3,102.6,130.6,102.6z"/>
	<path class="st1" d="M163.6,102.7c-1.3,0-2.6,0-3.8,0c-1.2,0-1.9,0.7-1.9,1.7c0,1,0.7,1.8,1.8,1.9c0.6,0.1,1.3,0,1.9,0c0,0,0,0,0,0
		c0.7,0,1.4,0.1,2.2,0c1.1-0.1,1.8-0.9,1.7-1.9C165.4,103.3,164.7,102.7,163.6,102.7z"/>
	<path class="st1" d="M105.3,123.8c0-1-0.5-1.7-1.5-1.8c-1.5-0.1-3-0.1-4.5,0c-1,0.1-1.5,0.8-1.5,1.9c0.1,1,0.7,1.6,1.7,1.7
		c0.7,0,1.4,0,2,0c0,0,0,0,0,0c0.7,0,1.4,0,2.2,0C104.7,125.5,105.2,124.8,105.3,123.8z"/>
	<path class="st1" d="M164,122c-1.5-0.1-3.1-0.1-4.6,0c-1,0.1-1.5,0.8-1.4,1.9c0.1,1,0.6,1.5,1.6,1.6c0.7,0.1,1.4,0,2.1,0
		c0,0,0,0,0,0c0.7,0,1.4,0,2,0c1-0.1,1.6-0.6,1.7-1.6C165.5,122.9,165,122.1,164,122z"/>
	<path class="st1" d="M90.2,95.7c0.7,0,1.4,0,2,0c0.7,0,1.4,0,2.1,0c1-0.1,1.6-0.7,1.7-1.7c0.1-1-0.6-1.8-1.6-1.9
		c-1.4-0.1-2.9-0.1-4.3,0c-1,0.1-1.7,0.9-1.6,1.9C88.6,95.1,89.2,95.7,90.2,95.7z"/>
	<path class="st1" d="M154.2,95.7c1-0.1,1.6-0.7,1.6-1.7c0-1-0.5-1.7-1.5-1.8c-1.5-0.1-2.9-0.1-4.4,0c-1,0.1-1.7,0.9-1.6,1.9
		c0.1,1,0.7,1.6,1.7,1.7c0.7,0,1.4,0,2,0c0,0,0,0,0,0C152.8,95.7,153.5,95.8,154.2,95.7z"/>
	<path class="st1" d="M122.4,122c-1.5-0.2-3.1-0.2-4.6,0c-1,0.1-1.5,0.9-1.4,1.9c0.1,1,0.6,1.5,1.6,1.6c0.7,0,1.4,0,2.1,0
		c0.7,0,1.4,0,2.1,0c1-0.1,1.5-0.7,1.6-1.6C124,122.9,123.4,122.1,122.4,122z"/>
	<path class="st1" d="M94.3,102.7c-0.6,0-1.3,0-1.9,0c-0.7,0-1.4,0-2.1,0c-1,0.1-1.6,0.6-1.7,1.7c-0.1,1,0.5,1.8,1.5,1.9
		c1.5,0.1,3,0.1,4.5,0c1-0.1,1.6-1,1.5-1.9C95.9,103.2,95.3,102.7,94.3,102.7z"/>
	<path class="st1" d="M138,115.2c0.1,1,0.7,1.6,1.7,1.6c0.7,0,1.4,0,2,0c0.7,0,1.4,0,2,0c1,0,1.6-0.6,1.7-1.6c0.1-1-0.6-1.9-1.5-1.9
		c-1.5-0.1-3-0.1-4.4,0C138.6,113.4,137.9,114.3,138,115.2z"/>
	<path class="st1" d="M160.2,115.2c0.1-1-0.5-1.8-1.5-1.9c-1.5-0.1-3.1-0.1-4.6,0c-1,0.1-1.5,0.9-1.4,1.9c0.1,1,0.7,1.5,1.6,1.6
		c0.7,0.1,1.4,0,2,0c0.7,0,1.4,0,2.2,0C159.5,116.8,160.1,116.2,160.2,115.2z"/>
</g>
</svg>
