<?xml version="1.0" encoding="utf-8"?>
<!-- Generator: Adobe Illustrator 19.1.0, SVG Export Plug-In . SVG Version: 6.00 Build 0)  -->
<svg version="1.1" id="Слой_1" xmlns="http://www.w3.org/2000/svg" xmlns:xlink="http://www.w3.org/1999/xlink" x="0px" y="0px"
	 viewBox="0 0 254.1 254.1" style="enable-background:new 0 0 254.1 254.1;" xml:space="preserve">
<style type="text/css">
	.st0{fill:#00129B;}
	.st1{fill:#92E8FF;}
	.st2{fill:#FFFFFF;}
</style>
<g>
	<g>
		<path class="st0" d="M0.1,131.3c0.5,14.5,3.4,28.5,8.4,41.4c0.7,1.7,1.3,3.4,2.1,5c1.7,4,3.7,7.9,5.8,11.7
			c0.8,1.5,1.7,2.9,2.6,4.3c2.1,3.5,4.4,6.8,6.9,10c1.3,1.7,2.6,3.4,4,5h6.6h29.3c2.9,0,5.2,2.3,5.2,5.2s-2.3,5.2-5.2,5.2H47.1h-7.4
			c1.8,1.7,3.7,3.4,5.6,5c4.5,3.8,9.3,7.3,14.3,10.5c2.8,1.8,5.7,3.4,8.7,5c17.6,9.2,37.6,14.4,58.8,14.4c39.4,0,74.6-18,98-46.2
			c1.3-1.6,2.7-3.3,3.9-5c9.2-12.3,16.1-26.2,20.4-41.4c0.5-1.7,0.9-3.3,1.3-5c1.6-6.6,2.6-13.4,3.1-20.4c0.1-1.7,0.2-3.3,0.3-5
			c0-1.3,0.1-2.7,0.1-4.1c0-2.1-0.1-4.3-0.2-6.4c-0.1-1.7-0.2-3.3-0.4-5h-5h-1.9h-11.4c-2.9,0-5.2-2.3-5.2-5.2s2.3-5.2,5.2-5.2h11.9
			h5.1c-0.3-1.7-0.6-3.3-1-5c-0.8-3.5-1.7-7-2.7-10.5c-0.5-1.7-1.1-3.3-1.7-5c-2.6-7.4-5.9-14.6-9.9-21.3c-1-1.7-2-3.4-3.1-5h-6
			h-60.9c-2.9,0-5.2-2.3-5.2-5.2s2.3-5.2,5.2-5.2h17.3h35.6h6.5c-1.4-1.7-2.8-3.4-4.2-5c-3.3-3.7-6.7-7.2-10.4-10.5
			c-1.9-1.7-3.9-3.4-5.9-5h-8.3h-13.3h-39.7h-0.3c-2.9,0-5.2-2.3-5.2-5.2s2.3-5.2,5.2-5.2h35.6h10.6c-3.1-1.8-6.3-3.5-9.5-5
			C164.7,4.3,146.3,0,127,0C89.1,0,55,16.7,31.7,43.2h-0.2c-1.5,1.6-3,3.3-4.5,5h0.5h4.2c0.7,0,1.3,0.1,1.9,0.4
			c1.9,0.8,3.3,2.6,3.3,4.9c0,2.9-2.3,5.2-5.2,5.2h-0.3H26h-6c-1.1,1.6-2.1,3.3-3,5c-2,3.4-3.8,6.9-5.4,10.5c-0.8,1.6-1.5,3.3-2.2,5
			h5.4h5h11.1c2.9,0,5.2,2.3,5.2,5.2s-2.3,5.2-5.2,5.2h-20H5.6c-0.5,1.7-1,3.3-1.4,5c-2.7,10.2-4.1,20.8-4.2,31.8c0,0.2,0,0.5,0,0.7
			C0,128.5,0,129.9,0.1,131.3z M5.1,131.3h77.6c2.9,0,5.2,2.3,5.2,5.2s-2.3,5.2-5.2,5.2h-0.3H42.7H31.2c-5.6,0-10.2,4.6-10.2,10.2
			c0,5.6,4.6,10.2,10.2,10.2h11.4H60c2.9,0,5.2,2.3,5.2,5.2s-2.3,5.2-5.2,5.2H13.9C8.7,159.9,5.6,145.9,5.1,131.3z M53.3,224.2h12.5
			c5.6,0,10.2-4.6,10.2-10.2s-4.6-10.2-10.2-10.2H32.2c-2.7-3.3-5.2-6.8-7.6-10.5h95.6c2.9,0,5.2,2.3,5.2,5.2s-2.3,5.2-5.2,5.2
			h-10.9c-5.6,0-10.2,4.6-10.2,10.2s4.6,10.2,10.2,10.2h10.1c2.9,0,5.2,2.3,5.2,5.2s-2.3,5.2-5.2,5.2H69.5
			C63.8,231.6,58.4,228.1,53.3,224.2z M222.6,202.8h-60.1c-2.9,0-5.2-2.3-5.2-5.2s2.3-5.2,5.2-5.2h3.8h16.1h21.9
			c5.6,0,10.2-4.6,10.2-10.2c0-5.6-4.6-10.2-10.2-10.2h-10.4h-0.9h-2c-2.9,0-5.2-2.3-5.2-5.2s2.3-5.2,5.2-5.2h53.1
			C239.6,176.7,232.3,190.7,222.6,202.8z M246.1,100.2h-10.9c-5.6,0-10.2,4.6-10.2,10.2c0,5.6,4.6,10.2,10.2,10.2h11.4h2.3
			c0.1,2.1,0.2,4.2,0.2,6.4c0,1.4,0,2.7-0.1,4.1H126.3c-2.9,0-5.2-2.3-5.2-5.2s2.3-5.2,5.2-5.2h0.3h39.7h11.4
			c5.6,0,10.2-4.6,10.2-10.2c0-5.6-4.6-10.2-10.2-10.2h-11.4h-17.3c-2.9,0-5.2-2.3-5.2-5.2s2.3-5.2,5.2-5.2h94.2
			C244.3,93.2,245.3,96.6,246.1,100.2z M9.4,94.5h21.5c5.6,0,10.2-4.6,10.2-10.2c0-5.5-4.3-9.9-9.7-10.2v0h-0.5H19.8h-2.7
			c1.7-3.6,3.6-7.1,5.7-10.5h8.6h0.3c5.6,0,10.2-4.6,10.2-10.2c0-3.7-2-6.9-4.9-8.7c0.5-0.5,0.9-1,1.4-1.5C60.7,19.7,92.2,5,127,5
			c14.4,0,28.1,2.5,40.9,7.1h-23.6c-5.6,0-10.2,4.6-10.2,10.2s4.6,10.2,10.2,10.2h0.3h39.7h19.8c4,3.2,7.7,6.7,11.3,10.5h-31.1
			h-17.3h-0.5v0c-5.4,0.3-9.7,4.7-9.7,10.2c0,5.6,4.6,10.2,10.2,10.2h64.1c4.1,6.7,7.6,13.8,10.4,21.3h-92.5
			c-5.6,0-10.2,4.6-10.2,10.2c0,5.5,4.3,9.9,9.7,10.2v0h0.5h17.3h11.4c2.9,0,5.2,2.3,5.2,5.2s-2.3,5.2-5.2,5.2h-11.4h-39.7h-0.3
			c-5.6,0-10.2,4.6-10.2,10.2s4.6,10.2,10.2,10.2h122.4c-0.5,7-1.6,13.8-3.3,20.4H191c-5.6,0-10.2,4.6-10.2,10.2s4.6,10.2,10.2,10.2
			h2h0.9h10.4c2.9,0,5.2,2.3,5.2,5.2s-2.3,5.2-5.2,5.2h-21.9h-16.1h-3.8c-5.6,0-10.2,4.6-10.2,10.2s4.6,10.2,10.2,10.2h55.9
			c-22.4,25.3-55,41.2-91.4,41.2c-16.7,0-32.6-3.4-47.1-9.4h39.3c5.6,0,10.2-4.6,10.2-10.2c0-5.5-4.3-9.9-9.7-10.2v0h-10.6
			c-2.9,0-5.2-2.3-5.2-5.2s2.3-5.2,5.2-5.2h11.2v0c5.5-0.1,10-4.7,10-10.2c0-5.6-4.6-10.2-10.2-10.2H21.5c-2-3.4-3.8-7-5.5-10.6H60
			c5.6,0,10.2-4.6,10.2-10.2c0-5.5-4.3-9.9-9.7-10.2v0H60H42.7H31.2c-2.9,0-5.2-2.3-5.2-5.2s2.3-5.2,5.2-5.2h11.4h39.7h0.3
			c5.6,0,10.2-4.6,10.2-10.2s-4.6-10.2-10.2-10.2H5C5.1,115.3,6.6,104.7,9.4,94.5z"/>
		<path class="st0" d="M111.1,41.7c6.4,0,11.7-5.2,11.7-11.7s-5.2-11.7-11.7-11.7S99.4,23.6,99.4,30S104.6,41.7,111.1,41.7z
			 M111.1,23.3c3.7,0,6.7,3,6.7,6.7c0,3.7-3,6.7-6.7,6.7s-6.7-3-6.7-6.7C104.4,26.3,107.4,23.3,111.1,23.3z"/>
		<path class="st0" d="M69.8,31.5c-6.4,0-11.7,5.2-11.7,11.7s5.2,11.7,11.7,11.7s11.7-5.2,11.7-11.7S76.2,31.5,69.8,31.5z
			 M69.8,49.9c-3.7,0-6.7-3-6.7-6.7s3-6.7,6.7-6.7s6.7,3,6.7,6.7S73.5,49.9,69.8,49.9z"/>
		<path class="st0" d="M152.7,237.3c6.4,0,11.7-5.2,11.7-11.7s-5.2-11.7-11.7-11.7s-11.7,5.2-11.7,11.7S146.3,237.3,152.7,237.3z
			 M152.7,219c3.7,0,6.7,3,6.7,6.7c0,3.7-3,6.7-6.7,6.7s-6.7-3-6.7-6.7C146,222,149,219,152.7,219z"/>
	</g>
	<g>
		<path class="st1" d="M162.6,202.8h60.1c9.6-12.1,17-26.1,21.5-41.4H191c-2.9,0-5.2,2.3-5.2,5.2s2.3,5.2,5.2,5.2h2h0.9h10.4
			c5.6,0,10.2,4.6,10.2,10.2c0,5.6-4.6,10.2-10.2,10.2h-21.9h-16.1h-3.8c-2.9,0-5.2,2.3-5.2,5.2S159.7,202.8,162.6,202.8z
			 M162.6,195.4h3.8h16.1h21.9c7.3,0,13.2-5.9,13.2-13.2c0-7.3-5.9-13.2-13.2-13.2h-10.4h-0.9h-2c-1.2,0-2.2-1-2.2-2.2
			c0-1.2,1-2.2,2.2-2.2h49c-4.2,12.8-10.6,24.6-18.9,35.4h-58.6c-1.2,0-2.2-1-2.2-2.2C160.3,196.4,161.3,195.4,162.6,195.4z"/>
		<path class="st1" d="M65.2,167.5c0-2.9-2.3-5.2-5.2-5.2H42.7H31.2c-5.6,0-10.2-4.6-10.2-10.2c0-5.6,4.6-10.2,10.2-10.2h11.4h39.7
			h0.3c2.9,0,5.2-2.3,5.2-5.2s-2.3-5.2-5.2-5.2H5.1c0.5,14.6,3.6,28.5,8.8,41.4H60C62.9,172.7,65.2,170.4,65.2,167.5z M8.2,134.3
			h74.5c1.2,0,2.2,1,2.2,2.2s-1,2.2-2.2,2.2h-0.3H42.7H31.2C24,138.8,18,144.7,18,152c0,7.3,5.9,13.2,13.2,13.2h11.4H60
			c1.2,0,2.2,1,2.2,2.2s-1,2.2-2.2,2.2H15.9C11.5,158.4,9,146.5,8.2,134.3z"/>
		<path class="st1" d="M109.2,203.7h10.9c2.9,0,5.2-2.3,5.2-5.2s-2.3-5.2-5.2-5.2H24.6c2.3,3.6,4.9,7.1,7.6,10.5h33.6
			c5.6,0,10.2,4.6,10.2,10.2s-4.6,10.2-10.2,10.2H53.3c5.1,3.9,10.5,7.4,16.2,10.5h49.8c2.9,0,5.2-2.3,5.2-5.2s-2.3-5.2-5.2-5.2
			h-10.1c-5.6,0-10.2-4.6-10.2-10.2S103.6,203.7,109.2,203.7z M96,214c0,7.3,5.9,13.2,13.2,13.2h10.1c1.2,0,2.2,1,2.2,2.2
			c0,1.2-1,2.2-2.2,2.2h-49c-2.5-1.4-5-2.9-7.5-4.5h3c7.3,0,13.2-5.9,13.2-13.2c0-7.3-5.9-13.2-13.2-13.2H33.6
			c-1.2-1.5-2.3-2.9-3.4-4.5h89.9c1.2,0,2.2,1,2.2,2.2c0,1.2-1,2.2-2.2,2.2h-10.9C101.9,200.7,96,206.7,96,214z"/>
		<path class="st1" d="M111.1,44.7c8.1,0,14.7-6.6,14.7-14.7c0-8.1-6.6-14.7-14.7-14.7S96.4,21.9,96.4,30
			C96.4,38.1,103,44.7,111.1,44.7z M111.1,18.3c6.4,0,11.7,5.2,11.7,11.7s-5.2,11.7-11.7,11.7S99.4,36.5,99.4,30
			S104.6,18.3,111.1,18.3z"/>
		<path class="st1" d="M111.1,36.7c3.7,0,6.7-3,6.7-6.7c0-3.7-3-6.7-6.7-6.7s-6.7,3-6.7,6.7C104.4,33.7,107.4,36.7,111.1,36.7z
			 M111.1,26.3c2,0,3.7,1.7,3.7,3.7c0,2-1.7,3.7-3.7,3.7s-3.7-1.7-3.7-3.7C107.4,28,109,26.3,111.1,26.3z"/>
		<path class="st1" d="M69.8,57.9c8.1,0,14.7-6.6,14.7-14.7s-6.6-14.7-14.7-14.7c-8.1,0-14.7,6.6-14.7,14.7S61.7,57.9,69.8,57.9z
			 M69.8,31.5c6.4,0,11.7,5.2,11.7,11.7s-5.2,11.7-11.7,11.7s-11.7-5.2-11.7-11.7S63.3,31.5,69.8,31.5z"/>
		<path class="st1" d="M152.7,232.3c3.7,0,6.7-3,6.7-6.7c0-3.7-3-6.7-6.7-6.7s-6.7,3-6.7,6.7C146,229.3,149,232.3,152.7,232.3z
			 M152.7,222c2,0,3.7,1.7,3.7,3.7c0,2-1.7,3.7-3.7,3.7s-3.7-1.7-3.7-3.7C149,223.6,150.7,222,152.7,222z"/>
	</g>
</g>
<path class="st2" d="M188.1,58H64.7c-5.2,0-9.5,4.3-9.5,9.5v123.4c0,5.2,4.3,9.5,9.5,9.5h123.4c5.2,0,9.5-4.3,9.5-9.5V67.5
	C197.6,62.3,193.3,58,188.1,58z"/>
<g>
	<path class="st0" d="M188.1,53H64.7c-8,0-14.5,6.5-14.5,14.5v123.4c0,8,6.5,14.5,14.5,14.5h123.4c8,0,14.5-6.5,14.5-14.5V67.5
		C202.6,59.5,196.1,53,188.1,53z M197.6,190.9c0,5.2-4.3,9.5-9.5,9.5H64.7c-5.2,0-9.5-4.3-9.5-9.5V67.5c0-5.2,4.3-9.5,9.5-9.5h123.4
		c5.2,0,9.5,4.3,9.5,9.5V190.9z"/>
</g>
<g>
	<g>
		<path class="st0" d="M128.3,193.9c-5.6,0-11.2-1-16.7-3.1c-2.9-1.1-5.4-2.6-7.4-4.6c-2.9-2.8-4.4-6.2-4.4-10c0-2.3,0-4.9,0-7.6
			c0-7.1,0-15.2,0-21.2c0.1-9,7-15.7,16-15.8c2,0,4.1,0,6.1,0c6.2,0,12.5-0.1,18.8,0.1c0.1,0,0.2,0,0.2,0c6.9,0,13-5.3,14-12.1
			c0.1-1,0.1-2,0.1-3.1l0-0.7c0-2.2,0-4.5,0-6.8l0-5.4h2.5c1.2,0,2.3,0,3.4,0c2.5,0,5.2-0.1,7.7,0.1c4.5,0.2,8.2,2.6,10.8,6.8
			c1.9,3.1,2.9,6.5,3.5,9.4c1.5,6.5,2.1,11.8,1.7,16.8c-0.5,6.2-2.3,12.2-5.4,17.9c-2.5,4.6-6.8,7.1-12.3,7.1c0,0,0,0-0.1,0
			c-8.9,0-17.8,0-26.6,0l-9.5,0v2.2h25.7l0.2,2.7c0,0.3,0,0.6,0,0.9c0,0.9,0,1.9,0,2.8c0,1.8,0,3.7,0,5.5c0.1,5-2,9.1-6.3,12.2
			c-3.7,2.7-8,3.9-12,4.9C135.2,193.5,131.7,193.9,128.3,193.9z M130.5,136.6c-2.9,0-5.8,0-8.6,0c-2.1,0-4.1,0-6.2,0
			c-6.3,0-10.9,4.6-11,10.8c-0.1,6,0,14,0,21.1c0,2.7,0,5.3,0,7.6c0,2.5,0.9,4.6,2.9,6.4c1.6,1.5,3.4,2.6,5.7,3.5
			c8,3,16.1,3.6,24.2,1.7c4.1-0.9,7.4-2,10.2-4c2.9-2.1,4.2-4.6,4.2-8c0-1.9,0-3.8,0-5.7c0-0.5,0-1,0-1.5h-25.9v-12.2l14.5,0
			c8.9,0,17.8,0,26.6,0c0,0,0,0,0,0c3.8,0,6.3-1.4,8-4.5c2.8-5,4.4-10.4,4.8-15.9c0.3-4.5-0.2-9.3-1.6-15.3
			c-0.6-2.6-1.4-5.4-2.9-7.9c-1.7-2.8-4-4.3-6.8-4.4c-2.4-0.1-4.8-0.1-7.4-0.1c-0.3,0-0.7,0-1,0l0,0.4c0,2.3,0,4.6,0,6.8l0,0.7
			c0,1.2,0,2.5-0.2,3.8c-1.3,9.2-9.6,16.4-19,16.4c-0.1,0-0.2,0-0.3,0C137.3,136.6,133.9,136.6,130.5,136.6z M143,185.3
			c-4.1,0-7.4-3.3-7.4-7.5c0-2,0.8-3.9,2.2-5.3c1.4-1.4,3.2-2.1,5.2-2.1l0,0h0c2,0,3.8,0.8,5.2,2.1c1.4,1.4,2.2,3.3,2.2,5.3
			C150.4,182,147,185.3,143,185.3C143,185.3,143,185.3,143,185.3z M143,175.4c-0.6,0-1.2,0.2-1.7,0.7c-0.5,0.5-0.7,1.1-0.7,1.8
			c0,1.4,1.1,2.5,2.4,2.5h0c1.3,0,2.4-1.1,2.4-2.5c0-0.7-0.3-1.3-0.7-1.8C144.2,175.7,143.6,175.4,143,175.4L143,175.4L143,175.4z"
			/>
	</g>
	<g>
		<path class="st0" d="M89.1,156.5c-1.8,0-3.7,0-5.6-0.2c-4.6-0.5-8.3-3.1-11.1-7.9c-1.8-3.1-2.6-6.5-3.3-9.8l-0.1-0.3
			c-1.9-8.5-1.5-17.3,1.2-26.3c2.5-8.3,9.5-13.5,18.4-13.5c8,0,16,0,24,0l9.2,0v-2.2H96.4l-0.5-2.2c-0.1-0.2-0.2-0.6-0.2-1.1
			c0-1.1,0-2.1,0-3.2c0-2.6,0-5.3,0.1-8c0.3-6.8,3.3-10.8,9.8-12.9c4.1-1.3,8.5-2,14.3-2.3c5.3-0.2,12.3-0.3,19.2,1.4
			c6.8,1.6,11.3,5.7,13.1,11.9c0.3,1.1,0.5,2.3,0.5,3.7c0,12.9,0,22.7,0,29.1c-0.1,7.7-5.4,14.1-13.1,15.4c-1,0.2-2,0.2-2.9,0.2
			c-4.1,0-8.1,0-12.2,0c-4.3,0-8.6,0-12.9,0c-7,0-12.7,4.8-14,11.6c-0.2,1-0.2,2-0.2,3.2c0,2.6,0,5.1,0,7.7l0,4.1l-0.9,0.7
			c-0.5,0.5-1.2,0.8-1.9,0.8c0,0,0,0,0,0c-1.1,0-2.2,0-3.3,0C90.7,156.5,89.9,156.5,89.1,156.5z M102.6,103.6c-4.7,0-9.3,0-14,0
			c-6.7,0-11.7,3.6-13.6,10c-2.5,8.1-2.8,16.1-1.1,23.7l0.1,0.3c0.7,3,1.3,5.9,2.8,8.4c1.9,3.3,4.3,5.1,7.3,5.4
			c2.4,0.2,4.8,0.2,7.4,0.2c0.4,0,0.7,0,1.1,0l0-0.6c0-2.5,0-5.1,0-7.7c0-1.3,0-2.7,0.3-4.1c1.7-9.2,9.5-15.7,18.9-15.7
			c4.3,0,8.6,0,12.9,0c4,0,8.1,0,12.1,0c0.8,0,1.5,0,2.2-0.1c5.3-0.9,8.9-5.1,9-10.5c0-6.4,0-16.2,0-29c0-0.8-0.1-1.6-0.3-2.3
			c-1.3-4.5-4.4-7.2-9.5-8.4c-6.3-1.5-12.9-1.4-17.9-1.2c-5.4,0.2-9.4,0.9-13,2c-4.5,1.4-6.2,3.6-6.4,8.3c-0.1,2.6-0.1,5.2-0.1,7.8
			c0,0.5,0,0.9,0,1.4h26v12.2l-14.2,0C109.3,103.6,106,103.6,102.6,103.6z M109.7,89.7C109.7,89.7,109.7,89.7,109.7,89.7
			c-4.1,0-7.4-3.4-7.4-7.5c0-4.2,3.3-7.4,7.4-7.4c0,0,0,0,0,0l0,0c4.1,0,7.4,3.4,7.3,7.5c0,2-0.8,3.9-2.2,5.3
			C113.5,88.9,111.6,89.7,109.7,89.7z M109.7,79.8c-1.3,0-2.4,1.1-2.4,2.4c0,1.4,1,2.5,2.4,2.5h0c0.6,0,1.2-0.2,1.6-0.7
			c0.5-0.5,0.7-1.1,0.7-1.8C112.1,80.9,111,79.8,109.7,79.8C109.7,79.8,109.7,79.8,109.7,79.8z"/>
	</g>
</g>
</svg>
