<?xml version="1.0" encoding="utf-8"?>
<!-- Generator: Adobe Illustrator 19.1.0, SVG Export Plug-In . SVG Version: 6.00 Build 0)  -->
<svg version="1.1" xmlns="http://www.w3.org/2000/svg" xmlns:xlink="http://www.w3.org/1999/xlink" x="0px" y="0px"
	 viewBox="0 0 254 254.1" style="enable-background:new 0 0 254 254.1;" xml:space="preserve">
<style type="text/css">
	.st0{stroke:#000000;stroke-width:3;stroke-linecap:round;stroke-linejoin:round;stroke-miterlimit:10;}
	.st1{opacity:0.58;fill:#FFFFFF;}
	.st2{fill:#FFFFFF;stroke:#1D1D1B;stroke-width:3;stroke-miterlimit:10;}
	.st3{stroke:#FFFFFF;stroke-width:3;stroke-miterlimit:10;}
	.st4{opacity:0.37;}
	.st5{fill:#FFFFFF;}
	.st6{fill:#545454;stroke:#000000;stroke-width:5;stroke-miterlimit:10;}
	.st7{fill:#FFFFFF;stroke:#000000;stroke-width:5;stroke-miterlimit:10;}
	.st8{opacity:0.35;fill:#FFFFFF;}
	.st9{opacity:0.5;fill:#FFFFFF;}
	.st10{fill:#545454;}
	.st11{opacity:0.58;}
	.st12{opacity:0.6;fill:#FFFFFF;}
	.st13{fill:#B5B5B5;}
	.st14{fill:#00129B;}
	.st15{fill:#92E8FF;}
	.st16{opacity:0.6;}
</style>
<g id="Слой_1">
	<path d="M174.1,84.5h-0.3h-54h-2.9c-5.6,0-10.2,4.6-10.2,10.2s4.6,10.2,10.2,10.2h57.2c5.6,0,10.2-4.6,10.2-10.2
		S179.7,84.5,174.1,84.5z M174.1,99.9h-57.2c-2.9,0-5.2-2.3-5.2-5.2s2.3-5.2,5.2-5.2h2.9h54h0.3c2.9,0,5.2,2.3,5.2,5.2
		S177,99.9,174.1,99.9z"/>
	<path class="st13" d="M174.1,81.5h-0.3h-54h-2.9c-7.3,0-13.2,5.9-13.2,13.2s5.9,13.2,13.2,13.2h57.2c7.3,0,13.2-5.9,13.2-13.2
		S181.4,81.5,174.1,81.5z M174.1,104.9h-57.2c-5.6,0-10.2-4.6-10.2-10.2s4.6-10.2,10.2-10.2h2.9h54h0.3c5.6,0,10.2,4.6,10.2,10.2
		S179.7,104.9,174.1,104.9z"/>
	<path class="st13" d="M174.1,89.5h-0.3h-54h-2.9c-2.9,0-5.2,2.3-5.2,5.2s2.3,5.2,5.2,5.2h57.2c2.9,0,5.2-2.3,5.2-5.2
		S177,89.5,174.1,89.5z M174.1,96.9h-57.2c-1.2,0-2.2-1-2.2-2.2s1-2.2,2.2-2.2h2.9h54h0.3c1.2,0,2.2,1,2.2,2.2
		S175.3,96.9,174.1,96.9z"/>
	<path class="st14" d="M204.4,129.3h2.9H249h5c0-0.7,0-1.5,0-2.2c0-0.9,0-1.8,0-2.8c0-1-0.1-2-0.1-3c-0.8-18.5-5.6-36-13.6-51.6
		c-0.5-1-1-2-1.6-3c-0.9-1.7-1.9-3.4-2.9-5H230H116.9c-2.9,0-5.2-2.3-5.2-5.2s2.3-5.2,5.2-5.2h3.8h58.1h21.9
		c5.6,0,10.2-4.6,10.2-10.2c0-1-0.2-2-0.4-2.9v0c-1.1-3.8-4.4-6.6-8.4-7.2c-0.5-0.1-0.9-0.1-1.4-0.1h-37.4h-0.9h-2
		c-2.9,0-5.2-2.3-5.2-5.2s2.3-5.2,5.2-5.2h25.8l0,0h9.7c-2.7-1.8-5.5-3.4-8.4-5c-1.9-1.1-3.9-2-5.9-3l0,0C165,4.4,146.5,0,127,0
		C94.3,0,64.5,12.4,41.9,32.8c-1.1,1-2.2,2-3.2,3c-1.7,1.6-3.3,3.3-4.9,5H34h6.7h32.9H74c2.9,0,5.2,2.3,5.2,5.2s-2.3,5.2-5.2,5.2
		H31.4h-6.3c-1.2,1.6-2.4,3.3-3.5,5c-0.7,1-1.3,2-2,3C15.3,66,11.7,73.2,8.7,80.7c-0.4,1-0.8,2-1.1,3c-0.6,1.7-1.2,3.3-1.7,5h5.3
		h38.6c2.9,0,5.2,2.3,5.2,5.2s-2.3,5.2-5.2,5.2h-2.9h-10H25.5c-5.6,0-10.2,4.6-10.2,10.2c0,5.6,4.6,10.2,10.2,10.2h21.9h35.5h3.8
		c2.9,0,5.2,2.3,5.2,5.2s-2.3,5.2-5.2,5.2H5H0c0,1.7,0.1,3.3,0.2,5c0.1,1,0.1,2,0.2,3c0.3,3.5,0.7,6.9,1.3,10.2c0.2,1,0.4,2,0.5,3
		c0.3,1.7,0.7,3.3,1.1,5c0.2,1,0.5,2,0.7,3c0.4,1.5,0.8,3,1.3,4.5c0.3,1,0.6,2,0.9,3c0.6,1.7,1.1,3.3,1.8,5c0.4,1,0.8,2,1.2,3
		c1.4,3.5,3,6.9,4.7,10.2c0.5,1,1.1,2,1.6,3c0.9,1.7,1.9,3.4,2.9,5c0.6,1,1.2,2,1.9,3c1,1.5,2,3,3,4.5c0.7,1,1.5,2,2.2,3
		c1.3,1.7,2.6,3.4,4,5c1.6,1.9,3.3,3.8,5,5.7c1.3,1.4,2.6,2.7,4,4.1c0.7,0.7,1.5,1.4,2.3,2.1c4.3,4,8.9,7.7,13.7,11c1.5,1,3,2,4.5,3
		c2.8,1.8,5.7,3.4,8.6,5c2,1.1,4,2.1,6,3c16.2,7.5,34.3,11.8,53.4,11.8c49.2,0,92-28.1,113-69.1c0.5-1,1-2,1.5-3
		c0.8-1.6,1.5-3.3,2.3-5h-5.5h-72.8c-2.9,0-5.2-2.3-5.2-5.2s2.3-5.2,5.2-5.2h2.9h74h5.3c0.5-1.7,1.1-3.3,1.5-5c0.3-1,0.5-2,0.8-3
		c0.9-3.5,1.7-7.1,2.3-10.8c0.2-1,0.3-2,0.5-3c0.2-1.7,0.4-3.3,0.6-5h-5h-44c-2.9,0-5.2-2.3-5.2-5.2S201.5,129.3,204.4,129.3z
		 M204.4,144.7h43.3c-0.1,1-0.3,2-0.5,3c-0.6,3.6-1.4,7.2-2.4,10.8c-0.3,1-0.5,2-0.8,3h-75.6h-2.9c-5.6,0-10.2,4.6-10.2,10.2
		s4.6,10.2,10.2,10.2H236c-0.5,1-1,2-1.6,3c-20.7,38.2-61,64.1-107.4,64.1c-14,0-27.5-2.4-40.1-6.8c-2.6-0.9-5.2-1.9-7.8-3
		c-3.5-1.5-7-3.2-10.3-5c-1.8-1-3.5-2-5.2-3c-7.6-4.7-14.7-10.1-21.1-16.3c-1-1-2.1-2-3.1-3.1c-2.5-2.6-4.9-5.3-7.2-8.1
		c-0.9-1.1-1.8-2.3-2.7-3.4c-1.1-1.5-2.2-3-3.2-4.5c-0.7-1-1.4-2-2-3c-1.1-1.6-2.1-3.3-3.1-5c-0.6-1-1.1-2-1.7-3
		c-1.8-3.3-3.4-6.7-4.9-10.2c-0.4-1-0.8-2-1.2-3c-0.7-1.6-1.3-3.3-1.8-5c-0.3-1-0.7-2-1-3c-0.5-1.5-0.9-3-1.3-4.5
		c-0.3-1-0.5-2-0.8-3c-0.4-1.7-0.8-3.3-1.1-5c-0.2-1-0.4-2-0.6-3c-0.6-3.4-1-6.8-1.4-10.2c-0.1-1-0.2-2-0.2-3h81.3
		c5.6,0,10.2-4.6,10.2-10.2s-4.6-10.2-10.2-10.2h-3.8H47.4H25.5c-2.9,0-5.2-2.3-5.2-5.2c0-2.9,2.3-5.2,5.2-5.2h11.4h10h2.9
		c5.6,0,10.2-4.6,10.2-10.2s-4.6-10.2-10.2-10.2H12.9c0.4-1,0.8-2,1.2-3c3.1-7.6,7-14.7,11.5-21.5c0.7-1,1.4-2,2.1-3H74
		c5.6,0,10.2-4.6,10.2-10.2S79.7,35.8,74,35.8h-0.3H46.1c1.1-1,2.3-2,3.5-3C70.7,15.4,97.6,5,127,5c14.6,0,28.6,2.6,41.6,7.3l0,0
		c2.5,0.9,5,1.9,7.4,3c1.7,0.8,3.4,1.6,5.1,2.4c-1.7-0.8-3.4-1.6-5.1-2.4h-15.8c-5.6,0-10.2,4.6-10.2,10.2s4.6,10.2,10.2,10.2h2h0.9
		h37.4c2.9,0,5.2,2.3,5.2,5.2s-2.3,5.2-5.2,5.2h-21.9h-58.1h-3.8c-5.6,0-10.2,4.6-10.2,10.2s4.6,10.2,10.2,10.2H233
		c0.6,1,1.1,2,1.7,3c8.3,15.5,13.3,33,14.2,51.6c0,1,0.1,2,0.1,3h-41.7h-2.9c-5.6,0-10.2,4.6-10.2,10.2S198.8,144.7,204.4,144.7z"/>
	<g>
		<path class="st14" d="M138.8,198.2c0-5.6-4.6-10.2-10.2-10.2H21.3c1,1.7,2,3.4,3.1,5h104.2c2.9,0,5.2,2.3,5.2,5.2
			s-2.3,5.2-5.2,5.2h-3.8h-16.1H86.8c-5.6,0-10.2,4.6-10.2,10.2c0,5.6,4.6,10.2,10.2,10.2h10.4h0.9h2c2.9,0,5.2,2.3,5.2,5.2
			s-2.3,5.2-5.2,5.2H68.9c3.4,1.8,6.8,3.5,10.3,5h21c5.6,0,10.2-4.6,10.2-10.2s-4.6-10.2-10.2-10.2h-2h-0.9H86.8
			c-2.9,0-5.2-2.3-5.2-5.2s2.3-5.2,5.2-5.2h21.9h16.1h3.8C134.2,208.4,138.8,203.8,138.8,198.2z"/>
		<path class="st14" d="M88.8,161.5c0-5.6-4.6-10.2-10.2-10.2h-0.3H38.6H7.4c0.3,1.7,0.7,3.3,1.1,5h30.1h39.7h0.3
			c2.9,0,5.2,2.3,5.2,5.2s-2.3,5.2-5.2,5.2h-67c0.6,1.7,1.2,3.4,1.8,5h65.1C84.2,171.7,88.8,167.1,88.8,161.5z"/>
		<path class="st14" d="M184.7,194c-6.4,0-11.7,5.2-11.7,11.7s5.2,11.7,11.7,11.7s11.7-5.2,11.7-11.7S191.1,194,184.7,194z
			 M184.7,212.3c-3.7,0-6.7-3-6.7-6.7s3-6.7,6.7-6.7s6.7,3,6.7,6.7S188.4,212.3,184.7,212.3z"/>
		<path class="st14" d="M145.5,215.3c-6.4,0-11.7,5.2-11.7,11.7s5.2,11.7,11.7,11.7s11.7-5.2,11.7-11.7S151.9,215.3,145.5,215.3z
			 M145.5,233.7c-3.7,0-6.7-3-6.7-6.7s3-6.7,6.7-6.7s6.7,3,6.7,6.7S149.2,233.7,145.5,233.7z"/>
		<path class="st14" d="M221.9,83c-6.4,0-11.7,5.2-11.7,11.7s5.2,11.7,11.7,11.7s11.7-5.2,11.7-11.7S228.3,83,221.9,83z
			 M221.9,101.4c-3.7,0-6.7-3-6.7-6.7s3-6.7,6.7-6.7s6.7,3,6.7,6.7S225.6,101.4,221.9,101.4z"/>
		<path class="st14" d="M120.6,35c6.4,0,11.7-5.2,11.7-11.7s-5.2-11.7-11.7-11.7S109,16.8,109,23.3S114.2,35,120.6,35z M120.6,16.6
			c3.7,0,6.7,3,6.7,6.7c0,1.3-0.4,2.5-1,3.5c-1.2,1.9-3.3,3.2-5.7,3.2c-0.3,0-0.6,0-0.8-0.1c-3.3-0.4-5.9-3.2-5.9-6.6
			C114,19.6,117,16.6,120.6,16.6z"/>
	</g>
	<g>
		<path class="st15" d="M128.6,193H24.3c0.7,1,1.3,2,2,3h102.2c1.2,0,2.2,1,2.2,2.2s-1,2.2-2.2,2.2h-3.8h-16.1H86.8
			c-7.3,0-13.2,5.9-13.2,13.2c0,7.3,5.9,13.2,13.2,13.2h10.4h0.9h2c1.2,0,2.2,1,2.2,2.2s-1,2.2-2.2,2.2H63.7c1.7,1,3.4,2,5.2,3h31.3
			c2.9,0,5.2-2.3,5.2-5.2s-2.3-5.2-5.2-5.2h-2h-0.9H86.8c-5.6,0-10.2-4.6-10.2-10.2c0-5.6,4.6-10.2,10.2-10.2h21.9h16.1h3.8
			c2.9,0,5.2-2.3,5.2-5.2S131.5,193,128.6,193z"/>
		<path class="st15" d="M160.3,30.8h2h0.9h37.4c0.5,0,1,0,1.4,0.1c4,0.6,7.2,3.4,8.4,7.2c0.3,0.9,0.4,1.9,0.4,2.9
			c0,5.6-4.6,10.2-10.2,10.2h-21.9h-58.1h-3.8c-2.9,0-5.2,2.3-5.2,5.2s2.3,5.2,5.2,5.2H230h5.9c-0.6-1-1.2-2-1.9-3h-6H116.9
			c-1.2,0-2.2-1-2.2-2.2s1-2.2,2.2-2.2h3.8h58.1h21.9c7.2,0,13-5.7,13.2-12.8c0-0.1,0-0.3,0-0.4c0-7.3-5.9-13.2-13.2-13.2h-2.7
			h-34.7h-0.9h-2c-1.2,0-2.2-1-2.2-2.2s1-2.2,2.2-2.2h30.9h9c-1.5-1-2.9-2-4.4-3h-9.7h-25.8c-2.9,0-5.2,2.3-5.2,5.2
			S157.4,30.8,160.3,30.8z"/>
		<path class="st15" d="M74,35.8c5.6,0,10.2,4.6,10.2,10.2S79.7,56.2,74,56.2H27.7c-0.7,1-1.4,2-2.1,3H74c7.3,0,13.2-5.9,13.2-13.2
			c0-7.3-5.9-13.2-13.2-13.2h-0.3H49.6c-1.2,1-2.4,2-3.5,3h27.6H74z"/>
		<path class="st15" d="M74,51.2c2.9,0,5.2-2.3,5.2-5.2s-2.3-5.2-5.2-5.2h-0.3H40.8H34h-0.2c-0.9,1-1.8,2-2.7,3H34h3.8h35.8H74
			c1.2,0,2.2,1,2.2,2.2c0,1.2-1,2.2-2.2,2.2H33.9h-6.5c-0.8,1-1.6,2-2.3,3h6.3H74z"/>
		<path class="st15" d="M204.4,132.3h2.9h41.6h5c0-1,0.1-2,0.1-3h-5h-41.7h-2.9c-2.9,0-5.2,2.3-5.2,5.2s2.3,5.2,5.2,5.2h44h5
			c0.1-1,0.2-2,0.3-3h-5h-44.2c-1.2,0-2.2-1-2.2-2.2C202.2,133.3,203.2,132.3,204.4,132.3z"/>
		<path class="st15" d="M91.8,161.5c0-7.3-5.9-13.2-13.2-13.2h-0.3H38.6H6.8c0.2,1,0.4,2,0.6,3h31.2h39.7h0.3
			c5.6,0,10.2,4.6,10.2,10.2s-4.6,10.2-10.2,10.2H13.4c0.4,1,0.8,2,1.2,3h63.9C85.9,174.7,91.8,168.8,91.8,161.5z"/>
		<path class="st15" d="M165.6,158.5c-7.3,0-13.2,5.9-13.2,13.2c0,7.3,5.9,13.2,13.2,13.2h68.8c0.5-1,1.1-2,1.6-3h-70.4
			c-5.6,0-10.2-4.6-10.2-10.2s4.6-10.2,10.2-10.2h2.9h75.6c0.3-1,0.6-2,0.8-3h-76.5H165.6z"/>
		<path class="st15" d="M86.6,130c2.9,0,5.2-2.3,5.2-5.2s-2.3-5.2-5.2-5.2h-3.8H47.4H25.5c-5.6,0-10.2-4.6-10.2-10.2
			c0-5.6,4.6-10.2,10.2-10.2h11.4h10h2.9c2.9,0,5.2-2.3,5.2-5.2s-2.3-5.2-5.2-5.2H11.1l0,0H5.9c-0.3,1-0.6,2-0.9,3h5.2l0,0h39.5
			c1.2,0,2.2,1,2.2,2.2c0,1.2-1,2.2-2.2,2.2h-2.9h-10H25.5c-7.3,0-13.2,5.9-13.2,13.2c0,7.3,5.9,13.2,13.2,13.2h21.9h35.5h3.8
			c1.2,0,2.2,1,2.2,2.2c0,1.2-1,2.2-2.2,2.2H5c0,0,0,0,0,0H0c0,1,0,2,0,3h5c0,0,0,0,0,0H86.6z"/>
		<path class="st15" d="M184.7,199c-3.7,0-6.7,3-6.7,6.7s3,6.7,6.7,6.7s6.7-3,6.7-6.7S188.4,199,184.7,199z M184.7,209.3
			c-2,0-3.7-1.7-3.7-3.7s1.7-3.7,3.7-3.7c2,0,3.7,1.7,3.7,3.7S186.7,209.3,184.7,209.3z"/>
		<path class="st15" d="M215.2,94.7c0,3.7,3,6.7,6.7,6.7s6.7-3,6.7-6.7s-3-6.7-6.7-6.7S215.2,91,215.2,94.7z M225.6,94.7
			c0,2-1.7,3.7-3.7,3.7c-2,0-3.7-1.7-3.7-3.7s1.7-3.7,3.7-3.7C223.9,91,225.6,92.7,225.6,94.7z"/>
		<path class="st15" d="M120.6,38c8.1,0,14.7-6.6,14.7-14.7s-6.6-14.7-14.7-14.7c-8.1,0-14.7,6.6-14.7,14.7S112.5,38,120.6,38z
			 M120.6,11.6c6.4,0,11.7,5.2,11.7,11.7S127.1,35,120.6,35S109,29.7,109,23.3S114.2,11.6,120.6,11.6z"/>
	</g>
	<g>
		<path class="st5" d="M189.4,57.1H66c-5.2,0-9.5,4.3-9.5,9.5V190c0,5.2,4.3,9.5,9.5,9.5h123.4c5.2,0,9.5-4.3,9.5-9.5V66.6
			C198.9,61.4,194.6,57.1,189.4,57.1z"/>
		<g>
			<path class="st14" d="M189.4,52.1H66c-8,0-14.5,6.5-14.5,14.5V190c0,8,6.5,14.5,14.5,14.5h123.4c8,0,14.5-6.5,14.5-14.5V66.6
				C203.9,58.6,197.4,52.1,189.4,52.1z M198.9,190c0,5.2-4.3,9.5-9.5,9.5H66c-5.2,0-9.5-4.3-9.5-9.5V66.6c0-5.2,4.3-9.5,9.5-9.5
				h123.4c5.2,0,9.5,4.3,9.5,9.5V190z"/>
		</g>
	</g>
	<g>
		<path class="st14" d="M169.5,87l0-7.2c0-2.8-1-3.8-3.8-3.8H84.6l-0.3,0c-0.3,0-0.5,0-0.8,0c-1.4,0.1-2.5,1.2-2.7,2.7
			c0,0.4,0,0.8,0,1.2l0,10.7c0,31.4,0,58.8,0,90.3c0,1.4,0.2,2.9,1.9,3.9l0.1,0.1h84.7l0.1-0.1c1.6-1,1.9-2.5,1.9-3.9
			C169.5,148.2,169.5,119.6,169.5,87z M163.7,178.3c0,0.5-0.1,0.6-0.1,0.6c0,0-0.2,0.1-0.6,0.1c0,0,0,0,0,0c-13.5,0-26.5,0-39.3,0
			c-12.3,0-24.3,0-36.3,0c0,0,0,0,0,0c-0.5,0-0.6-0.1-0.6-0.1c-0.1-0.1-0.1-0.2-0.1-0.7c0-35.6,0-61.8,0-95.6c0-0.5,0.1-0.6,0.1-0.7
			c0,0,0.2-0.1,0.6-0.1c0,0,0,0,0,0c26.5,0,51.2,0,75.5,0c0,0,0,0,0,0c0.4,0,0.6,0.1,0.6,0.1c0.1,0.1,0.1,0.5,0.1,0.7
			c0,14.4,0,23.8,0,38.2v18.4C163.6,153.6,163.6,163.9,163.7,178.3z"/>
		<path class="st14" d="M107.7,154.2c-3.2,0-6.4,0-9.6,0c-1.6,0-2.5,1-2.5,2.6c0,1.5,0,3,0,4.6s0,3,0,4.6c0,2,0.9,2.8,2.9,2.8
			c2.9,0,5.8,0,8.8,0c2.1,0,3-0.9,3-3c0.1-7.9,0.1-10.8,0.1-8.8C110.3,155.4,109.3,154.2,107.7,154.2z M103.1,163.9
			c-2.5,0-2.5,0-2.5-2.5c0-2.3,0-2.3,2.3-2.3c2.6,0,2.6,0,2.6,2.5C105.4,163.9,105.4,163.9,103.1,163.9z"/>
		<path class="st14" d="M107.5,120.1c-3.1,0-6.2,0-9.2,0c-1.7,0-2.6,0.9-2.6,2.6c0,3.2,0,6.3,0,9.5c0,1.6,0.9,2.5,2.6,2.5
			c1.6,0,3.1,0,4.7,0c1.5,0,3,0,4.4,0c2,0,2.9-0.9,2.9-2.9c0-2.9,0-5.8,0.1-8.8C110.3,121.2,109.3,120.1,107.5,120.1z M105.4,127.6
			c0,2.3,0,2.3-2.2,2.3c-2.6,0-2.6,0-2.6-2.6c0-2.3,0-2.3,2.3-2.3C105.4,125,105.4,125,105.4,127.6z"/>
		<path class="st14" d="M123.2,95.8c4.7,0,9.4,0,14.1,0c0,0,0,0,0,0c4.7,0,9.4,0,14,0c0.4,0,0.9,0,1.3-0.2c1-0.4,1.6-1.2,1.6-2.2
			c0-1.1-0.6-1.9-1.6-2.3c-0.5-0.2-1-0.2-1.5-0.2c-5.9,0-11.7,0-17.6,0c-3.6,0-7.2,0-10.7,0c-1.1,0-2,0.3-2.5,1.3
			c-0.4,0.8-0.4,1.7,0.1,2.5C121.3,95.6,122.2,95.8,123.2,95.8z"/>
		<path class="st14" d="M151.8,154.1c-4.1,0-8.1,0-12.2,0c-5.6,0-11.1,0-16.7,0c-1.8,0-2.9,1.3-2.6,3c0.2,1.2,1.2,1.9,2.6,1.9
			c4.8,0,9.6,0,14.4,0c4.7,0,9.4,0,14,0c0.5,0,1.1,0,1.6-0.2c1-0.5,1.6-1.6,1.4-2.6C154.1,154.9,153.1,154.1,151.8,154.1z"/>
		<path class="st14" d="M120.5,123.4c0.4,1.1,1.3,1.5,2.5,1.5c4.8,0,9.6,0,14.4,0c4.8,0,9.6,0,14.4,0c1.6,0,2.7-1,2.7-2.5
			c0-1.4-1.1-2.4-2.6-2.4c-9.6,0-19.2,0-28.8,0c-0.8,0-1.4,0.2-2,0.7C120.3,121.5,120.1,122.4,120.5,123.4z"/>
		<path class="st14" d="M114.2,87.4c-1.1-0.5-2.3-0.2-3.2,1c-2.7,3.4-5.4,6.8-8.1,10.2c-0.4,0.5-0.6,0.6-1.1,0
			c-0.6-0.7-1.2-1.4-1.8-2c-0.7-0.7-1.7-0.9-2.6-0.5c-1,0.4-1.5,1.2-1.5,2.4c0,0.5,0.3,1.1,0.7,1.6c1.3,1.5,2.6,3,3.9,4.5
			c1.2,1.3,2.8,1.3,3.9-0.1c0.9-1.1,1.7-2.1,2.6-3.2c2.6-3.3,5.3-6.6,7.9-9.9C116,89.8,115.7,88.1,114.2,87.4z"/>
		<path class="st14" d="M123,134.6c3.2,0,6.3,0,9.5,0c3.2,0,6.3,0,9.5,0c1.7,0,2.7-1,2.7-2.5c0-1.4-1-2.4-2.6-2.4
			c-6.4,0-12.8,0-19.1,0c-1.1,0-2,0.5-2.4,1.6C119.8,133,121,134.6,123,134.6z"/>
		<path class="st14" d="M141.9,105.5c1.7,0,2.7-1,2.7-2.4c0-1.5-1.1-2.4-2.7-2.4c-6.3,0-12.5,0-18.8,0c-1.8,0-2.8,0.9-2.8,2.4
			c0,1.5,1,2.4,2.8,2.4c3.1,0,6.2,0,9.3,0c0,0,0,0,0,0C135.6,105.5,138.8,105.5,141.9,105.5z"/>
		<path class="st14" d="M141.8,163.9c-3.1,0-6.2,0-9.3,0c-3.2,0-6.4,0-9.6,0c-1.5,0-2.4,0.8-2.6,2.1c-0.2,1.6,0.9,2.8,2.7,2.8
			c6.3,0,12.5,0,18.8,0c1.7,0,2.8-1,2.8-2.4C144.6,164.8,143.6,163.9,141.8,163.9z"/>
	</g>
	<g>
		<g>
			<path class="st5" d="M184.3,119.7c0.1,0,0.1,0,0.2,0c1.1,0,2.2-0.4,3.1-1.2c0.8-0.8,1.3-1.8,1.4-2.8c0.1-1.2-0.3-2.4-1.1-3.3
				c-1.2-1.3-2.5-2.6-3.9-3.9c-0.8-0.7-1.8-1.1-2.9-1.1c-1.2,0-2.4,0.5-3.2,1.4c-0.9,0.9-1.3,2.1-1.2,3.2c-2.7-2-5.7-3.5-8.9-4.6
				c3-0.8,5.3-3.4,5.7-6.6c0.5-3.9-1.9-7.5-5.8-8.6c0,0,0,0,0,0c-0.1,0-0.1-0.1-0.2-0.1c-0.3-0.1-0.6-0.2-1-0.2h-18.8
				c-0.4,0-0.8,0.1-1.2,0.3c-0.2,0.1-0.4,0.2-0.7,0.3c-0.7,0.3-1.5,0.6-2.3,1.2c-2.6,2-3.5,5.5-2.4,8.6c0.9,2.5,2.9,4.3,5.4,5
				c-3.2,1.1-6.2,2.6-8.9,4.6c0-1.2-0.4-2.4-1.3-3.3c-0.8-0.8-2-1.3-3.1-1.3c-1.1,0-2.1,0.4-2.9,1.2c-1.3,1.2-2.6,2.5-3.7,3.7
				c-1.7,1.8-1.6,4.5,0.2,6.2c0.8,0.8,1.9,1.2,3.1,1.2c0.1,0,0.1,0,0.2,0c-4.4,6.1-6.6,13.4-6.3,21c0.4,8.5,3.9,16.4,9.9,22.4
				c3.2,3.2,6.9,5.6,11.1,7.3c4,1.6,8.3,2.5,12.6,2.5c3.7,0,7.3-0.6,10.7-1.8c3.6-1.2,6.9-3,9.8-5.3c6.9-5.5,11.1-12.5,12.5-21
				C191.7,135.5,189.7,127.2,184.3,119.7z"/>
		</g>
		<g>
			<g>
				<g>
					<path class="st5" d="M157.1,102.8c-2.6,0-5.1,0-7.7,0c-0.3,0-0.6,0-0.9-0.1c-0.7-0.2-1.2-0.8-1.3-1.5c0-0.7,0.4-1.4,1.1-1.6
						c0.3-0.1,0.6-0.1,0.8-0.1c5.3,0,10.6,0,16,0c1.4,0,2.3,1.2,1.7,2.3c-0.3,0.7-1,1-1.7,1C162.4,102.8,159.8,102.8,157.1,102.8
						C157.1,102.8,157.1,102.8,157.1,102.8z"/>
				</g>
				<g>
					<path d="M153.5,103c-1.4,0-2.7,0-4.1,0c-0.3,0-0.6,0-1-0.1c-0.8-0.2-1.4-0.9-1.5-1.7c0-0.8,0.5-1.6,1.2-1.8
						c0.3-0.1,0.6-0.1,0.9-0.1c4.8,0,10.4,0,16,0c0.8,0,1.5,0.4,1.9,0.9c0.3,0.5,0.4,1.2,0.1,1.8c-0.4,0.7-1,1.1-2,1.1c0,0,0,0,0,0
						c-1.9,0-3.9,0-5.8,0l-4,0C154.7,103,154.1,103,153.5,103z M158.3,99.7c-3.2,0-6.4,0-9.2,0c-0.3,0-0.5,0-0.8,0.1
						c-0.5,0.2-0.9,0.7-0.9,1.3c0,0.6,0.5,1.2,1.1,1.3c0.3,0.1,0.6,0.1,0.9,0.1c2,0,3.9,0,5.9,0l4,0c1.9,0,3.9,0,5.8,0c0,0,0,0,0,0
						c0.8,0,1.2-0.3,1.5-0.8c0.2-0.4,0.2-0.9,0-1.3c-0.3-0.4-0.8-0.7-1.5-0.7C162.8,99.7,160.6,99.7,158.3,99.7z"/>
				</g>
			</g>
			<g>
				<g>
					<path class="st5" d="M155.5,106.1c1.1,0,2.1,0,3.2,0c0,1.1,0,2.2,0,3.3c-1.1,0-2.1,0-3.2,0
						C155.5,108.3,155.5,107.2,155.5,106.1z"/>
				</g>
				<g>
					<path d="M159,109.6h-3.7v-3.8h3.7V109.6z M155.8,109.1h2.7v-2.8h-2.7V109.1z"/>
				</g>
			</g>
			<g>
				<path class="st14" d="M180.3,119.4l1.6-1.6c0,0,0.1,0.1,0.1,0.1c0.9,0.7,2.3,0.6,3.1-0.2c0.9-0.9,1-2.3,0.2-3.2
					c-1.1-1.2-2.4-2.4-3.6-3.6c-0.9-0.8-2.4-0.7-3.2,0.2c-0.8,0.9-0.9,2.1-0.2,3.1c0,0,0,0,0,0.1l-1.6,1.6c-4-3.4-8.6-5.6-13.8-6.6
					v-2.4l0.3,0c0.8,0,1.5,0,2.3,0c2.9-0.1,5.2-2.2,5.5-5c0.4-2.8-1.4-5.4-4.2-6.2c-0.1,0-0.1,0-0.2-0.1l-0.1-0.1l-18.4,0l-0.2,0
					l-0.1,0.1c-0.2,0.1-0.5,0.2-0.7,0.3c-0.6,0.3-1.2,0.5-1.8,1c-1.8,1.4-2.5,3.9-1.7,6.2c0.8,2.2,2.8,3.7,5.3,3.8
					c0.8,0,1.5,0,2.3,0l0.3,0v2.4c-5.2,1-9.8,3.2-13.8,6.6l-1.6-1.7c0.8-1,0.7-2.3-0.2-3.2c-0.9-0.9-2.3-0.9-3.2-0.1
					c-1.2,1.2-2.4,2.3-3.5,3.5c-0.9,0.9-0.8,2.4,0.1,3.3c0.9,0.8,2.2,0.9,3.2,0.1c0,0,0,0,0,0l1.6,1.6c-5,5.9-7.5,13.3-7.2,20.9
					c0.3,7.7,3.5,14.9,9,20.2c5.3,5.2,12.2,8.3,19.6,8.8c0.6,0,1.2,0.1,1.8,0.1c6.7,0,13.3-2.3,18.6-6.4c6.3-4.9,10.1-11.3,11.3-19
					C188.5,134.8,186.2,126.6,180.3,119.4z M182.7,139c0,14-11.5,25.5-25.5,25.5h-0.1c-6.8,0-13.2-2.7-18-7.5
					c-4.9-4.8-7.5-11.3-7.5-18.1c0-14,11.4-25.5,25.5-25.6l0.1,0c6.7,0,13.1,2.6,17.9,7.4C180,125.7,182.7,132.2,182.7,139z
					 M158,106.9v1.8h-1.7v-1.8H158z M165.1,100.2c0.5,0,0.8,0.2,1,0.5c0.2,0.3,0.1,0.6,0,0.8c-0.2,0.3-0.4,0.5-1.1,0.5
					c-1.9,0-3.9,0-5.8,0l-4.9,0c-1.7,0-3.3,0-5,0c-0.3,0-0.5,0-0.8-0.1c-0.4-0.1-0.7-0.4-0.7-0.8c0-0.4,0.2-0.7,0.6-0.8
					c0.2-0.1,0.4-0.1,0.6-0.1c2.8,0,5.9,0,9.2,0C160.6,100.2,162.8,100.2,165.1,100.2z"/>
				<path class="st14" d="M166.6,145.8c-1.8-1.8-3.7-3.7-5.6-5.6c-0.3-0.3-0.4-0.6-0.4-1c0.1-1.1-0.3-2.1-1-2.8
					c-0.8-0.7-1.8-1.1-3-1c-0.1,0-0.4-0.1-0.5-0.2c-0.5-0.5-1-1-1.5-1.5c-0.3-0.3-0.6-0.6-1-1c-0.9-0.9-2-0.9-2.8-0.1
					c-0.8,0.8-0.7,1.9,0.1,2.8c0.3,0.3,0.6,0.6,0.9,0.9c0.5,0.4,0.9,0.9,1.4,1.4c0.2,0.2,0.3,0.4,0.4,0.7c0,0.1,0.1,0.2,0.2,0.3
					c-0.1,1.1,0.2,2.1,1,2.8c0.7,0.7,1.6,1,2.6,0.9c0.4-0.1,0.6,0,1,0.3c1.7,1.7,3.4,3.4,5.1,5.1c1.2,1.2,2.4,2.4,3.6,3.6
					c0.4,0.4,0.9,0.8,1.6,0.8c0.1,0,0.2,0,0.2,0c0.8-0.1,1.3-0.5,1.6-1.2c0.3-0.8,0.1-1.5-0.6-2.1
					C168.8,147.9,167.7,146.9,166.6,145.8z"/>
				<path class="st14" d="M142.3,137.1C142.3,137.1,142.3,137.1,142.3,137.1c-1,0-1.9,0.8-1.9,1.8c0,0.5,0.2,1,0.5,1.4
					c0.3,0.4,0.8,0.6,1.3,0.6c0,0,0,0,0,0c0.5,0,1-0.2,1.3-0.5c0.4-0.4,0.6-0.8,0.6-1.3c0-0.5-0.2-1-0.5-1.3
					C143.3,137.3,142.8,137.1,142.3,137.1z"/>
				<path class="st14" d="M171.9,137.1C171.9,137.1,171.9,137.1,171.9,137.1c-0.5,0-1,0.2-1.4,0.6c-0.4,0.4-0.6,0.8-0.6,1.3
					c0,1,0.8,1.8,1.8,1.9c0,0,0,0,0.1,0c0.5,0,1-0.2,1.3-0.5c0.4-0.3,0.6-0.8,0.6-1.3c0-0.5-0.2-1-0.5-1.4
					C172.9,137.3,172.5,137.1,171.9,137.1z"/>
				<path class="st14" d="M157.1,126.1C157.1,126.1,157.1,126.1,157.1,126.1c0.6,0,1-0.2,1.4-0.6c0.3-0.4,0.5-0.8,0.5-1.3
					c0-1-0.9-1.8-1.9-1.8c0,0,0,0,0,0c-0.5,0-1,0.2-1.3,0.6c-0.4,0.4-0.6,0.9-0.6,1.3c0,0.5,0.2,1,0.6,1.3
					C156.2,125.9,156.6,126.1,157.1,126.1z"/>
				<path class="st14" d="M157.1,151.9c-0.5,0-1,0.2-1.4,0.6c-0.3,0.4-0.5,0.8-0.5,1.3c0,1,0.9,1.8,1.9,1.8c0,0,0,0,0,0
					c0.5,0,1-0.2,1.3-0.6c0.4-0.4,0.6-0.8,0.6-1.3c0-0.5-0.2-1-0.6-1.3C158.1,152.1,157.6,151.9,157.1,151.9z"/>
			</g>
		</g>
	</g>
</g>
<g id="Слой_2">
</g>
</svg>
