<?xml version="1.0" encoding="utf-8"?>
<!-- Generator: Adobe Illustrator 19.1.0, SVG Export Plug-In . SVG Version: 6.00 Build 0)  -->
<svg version="1.1" xmlns="http://www.w3.org/2000/svg" xmlns:xlink="http://www.w3.org/1999/xlink" x="0px" y="0px"
	 viewBox="0 0 254.1 254.1" style="enable-background:new 0 0 254.1 254.1;" xml:space="preserve">
<style type="text/css">
	.st0{stroke:#000000;stroke-width:3;stroke-linecap:round;stroke-linejoin:round;stroke-miterlimit:10;}
	.st1{opacity:0.58;fill:#FFFFFF;}
	.st2{fill:#FFFFFF;stroke:#1D1D1B;stroke-width:3;stroke-miterlimit:10;}
	.st3{stroke:#FFFFFF;stroke-width:3;stroke-miterlimit:10;}
	.st4{opacity:0.37;}
	.st5{fill:#FFFFFF;}
	.st6{fill:#545454;stroke:#000000;stroke-width:5;stroke-miterlimit:10;}
	.st7{fill:#FFFFFF;stroke:#000000;stroke-width:5;stroke-miterlimit:10;}
	.st8{opacity:0.35;fill:#FFFFFF;}
	.st9{opacity:0.5;fill:#FFFFFF;}
	.st10{fill:#545454;}
	.st11{opacity:0.58;}
	.st12{opacity:0.6;fill:#FFFFFF;}
	.st13{fill:#B5B5B5;}
	.st14{fill:#00129B;}
	.st15{fill:#92E8FF;}
	.st16{opacity:0.6;}
</style>
<g id="Слой_1">
	<g>
		<g>
			<path class="st14" d="M254,124.3c0-1-0.1-2-0.1-3c-0.5-11.8-2.7-23.2-6.2-33.9c-0.3-1-0.7-2-1-3c-0.6-1.7-1.2-3.3-1.9-5
				c-0.4-1-0.8-2-1.3-3c-5.7-13.1-13.6-25-23.1-35.4c-0.9-1-1.9-2-2.9-3c-1.7-1.7-3.4-3.4-5.2-5c-1.1-1-2.3-2-3.4-3
				C186.8,11.3,158.2,0,127,0C97.1,0,69.6,10.4,47.9,27.8c-1.2,1-2.4,2-3.6,3c-1.9,1.6-3.7,3.3-5.5,5c-1,1-2,2-3,3
				c-1.4,1.5-2.8,2.9-4.1,4.5c-0.9,1-1.7,2-2.6,3c-1.3,1.6-2.7,3.3-3.9,5c-0.7,1-1.5,2-2.2,3C13.2,68.2,6.2,84.1,2.6,101.4
				c-0.2,1-0.4,2-0.6,3c-0.3,1.7-0.6,3.3-0.8,5c-0.1,1-0.3,2-0.4,3C0.3,117.2,0,122.1,0,127c0,7,0.6,14,1.7,20.7c0.2,1,0.3,2,0.5,3
				c0.3,1.7,0.7,3.3,1,5c0.2,1,0.5,2,0.7,3c1.8,6.9,4.1,13.6,7,20c0.5,1,0.9,2,1.4,3c0.8,1.7,1.7,3.4,2.5,5c0.5,1,1.1,2,1.7,3
				c0.9,1.5,1.8,3,2.7,4.5c0.7,1.2,1.5,2.3,2.2,3.4c2.2,3.3,4.6,6.5,7.1,9.6c0.9,1.1,1.7,2.1,2.6,3.1c4.6,5.3,9.7,10.2,15.1,14.7
				c1.2,1,2.5,2,3.8,3c2.3,1.7,4.6,3.4,7,5c1.6,1,3.1,2,4.8,3c16.7,10,35.9,16.3,56.4,17.7c2.2,0.2,4.5,0.2,6.7,0.3c0.7,0,1.3,0,2,0
				c1.4,0,2.8,0,4.2-0.1c2.2-0.1,4.5-0.2,6.7-0.4c26.6-2.3,50.9-12.8,70.4-29c1.2-1,2.3-2,3.5-3c1.8-1.6,3.6-3.3,5.3-5
				c1-1,1.9-2,2.9-3c1.4-1.5,2.7-2.9,4-4.5c0.8-1,1.7-2,2.5-3c1.3-1.6,2.6-3.3,3.8-5c0.7-1,1.4-2,2.1-3c10.1-14.9,17.1-32,20.1-50.5
				c0.2-1,0.3-2,0.5-3c0.2-1.7,0.4-3.3,0.6-5c0.1-1,0.2-2,0.3-3c0.1-1.5,0.2-3,0.3-4.5c0-1,0.1-2,0.1-3c0-0.7,0-1.5,0-2.2
				C254.1,126.1,254.1,125.2,254,124.3z M213.5,41C223.6,51.2,232,63.1,238,76.4c0.5,1,0.9,2,1.3,3H121c-2.9,0-5.2-2.3-5.2-5.2
				s2.3-5.2,5.2-5.2h3.8h58.1h21.9c5.6,0,10.2-4.6,10.2-10.2c0-5.6-4.6-10.2-10.2-10.2h-37.4h-0.9h-2c-2.9,0-5.2-2.3-5.2-5.2
				s2.3-5.2,5.2-5.2h45.9C211.5,39,212.5,40,213.5,41z M38.4,43.2c1.4-1.5,2.9-3,4.4-4.5c1.1-1,2.2-2,3.3-3h35.6h0.3
				c2.9,0,5.2,2.3,5.2,5.2s-2.3,5.2-5.2,5.2H35.7C36.6,45.2,37.5,44.2,38.4,43.2z M6.8,147.7C5.6,141,5,134.1,5,127
				c0-5,0.3-9.9,0.9-14.7c0.1-1,0.3-2,0.4-3h132.6c2.9,0,5.2,2.3,5.2,5.2c0,2.9-2.3,5.2-5.2,5.2h-17.3H27c-5.6,0-10.2,4.6-10.2,10.2
				c0,5.6,4.6,10.2,10.2,10.2h94.6h39.7h0.3c2.9,0,5.2,2.3,5.2,5.2s-2.3,5.2-5.2,5.2H7.3C7.1,149.7,6.9,148.7,6.8,147.7z
				 M54.5,225.1c-9.4-6.9-17.7-15.2-24.7-24.5c-0.5-0.7-1-1.3-1.5-2c-2.1-2.9-4-5.8-5.9-8.9c-0.6-1-1.2-2-1.7-3h97
				c2.9,0,5.2,2.3,5.2,5.2s-2.3,5.2-5.2,5.2h-3.8H97.7H75.9c-5.6,0-10.2,4.6-10.2,10.2c0,5.6,4.6,10.2,10.2,10.2h10.4h0.9h2
				c2.9,0,5.2,2.3,5.2,5.2s-2.3,5.2-5.2,5.2H58.7C57.3,227.1,55.8,226.1,54.5,225.1z M128,249.5c-0.8,0-1.5-0.1-2.2-0.4
				c-2.6-0.9-4.5-3.4-4.5-6.3c0-3.7,3-6.7,6.7-6.7s6.7,3,6.7,6.7c0,2.9-1.8,5.3-4.4,6.3C129.6,249.3,128.8,249.5,128,249.5z
				 M217.2,209.2c-1.4,1.5-2.8,3-4.3,4.5c-1,1-2.1,2-3.1,3h-48.1c-2.9,0-5.2-2.3-5.2-5.2s2.3-5.2,5.2-5.2h2.9h55.3
				C219,207.2,218.1,208.2,217.2,209.2z M247.3,147.7c-3.2,18.6-10.6,35.7-21.2,50.5c-0.7,1-1.5,2-2.2,3h-59.3h-2.9
				c-5.6,0-10.2,4.6-10.2,10.2s4.6,10.2,10.2,10.2H204c-1.3,1-2.5,2-3.8,3c-16.7,12.6-36.8,21-58.6,23.6c-1.2,0.1-2.3,0.3-3.5,0.4
				c1-1.7,1.6-3.7,1.6-5.8c0-6.4-5.2-11.7-11.7-11.7s-11.7,5.2-11.7,11.7c0,2.2,0.6,4.2,1.7,6c-1.2-0.1-2.4-0.2-3.5-0.3
				c-15-1.5-29.3-5.8-42.2-12.3c-1.9-1-3.8-2-5.6-3h22.5c5.6,0,10.2-4.6,10.2-10.2s-4.6-10.2-10.2-10.2h-2h-0.9H75.9
				c-2.9,0-5.2-2.3-5.2-5.2s2.3-5.2,5.2-5.2h21.9h16.1h3.8c5.6,0,10.2-4.6,10.2-10.2s-4.6-10.2-10.2-10.2H18c-0.5-1-1-2-1.5-3
				c-3-6.4-5.5-13.1-7.3-20c-0.3-1-0.5-2-0.8-3h153.2c5.6,0,10.2-4.6,10.2-10.2s-4.6-10.2-10.2-10.2h-0.3h-39.7H27
				c-2.9,0-5.2-2.3-5.2-5.2s2.3-5.2,5.2-5.2h94.6h17.3h0.5v0c5.4-0.3,9.7-4.7,9.7-10.2c0-5.6-4.6-10.2-10.2-10.2H7.1
				c0.2-1,0.4-2,0.6-3C11.5,84,18.9,68,29.2,54.2c0.8-1,1.5-2,2.3-3h50.6c5.6,0,10.2-4.6,10.2-10.2s-4.6-10.2-10.2-10.2h-0.3H52.1
				c1.3-1,2.7-2,4-3C76.1,13.4,100.6,5,127,5c27.8,0,53.4,9.3,73.9,25c1.3,1,2.5,2,3.8,3h-40.3c-5.6,0-10.2,4.6-10.2,10.2
				s4.6,10.2,10.2,10.2h2h0.9h37.4c2.9,0,5.2,2.3,5.2,5.2s-2.3,5.2-5.2,5.2h-21.9h-58.1H121c-5.6,0-10.2,4.6-10.2,10.2
				s4.6,10.2,10.2,10.2h120.4c0.4,1,0.7,2,1.1,3c3.7,10.7,5.9,22.1,6.5,33.9c0,1,0.1,2,0.1,3h-41.7h-2.9c-5.6,0-10.2,4.6-10.2,10.2
				s4.6,10.2,10.2,10.2h43.3C247.6,145.7,247.5,146.7,247.3,147.7z M249,132.3c-0.1,1.5-0.1,3-0.3,4.5c-0.1,1-0.2,2-0.3,3h-44
				c-2.9,0-5.2-2.3-5.2-5.2s2.3-5.2,5.2-5.2h2.9H249C249,130.3,249,131.3,249,132.3z"/>
			<path class="st14" d="M43.8,67.7c-6.4,0-11.7,5.2-11.7,11.7S37.4,91,43.8,91s11.7-5.2,11.7-11.7S50.3,67.7,43.8,67.7z M43.8,86
				c-3.7,0-6.7-3-6.7-6.7s3-6.7,6.7-6.7s6.7,3,6.7,6.7S47.5,86,43.8,86z"/>
			<path class="st14" d="M122.8,39.5c6.4,0,11.7-5.2,11.7-11.7s-5.2-11.7-11.7-11.7s-11.7,5.2-11.7,11.7S116.4,39.5,122.8,39.5z
				 M122.8,21.1c3.7,0,6.7,3,6.7,6.7s-3,6.7-6.7,6.7s-6.7-3-6.7-6.7S119.2,21.1,122.8,21.1z"/>
		</g>
		<g>
			<path class="st14" d="M122.8,39.5c6.4,0,11.7-5.2,11.7-11.7s-5.2-11.7-11.7-11.7s-11.7,5.2-11.7,11.7S116.4,39.5,122.8,39.5z
				 M122.8,21.1c3.7,0,6.7,3,6.7,6.7s-3,6.7-6.7,6.7s-6.7-3-6.7-6.7S119.2,21.1,122.8,21.1z"/>
			<path class="st14" d="M32.2,79.4c0,6.4,5.2,11.7,11.7,11.7s11.7-5.2,11.7-11.7s-5.2-11.7-11.7-11.7S32.2,72.9,32.2,79.4z
				 M50.5,79.4c0,3.7-3,6.7-6.7,6.7s-6.7-3-6.7-6.7s3-6.7,6.7-6.7S50.5,75.7,50.5,79.4z"/>
			<path class="st15" d="M125.8,249.1c0.7,0.2,1.4,0.4,2.2,0.4c0.8,0,1.6-0.2,2.3-0.4c-1.1,0-2.2,0-3.3,0
				C126.6,249.1,126.2,249.1,125.8,249.1z"/>
			<g>
				<path class="st15" d="M94.4,222.9c0-2.9-2.3-5.2-5.2-5.2h-2h-0.9H75.9c-5.6,0-10.2-4.6-10.2-10.2c0-5.6,4.6-10.2,10.2-10.2h21.9
					h16.1h3.8c2.9,0,5.2-2.3,5.2-5.2s-2.3-5.2-5.2-5.2h-97c0.6,1,1.1,2,1.7,3h95.2c1.2,0,2.2,1,2.2,2.2s-1,2.2-2.2,2.2h-3.8H97.7
					H75.9c-7.3,0-13.2,5.9-13.2,13.2c0,7.3,5.9,13.2,13.2,13.2h10.4h0.9h2c1.2,0,2.2,1,2.2,2.2s-1,2.2-2.2,2.2H54.5
					c1.4,1,2.8,2,4.2,3h30.5C92.1,228.1,94.4,225.7,94.4,222.9z"/>
				<path class="st15" d="M159.2,43.2c0,2.9,2.3,5.2,5.2,5.2h2h0.9h37.4c5.6,0,10.2,4.6,10.2,10.2c0,5.6-4.6,10.2-10.2,10.2h-21.9
					h-58.1H121c-2.9,0-5.2,2.3-5.2,5.2s2.3,5.2,5.2,5.2h118.4c-0.4-1-0.9-2-1.3-3H121c-1.2,0-2.2-1-2.2-2.2s1-2.2,2.2-2.2h3.8h58.1
					h21.9c7.3,0,13.2-5.9,13.2-13.2c0-7.3-5.9-13.2-13.2-13.2h-37.4h-0.9h-2c-1.2,0-2.2-1-2.2-2.2s1-2.2,2.2-2.2h49c-1-1-2-2-3.1-3
					h-45.9C161.6,38,159.2,40.3,159.2,43.2z"/>
				<path class="st15" d="M95.3,41c0-7.3-5.9-13.2-13.2-13.2h-0.3H56.1c-1.4,1-2.7,2-4,3h29.6h0.3c5.6,0,10.2,4.6,10.2,10.2
					s-4.6,10.2-10.2,10.2H31.5c-0.8,1-1.6,2-2.3,3h52.9C89.4,54.2,95.3,48.3,95.3,41z"/>
				<path class="st15" d="M194.2,134.5c0-5.6,4.6-10.2,10.2-10.2h2.9H249c0-1-0.1-2-0.1-3h-41.6h-2.9c-7.3,0-13.2,5.9-13.2,13.2
					c0,7.3,5.9,13.2,13.2,13.2h42.9c0.2-1,0.3-2,0.5-3h-43.3C198.8,144.7,194.2,140.1,194.2,134.5z"/>
				<path class="st15" d="M161.7,198.2c-7.3,0-13.2,5.9-13.2,13.2c0,7.3,5.9,13.2,13.2,13.2h38.5c1.3-1,2.6-2,3.8-3h-42.3
					c-5.6,0-10.2-4.6-10.2-10.2s4.6-10.2,10.2-10.2h2.9h59.3c0.8-1,1.5-2,2.2-3h-61.5H161.7z"/>
				<path class="st15" d="M166.8,145.5c0-2.9-2.3-5.2-5.2-5.2h-0.3h-39.7H27c-5.6,0-10.2-4.6-10.2-10.2c0-5.6,4.6-10.2,10.2-10.2
					h94.6h17.3c2.9,0,5.2-2.3,5.2-5.2c0-2.9-2.3-5.2-5.2-5.2H6.3c-0.1,1-0.3,2-0.4,3h133c1.2,0,2.2,1,2.2,2.2c0,1.2-1,2.2-2.2,2.2
					h-17.3H27c-7.3,0-13.2,5.9-13.2,13.2c0,7.3,5.9,13.2,13.2,13.2h94.6h39.7h0.3c1.2,0,2.2,1,2.2,2.2c0,1.2-1,2.2-2.2,2.2H6.8
					c0.2,1,0.4,2,0.6,3h154.3C164.5,150.7,166.8,148.4,166.8,145.5z"/>
				<path class="st15" d="M128,228.1c-8.1,0-14.7,6.6-14.7,14.7c0,2,0.4,3.9,1.1,5.7c1.2,0.1,2.3,0.2,3.5,0.3c-1-1.8-1.7-3.8-1.7-6
					c0-6.4,5.2-11.7,11.7-11.7s11.7,5.2,11.7,11.7c0,2.1-0.6,4.1-1.6,5.8c1.2-0.1,2.3-0.2,3.5-0.4c0.7-1.7,1.1-3.5,1.1-5.4
					C142.7,234.7,136.1,228.1,128,228.1z"/>
				<path class="st15" d="M29.2,79.4c0,8.1,6.6,14.7,14.7,14.7c8.1,0,14.7-6.6,14.7-14.7s-6.6-14.7-14.7-14.7
					C35.7,64.7,29.2,71.3,29.2,79.4z M55.5,79.4c0,6.4-5.2,11.7-11.7,11.7s-11.7-5.2-11.7-11.7s5.2-11.7,11.7-11.7
					S55.5,72.9,55.5,79.4z"/>
				<path class="st15" d="M37.2,79.4c0,3.7,3,6.7,6.7,6.7s6.7-3,6.7-6.7s-3-6.7-6.7-6.7S37.2,75.7,37.2,79.4z M47.5,79.4
					c0,2-1.7,3.7-3.7,3.7c-2,0-3.7-1.7-3.7-3.7s1.7-3.7,3.7-3.7C45.9,75.7,47.5,77.3,47.5,79.4z"/>
				<path class="st14" d="M207.7,160.4c-6.4,0-11.7,5.2-11.7,11.7s5.2,11.7,11.7,11.7s11.7-5.2,11.7-11.7S214.2,160.4,207.7,160.4z
					 M207.7,178.7c-3.7,0-6.7-3-6.7-6.7s3-6.7,6.7-6.7s6.7,3,6.7,6.7S211.4,178.7,207.7,178.7z"/>
				<path class="st14" d="M196,172c0,6.4,5.2,11.7,11.7,11.7s11.7-5.2,11.7-11.7s-5.2-11.7-11.7-11.7S196,165.6,196,172z M214.4,172
					c0,3.7-3,6.7-6.7,6.7s-6.7-3-6.7-6.7s3-6.7,6.7-6.7S214.4,168.4,214.4,172z"/>
				<path class="st15" d="M193,172c0,8.1,6.6,14.7,14.7,14.7c8.1,0,14.7-6.6,14.7-14.7s-6.6-14.7-14.7-14.7
					C199.6,157.4,193,164,193,172z M219.4,172c0,6.4-5.2,11.7-11.7,11.7S196,178.5,196,172s5.2-11.7,11.7-11.7
					S219.4,165.6,219.4,172z"/>
				<path class="st15" d="M201,172c0,3.7,3,6.7,6.7,6.7s6.7-3,6.7-6.7s-3-6.7-6.7-6.7S201,168.4,201,172z M211.4,172
					c0,2-1.7,3.7-3.7,3.7c-2,0-3.7-1.7-3.7-3.7s1.7-3.7,3.7-3.7C209.7,168.4,211.4,170,211.4,172z"/>
				<path class="st15" d="M122.8,34.5c3.7,0,6.7-3,6.7-6.7s-3-6.7-6.7-6.7s-6.7,3-6.7,6.7S119.2,34.5,122.8,34.5z M122.8,24.1
					c2,0,3.7,1.7,3.7,3.7s-1.7,3.7-3.7,3.7c-2,0-3.7-1.7-3.7-3.7S120.8,24.1,122.8,24.1z"/>
			</g>
		</g>
	</g>
	<g>
		<path class="st5" d="M188.2,57H64.8c-5.2,0-9.5,4.3-9.5,9.5v123.4c0,5.2,4.3,9.5,9.5,9.5h123.4c5.2,0,9.5-4.3,9.5-9.5V66.5
			C197.7,61.2,193.5,57,188.2,57z"/>
		<g>
			<path class="st14" d="M188.2,52H64.8c-8,0-14.5,6.5-14.5,14.5v123.4c0,8,6.5,14.5,14.5,14.5h123.4c8,0,14.5-6.5,14.5-14.5V66.5
				C202.7,58.5,196.2,52,188.2,52z M197.7,189.9c0,5.2-4.3,9.5-9.5,9.5H64.8c-5.2,0-9.5-4.3-9.5-9.5V66.5c0-5.2,4.3-9.5,9.5-9.5
				h123.4c5.2,0,9.5,4.3,9.5,9.5V189.9z"/>
		</g>
	</g>
	<g>
		<g>
			<path class="st14" d="M74,159.4c0-17.5,0-35,0-52.6c0.1-0.1,0.1-0.2,0.2-0.3c1.4-6.1,5.6-9.4,11.8-9.4c13.7,0,27.4,0,41,0
				c0.9,0,1.1-0.2,1.1-1.1c0.4-11.5,8.3-21.7,19.4-24.9c1.7-0.5,3.4-0.7,5-1c1.7,0,3.4,0,5.1,0c0.7,0.3,1.4,0.3,2.1,0.4
				c14.9,2.6,24.8,16.8,22,31.7c-2.2,11.5-11.7,20.4-23.5,21.8c-0.5,0.1-0.8,0.1-0.8,0.8c0,6.3,0,12.7,0,19c0,0.6,0.2,0.7,0.7,0.7
				c1.8,0,3.5,0,5.3,0c0.6,0,0.8-0.2,0.8-0.8c0-1.2,0-2.4,0-3.6c0-1.5,0.9-2.4,2.4-2.4c3.1,0,6.1-0.1,9.2,0c3.4,0.1,6.4,2.9,6.4,6.4
				c0.1,6.3,0.1,12.5,0,18.8c0,3.2-2.8,6.1-5.9,6.3c-3.3,0.2-6.7,0.1-10,0c-1.2,0-1.9-0.9-2-2c0-0.6,0-1.1,0-1.7
				c0-0.5-0.1-0.7-0.7-0.8c-0.8,0-1.4,0.2-2,0.8c-3.5,3.6-7.1,7.1-10.6,10.6c-1.4,1.4-3.1,2.2-5.1,2.2c-12.6,0-25.2,0-37.8,0
				c-4.3,0-7.4-3.7-6.7-8c0.2-0.8,0-1.1-0.9-1.1c-5.1,0-10.1,0-15.2,0c-4.9,0-9.2-3.2-10.6-7.8C74.4,160.7,74.2,160.1,74,159.4z
				 M78.5,133.1c0,8.1,0,16.3,0,24.4c0,3.7,2.2,6.4,5.7,7.1c0.8,0.1,1.5,0,2.3,0c12.5,0,24.9,0,37.4,0c0.7,0,1.1-0.2,1.3-0.9
				c0.3-1.2,1.1-2,2.1-2.6c1.9-1.1,3.8-2.3,5.7-3.3c1.3-0.7,1.9-1.6,2.1-3c0.8-6.3,5.5-10.3,11.8-10.3c1.7,0,3.4,0,5.2,0
				c0.6,0,0.7-0.2,0.7-0.7c0-6.3,0-12.6,0-18.9c0-0.6-0.2-0.8-0.8-0.9c-3-0.3-5.9-1.1-8.6-2.5c-7.9-4-12.8-10.3-14.8-18.9
				c-0.1-0.6-0.3-0.9-1.1-0.9c-7,0-14,0-21,0c-0.9,0-1.1,0.3-1.1,1.2c0,4.9,0,9.8,0,14.7c0,3.8-3,6.7-6.8,6.7c-1.3,0-2.7,0-4,0
				c-4.4,0-7.2-2.8-7.2-7.2c0-4.8,0-9.6,0-14.4c0-0.4,0.2-0.9-0.6-1c-5.8-0.5-8.5,3.3-8.5,7.6C78.6,117.2,78.5,125.2,78.5,133.1z
				 M177.6,97.1c0-12.3-10.2-22.5-22.5-22.5c-12.4,0-22.5,10.1-22.6,22.5c-0.1,12.3,10.1,22.6,22.4,22.6
				C167.4,119.7,177.6,109.6,177.6,97.1z M117.5,169.2C117.5,169.2,117.5,169.2,117.5,169.2c-3,0-6,0-9,0c-0.4,0-0.8,0-1.2,0.1
				c-1.1,0.2-1.8,1.1-1.7,2.2c0,1,0.7,1.9,1.8,2.1c0.3,0.1,0.7,0.1,1,0.1c12.3,0,24.6,0,36.9,0c1,0,1.8-0.3,2.5-1
				c3.4-3.5,6.9-6.8,10.3-10.3c1.4-1.5,2.9-2.5,5-2.1c0.8,0.1,0.9-0.2,0.9-1c0-3.1,0-6.1,0-9.2c0-0.9-0.2-1.2-1.2-1.2
				c-5.5,0-11,0-16.5,0c-2.9,0-5,1.4-6.2,4.1c-0.7,1.4-0.9,3-0.9,4.5c0,1.3-0.6,2.1-1.6,2.7c-2.5,1.4-5,2.9-7.4,4.4
				c-0.3,0.2-1,0.3-0.2,0.8c1.7,1.1,3.5,1.7,5.5,1.4c2.4-0.3,4.3-1.5,6-3.1c0.6-0.6,1-0.5,1.5,0.1c0.6,0.7,1.3,1.3,1.9,1.9
				c0.4,0.4,0.4,0.6,0,1c-3.8,3.9-10.5,6.6-16.8,2.8c-0.5-0.3-0.9-0.4-1.5-0.4C123.6,169.2,120.5,169.2,117.5,169.2z M177.6,153.5
				c0-2.9,0-5.8,0-8.7c0-1.7-0.9-2.6-2.5-2.6c-1.9,0-3.8,0-5.7,0c-0.7,0-0.8,0.2-0.8,0.9c0,7,0,13.9,0,20.9c0,0.7,0.3,0.9,0.9,0.8
				c1.8,0,3.6,0,5.4,0c1.9,0,2.7-0.8,2.8-2.8C177.6,159.1,177.6,156.3,177.6,153.5z M101,109.9C101,109.9,101,109.9,101,109.9
				c0-2.5,0-5,0-7.5c0-0.7-0.2-0.8-0.8-0.8c-2.5,0-4.9,0-7.4,0c-0.7,0-0.8,0.3-0.8,0.9c0,4.9,0,9.8,0,14.7c0,1.6,0.9,2.5,2.5,2.5
				c1.3,0,2.7,0,4,0c1.7,0,2.5-0.9,2.5-2.6C101.1,114.7,101,112.3,101,109.9z"/>
			<path class="st14" d="M124.1,178.5c-5.4,0-10.8,0-16.2,0c-2.1,0-4.1-0.9-5.4-2.5c-1.3-1.6-1.8-3.7-1.5-5.8c0-0.2,0.1-0.5,0-0.6
				c-0.1-0.1-0.3-0.1-0.6-0.1c-4.8,0-9.8,0-15.2,0c-5,0-9.4-3.2-10.9-8c-0.1-0.4-0.3-0.9-0.4-1.3c-0.1-0.2-0.1-0.4-0.2-0.6l0-0.1
				v-52.6l0-0.1c0,0,0-0.1,0.1-0.1s0.1-0.1,0.1-0.1c1.4-6.2,5.7-9.6,12-9.6c0,0,0,0,0,0c4.5,0,9,0,13.5,0c9.2,0,18.4,0,27.6,0
				c0,0,0,0,0,0c0.7,0,0.8-0.1,0.8-0.9c0.4-11.6,8.4-21.9,19.6-25.1c1-0.3,2.1-0.5,3.1-0.7c0.6-0.1,1.3-0.2,1.9-0.4l5.2,0l0.1,0
				c0.4,0.2,0.8,0.2,1.3,0.3c0.2,0,0.5,0,0.7,0.1c7.2,1.2,13.5,5.3,17.7,11.3c4.2,6.1,5.8,13.4,4.4,20.7
				c-2.2,11.6-11.9,20.6-23.7,22c-0.5,0.1-0.6,0.1-0.6,0.5c0,6.1,0,12.4,0,19c0,0.2,0,0.3,0.1,0.4c0.1,0.1,0.2,0.1,0.4,0.1
				c2,0,3.7,0,5.3,0c0.2,0,0.4,0,0.4-0.1c0.1-0.1,0.1-0.2,0.1-0.5c0-1.2,0-2.4,0-3.6c0-1.7,1-2.6,2.6-2.6l1.2,0c2.6,0,5.3,0,8,0
				c3.6,0.1,6.6,3.1,6.7,6.6c0.1,6.1,0.1,12.4,0,18.8c0,3.4-2.8,6.4-6.1,6.5c-2.8,0.1-5.7,0.1-8.5,0.1l-1.5,0
				c-1.3,0-2.2-0.9-2.3-2.3c0-0.6,0-1.1,0-1.7c0-0.2,0-0.3-0.1-0.4c-0.1-0.1-0.2-0.1-0.4-0.1c-0.8,0-1.3,0.2-1.8,0.7
				c-2.3,2.3-4.6,4.6-6.9,6.9c-1.2,1.2-2.5,2.4-3.7,3.7c-1.5,1.5-3.2,2.2-5.3,2.2c0,0,0,0,0,0c-4.6,0-9.3,0-13.9,0
				C129.2,178.5,126.7,178.5,124.1,178.5z M100.4,168.9c0.4,0,0.7,0,1,0.3c0.2,0.2,0.2,0.6,0.1,1.1c-0.4,1.9,0.1,3.9,1.4,5.4
				c1.2,1.5,3.1,2.3,5.1,2.3c8,0,15.9,0,23.9,0c4.6,0,9.3,0,13.9,0c0,0,0,0,0,0c1.9,0,3.5-0.7,4.9-2.1c1.2-1.2,2.5-2.5,3.7-3.7
				c2.3-2.3,4.6-4.6,6.9-6.9c0.6-0.7,1.3-0.9,2.2-0.9c0.4,0,0.6,0.1,0.7,0.3c0.2,0.2,0.2,0.5,0.2,0.8c0,0.6,0,1.1,0,1.7
				c0.1,1.1,0.8,1.8,1.8,1.8l1.5,0c2.8,0,5.6,0.1,8.5-0.1c3-0.1,5.6-3,5.7-6c0.1-6.4,0.1-12.7,0-18.8c0-3.2-2.9-6-6.2-6.1
				c-2.7-0.1-5.4,0-8,0l-1.2,0c-1.3,0-2.1,0.8-2.1,2.1c0,1.2,0,2.4,0,3.6c0,0.3,0,0.6-0.2,0.8c-0.2,0.2-0.6,0.2-0.8,0.2
				c-1.6,0-3.3,0-5.3,0c-0.3,0-0.6,0-0.8-0.2c-0.2-0.2-0.2-0.5-0.2-0.7c0-6.5,0-12.9,0-19c0-0.9,0.6-1,1.1-1
				c11.6-1.3,21.1-10.2,23.2-21.6c1.3-7.1-0.2-14.3-4.3-20.3c-4.1-5.9-10.3-9.9-17.4-11.1c-0.2,0-0.4-0.1-0.7-0.1
				c-0.5,0-1-0.1-1.4-0.3h-5c-0.6,0.1-1.2,0.3-1.9,0.4c-1,0.2-2.1,0.4-3.1,0.7c-11,3.2-18.9,13.3-19.2,24.7c0,1-0.4,1.3-1.3,1.3
				c0,0,0,0,0,0c-9.2,0-18.4,0-27.6,0c-4.5,0-9,0-13.5,0c0,0,0,0,0,0c-6.1,0-10.2,3.3-11.5,9.2c0,0.1-0.1,0.2-0.1,0.3l0,0v52.5
				c0.1,0.2,0.1,0.4,0.2,0.6c0.1,0.4,0.2,0.9,0.4,1.3c1.4,4.6,5.6,7.6,10.4,7.7C90.6,168.9,95.5,168.9,100.4,168.9
				C100.4,168.9,100.4,168.9,100.4,168.9z M145.4,173.9C145.4,173.9,145.4,173.9,145.4,173.9c-8,0-16,0-24,0l-12.9,0
				c-0.4,0-0.8,0-1.1-0.1c-1.1-0.3-1.9-1.2-1.9-2.3c0-1.2,0.7-2.2,1.9-2.5c0.4-0.1,0.8-0.1,1.2-0.1c2.3,0,4.5,0,6.8,0l4.5,0
				c2.3,0,4.6,0,6.9,0c0,0,0,0,0,0c0.6,0,1.1,0.1,1.6,0.4c6,3.7,12.6,1.3,16.5-2.7c0.1-0.1,0.2-0.2,0.2-0.3c0-0.1-0.1-0.2-0.2-0.3
				c-0.7-0.6-1.3-1.3-2-2c-0.2-0.3-0.4-0.4-0.5-0.4c-0.1,0-0.3,0.1-0.6,0.3c-2,1.9-4,2.9-6.1,3.2c-1.9,0.2-3.7-0.2-5.7-1.5
				c-0.2-0.1-0.5-0.3-0.5-0.6c0-0.3,0.3-0.4,0.5-0.5c0.1,0,0.1-0.1,0.2-0.1l1.1-0.6c2.1-1.3,4.2-2.6,6.4-3.8
				c1.1-0.6,1.5-1.4,1.5-2.5c0-1.8,0.3-3.3,0.9-4.6c1.3-2.8,3.5-4.2,6.5-4.2c2.6,0,5.2,0,7.8,0c2.9,0,5.7,0,8.6,0
				c0.4,0,0.8,0,1.1,0.3c0.3,0.3,0.3,0.7,0.3,1.1c-0.1,3.2,0,6.4,0,9.2c0,0.4,0,0.8-0.3,1c-0.2,0.2-0.5,0.2-0.9,0.2
				c-2.2-0.4-3.6,0.8-4.8,2c-2.1,2.2-4.3,4.4-6.4,6.5c-1.3,1.3-2.6,2.5-3.8,3.8C147.3,173.6,146.5,173.9,145.4,173.9z M113.1,169.4
				c-1.5,0-3.1,0-4.6,0c-0.3,0-0.7,0-1.1,0.1c-1,0.2-1.6,1-1.5,2c0,0.9,0.6,1.6,1.6,1.9c0.3,0.1,0.6,0.1,1,0.1l12.9,0c8,0,16,0,24,0
				c0,0,0,0,0,0c1,0,1.7-0.3,2.4-1c1.3-1.3,2.5-2.6,3.8-3.8c2.1-2.1,4.3-4.3,6.4-6.5c1.3-1.4,2.9-2.6,5.3-2.2c0.2,0,0.4,0,0.5,0
				c0.1-0.1,0.2-0.3,0.1-0.7c0-2.8-0.1-6,0-9.2c0-0.4,0-0.6-0.2-0.8c-0.1-0.1-0.4-0.2-0.8-0.2c-2.9,0-5.8,0-8.6,0
				c-2.6,0-5.2,0-7.8,0c-2.8,0-4.8,1.3-6,3.9c-0.6,1.3-0.9,2.7-0.9,4.4c0,1.3-0.5,2.2-1.8,2.9c-2.1,1.2-4.3,2.5-6.3,3.8l-1.1,0.7
				c-0.1,0-0.1,0.1-0.2,0.1c-0.1,0-0.2,0.1-0.2,0.1c0,0,0.1,0.1,0.2,0.2c1.8,1.2,3.6,1.6,5.3,1.4c2.1-0.3,3.9-1.2,5.8-3.1
				c0.4-0.3,0.6-0.5,1-0.5c0.4,0,0.7,0.3,0.9,0.6c0.6,0.6,1.2,1.2,1.9,1.9c0.2,0.2,0.4,0.4,0.4,0.7c0,0.3-0.2,0.5-0.3,0.7
				c-4,4.2-10.9,6.6-17.1,2.8c-0.4-0.2-0.8-0.4-1.3-0.4c0,0,0,0,0,0c-2.3,0-4.6,0-6.9,0l-4.5,0C114.6,169.4,113.9,169.4,113.1,169.4
				z M169.4,165c-0.3,0-0.6,0-0.8-0.2c-0.2-0.2-0.3-0.4-0.3-0.9c0-6.1,0-12.7,0-20.9c0-0.3,0-0.6,0.3-0.9c0.2-0.2,0.4-0.2,0.8-0.2
				c1,0,2.1,0,3.1,0c0.9,0,1.7,0,2.6,0c1.8,0,2.8,1,2.8,2.8c0,2,0,4.1,0,6.1l0,2.6l0,2.2c0,2.1,0,4.1,0,6.2c0,2.1-1,3-3,3
				c-0.6,0-1.2,0-1.7,0C171.9,164.9,170.7,164.9,169.4,165C169.5,165,169.4,165,169.4,165z M169.3,142.4c-0.2,0-0.3,0-0.4,0.1
				c-0.1,0.1-0.1,0.2-0.1,0.5c0,8.1,0,14.8,0,20.9c0,0.3,0,0.4,0.1,0.5c0.1,0.1,0.2,0.1,0.5,0.1c1.2,0,2.5,0,3.6,0
				c0.6,0,1.1,0,1.7,0c1.8,0,2.5-0.7,2.5-2.5c0-2.1,0-4.1,0-6.2l0-2.2l0-2.6c0-2,0-4.1,0-6.1c0-1.5-0.8-2.3-2.3-2.3
				c-0.9,0-1.7,0-2.6,0C171.5,142.4,170.4,142.4,169.3,142.4C169.4,142.4,169.4,142.4,169.3,142.4z M84.9,164.9
				c-0.3,0-0.5,0-0.8-0.1c-3.6-0.7-5.9-3.5-5.9-7.3c0-5.7,0-11.5,0-17.2l0-7.2c0-2.4,0-4.7,0-7.1c0-5.5,0-11.2,0-16.8
				c0-2.4,0.8-4.5,2.3-5.9c1.6-1.5,3.8-2.1,6.5-1.9c0.3,0,0.5,0.1,0.7,0.3c0.2,0.2,0.2,0.5,0.1,0.7c0,0.1,0,0.1,0,0.2
				c0,2.9,0,5.8,0,8.7l0,5.7c0,4.2,2.7,7,6.9,7l0.6,0c1.1,0,2.3,0,3.4,0c3.7,0,6.5-2.8,6.5-6.5c0-4.2,0-8.7,0-14.7
				c0-0.5,0-0.9,0.3-1.1c0.2-0.2,0.5-0.3,1-0.3c0,0,0,0,0,0c6.7,0,13.6,0,21,0c0,0,0,0,0,0c0.9,0,1.1,0.4,1.3,1.1
				c1.9,8.5,6.8,14.9,14.6,18.7c2.7,1.3,5.5,2.2,8.5,2.5c0.6,0.1,1.1,0.3,1.1,1.1c0,5.8,0,11.9,0,18.9c0,0.2,0,0.5-0.2,0.7
				c-0.2,0.2-0.5,0.2-0.7,0.2c-1.4,0-2.8,0-4.1,0l-1,0c-6.3,0-10.8,3.9-11.6,10.1c-0.2,1.6-0.8,2.5-2.2,3.2
				c-1.3,0.7-2.6,1.4-3.8,2.2c-0.7,0.4-1.3,0.8-2,1.2c-1.1,0.6-1.8,1.5-2,2.5c-0.2,0.9-0.8,1.1-1.5,1.1c0,0,0,0,0,0
				c-7.4,0-14.7,0-22.1,0c-5.1,0-10.2,0-15.3,0c0,0,0,0,0,0c-0.3,0-0.5,0-0.8,0C85.5,164.9,85.2,164.9,84.9,164.9z M86,101.8
				c-2.1,0-3.8,0.6-5.1,1.8c-1.4,1.3-2.2,3.3-2.1,5.6c0.1,5.6,0.1,11.3,0,16.8c0,2.4,0,4.7,0,7.1l0,7.2c0,5.7,0,11.5,0,17.2
				c0,3.6,2.1,6.2,5.4,6.8c0.5,0.1,1,0.1,1.5,0c0.3,0,0.5,0,0.8,0c0,0,0,0,0,0c5.1,0,10.2,0,15.3,0c7.4,0,14.7,0,22.1,0c0,0,0,0,0,0
				c0.6,0,0.9-0.1,1-0.8c0.3-1.1,1-2.1,2.3-2.8c0.7-0.4,1.3-0.8,1.9-1.2c1.2-0.7,2.5-1.5,3.8-2.2c1.2-0.6,1.7-1.4,1.9-2.8
				c0.9-6.4,5.5-10.5,12.1-10.5l1,0c1.4,0,2.8,0,4.1,0c0.2,0,0.3,0,0.4-0.1c0.1-0.1,0.1-0.2,0.1-0.4c0-6.9,0-13.1,0-18.9
				c0-0.5-0.1-0.6-0.6-0.6c-3-0.3-5.9-1.2-8.6-2.5c-7.9-4-13-10.4-14.9-19.1c-0.1-0.6-0.3-0.7-0.8-0.7c0,0,0,0,0,0
				c-7.4,0-14.3,0-21,0c-0.3,0-0.6,0-0.7,0.2c-0.1,0.1-0.2,0.3-0.2,0.8c0,5.9,0,10.5,0,14.7c0,3.9-3.1,6.9-7,7c-1.1,0-2.3,0-3.4,0
				l-0.6,0c-4.5,0-7.4-2.9-7.4-7.5l0-5.7c0-2.9,0-5.8,0-8.7c0-0.1,0-0.2,0-0.2c0-0.2,0-0.3,0-0.4c0-0.1-0.2-0.1-0.3-0.1
				C86.6,101.8,86.3,101.8,86,101.8z M96.4,119.9c-0.7,0-1.3,0-1.9,0c-1.7,0-2.7-1.1-2.7-2.8c0-2.4,0-4.9,0-7.3c0-2.4,0-4.9,0-7.3
				c0-0.3,0-0.6,0.3-0.9c0.2-0.2,0.4-0.2,0.8-0.2c2.4,0,4.8,0,7.4,0c0.3,0,0.6,0,0.8,0.2c0.2,0.2,0.2,0.6,0.2,0.8c0,1.8,0,3.7,0,5.4
				l0,4.2c0,1.7,0,3.4,0,5c0,1.8-1,2.8-2.8,2.8C97.8,119.9,97.1,119.9,96.4,119.9z M92.8,101.9c-0.2,0-0.4,0-0.4,0.1
				c-0.1,0.1-0.1,0.2-0.1,0.5c0,2.4,0,4.9,0,7.3c0,2.4,0,4.9,0,7.3c0,1.5,0.8,2.2,2.2,2.3c1.2,0,2.5,0,4,0c1.5,0,2.3-0.8,2.3-2.3
				c0-1.7,0-3.4,0-5l0-4.2c0-1.8,0-3.6,0-5.5c0-0.3,0-0.4-0.1-0.5c-0.1-0.1-0.2-0.1-0.5-0.1C97.7,101.9,95.2,101.9,92.8,101.9
				C92.8,101.9,92.8,101.9,92.8,101.9z M155,119.9C155,119.9,155,119.9,155,119.9c-6.1,0-11.8-2.4-16.1-6.8
				c-4.3-4.4-6.7-10.1-6.6-16.1c0.1-12.5,10.3-22.7,22.8-22.7c0,0,0,0,0,0c6.1,0,11.8,2.4,16.1,6.8c4.3,4.3,6.7,10,6.7,16
				C177.8,109.7,167.6,119.9,155,119.9z M155.1,74.9c-12.2,0-22.2,10-22.3,22.2c0,5.9,2.3,11.5,6.5,15.7c4.2,4.2,9.8,6.6,15.7,6.6
				c0,0,0,0,0.1,0c12.3,0,22.3-10,22.4-22.3l0,0c0-5.9-2.3-11.4-6.5-15.6C166.6,77.2,161,74.9,155.1,74.9
				C155.1,74.9,155.1,74.9,155.1,74.9z"/>
		</g>
		<g>
			<path class="st14" d="M96.4,142.2c-2.7,0-5.3,0-8,0c-0.7,0-0.9-0.2-0.9-0.9c0.1-1,0-2,0-3c0-0.5,0.2-0.7,0.7-0.7
				c5.6,0,11.1,0,16.7,0c0.5,0,0.7,0.2,0.7,0.7c0,1,0,2,0,3c0,0.7-0.2,0.9-0.9,0.9C101.9,142.1,99.2,142.2,96.4,142.2z"/>
			<path class="st14" d="M88.3,142.4c-0.3,0-0.6,0-0.8-0.3c-0.2-0.2-0.2-0.6-0.2-0.9c0.1-1.1,0-2.1,0-2.9c0-0.2,0-0.5,0.2-0.7
				c0.2-0.2,0.5-0.2,0.7-0.2c0,0,0,0,0,0c5.5,0,11.1,0,16.7,0c0.2,0,0.5,0,0.7,0.2c0.2,0.2,0.2,0.5,0.2,0.7c0,0.9,0,1.9,0,2.9
				c0,0.4,0,0.7-0.2,0.9c-0.2,0.2-0.6,0.3-0.9,0.3c-2,0-4.1,0-6.1,0l-2.2,0l-2.2,0C92.3,142.4,90.3,142.4,88.3,142.4
				C88.4,142.4,88.4,142.4,88.3,142.4z M88.2,137.9c-0.2,0-0.3,0-0.4,0.1c0,0-0.1,0.1-0.1,0.3c0,0.8,0,1.9,0,3c0,0.3,0,0.4,0.1,0.5
				c0.1,0.1,0.2,0.1,0.5,0.1c1.9,0,3.9,0,5.8,0l2.2,0l2.2,0c2,0,4,0,6.1,0c0.3,0,0.5,0,0.5-0.1c0.1-0.1,0.1-0.2,0.1-0.5
				c-0.1-1,0-2,0-3c0-0.2,0-0.3-0.1-0.3c0,0-0.2-0.1-0.3-0.1c0,0,0,0,0,0C99.3,137.9,93.7,137.9,88.2,137.9
				C88.2,137.9,88.2,137.9,88.2,137.9z"/>
		</g>
		<g>
			<path class="st14" d="M87.5,130.9c0-2.2,0-2.2,2.3-2.2c2.2,0,2.2,0,2.2,2.3c0,2.3,0,2.3-2.2,2.3
				C87.5,133.2,87.5,133.2,87.5,130.9z"/>
			<path class="st14" d="M90,133.4c-0.1,0-0.1,0-0.2,0c-2.4,0-2.5-0.1-2.5-2.6l0,0c0-2.4,0.1-2.5,2.5-2.5c0,0,0,0,0,0
				c2.3,0,2.5,0.1,2.5,2.5c0,1.2,0,1.8-0.4,2.2C91.6,133.4,91,133.4,90,133.4z M87.8,130.9c0,2.1,0,2.1,2,2.1c1,0,1.6,0,1.8-0.2
				c0.2-0.2,0.2-0.8,0.2-1.8c0-2,0-2-2-2C87.8,128.9,87.8,128.9,87.8,130.9L87.8,130.9z"/>
		</g>
		<g>
			<path class="st14" d="M101,131c0,2.2,0,2.2-2.3,2.2c-2.2,0-2.2,0-2.2-2.3c0-2.3,0-2.3,2.2-2.3C101,128.6,101,128.6,101,131z"/>
			<path class="st14" d="M99.2,133.4c-0.1,0-0.2,0-0.4,0c-2.4,0-2.5-0.1-2.5-2.5c0-2.4,0.1-2.5,2.5-2.5c0,0,0,0,0.1,0
				c2.3,0,2.4,0.1,2.4,2.6l0,0c0,1.2,0,1.8-0.3,2.1C100.6,133.4,100.1,133.4,99.2,133.4z M99,128.9c-0.1,0-0.1,0-0.2,0c-2,0-2,0-2,2
				c0,2,0,2,2,2c1,0,1.6,0,1.8-0.2c0.2-0.2,0.2-0.8,0.2-1.8l0,0C100.8,129,100.8,128.9,99,128.9z"/>
		</g>
		<g>
			<path class="st14" d="M154.7,99.4c-1.3,0-2.5,0-3.8,0c-2.9,0-4.8-1.9-4.8-4.8c0-1.3,0-2.7,0-4c0.1-2.9,1.9-4.7,4.8-4.7
				c2,0,2,0,2-2c0-2.5,0-2.5,2.5-2.5c2,0,2,0,2,2c0,0.8-0.3,1.8,0.1,2.4c0.5,0.6,1.5,0.2,2.3,0.2c2.4,0.1,4.2,2,4.3,4.5
				c0.1,2.3,0.1,2.3-2.2,2.3c-0.2,0-0.4,0-0.6,0c-1.6,0-1.7,0-1.7-1.6c0-0.5-0.2-0.7-0.7-0.7c-2.5,0-5.1,0-7.6,0
				c-0.6,0-0.7,0.2-0.7,0.7c0,1,0,2,0,3c0,0.7,0.2,0.8,0.9,0.8c2.5,0,5,0,7.5,0c3.3,0,5.2,1.8,5.2,5.1c0,1.2,0,2.5,0,3.7
				c-0.1,2.8-1.9,4.6-4.7,4.7c-2,0-2,0-2,2.1c0,2.5,0,2.5-2.5,2.5c-2.1,0-2.1,0-2.1-2c0-2.4,0-2.4-2.4-2.5c-2.5-0.1-4.3-2-4.3-4.6
				c0-2.7-0.4-2.1,2.1-2.2c0.2,0,0.4,0,0.6,0c1.6,0,1.7,0,1.8,1.7c0,0.4,0.2,0.6,0.6,0.6c2.6,0,5.1,0,7.7,0c0.5,0,0.7-0.2,0.7-0.7
				c0-1.1,0-2.1,0-3.2c0-0.5-0.2-0.7-0.7-0.7C157.5,99.4,156.1,99.4,154.7,99.4C154.7,99.4,154.7,99.4,154.7,99.4z"/>
			<path class="st14" d="M154.8,113.2c-2.2,0-2.3-0.1-2.3-2.3c0-2.2,0-2.2-2.2-2.3c-2.6-0.1-4.5-2.1-4.6-4.8c0-0.4,0-0.6,0-0.9
				c0-0.8,0-1.1,0.2-1.4c0.2-0.2,0.5-0.2,1.1-0.2c0.3,0,0.6,0,1.1,0c0.1,0,0.3,0,0.4,0l0.2,0c1.8,0,1.9,0.1,2,1.9
				c0,0.4,0.1,0.4,0.4,0.4c3,0,5.4,0,7.7,0c0,0,0,0,0,0c0.2,0,0.3,0,0.3-0.1c0,0,0.1-0.2,0.1-0.3c0-1.1,0-2.1,0-3.2
				c0-0.2,0-0.3-0.1-0.3c-0.1-0.1-0.2-0.1-0.4-0.1c-1,0-2,0-3,0l-1.4,0l-0.9,0c-0.9,0-1.7,0-2.6,0c-3,0-5-2-5.1-5c0-1.2,0-2.6,0-4
				c0.1-3,2-4.9,5-5c1.7,0,1.7,0,1.7-1.8c0-2.7,0.1-2.8,2.8-2.8c2.1,0,2.3,0.1,2.3,2.2c0,0.3,0,0.6-0.1,0.8
				c-0.1,0.6-0.1,1.1,0.1,1.4c0.3,0.3,0.8,0.2,1.3,0.2c0.3,0,0.6-0.1,0.9-0.1c2.6,0.2,4.4,2.1,4.5,4.7c0,1.2,0.1,1.8-0.3,2.2
				c-0.3,0.4-0.9,0.4-2.1,0.4l-0.6,0c0,0-0.1,0-0.1,0c-1.7,0-1.8-0.1-1.9-1.8c0-0.4-0.1-0.4-0.4-0.4c-2.7,0-5.2,0-7.6,0
				c-0.2,0-0.3,0-0.4,0.1c-0.1,0.1-0.1,0.2-0.1,0.4c0,0.8,0,1.9,0,3c0,0.2,0,0.4,0.1,0.5c0.1,0.1,0.3,0.1,0.5,0.1c1.8,0,3.6,0,5.5,0
				l2,0c0,0,0,0,0,0c3.5,0,5.4,1.9,5.4,5.4l0,0.9c0,0.9,0,1.9,0,2.8c-0.1,3-2,4.9-5,4.9c-1.8,0-1.8,0-1.8,1.8
				C157.6,113.1,157.5,113.2,154.8,113.2C154.9,113.2,154.8,113.2,154.8,113.2z M146.7,101.9c-0.2,0-0.4,0-0.4,0
				c-0.1,0.1-0.1,0.5,0,1c0,0.3,0,0.6,0,0.9c0,2.4,1.7,4.2,4.1,4.3c2.6,0.1,2.7,0.2,2.7,2.8c0,1.8,0,1.8,1.8,1.8
				c2.2,0,2.2,0,2.2-2.2c0-2.2,0.1-2.3,2.3-2.3c2.7,0,4.4-1.7,4.5-4.4c0-0.9,0-1.8,0-2.8l0-0.9c0-3.2-1.7-4.9-4.9-4.9c0,0,0,0,0,0
				l-2,0c-1.8,0-3.6,0-5.5,0c-0.3,0-0.7,0-0.9-0.3c-0.2-0.2-0.2-0.4-0.2-0.8c0.1-1.1,0-2.1,0-2.9c0-0.2,0-0.5,0.2-0.8
				c0.2-0.2,0.5-0.2,0.8-0.2c2.4,0,4.9,0,7.6,0c0,0,0,0,0,0c0.8,0,0.9,0.4,0.9,0.9c0.1,1.4,0.1,1.4,1.5,1.4l0.6,0c1,0,1.6,0,1.8-0.2
				c0.2-0.2,0.2-0.8,0.1-1.8c-0.1-2.4-1.8-4.1-4.1-4.3c-0.2,0-0.5,0-0.8,0c-0.6,0.1-1.3,0.2-1.7-0.3c-0.4-0.5-0.3-1.1-0.3-1.8
				c0-0.3,0.1-0.5,0.1-0.7c0-1.7,0-1.7-1.8-1.7c-2.3,0-2.3,0-2.3,2.3c0,2.1-0.1,2.2-2.2,2.3c-2.8,0-4.5,1.7-4.5,4.5c0,1.4,0,2.8,0,4
				c0,2.7,1.8,4.5,4.6,4.5c0.9,0,1.7,0,2.6,0l1.4,0v0l0.9,0c1,0,2,0,3,0c0.2,0,0.5,0,0.7,0.2c0.2,0.2,0.2,0.4,0.2,0.7
				c0,1,0,2.1,0,3.2c0,0.2,0,0.5-0.2,0.7c-0.2,0.2-0.5,0.2-0.7,0.2c-2.3,0-4.7,0-7.7,0c-0.6,0-0.8-0.2-0.9-0.8
				c-0.1-1.4-0.1-1.4-1.5-1.4l-0.2,0c-0.1,0-0.3,0-0.4,0c-0.5,0-0.8,0-1.1,0C147,101.9,146.8,101.9,146.7,101.9z"/>
		</g>
	</g>
</g>
<g id="Слой_2">
</g>
</svg>
