<?xml version="1.0" encoding="utf-8"?>
<!-- Generator: Adobe Illustrator 19.1.0, SVG Export Plug-In . SVG Version: 6.00 Build 0)  -->
<svg version="1.1" xmlns="http://www.w3.org/2000/svg" xmlns:xlink="http://www.w3.org/1999/xlink" x="0px" y="0px"
	 viewBox="0 0 254.1 254.1" style="enable-background:new 0 0 254.1 254.1;" xml:space="preserve">
<style type="text/css">
	.st0{stroke:#000000;stroke-width:3;stroke-linecap:round;stroke-linejoin:round;stroke-miterlimit:10;}
	.st1{opacity:0.58;fill:#FFFFFF;}
	.st2{fill:#FFFFFF;stroke:#1D1D1B;stroke-width:3;stroke-miterlimit:10;}
	.st3{stroke:#FFFFFF;stroke-width:3;stroke-miterlimit:10;}
	.st4{opacity:0.37;}
	.st5{fill:#FFFFFF;}
	.st6{fill:#545454;stroke:#000000;stroke-width:5;stroke-miterlimit:10;}
	.st7{fill:#FFFFFF;stroke:#000000;stroke-width:5;stroke-miterlimit:10;}
	.st8{opacity:0.35;fill:#FFFFFF;}
	.st9{opacity:0.5;fill:#FFFFFF;}
	.st10{fill:#545454;}
	.st11{opacity:0.58;}
	.st12{opacity:0.6;fill:#FFFFFF;}
	.st13{fill:#B5B5B5;}
	.st14{fill:#00129B;}
	.st15{fill:#92E8FF;}
	.st16{opacity:0.6;}
</style>
<g id="Слой_1">
	<g>
		<g>
			<path class="st14" d="M254,122.7c-0.5-14.5-3.4-28.5-8.4-41.4c-0.7-1.7-1.3-3.4-2.1-5c-1.7-4-3.7-7.9-5.8-11.7
				c-0.8-1.5-1.7-2.9-2.6-4.3c-2.1-3.5-4.4-6.8-6.9-10c-1.3-1.7-2.6-3.4-4-5h-6.6h-29.3c-2.9,0-5.2-2.3-5.2-5.2s2.3-5.2,5.2-5.2H207
				h7.4c-1.8-1.7-3.7-3.4-5.6-5c-4.5-3.8-9.3-7.3-14.3-10.5c-2.8-1.8-5.7-3.4-8.7-5C168.2,5.2,148.2,0,127,0
				c-39.4,0-74.6,18-98,46.2c-1.3,1.6-2.7,3.3-3.9,5C16,63.5,9,77.5,4.7,92.6c-0.5,1.7-0.9,3.3-1.3,5C1.9,104.2,0.8,111,0.3,118
				c-0.1,1.7-0.2,3.3-0.3,5c0,1.3-0.1,2.7-0.1,4.1c0,2.1,0.1,4.3,0.2,6.4c0.1,1.7,0.2,3.3,0.4,5h5h1.9h11.4c2.9,0,5.2,2.3,5.2,5.2
				s-2.3,5.2-5.2,5.2H7H1.9c0.3,1.7,0.6,3.3,1,5c0.8,3.5,1.7,7,2.7,10.5c0.5,1.7,1.1,3.3,1.7,5c2.6,7.4,5.9,14.6,9.9,21.3
				c1,1.7,2,3.4,3.1,5h6H87c2.9,0,5.2,2.3,5.2,5.2s-2.3,5.2-5.2,5.2H69.7H34.2h-6.5c1.4,1.7,2.8,3.4,4.2,5
				c3.3,3.7,6.7,7.2,10.4,10.5c1.9,1.7,3.9,3.4,5.9,5h8.3h13.3h39.7h0.3c2.9,0,5.2,2.3,5.2,5.2s-2.3,5.2-5.2,5.2H74.1H63.5
				c3.1,1.8,6.3,3.5,9.5,5c16.4,7.7,34.7,12.1,54,12.1c37.9,0,72.1-16.7,95.4-43.2h0.2c1.5-1.6,3-3.3,4.5-5h-0.5h-4.2
				c-0.7,0-1.3-0.1-1.9-0.4c-1.9-0.8-3.3-2.6-3.3-4.9c0-2.9,2.3-5.2,5.2-5.2h0.3h5.4h6c1.1-1.6,2.1-3.3,3-5c2-3.4,3.8-6.9,5.4-10.5
				c0.8-1.6,1.5-3.3,2.2-5h-5.4h-5h-11.1c-2.9,0-5.2-2.3-5.2-5.2s2.3-5.2,5.2-5.2h20h5.3c0.5-1.7,1-3.3,1.4-5
				c2.7-10.2,4.1-20.8,4.2-31.8c0-0.2,0-0.5,0-0.7C254.1,125.6,254,124.2,254,122.7z M249,122.7h-77.6c-2.9,0-5.2-2.3-5.2-5.2
				s2.3-5.2,5.2-5.2h0.3h39.7h11.4c5.6,0,10.2-4.6,10.2-10.2c0-5.6-4.6-10.2-10.2-10.2h-11.4h-17.3c-2.9,0-5.2-2.3-5.2-5.2
				s2.3-5.2,5.2-5.2h46.1C245.4,94.2,248.5,108.2,249,122.7z M200.8,29.9h-12.5c-5.6,0-10.2,4.6-10.2,10.2s4.6,10.2,10.2,10.2h33.6
				c2.7,3.3,5.2,6.8,7.6,10.5h-95.6c-2.9,0-5.2-2.3-5.2-5.2s2.3-5.2,5.2-5.2h10.9c5.6,0,10.2-4.6,10.2-10.2s-4.6-10.2-10.2-10.2
				h-10.1c-2.9,0-5.2-2.3-5.2-5.2s2.3-5.2,5.2-5.2h49.8C190.3,22.5,195.7,26,200.8,29.9z M31.5,51.2h60.1c2.9,0,5.2,2.3,5.2,5.2
				s-2.3,5.2-5.2,5.2h-3.8H71.6H49.8c-5.6,0-10.2,4.6-10.2,10.2c0,5.6,4.6,10.2,10.2,10.2h10.4h0.9h2c2.9,0,5.2,2.3,5.2,5.2
				s-2.3,5.2-5.2,5.2H10C14.4,77.4,21.8,63.4,31.5,51.2z M8,153.9h10.9c5.6,0,10.2-4.6,10.2-10.2c0-5.6-4.6-10.2-10.2-10.2H7.5H5.2
				C5.1,131.3,5,129.2,5,127c0-1.4,0-2.7,0.1-4.1h122.7c2.9,0,5.2,2.3,5.2,5.2s-2.3,5.2-5.2,5.2h-0.3H87.7H76.3
				c-5.6,0-10.2,4.6-10.2,10.2c0,5.6,4.6,10.2,10.2,10.2h11.4H105c2.9,0,5.2,2.3,5.2,5.2s-2.3,5.2-5.2,5.2H10.8
				C9.7,160.9,8.8,157.4,8,153.9z M244.7,159.5h-21.5c-5.6,0-10.2,4.6-10.2,10.2c0,5.5,4.3,9.9,9.7,10.2v0h0.5h11.1h2.7
				c-1.7,3.6-3.6,7.1-5.7,10.5h-8.6h-0.3c-5.6,0-10.2,4.6-10.2,10.2c0,3.7,2,6.9,4.9,8.7c-0.5,0.5-0.9,1-1.4,1.5
				c-22.3,23.5-53.7,38.2-88.6,38.2c-14.4,0-28.1-2.5-40.9-7.1h23.6c5.6,0,10.2-4.6,10.2-10.2s-4.6-10.2-10.2-10.2h-0.3H69.7H49.9
				c-4-3.2-7.7-6.7-11.3-10.5h31.1H87h0.5v0c5.4-0.3,9.7-4.7,9.7-10.2c0-5.6-4.6-10.2-10.2-10.2H22.9c-4.1-6.7-7.6-13.8-10.4-21.3
				H105c5.6,0,10.2-4.6,10.2-10.2c0-5.5-4.3-9.9-9.7-10.2v0H105H87.7H76.3c-2.9,0-5.2-2.3-5.2-5.2s2.3-5.2,5.2-5.2h11.4h39.7h0.3
				c5.6,0,10.2-4.6,10.2-10.2s-4.6-10.2-10.2-10.2H5.3c0.5-7,1.6-13.8,3.3-20.4h54.5c5.6,0,10.2-4.6,10.2-10.2s-4.6-10.2-10.2-10.2
				h-2h-0.9H49.8c-2.9,0-5.2-2.3-5.2-5.2s2.3-5.2,5.2-5.2h21.9h16.1h3.8c5.6,0,10.2-4.6,10.2-10.2s-4.6-10.2-10.2-10.2H35.7
				C58,21,90.7,5,127,5c16.7,0,32.6,3.4,47.1,9.4h-39.3c-5.6,0-10.2,4.6-10.2,10.2c0,5.5,4.3,9.9,9.7,10.2v0h10.6
				c2.9,0,5.2,2.3,5.2,5.2s-2.3,5.2-5.2,5.2h-11.2v0c-5.5,0.1-10,4.7-10,10.2c0,5.6,4.6,10.2,10.2,10.2h98.7c2,3.4,3.8,7,5.5,10.6
				h-43.9c-5.6,0-10.2,4.6-10.2,10.2c0,5.5,4.3,9.9,9.7,10.2v0h0.5h17.3h11.4c2.9,0,5.2,2.3,5.2,5.2s-2.3,5.2-5.2,5.2h-11.4h-39.7
				h-0.3c-5.6,0-10.2,4.6-10.2,10.2s4.6,10.2,10.2,10.2h77.7C249,138.7,247.5,149.4,244.7,159.5z"/>
			<path class="st14" d="M143,212.4c-6.4,0-11.7,5.2-11.7,11.7s5.2,11.7,11.7,11.7s11.7-5.2,11.7-11.7S149.4,212.4,143,212.4z
				 M143,230.7c-3.7,0-6.7-3-6.7-6.7c0-3.7,3-6.7,6.7-6.7s6.7,3,6.7,6.7C149.7,227.7,146.7,230.7,143,230.7z"/>
			<path class="st14" d="M184.3,222.6c6.4,0,11.7-5.2,11.7-11.7s-5.2-11.7-11.7-11.7s-11.7,5.2-11.7,11.7S177.9,222.6,184.3,222.6z
				 M184.3,204.2c3.7,0,6.7,3,6.7,6.7s-3,6.7-6.7,6.7s-6.7-3-6.7-6.7S180.6,204.2,184.3,204.2z"/>
			<path class="st14" d="M101.3,16.8c-6.4,0-11.7,5.2-11.7,11.7s5.2,11.7,11.7,11.7S113,34.9,113,28.4S107.8,16.8,101.3,16.8z
				 M101.3,35.1c-3.7,0-6.7-3-6.7-6.7c0-3.7,3-6.7,6.7-6.7s6.7,3,6.7,6.7C108,32.1,105,35.1,101.3,35.1z"/>
		</g>
		<g>
			<path class="st15" d="M91.5,51.2H31.5c-9.6,12.1-17,26.1-21.5,41.4h53.1c2.9,0,5.2-2.3,5.2-5.2s-2.3-5.2-5.2-5.2h-2h-0.9H49.8
				c-5.6,0-10.2-4.6-10.2-10.2c0-5.6,4.6-10.2,10.2-10.2h21.9h16.1h3.8c2.9,0,5.2-2.3,5.2-5.2S94.4,51.2,91.5,51.2z M91.5,58.7h-3.8
				H71.6H49.8c-7.3,0-13.2,5.9-13.2,13.2c0,7.3,5.9,13.2,13.2,13.2h10.4h0.9h2c1.2,0,2.2,1,2.2,2.2c0,1.2-1,2.2-2.2,2.2H14
				c4.2-12.8,10.6-24.6,18.9-35.4h58.6c1.2,0,2.2,1,2.2,2.2C93.8,57.7,92.8,58.7,91.5,58.7z"/>
			<path class="st15" d="M188.9,86.6c0,2.9,2.3,5.2,5.2,5.2h17.3h11.4c5.6,0,10.2,4.6,10.2,10.2c0,5.6-4.6,10.2-10.2,10.2h-11.4
				h-39.7h-0.3c-2.9,0-5.2,2.3-5.2,5.2s2.3,5.2,5.2,5.2H249c-0.5-14.6-3.6-28.5-8.8-41.4h-46.1C191.2,81.4,188.9,83.7,188.9,86.6z
				 M245.8,119.7h-74.5c-1.2,0-2.2-1-2.2-2.2s1-2.2,2.2-2.2h0.3h39.7h11.4c7.3,0,13.2-5.9,13.2-13.2c0-7.3-5.9-13.2-13.2-13.2h-11.4
				h-17.3c-1.2,0-2.2-1-2.2-2.2s1-2.2,2.2-2.2h44.1C242.5,95.7,245.1,107.6,245.8,119.7z"/>
			<path class="st15" d="M144.8,50.3h-10.9c-2.9,0-5.2,2.3-5.2,5.2s2.3,5.2,5.2,5.2h95.6c-2.3-3.6-4.9-7.1-7.6-10.5h-33.6
				c-5.6,0-10.2-4.6-10.2-10.2s4.6-10.2,10.2-10.2h12.5c-5.1-3.9-10.5-7.4-16.2-10.5h-49.8c-2.9,0-5.2,2.3-5.2,5.2s2.3,5.2,5.2,5.2
				h10.1c5.6,0,10.2,4.6,10.2,10.2S150.5,50.3,144.8,50.3z M158.1,40.1c0-7.3-5.9-13.2-13.2-13.2h-10.1c-1.2,0-2.2-1-2.2-2.2
				c0-1.2,1-2.2,2.2-2.2h49c2.5,1.4,5,2.9,7.5,4.5h-3c-7.3,0-13.2,5.9-13.2,13.2c0,7.3,5.9,13.2,13.2,13.2h32.1
				c1.2,1.5,2.3,2.9,3.4,4.5h-89.9c-1.2,0-2.2-1-2.2-2.2c0-1.2,1-2.2,2.2-2.2h10.9C152.1,53.3,158.1,47.4,158.1,40.1z"/>
			<path class="st15" d="M143,209.4c-8.1,0-14.7,6.6-14.7,14.7c0,8.1,6.6,14.7,14.7,14.7s14.7-6.6,14.7-14.7
				C157.7,216,151.1,209.4,143,209.4z M143,235.7c-6.4,0-11.7-5.2-11.7-11.7s5.2-11.7,11.7-11.7s11.7,5.2,11.7,11.7
				S149.4,235.7,143,235.7z"/>
			<path class="st15" d="M143,217.4c-3.7,0-6.7,3-6.7,6.7c0,3.7,3,6.7,6.7,6.7s6.7-3,6.7-6.7C149.7,220.4,146.7,217.4,143,217.4z
				 M143,227.7c-2,0-3.7-1.7-3.7-3.7c0-2,1.7-3.7,3.7-3.7s3.7,1.7,3.7,3.7C146.7,226.1,145,227.7,143,227.7z"/>
			<path class="st15" d="M184.3,196.2c-8.1,0-14.7,6.6-14.7,14.7s6.6,14.7,14.7,14.7c8.1,0,14.7-6.6,14.7-14.7
				S192.4,196.2,184.3,196.2z M184.3,222.6c-6.4,0-11.7-5.2-11.7-11.7s5.2-11.7,11.7-11.7s11.7,5.2,11.7,11.7
				S190.7,222.6,184.3,222.6z"/>
			<path class="st15" d="M101.3,21.8c-3.7,0-6.7,3-6.7,6.7c0,3.7,3,6.7,6.7,6.7s6.7-3,6.7-6.7C108,24.8,105,21.8,101.3,21.8z
				 M101.3,32.1c-2,0-3.7-1.7-3.7-3.7c0-2,1.7-3.7,3.7-3.7s3.7,1.7,3.7,3.7C105,30.5,103.4,32.1,101.3,32.1z"/>
		</g>
	</g>
	<path class="st5" d="M188.1,58H64.7c-5.2,0-9.5,4.3-9.5,9.5v123.4c0,5.2,4.3,9.5,9.5,9.5h123.4c5.2,0,9.5-4.3,9.5-9.5V67.5
		C197.6,62.3,193.3,58,188.1,58z"/>
	<g>
		<path class="st14" d="M188.1,53H64.7c-8,0-14.5,6.5-14.5,14.5v123.4c0,8,6.5,14.5,14.5,14.5h123.4c8,0,14.5-6.5,14.5-14.5V67.5
			C202.6,59.5,196.1,53,188.1,53z M197.6,190.9c0,5.2-4.3,9.5-9.5,9.5H64.7c-5.2,0-9.5-4.3-9.5-9.5V67.5c0-5.2,4.3-9.5,9.5-9.5
			h123.4c5.2,0,9.5,4.3,9.5,9.5V190.9z"/>
	</g>
</g>
<g id="Слой_2">
	<g>
		<path class="st14" d="M78.9,78c-2.6,0-4.7,2.2-4.5,4.9c1.1,13,3.7,41.2,4.7,52.5c0.4,4.2,0.8,8.4,1.2,12.5
			c0.8,9,1.7,18.3,2.5,27.4c0,0.1,0,0.2,0,0.2c0.1,0,0.2,0,0.3,0.1c5.8,1.2,11.7,2.3,17.5,3.5c7.5,1.5,15.1,3,22.6,4.5l0.6,0.1
			c1.4,0.3,2.9,0.6,4.1,0.4c5.3-0.9,10.6-2,15.8-3.1c1.9-0.4,3.9-0.8,5.8-1.2l5.1-1c5.5-1.1,10.9-2.2,16.4-3.3c0.1,0,0.1,0,0.2,0
			c0.2-2.7,0.4-5.4,0.7-7.9c0.1-1.1,0.2-2.3,0.3-3.4l2.3-25c0.8-8.3,1.5-16.6,2.3-24.9l0.3-3.5c0.5-6,1.8-19.5,2.5-27.8
			c0.2-2.6-1.8-4.9-4.5-4.9H78.9z M166.1,169.5c-0.1,0.8-0.6,1.4-1.4,1.6l-3.7,0.7c-2.6,0.5-5.2,1.1-7.9,1.6c-8.3,1.7-16.7,3.3-25,5
			c-0.4,0.1-0.8,0.1-1.1,0.1c-0.4,0-0.8,0-1.2-0.1c-5.1-1-10.3-2-15.4-3.1c-6.6-1.3-13.3-2.6-19.9-4c-1.6-0.3-2.4-1.2-2.6-2.8
			c-0.5-5.6-1-11.2-1.5-16.8l-0.6-6c-0.9-9.3-1.7-18.7-2.6-28c-0.8-8.4-2.7-29.8-2.9-32.1c0-0.5,0.1-1,0.5-1.3
			c0.3-0.4,0.8-0.6,1.3-0.6H172c0.5,0,1,0.2,1.3,0.6c0.3,0.4,0.5,0.8,0.5,1.3L166.1,169.5z"/>
		<path class="st14" d="M133.4,134.1H149c0.5,0,1,0.2,1.3,0.6c0.3,0.4,0.5,0.8,0.5,1.3l-0.3,3.4c-0.4,4.8-0.8,9.4-1.3,14
			c-0.1,1.2-1.3,2.3-2.3,2.6c-1.3,0.3-2.7,0.6-4,0.8c-0.5,0.1-1,0.2-1.5,0.3l-7.9,1.6v5.8l20.8-4.2l2.9-31.9h-16.3
			c-1,0-1.8-0.8-1.8-1.7v-22.9c0-1,0.8-1.8,1.8-1.8h18.7l0.5-5.6h-26.6V134.1z"/>
		<path class="st14" d="M115,155.4c0,0.5-0.2,1-0.6,1.4c-0.4,0.3-0.9,0.5-1.5,0.4c-0.6-0.1-1.1-0.2-1.7-0.3
			c-1.3-0.3-2.4-0.5-3.6-0.7c-1.7-0.3-2.7-1.3-2.8-3.1c-0.1-1.9-0.3-3.7-0.5-5.6c0-0.2,0-0.4-0.1-0.7h-5.7l0.3,3
			c0.3,3.5,0.6,7,0.9,10.6c0,0,0,0,0.1,0l14.9,3c1.8,0.4,3.6,0.7,5.4,1.1l0.4,0.1V96.3H115V155.4z"/>
	</g>
</g>
</svg>
