<?xml version="1.0" encoding="utf-8"?>
<!-- Generator: Adobe Illustrator 19.1.0, SVG Export Plug-In . SVG Version: 6.00 Build 0)  -->
<svg version="1.1" xmlns="http://www.w3.org/2000/svg" xmlns:xlink="http://www.w3.org/1999/xlink" x="0px" y="0px"
	 viewBox="0 0 254.1 254.1" style="enable-background:new 0 0 254.1 254.1;" xml:space="preserve">
<style type="text/css">
	.st0{stroke:#000000;stroke-width:3;stroke-linecap:round;stroke-linejoin:round;stroke-miterlimit:10;}
	.st1{opacity:0.58;fill:#FFFFFF;}
	.st2{fill:#FFFFFF;stroke:#1D1D1B;stroke-width:3;stroke-miterlimit:10;}
	.st3{stroke:#FFFFFF;stroke-width:3;stroke-miterlimit:10;}
	.st4{opacity:0.37;}
	.st5{fill:#FFFFFF;}
	.st6{fill:#545454;stroke:#000000;stroke-width:5;stroke-miterlimit:10;}
	.st7{fill:#FFFFFF;stroke:#000000;stroke-width:5;stroke-miterlimit:10;}
	.st8{opacity:0.35;fill:#FFFFFF;}
	.st9{opacity:0.5;fill:#FFFFFF;}
	.st10{fill:#545454;}
	.st11{opacity:0.58;}
	.st12{opacity:0.6;fill:#FFFFFF;}
	.st13{fill:#B5B5B5;}
	.st14{fill:#00129B;}
	.st15{fill:#92E8FF;}
	.st16{opacity:0.6;}
</style>
<g id="Слой_1">
	<g>
		<g>
			<path class="st14" d="M0.1,131.3c0.5,14.5,3.4,28.5,8.4,41.4c0.7,1.7,1.3,3.4,2.1,5c1.7,4,3.7,7.9,5.8,11.7
				c0.8,1.5,1.7,2.9,2.6,4.3c2.1,3.5,4.4,6.8,6.9,10c1.3,1.7,2.6,3.4,4,5h6.6h29.3c2.9,0,5.2,2.3,5.2,5.2s-2.3,5.2-5.2,5.2H47.1
				h-7.4c1.8,1.7,3.7,3.4,5.6,5c4.5,3.8,9.3,7.3,14.3,10.5c2.8,1.8,5.7,3.4,8.7,5c17.6,9.2,37.6,14.4,58.8,14.4
				c39.4,0,74.6-18,98-46.2c1.3-1.6,2.7-3.3,3.9-5c9.2-12.3,16.1-26.2,20.4-41.4c0.5-1.7,0.9-3.3,1.3-5c1.6-6.6,2.6-13.4,3.1-20.4
				c0.1-1.7,0.2-3.3,0.3-5c0-1.3,0.1-2.7,0.1-4.1c0-2.1-0.1-4.3-0.2-6.4c-0.1-1.7-0.2-3.3-0.4-5h-5h-1.9h-11.4
				c-2.9,0-5.2-2.3-5.2-5.2s2.3-5.2,5.2-5.2h11.9h5.1c-0.3-1.7-0.6-3.3-1-5c-0.8-3.5-1.7-7-2.7-10.5c-0.5-1.7-1.1-3.3-1.7-5
				c-2.6-7.4-5.9-14.6-9.9-21.3c-1-1.7-2-3.4-3.1-5h-6h-60.9c-2.9,0-5.2-2.3-5.2-5.2s2.3-5.2,5.2-5.2h17.3h35.6h6.5
				c-1.4-1.7-2.8-3.4-4.2-5c-3.3-3.7-6.7-7.2-10.4-10.5c-1.9-1.7-3.9-3.4-5.9-5h-8.3h-13.3h-39.7h-0.3c-2.9,0-5.2-2.3-5.2-5.2
				s2.3-5.2,5.2-5.2h35.6h10.6c-3.1-1.8-6.3-3.5-9.5-5C164.7,4.3,146.3,0,127,0C89.1,0,55,16.7,31.7,43.2h-0.2c-1.5,1.6-3,3.3-4.5,5
				h0.5h4.2c0.7,0,1.3,0.1,1.9,0.4c1.9,0.8,3.3,2.6,3.3,4.9c0,2.9-2.3,5.2-5.2,5.2h-0.3H26h-6c-1.1,1.6-2.1,3.3-3,5
				c-2,3.4-3.8,6.9-5.4,10.5c-0.8,1.6-1.5,3.3-2.2,5h5.4h5h11.1c2.9,0,5.2,2.3,5.2,5.2s-2.3,5.2-5.2,5.2h-20H5.6
				c-0.5,1.7-1,3.3-1.4,5c-2.7,10.2-4.1,20.8-4.2,31.8c0,0.2,0,0.5,0,0.7C0,128.5,0,129.9,0.1,131.3z M5.1,131.3h77.6
				c2.9,0,5.2,2.3,5.2,5.2s-2.3,5.2-5.2,5.2h-0.3H42.7H31.2c-5.6,0-10.2,4.6-10.2,10.2c0,5.6,4.6,10.2,10.2,10.2h11.4H60
				c2.9,0,5.2,2.3,5.2,5.2s-2.3,5.2-5.2,5.2H13.9C8.7,159.9,5.6,145.9,5.1,131.3z M53.3,224.2h12.5c5.6,0,10.2-4.6,10.2-10.2
				s-4.6-10.2-10.2-10.2H32.2c-2.7-3.3-5.2-6.8-7.6-10.5h95.6c2.9,0,5.2,2.3,5.2,5.2s-2.3,5.2-5.2,5.2h-10.9
				c-5.6,0-10.2,4.6-10.2,10.2s4.6,10.2,10.2,10.2h10.1c2.9,0,5.2,2.3,5.2,5.2s-2.3,5.2-5.2,5.2H69.5
				C63.8,231.6,58.4,228.1,53.3,224.2z M222.6,202.8h-60.1c-2.9,0-5.2-2.3-5.2-5.2s2.3-5.2,5.2-5.2h3.8h16.1h21.9
				c5.6,0,10.2-4.6,10.2-10.2c0-5.6-4.6-10.2-10.2-10.2h-10.4h-0.9h-2c-2.9,0-5.2-2.3-5.2-5.2s2.3-5.2,5.2-5.2h53.1
				C239.6,176.7,232.3,190.7,222.6,202.8z M246.1,100.2h-10.9c-5.6,0-10.2,4.6-10.2,10.2c0,5.6,4.6,10.2,10.2,10.2h11.4h2.3
				c0.1,2.1,0.2,4.2,0.2,6.4c0,1.4,0,2.7-0.1,4.1H126.3c-2.9,0-5.2-2.3-5.2-5.2s2.3-5.2,5.2-5.2h0.3h39.7h11.4
				c5.6,0,10.2-4.6,10.2-10.2c0-5.6-4.6-10.2-10.2-10.2h-11.4h-17.3c-2.9,0-5.2-2.3-5.2-5.2s2.3-5.2,5.2-5.2h94.2
				C244.3,93.2,245.3,96.6,246.1,100.2z M9.4,94.5h21.5c5.6,0,10.2-4.6,10.2-10.2c0-5.5-4.3-9.9-9.7-10.2v0h-0.5H19.8h-2.7
				c1.7-3.6,3.6-7.1,5.7-10.5h8.6h0.3c5.6,0,10.2-4.6,10.2-10.2c0-3.7-2-6.9-4.9-8.7c0.5-0.5,0.9-1,1.4-1.5C60.7,19.7,92.2,5,127,5
				c14.4,0,28.1,2.5,40.9,7.1h-23.6c-5.6,0-10.2,4.6-10.2,10.2s4.6,10.2,10.2,10.2h0.3h39.7h19.8c4,3.2,7.7,6.7,11.3,10.5h-31.1
				h-17.3h-0.5v0c-5.4,0.3-9.7,4.7-9.7,10.2c0,5.6,4.6,10.2,10.2,10.2h64.1c4.1,6.7,7.6,13.8,10.4,21.3h-92.5
				c-5.6,0-10.2,4.6-10.2,10.2c0,5.5,4.3,9.9,9.7,10.2v0h0.5h17.3h11.4c2.9,0,5.2,2.3,5.2,5.2s-2.3,5.2-5.2,5.2h-11.4h-39.7h-0.3
				c-5.6,0-10.2,4.6-10.2,10.2s4.6,10.2,10.2,10.2h122.4c-0.5,7-1.6,13.8-3.3,20.4H191c-5.6,0-10.2,4.6-10.2,10.2
				s4.6,10.2,10.2,10.2h2h0.9h10.4c2.9,0,5.2,2.3,5.2,5.2s-2.3,5.2-5.2,5.2h-21.9h-16.1h-3.8c-5.6,0-10.2,4.6-10.2,10.2
				s4.6,10.2,10.2,10.2h55.9c-22.4,25.3-55,41.2-91.4,41.2c-16.7,0-32.6-3.4-47.1-9.4h39.3c5.6,0,10.2-4.6,10.2-10.2
				c0-5.5-4.3-9.9-9.7-10.2v0h-10.6c-2.9,0-5.2-2.3-5.2-5.2s2.3-5.2,5.2-5.2h11.2v0c5.5-0.1,10-4.7,10-10.2
				c0-5.6-4.6-10.2-10.2-10.2H21.5c-2-3.4-3.8-7-5.5-10.6H60c5.6,0,10.2-4.6,10.2-10.2c0-5.5-4.3-9.9-9.7-10.2v0H60H42.7H31.2
				c-2.9,0-5.2-2.3-5.2-5.2s2.3-5.2,5.2-5.2h11.4h39.7h0.3c5.6,0,10.2-4.6,10.2-10.2s-4.6-10.2-10.2-10.2H5
				C5.1,115.3,6.6,104.7,9.4,94.5z"/>
			<path class="st14" d="M111.1,41.7c6.4,0,11.7-5.2,11.7-11.7s-5.2-11.7-11.7-11.7S99.4,23.6,99.4,30S104.6,41.7,111.1,41.7z
				 M111.1,23.3c3.7,0,6.7,3,6.7,6.7c0,3.7-3,6.7-6.7,6.7s-6.7-3-6.7-6.7C104.4,26.3,107.4,23.3,111.1,23.3z"/>
			<path class="st14" d="M69.8,31.5c-6.4,0-11.7,5.2-11.7,11.7s5.2,11.7,11.7,11.7s11.7-5.2,11.7-11.7S76.2,31.5,69.8,31.5z
				 M69.8,49.9c-3.7,0-6.7-3-6.7-6.7s3-6.7,6.7-6.7s6.7,3,6.7,6.7S73.5,49.9,69.8,49.9z"/>
			<path class="st14" d="M152.7,237.3c6.4,0,11.7-5.2,11.7-11.7s-5.2-11.7-11.7-11.7s-11.7,5.2-11.7,11.7S146.3,237.3,152.7,237.3z
				 M152.7,219c3.7,0,6.7,3,6.7,6.7c0,3.7-3,6.7-6.7,6.7s-6.7-3-6.7-6.7C146,222,149,219,152.7,219z"/>
		</g>
		<g>
			<path class="st15" d="M162.6,202.8h60.1c9.6-12.1,17-26.1,21.5-41.4H191c-2.9,0-5.2,2.3-5.2,5.2s2.3,5.2,5.2,5.2h2h0.9h10.4
				c5.6,0,10.2,4.6,10.2,10.2c0,5.6-4.6,10.2-10.2,10.2h-21.9h-16.1h-3.8c-2.9,0-5.2,2.3-5.2,5.2S159.7,202.8,162.6,202.8z
				 M162.6,195.4h3.8h16.1h21.9c7.3,0,13.2-5.9,13.2-13.2c0-7.3-5.9-13.2-13.2-13.2h-10.4h-0.9h-2c-1.2,0-2.2-1-2.2-2.2
				c0-1.2,1-2.2,2.2-2.2h49c-4.2,12.8-10.6,24.6-18.9,35.4h-58.6c-1.2,0-2.2-1-2.2-2.2C160.3,196.4,161.3,195.4,162.6,195.4z"/>
			<path class="st15" d="M65.2,167.5c0-2.9-2.3-5.2-5.2-5.2H42.7H31.2c-5.6,0-10.2-4.6-10.2-10.2c0-5.6,4.6-10.2,10.2-10.2h11.4
				h39.7h0.3c2.9,0,5.2-2.3,5.2-5.2s-2.3-5.2-5.2-5.2H5.1c0.5,14.6,3.6,28.5,8.8,41.4H60C62.9,172.7,65.2,170.4,65.2,167.5z
				 M8.2,134.3h74.5c1.2,0,2.2,1,2.2,2.2s-1,2.2-2.2,2.2h-0.3H42.7H31.2C24,138.8,18,144.7,18,152c0,7.3,5.9,13.2,13.2,13.2h11.4H60
				c1.2,0,2.2,1,2.2,2.2s-1,2.2-2.2,2.2H15.9C11.5,158.4,9,146.5,8.2,134.3z"/>
			<path class="st15" d="M109.2,203.7h10.9c2.9,0,5.2-2.3,5.2-5.2s-2.3-5.2-5.2-5.2H24.6c2.3,3.6,4.9,7.1,7.6,10.5h33.6
				c5.6,0,10.2,4.6,10.2,10.2s-4.6,10.2-10.2,10.2H53.3c5.1,3.9,10.5,7.4,16.2,10.5h49.8c2.9,0,5.2-2.3,5.2-5.2s-2.3-5.2-5.2-5.2
				h-10.1c-5.6,0-10.2-4.6-10.2-10.2S103.6,203.7,109.2,203.7z M96,214c0,7.3,5.9,13.2,13.2,13.2h10.1c1.2,0,2.2,1,2.2,2.2
				c0,1.2-1,2.2-2.2,2.2h-49c-2.5-1.4-5-2.9-7.5-4.5h3c7.3,0,13.2-5.9,13.2-13.2c0-7.3-5.9-13.2-13.2-13.2H33.6
				c-1.2-1.5-2.3-2.9-3.4-4.5h89.9c1.2,0,2.2,1,2.2,2.2c0,1.2-1,2.2-2.2,2.2h-10.9C101.9,200.7,96,206.7,96,214z"/>
			<path class="st15" d="M111.1,44.7c8.1,0,14.7-6.6,14.7-14.7c0-8.1-6.6-14.7-14.7-14.7S96.4,21.9,96.4,30
				C96.4,38.1,103,44.7,111.1,44.7z M111.1,18.3c6.4,0,11.7,5.2,11.7,11.7s-5.2,11.7-11.7,11.7S99.4,36.5,99.4,30
				S104.6,18.3,111.1,18.3z"/>
			<path class="st15" d="M111.1,36.7c3.7,0,6.7-3,6.7-6.7c0-3.7-3-6.7-6.7-6.7s-6.7,3-6.7,6.7C104.4,33.7,107.4,36.7,111.1,36.7z
				 M111.1,26.3c2,0,3.7,1.7,3.7,3.7c0,2-1.7,3.7-3.7,3.7s-3.7-1.7-3.7-3.7C107.4,28,109,26.3,111.1,26.3z"/>
			<path class="st15" d="M69.8,57.9c8.1,0,14.7-6.6,14.7-14.7s-6.6-14.7-14.7-14.7c-8.1,0-14.7,6.6-14.7,14.7S61.7,57.9,69.8,57.9z
				 M69.8,31.5c6.4,0,11.7,5.2,11.7,11.7s-5.2,11.7-11.7,11.7s-11.7-5.2-11.7-11.7S63.3,31.5,69.8,31.5z"/>
			<path class="st15" d="M152.7,232.3c3.7,0,6.7-3,6.7-6.7c0-3.7-3-6.7-6.7-6.7s-6.7,3-6.7,6.7C146,229.3,149,232.3,152.7,232.3z
				 M152.7,222c2,0,3.7,1.7,3.7,3.7c0,2-1.7,3.7-3.7,3.7s-3.7-1.7-3.7-3.7C149,223.6,150.7,222,152.7,222z"/>
		</g>
	</g>
	<path class="st5" d="M188.1,58H64.7c-5.2,0-9.5,4.3-9.5,9.5v123.4c0,5.2,4.3,9.5,9.5,9.5h123.4c5.2,0,9.5-4.3,9.5-9.5V67.5
		C197.6,62.3,193.3,58,188.1,58z"/>
	<g>
		<path class="st14" d="M188.1,53H64.7c-8,0-14.5,6.5-14.5,14.5v123.4c0,8,6.5,14.5,14.5,14.5h123.4c8,0,14.5-6.5,14.5-14.5V67.5
			C202.6,59.5,196.1,53,188.1,53z M197.6,190.9c0,5.2-4.3,9.5-9.5,9.5H64.7c-5.2,0-9.5-4.3-9.5-9.5V67.5c0-5.2,4.3-9.5,9.5-9.5
			h123.4c5.2,0,9.5,4.3,9.5,9.5V190.9z"/>
	</g>
	<g>
		<path class="st14" d="M139.7,101.3c2.8,0,5.5,0,8.2,0c1.4,0,2.4,1,2.6,2.3c0.2,1.2-0.6,2.3-1.7,2.7c-0.3,0.1-0.7,0.1-1,0.2
			c-3.1,0.2-5.1,2.4-5.1,5.4c0,5.1,0,10.1,0,15.2c0,4.8,1.3,9.2,4.1,13.2c5.9,8.6,11.9,17.2,17.9,25.9c3.4,4.9,1.1,11.5-4.5,13.2
			c-0.9,0.3-1.7,0.4-2.7,0.4c-20.3,0-40.6,0-60.9,0c-3.5,0-6.2-1.5-7.8-4.6c-1.6-3.1-1.3-6.2,0.6-9c5.8-8.4,11.6-16.8,17.5-25.2
			c3-4.3,4.5-9,4.4-14.2c-0.1-4.8,0-9.5,0-14.3c0-3.6-1.8-5.6-5.3-5.9c-1.5-0.1-2.5-1.3-2.5-2.7c0-1.5,1.2-2.5,2.8-2.5
			c5.8,0,11.6,0,17.4,0c0.9,0,1.2-0.1,1-1.1c-0.7-3.1,0.7-6.4,3.4-8.1c2.7-1.7,6.1-1.7,8.7,0.1c2.7,1.8,3.9,5,3.2,8.2
			C139.9,100.6,139.8,100.9,139.7,101.3z M127.1,174.6C127.1,174.6,127.1,174.6,127.1,174.6c10,0,20.1,0,30.1,0
			c1.5,0,2.8-0.4,3.5-1.8c0.7-1.4,0.4-2.6-0.5-3.9c-3.5-5-7-10-10.4-15.1c-0.4-0.6-0.7-0.8-1.4-0.6c-6.6,1-13.2,0.5-19.4-2.2
			c-6.9-3-13.8-3.2-21-1.4c-0.6,0.1-1,0.4-1.3,0.9c-4.3,6.2-8.6,12.4-12.8,18.6c-0.4,0.5-0.7,1.1-0.7,1.7c-0.2,2.3,1.3,3.8,3.8,3.8
			C107,174.6,117,174.6,127.1,174.6z M111.5,143.4c1-0.1,1.8-0.1,2.6-0.2c5.6-0.3,11.1,0.2,16.2,2.6c4.7,2.1,9.6,2.7,14.7,2.5
			c0.7,0,0.8-0.2,0.4-0.8c-1-1.4-2-2.8-2.9-4.2c-3-4.4-4.8-9.3-4.9-14.7c-0.1-7-0.1-13.9-0.1-20.9c0-0.9-0.3-1.2-1.2-1.2
			c-6.2,0-12.4,0-18.5,0c-1,0-1.3,0.2-1.3,1.2c0,6.4,0,12.7,0,19.1c0,1.8-0.1,3.6-0.4,5.4C115.4,136.2,113.9,139.8,111.5,143.4z
			 M132.3,96.1c-1.5,0-2.6,1-2.6,2.5c0,1.5,1.1,2.7,2.5,2.7c1.4,0,2.7-1.2,2.7-2.6C134.9,97.2,133.8,96.1,132.3,96.1z"/>
		<path class="st14" d="M124.4,82.9c0,4.4-3.4,7.9-7.8,7.9c-4.3,0-7.8-3.4-7.9-7.7c-0.1-4.4,3.4-7.9,7.9-7.9
			C120.9,75.1,124.4,78.6,124.4,82.9z M119.2,83c0-1.5-1.2-2.6-2.7-2.6c-1.4,0-2.5,1.1-2.5,2.6c0,1.5,1.2,2.6,2.6,2.6
			C118.1,85.5,119.2,84.4,119.2,83z"/>
		<path class="st14" d="M137.5,164c0,1.4-1.1,2.7-2.6,2.7c-1.4,0-2.6-1.2-2.7-2.6c0-1.4,1.2-2.6,2.5-2.6
			C136.3,161.4,137.5,162.6,137.5,164z"/>
		<path class="st14" d="M148,169.3c-1.5,0-2.7-1.1-2.7-2.6c0-1.4,1.2-2.7,2.6-2.6c1.4,0,2.6,1.2,2.6,2.6
			C150.7,168.1,149.5,169.3,148,169.3z"/>
		<path class="st14" d="M127.1,153.6c1.5,0,2.6,1.2,2.6,2.7c0,1.4-1.2,2.5-2.6,2.6c-1.4,0-2.6-1.2-2.7-2.6
			C124.4,154.8,125.6,153.6,127.1,153.6z"/>
		<path class="st14" d="M119.2,169.3c0,1.5-1.1,2.6-2.6,2.6c-1.5,0-2.6-1.1-2.6-2.6c0-1.4,1.1-2.6,2.5-2.6
			C118,166.7,119.2,167.8,119.2,169.3z"/>
		<path class="st14" d="M116.6,156.2c0,1.5-1.2,2.6-2.6,2.6c-1.4,0-2.6-1.2-2.6-2.6c0-1.4,1.1-2.6,2.6-2.7
			C115.4,153.6,116.6,154.7,116.6,156.2z"/>
	</g>
</g>
<g id="Слой_2">
</g>
</svg>
