<?xml version="1.0" encoding="utf-8"?>
<!-- Generator: Adobe Illustrator 19.1.0, SVG Export Plug-In . SVG Version: 6.00 Build 0)  -->
<svg version="1.1" xmlns="http://www.w3.org/2000/svg" xmlns:xlink="http://www.w3.org/1999/xlink" x="0px" y="0px"
	 viewBox="0 0 254.1 254.1" style="enable-background:new 0 0 254.1 254.1;" xml:space="preserve">
<style type="text/css">
	.st0{stroke:#000000;stroke-width:3;stroke-linecap:round;stroke-linejoin:round;stroke-miterlimit:10;}
	.st1{opacity:0.58;fill:#FFFFFF;}
	.st2{fill:#FFFFFF;stroke:#1D1D1B;stroke-width:3;stroke-miterlimit:10;}
	.st3{stroke:#FFFFFF;stroke-width:3;stroke-miterlimit:10;}
	.st4{opacity:0.37;}
	.st5{fill:#FFFFFF;}
	.st6{fill:#545454;stroke:#000000;stroke-width:5;stroke-miterlimit:10;}
	.st7{fill:#FFFFFF;stroke:#000000;stroke-width:5;stroke-miterlimit:10;}
	.st8{opacity:0.35;fill:#FFFFFF;}
	.st9{opacity:0.5;fill:#FFFFFF;}
	.st10{fill:#545454;}
	.st11{opacity:0.58;}
	.st12{opacity:0.6;fill:#FFFFFF;}
	.st13{fill:#B5B5B5;}
	.st14{fill:#00129B;}
	.st15{fill:#92E8FF;}
	.st16{opacity:0.6;}
	.st17{font-family:'MyriadPro-Regular';}
	.st18{font-size:24px;}
</style>
<g id="Слой_1">
	<g>
		<g>
			<path class="st14" d="M254,124.3c0-1-0.1-2-0.1-3c-0.5-11.8-2.7-23.2-6.2-33.9c-0.3-1-0.7-2-1-3c-0.6-1.7-1.2-3.3-1.9-5
				c-0.4-1-0.8-2-1.3-3c-5.7-13.1-13.6-25-23.1-35.4c-0.9-1-1.9-2-2.9-3c-1.7-1.7-3.4-3.4-5.2-5c-1.1-1-2.3-2-3.4-3
				C186.8,11.3,158.2,0,127,0C97.1,0,69.6,10.4,47.9,27.8c-1.2,1-2.4,2-3.6,3c-1.9,1.6-3.7,3.3-5.5,5c-1,1-2,2-3,3
				c-1.4,1.5-2.8,2.9-4.1,4.5c-0.9,1-1.7,2-2.6,3c-1.3,1.6-2.7,3.3-3.9,5c-0.7,1-1.5,2-2.2,3C13.2,68.2,6.2,84.1,2.6,101.4
				c-0.2,1-0.4,2-0.6,3c-0.3,1.7-0.6,3.3-0.8,5c-0.1,1-0.3,2-0.4,3C0.3,117.2,0,122.1,0,127c0,7,0.6,14,1.7,20.7c0.2,1,0.3,2,0.5,3
				c0.3,1.7,0.7,3.3,1,5c0.2,1,0.5,2,0.7,3c1.8,6.9,4.1,13.6,7,20c0.5,1,0.9,2,1.4,3c0.8,1.7,1.7,3.4,2.5,5c0.5,1,1.1,2,1.7,3
				c0.9,1.5,1.8,3,2.7,4.5c0.7,1.2,1.5,2.3,2.2,3.4c2.2,3.3,4.6,6.5,7.1,9.6c0.9,1.1,1.7,2.1,2.6,3.1c4.6,5.3,9.7,10.2,15.1,14.7
				c1.2,1,2.5,2,3.8,3c2.3,1.7,4.6,3.4,7,5c1.6,1,3.1,2,4.8,3c16.7,10,35.9,16.3,56.4,17.7c2.2,0.2,4.5,0.2,6.7,0.3c0.7,0,1.3,0,2,0
				c1.4,0,2.8,0,4.2-0.1c2.2-0.1,4.5-0.2,6.7-0.4c26.6-2.3,50.9-12.8,70.4-29c1.2-1,2.3-2,3.5-3c1.8-1.6,3.6-3.3,5.3-5
				c1-1,1.9-2,2.9-3c1.4-1.5,2.7-2.9,4-4.5c0.8-1,1.7-2,2.5-3c1.3-1.6,2.6-3.3,3.8-5c0.7-1,1.4-2,2.1-3c10.1-14.9,17.1-32,20.1-50.5
				c0.2-1,0.3-2,0.5-3c0.2-1.7,0.4-3.3,0.6-5c0.1-1,0.2-2,0.3-3c0.1-1.5,0.2-3,0.3-4.5c0-1,0.1-2,0.1-3c0-0.7,0-1.5,0-2.2
				C254.1,126.1,254.1,125.2,254,124.3z M213.5,41C223.6,51.2,232,63.1,238,76.4c0.5,1,0.9,2,1.3,3H121c-2.9,0-5.2-2.3-5.2-5.2
				s2.3-5.2,5.2-5.2h3.8h58.1h21.9c5.6,0,10.2-4.6,10.2-10.2c0-5.6-4.6-10.2-10.2-10.2h-37.4h-0.9h-2c-2.9,0-5.2-2.3-5.2-5.2
				s2.3-5.2,5.2-5.2h45.9C211.5,39,212.5,40,213.5,41z M38.4,43.2c1.4-1.5,2.9-3,4.4-4.5c1.1-1,2.2-2,3.3-3h35.6h0.3
				c2.9,0,5.2,2.3,5.2,5.2s-2.3,5.2-5.2,5.2H35.7C36.6,45.2,37.5,44.2,38.4,43.2z M6.8,147.7C5.6,141,5,134.1,5,127
				c0-5,0.3-9.9,0.9-14.7c0.1-1,0.3-2,0.4-3h132.6c2.9,0,5.2,2.3,5.2,5.2c0,2.9-2.3,5.2-5.2,5.2h-17.3H27c-5.6,0-10.2,4.6-10.2,10.2
				c0,5.6,4.6,10.2,10.2,10.2h94.6h39.7h0.3c2.9,0,5.2,2.3,5.2,5.2s-2.3,5.2-5.2,5.2H7.3C7.1,149.7,6.9,148.7,6.8,147.7z
				 M54.5,225.1c-9.4-6.9-17.7-15.2-24.7-24.5c-0.5-0.7-1-1.3-1.5-2c-2.1-2.9-4-5.8-5.9-8.9c-0.6-1-1.2-2-1.7-3h97
				c2.9,0,5.2,2.3,5.2,5.2s-2.3,5.2-5.2,5.2h-3.8H97.7H75.9c-5.6,0-10.2,4.6-10.2,10.2c0,5.6,4.6,10.2,10.2,10.2h10.4h0.9h2
				c2.9,0,5.2,2.3,5.2,5.2s-2.3,5.2-5.2,5.2H58.7C57.3,227.1,55.8,226.1,54.5,225.1z M128,249.5c-0.8,0-1.5-0.1-2.2-0.4
				c-2.6-0.9-4.5-3.4-4.5-6.3c0-3.7,3-6.7,6.7-6.7s6.7,3,6.7,6.7c0,2.9-1.8,5.3-4.4,6.3C129.6,249.3,128.8,249.5,128,249.5z
				 M217.2,209.2c-1.4,1.5-2.8,3-4.3,4.5c-1,1-2.1,2-3.1,3h-48.1c-2.9,0-5.2-2.3-5.2-5.2s2.3-5.2,5.2-5.2h2.9h55.3
				C219,207.2,218.1,208.2,217.2,209.2z M247.3,147.7c-3.2,18.6-10.6,35.7-21.2,50.5c-0.7,1-1.5,2-2.2,3h-59.3h-2.9
				c-5.6,0-10.2,4.6-10.2,10.2s4.6,10.2,10.2,10.2H204c-1.3,1-2.5,2-3.8,3c-16.7,12.6-36.8,21-58.6,23.6c-1.2,0.1-2.3,0.3-3.5,0.4
				c1-1.7,1.6-3.7,1.6-5.8c0-6.4-5.2-11.7-11.7-11.7s-11.7,5.2-11.7,11.7c0,2.2,0.6,4.2,1.7,6c-1.2-0.1-2.4-0.2-3.5-0.3
				c-15-1.5-29.3-5.8-42.2-12.3c-1.9-1-3.8-2-5.6-3h22.5c5.6,0,10.2-4.6,10.2-10.2s-4.6-10.2-10.2-10.2h-2h-0.9H75.9
				c-2.9,0-5.2-2.3-5.2-5.2s2.3-5.2,5.2-5.2h21.9h16.1h3.8c5.6,0,10.2-4.6,10.2-10.2s-4.6-10.2-10.2-10.2H18c-0.5-1-1-2-1.5-3
				c-3-6.4-5.5-13.1-7.3-20c-0.3-1-0.5-2-0.8-3h153.2c5.6,0,10.2-4.6,10.2-10.2s-4.6-10.2-10.2-10.2h-0.3h-39.7H27
				c-2.9,0-5.2-2.3-5.2-5.2s2.3-5.2,5.2-5.2h94.6h17.3h0.5v0c5.4-0.3,9.7-4.7,9.7-10.2c0-5.6-4.6-10.2-10.2-10.2H7.1
				c0.2-1,0.4-2,0.6-3C11.5,84,18.9,68,29.2,54.2c0.8-1,1.5-2,2.3-3h50.6c5.6,0,10.2-4.6,10.2-10.2s-4.6-10.2-10.2-10.2h-0.3H52.1
				c1.3-1,2.7-2,4-3C76.1,13.4,100.6,5,127,5c27.8,0,53.4,9.3,73.9,25c1.3,1,2.5,2,3.8,3h-40.3c-5.6,0-10.2,4.6-10.2,10.2
				s4.6,10.2,10.2,10.2h2h0.9h37.4c2.9,0,5.2,2.3,5.2,5.2s-2.3,5.2-5.2,5.2h-21.9h-58.1H121c-5.6,0-10.2,4.6-10.2,10.2
				s4.6,10.2,10.2,10.2h120.4c0.4,1,0.7,2,1.1,3c3.7,10.7,5.9,22.1,6.5,33.9c0,1,0.1,2,0.1,3h-41.7h-2.9c-5.6,0-10.2,4.6-10.2,10.2
				s4.6,10.2,10.2,10.2h43.3C247.6,145.7,247.5,146.7,247.3,147.7z M249,132.3c-0.1,1.5-0.1,3-0.3,4.5c-0.1,1-0.2,2-0.3,3h-44
				c-2.9,0-5.2-2.3-5.2-5.2s2.3-5.2,5.2-5.2h2.9H249C249,130.3,249,131.3,249,132.3z"/>
			<path class="st14" d="M43.8,67.7c-6.4,0-11.7,5.2-11.7,11.7S37.4,91,43.8,91s11.7-5.2,11.7-11.7S50.3,67.7,43.8,67.7z M43.8,86
				c-3.7,0-6.7-3-6.7-6.7s3-6.7,6.7-6.7s6.7,3,6.7,6.7S47.5,86,43.8,86z"/>
			<path class="st14" d="M122.8,39.5c6.4,0,11.7-5.2,11.7-11.7s-5.2-11.7-11.7-11.7s-11.7,5.2-11.7,11.7S116.4,39.5,122.8,39.5z
				 M122.8,21.1c3.7,0,6.7,3,6.7,6.7s-3,6.7-6.7,6.7s-6.7-3-6.7-6.7S119.2,21.1,122.8,21.1z"/>
		</g>
		<g>
			<path class="st14" d="M122.8,39.5c6.4,0,11.7-5.2,11.7-11.7s-5.2-11.7-11.7-11.7s-11.7,5.2-11.7,11.7S116.4,39.5,122.8,39.5z
				 M122.8,21.1c3.7,0,6.7,3,6.7,6.7s-3,6.7-6.7,6.7s-6.7-3-6.7-6.7S119.2,21.1,122.8,21.1z"/>
			<path class="st14" d="M32.2,79.4c0,6.4,5.2,11.7,11.7,11.7s11.7-5.2,11.7-11.7s-5.2-11.7-11.7-11.7S32.2,72.9,32.2,79.4z
				 M50.5,79.4c0,3.7-3,6.7-6.7,6.7s-6.7-3-6.7-6.7s3-6.7,6.7-6.7S50.5,75.7,50.5,79.4z"/>
			<path class="st15" d="M125.8,249.1c0.7,0.2,1.4,0.4,2.2,0.4c0.8,0,1.6-0.2,2.3-0.4c-1.1,0-2.2,0-3.3,0
				C126.6,249.1,126.2,249.1,125.8,249.1z"/>
			<g>
				<path class="st15" d="M94.4,222.9c0-2.9-2.3-5.2-5.2-5.2h-2h-0.9H75.9c-5.6,0-10.2-4.6-10.2-10.2c0-5.6,4.6-10.2,10.2-10.2h21.9
					h16.1h3.8c2.9,0,5.2-2.3,5.2-5.2s-2.3-5.2-5.2-5.2h-97c0.6,1,1.1,2,1.7,3h95.2c1.2,0,2.2,1,2.2,2.2s-1,2.2-2.2,2.2h-3.8H97.7
					H75.9c-7.3,0-13.2,5.9-13.2,13.2c0,7.3,5.9,13.2,13.2,13.2h10.4h0.9h2c1.2,0,2.2,1,2.2,2.2s-1,2.2-2.2,2.2H54.5
					c1.4,1,2.8,2,4.2,3h30.5C92.1,228.1,94.4,225.7,94.4,222.9z"/>
				<path class="st15" d="M159.2,43.2c0,2.9,2.3,5.2,5.2,5.2h2h0.9h37.4c5.6,0,10.2,4.6,10.2,10.2c0,5.6-4.6,10.2-10.2,10.2h-21.9
					h-58.1H121c-2.9,0-5.2,2.3-5.2,5.2s2.3,5.2,5.2,5.2h118.4c-0.4-1-0.9-2-1.3-3H121c-1.2,0-2.2-1-2.2-2.2s1-2.2,2.2-2.2h3.8h58.1
					h21.9c7.3,0,13.2-5.9,13.2-13.2c0-7.3-5.9-13.2-13.2-13.2h-37.4h-0.9h-2c-1.2,0-2.2-1-2.2-2.2s1-2.2,2.2-2.2h49c-1-1-2-2-3.1-3
					h-45.9C161.6,38,159.2,40.3,159.2,43.2z"/>
				<path class="st15" d="M95.3,41c0-7.3-5.9-13.2-13.2-13.2h-0.3H56.1c-1.4,1-2.7,2-4,3h29.6h0.3c5.6,0,10.2,4.6,10.2,10.2
					s-4.6,10.2-10.2,10.2H31.5c-0.8,1-1.6,2-2.3,3h52.9C89.4,54.2,95.3,48.3,95.3,41z"/>
				<path class="st15" d="M194.2,134.5c0-5.6,4.6-10.2,10.2-10.2h2.9H249c0-1-0.1-2-0.1-3h-41.6h-2.9c-7.3,0-13.2,5.9-13.2,13.2
					c0,7.3,5.9,13.2,13.2,13.2h42.9c0.2-1,0.3-2,0.5-3h-43.3C198.8,144.7,194.2,140.1,194.2,134.5z"/>
				<path class="st15" d="M161.7,198.2c-7.3,0-13.2,5.9-13.2,13.2c0,7.3,5.9,13.2,13.2,13.2h38.5c1.3-1,2.6-2,3.8-3h-42.3
					c-5.6,0-10.2-4.6-10.2-10.2s4.6-10.2,10.2-10.2h2.9h59.3c0.8-1,1.5-2,2.2-3h-61.5H161.7z"/>
				<path class="st15" d="M166.8,145.5c0-2.9-2.3-5.2-5.2-5.2h-0.3h-39.7H27c-5.6,0-10.2-4.6-10.2-10.2c0-5.6,4.6-10.2,10.2-10.2
					h94.6h17.3c2.9,0,5.2-2.3,5.2-5.2c0-2.9-2.3-5.2-5.2-5.2H6.3c-0.1,1-0.3,2-0.4,3h133c1.2,0,2.2,1,2.2,2.2c0,1.2-1,2.2-2.2,2.2
					h-17.3H27c-7.3,0-13.2,5.9-13.2,13.2c0,7.3,5.9,13.2,13.2,13.2h94.6h39.7h0.3c1.2,0,2.2,1,2.2,2.2c0,1.2-1,2.2-2.2,2.2H6.8
					c0.2,1,0.4,2,0.6,3h154.3C164.5,150.7,166.8,148.4,166.8,145.5z"/>
				<path class="st15" d="M128,228.1c-8.1,0-14.7,6.6-14.7,14.7c0,2,0.4,3.9,1.1,5.7c1.2,0.1,2.3,0.2,3.5,0.3c-1-1.8-1.7-3.8-1.7-6
					c0-6.4,5.2-11.7,11.7-11.7s11.7,5.2,11.7,11.7c0,2.1-0.6,4.1-1.6,5.8c1.2-0.1,2.3-0.2,3.5-0.4c0.7-1.7,1.1-3.5,1.1-5.4
					C142.7,234.7,136.1,228.1,128,228.1z"/>
				<path class="st15" d="M29.2,79.4c0,8.1,6.6,14.7,14.7,14.7c8.1,0,14.7-6.6,14.7-14.7s-6.6-14.7-14.7-14.7
					C35.7,64.7,29.2,71.3,29.2,79.4z M55.5,79.4c0,6.4-5.2,11.7-11.7,11.7s-11.7-5.2-11.7-11.7s5.2-11.7,11.7-11.7
					S55.5,72.9,55.5,79.4z"/>
				<path class="st15" d="M37.2,79.4c0,3.7,3,6.7,6.7,6.7s6.7-3,6.7-6.7s-3-6.7-6.7-6.7S37.2,75.7,37.2,79.4z M47.5,79.4
					c0,2-1.7,3.7-3.7,3.7c-2,0-3.7-1.7-3.7-3.7s1.7-3.7,3.7-3.7C45.9,75.7,47.5,77.3,47.5,79.4z"/>
				<path class="st14" d="M207.7,160.4c-6.4,0-11.7,5.2-11.7,11.7s5.2,11.7,11.7,11.7s11.7-5.2,11.7-11.7S214.2,160.4,207.7,160.4z
					 M207.7,178.7c-3.7,0-6.7-3-6.7-6.7s3-6.7,6.7-6.7s6.7,3,6.7,6.7S211.4,178.7,207.7,178.7z"/>
				<path class="st14" d="M196,172c0,6.4,5.2,11.7,11.7,11.7s11.7-5.2,11.7-11.7s-5.2-11.7-11.7-11.7S196,165.6,196,172z M214.4,172
					c0,3.7-3,6.7-6.7,6.7s-6.7-3-6.7-6.7s3-6.7,6.7-6.7S214.4,168.4,214.4,172z"/>
				<path class="st15" d="M193,172c0,8.1,6.6,14.7,14.7,14.7c8.1,0,14.7-6.6,14.7-14.7s-6.6-14.7-14.7-14.7
					C199.6,157.4,193,164,193,172z M219.4,172c0,6.4-5.2,11.7-11.7,11.7S196,178.5,196,172s5.2-11.7,11.7-11.7
					S219.4,165.6,219.4,172z"/>
				<path class="st15" d="M201,172c0,3.7,3,6.7,6.7,6.7s6.7-3,6.7-6.7s-3-6.7-6.7-6.7S201,168.4,201,172z M211.4,172
					c0,2-1.7,3.7-3.7,3.7c-2,0-3.7-1.7-3.7-3.7s1.7-3.7,3.7-3.7C209.7,168.4,211.4,170,211.4,172z"/>
				<path class="st15" d="M122.8,34.5c3.7,0,6.7-3,6.7-6.7s-3-6.7-6.7-6.7s-6.7,3-6.7,6.7S119.2,34.5,122.8,34.5z M122.8,24.1
					c2,0,3.7,1.7,3.7,3.7s-1.7,3.7-3.7,3.7c-2,0-3.7-1.7-3.7-3.7S120.8,24.1,122.8,24.1z"/>
			</g>
		</g>
	</g>
	<g>
		<path class="st5" d="M188.2,57H64.8c-5.2,0-9.5,4.3-9.5,9.5v123.4c0,5.2,4.3,9.5,9.5,9.5h123.4c5.2,0,9.5-4.3,9.5-9.5V66.5
			C197.7,61.2,193.5,57,188.2,57z"/>
		<g>
			<path class="st14" d="M188.2,52H64.8c-8,0-14.5,6.5-14.5,14.5v123.4c0,8,6.5,14.5,14.5,14.5h123.4c8,0,14.5-6.5,14.5-14.5V66.5
				C202.7,58.5,196.2,52,188.2,52z M197.7,189.9c0,5.2-4.3,9.5-9.5,9.5H64.8c-5.2,0-9.5-4.3-9.5-9.5V66.5c0-5.2,4.3-9.5,9.5-9.5
				h123.4c5.2,0,9.5,4.3,9.5,9.5V189.9z"/>
		</g>
	</g>
	<g>
		<text transform="matrix(1 0 0 1 -34.5818 -28.1839)" class="st5 st17 st18">Search engine optimization (SEO)</text>
	</g>
	<g>
		<path class="st14" d="M113.4,71.6c2.1,0.4,4.3,0.6,6.4,1.1C136,76.4,148.6,90,151,106.4c1.4,9.6-0.3,18.6-5.1,27
			c-2,3.5-1.6,7.1,1.3,10c0.9,0.9,1.7,1.7,2.6,2.6c0.3,0.3,0.6,0.3,0.9,0c0.9-0.9,1.8-1.8,2.7-2.7c1.3-1.3,2.7-1.2,4,0
			c7.4,7.4,14.9,14.9,22.3,22.3c3.6,3.6,3.6,8.9,0,12.6c-1.3,1.3-2.6,2.6-3.9,3.9c-3.6,3.6-9,3.6-12.6,0
			c-7.5-7.4-14.9-14.9-22.3-22.3c-1.3-1.3-1.3-2.7,0-4.1c0.9-0.9,1.8-1.8,2.7-2.6c0.3-0.3,0.4-0.5,0-0.9c-1.1-1.1-2.2-2.3-3.4-3.3
			c-2.5-2.2-5.9-2.4-9-0.7c-4.2,2.4-8.7,4.1-13.5,5c-20.7,3.9-41.4-8.9-47-29.2c-0.7-2.4-1.1-4.9-1.4-7.4c0-0.3-0.1-0.6-0.2-0.9
			c0-2.1,0-4.1,0-6.2c0.4-0.8,0.3-1.7,0.4-2.6c2.2-16.6,15-30.6,31.3-34.3c2.1-0.5,4.2-0.6,6.3-1.1
			C109.3,71.6,111.4,71.6,113.4,71.6z M140.7,143c-2-4.8-1.1-9,1.2-13.2c4-7,5.2-14.6,4-22.6c-2.9-19.7-21.4-33.2-41.1-30.1
			c-20.2,3.2-33.7,22.5-29.7,42.6c4.7,23.9,31.5,36.3,52.7,24.4C131.9,141.8,136,141.1,140.7,143z M169.2,179.5
			c1.2,0,2.1-0.3,2.8-0.9c1.4-1.4,2.9-2.8,4.2-4.2c1.4-1.5,1.4-3.6,0-5c-6.7-6.8-13.5-13.5-20.3-20.3c-0.5-0.5-0.7-0.4-1.1,0
			c-2.7,2.7-5.3,5.4-8,8c-0.5,0.5-0.4,0.8,0,1.2c6.7,6.7,13.4,13.4,20.1,20.1C167.6,179.2,168.5,179.5,169.2,179.5z"/>
		<path class="st14" d="M79.5,112.7c0.1-17,13.9-30.8,30.9-30.7c17.1,0.1,30.9,14,30.8,31c-0.1,17-14,30.8-31,30.7
			C93.3,143.5,79.5,129.6,79.5,112.7z M136.1,112.8c0.1-14.1-11.4-25.6-25.7-25.7c-14-0.1-25.6,11.4-25.7,25.4
			c-0.1,14.3,11.3,25.9,25.6,26C124.5,138.5,136,127,136.1,112.8z"/>
		<g>
			<path class="st14" d="M114,122.8c0-7.5,0-15.1,0-22.6c0-1-0.3-1.3-1.3-1.3c-0.7,0-1.4,0-2.1,0c-0.7,0-1.5,0-2.4,0
				c-1.1,0-1.4,0.3-1.4,1.4c0,2.6,0,5.2,0,7.8l0,3.3l0,3.3c0,2.7,0,5.3,0,8c0,1.1,0.3,1.4,1.4,1.4c1.5,0,3,0,4.5,0
				C113.7,124,114,123.8,114,122.8z"/>
			<path class="st14" d="M126.9,122.8c0-4.9,0-10,0-15c0-0.8-0.2-1.3-1.4-1.3c-0.7,0-1.4,0-2.1,0c-0.8,0-1.6,0-2.4,0
				c-1.1,0-1.4,0.4-1.4,1.4c0,1.8,0,3.6,0,5.4l0,1.9l0,2.3c0,1.8,0,3.5,0,5.3c0,0.9,0.3,1.2,1.2,1.2c1.4,0,2.9,0,4.8,0
				C126.5,124,126.9,123.7,126.9,122.8z"/>
			<path class="st14" d="M101.1,123c0-3.3,0-6.7,0-10.1c0-0.8-0.3-1.1-1.2-1.2c-0.8,0-1.6,0-2.4,0c-0.8,0-1.6,0-2.4,0
				c-0.9,0-1.2,0.3-1.2,1.2c0,1.2,0,2.3,0,3.5l0,1.5l0,1.6c0,1.2,0,2.4,0,3.5c0,0.7,0.3,1,1,1.1c1.7,0,3.4,0,5.1,0
				C100.8,124,101.1,123.7,101.1,123z"/>
		</g>
	</g>
</g>
<g id="Слой_2">
</g>
</svg>
