<?xml version="1.0" encoding="utf-8"?>
<!-- Generator: Adobe Illustrator 19.1.0, SVG Export Plug-In . SVG Version: 6.00 Build 0)  -->
<svg version="1.1" xmlns="http://www.w3.org/2000/svg" xmlns:xlink="http://www.w3.org/1999/xlink" x="0px" y="0px"
	 viewBox="0 0 254.1 254.1" style="enable-background:new 0 0 254.1 254.1;" xml:space="preserve">
<style type="text/css">
	.st0{stroke:#000000;stroke-width:3;stroke-linecap:round;stroke-linejoin:round;stroke-miterlimit:10;}
	.st1{opacity:0.58;fill:#FFFFFF;}
	.st2{fill:#FFFFFF;stroke:#1D1D1B;stroke-width:3;stroke-miterlimit:10;}
	.st3{stroke:#FFFFFF;stroke-width:3;stroke-miterlimit:10;}
	.st4{opacity:0.37;}
	.st5{fill:#FFFFFF;}
	.st6{fill:#545454;stroke:#000000;stroke-width:5;stroke-miterlimit:10;}
	.st7{fill:#FFFFFF;stroke:#000000;stroke-width:5;stroke-miterlimit:10;}
	.st8{opacity:0.35;fill:#FFFFFF;}
	.st9{opacity:0.5;fill:#FFFFFF;}
	.st10{fill:#545454;}
	.st11{opacity:0.58;}
	.st12{opacity:0.6;fill:#FFFFFF;}
	.st13{fill:#B5B5B5;}
	.st14{fill:#00129B;}
	.st15{fill:#92E8FF;}
	.st16{opacity:0.6;}
</style>
<g id="Слой_1">
	<g>
		<path class="st14" d="M254,122.7c-0.5-14.5-3.4-28.5-8.4-41.4c-0.7-1.7-1.3-3.4-2.1-5c-1.7-4-3.7-7.9-5.8-11.7
			c-0.8-1.5-1.7-2.9-2.6-4.3c-2.1-3.5-4.4-6.8-6.9-10c-1.3-1.7-2.6-3.4-4-5c-3.1-3.7-6.4-7.2-9.8-10.5c-1.8-1.7-3.7-3.4-5.6-5
			c-4.5-3.8-9.3-7.3-14.3-10.5c-2.8-1.8-5.7-3.4-8.7-5C168.2,5.2,148.2,0,127,0c-39.4,0-74.6,18-98,46.2c-1.3,1.6-2.7,3.3-3.9,5
			C16,63.5,9,77.5,4.7,92.6c-0.5,1.7-0.9,3.3-1.3,5C1.9,104.2,0.8,111,0.3,118c-0.1,1.7-0.2,3.3-0.3,5c0,1.3-0.1,2.7-0.1,4.1
			c0,2.1,0.1,4.3,0.2,6.4c0.1,1.7,0.2,3.3,0.4,5c0.3,3.5,0.8,7,1.4,10.5c0.3,1.7,0.6,3.3,1,5c0.8,3.5,1.7,7,2.7,10.5
			c0.5,1.7,1.1,3.3,1.7,5c2.6,7.4,5.9,14.6,9.9,21.3c1,1.7,2,3.4,3.1,5c2.3,3.6,4.8,7.1,7.5,10.5c1.4,1.7,2.8,3.4,4.2,5
			c3.3,3.7,6.7,7.2,10.4,10.5c1.9,1.7,3.9,3.4,5.9,5c4.8,3.8,10,7.3,15.3,10.5c3.1,1.8,6.3,3.5,9.5,5c16.4,7.7,34.7,12.1,54,12.1
			c37.9,0,72.1-16.7,95.4-43.2c1.4-1.6,2.8-3.3,4.2-5c9.7-12.2,17.2-26.2,21.9-41.4c0.5-1.7,1-3.3,1.4-5c2.7-10.2,4.1-20.8,4.2-31.8
			c0-0.2,0-0.5,0-0.7C254.1,125.6,254,124.2,254,122.7z M249,122.7h-77.6c-2.9,0-5.2-2.3-5.2-5.2s2.3-5.2,5.2-5.2h0.3h39.7h11.4
			c5.6,0,10.2-4.6,10.2-10.2c0-5.6-4.6-10.2-10.2-10.2h-11.4h-17.3c-2.9,0-5.2-2.3-5.2-5.2s2.3-5.2,5.2-5.2h46.1
			C245.4,94.2,248.5,108.2,249,122.7z M217.6,45.3h-29.3c-2.9,0-5.2-2.3-5.2-5.2s2.3-5.2,5.2-5.2H207
			C210.7,38.2,214.3,41.7,217.6,45.3z M200.8,29.9h-12.5c-5.6,0-10.2,4.6-10.2,10.2s4.6,10.2,10.2,10.2h33.6
			c2.7,3.3,5.2,6.8,7.6,10.5h-95.6c-2.9,0-5.2-2.3-5.2-5.2s2.3-5.2,5.2-5.2h10.9c5.6,0,10.2-4.6,10.2-10.2s-4.6-10.2-10.2-10.2
			h-10.1c-2.9,0-5.2-2.3-5.2-5.2s2.3-5.2,5.2-5.2h49.8C190.3,22.5,195.7,26,200.8,29.9z M31.5,51.2h60.1c2.9,0,5.2,2.3,5.2,5.2
			s-2.3,5.2-5.2,5.2h-3.8H71.6H49.8c-5.6,0-10.2,4.6-10.2,10.2c0,5.6,4.6,10.2,10.2,10.2h10.4h0.9h2c2.9,0,5.2,2.3,5.2,5.2
			s-2.3,5.2-5.2,5.2H10C14.4,77.4,21.8,63.4,31.5,51.2z M7,148.9c-0.6-3.4-1.1-6.9-1.4-10.5h1.9h11.4c2.9,0,5.2,2.3,5.2,5.2
			s-2.3,5.2-5.2,5.2H7z M8,153.9h10.9c5.6,0,10.2-4.6,10.2-10.2c0-5.6-4.6-10.2-10.2-10.2H7.5H5.2C5.1,131.3,5,129.2,5,127
			c0-1.4,0-2.7,0.1-4.1h122.7c2.9,0,5.2,2.3,5.2,5.2c0,2.9-2.3,5.2-5.2,5.2h-0.3H87.7H76.3c-5.6,0-10.2,4.6-10.2,10.2
			c0,5.6,4.6,10.2,10.2,10.2h11.4H105c2.9,0,5.2,2.3,5.2,5.2s-2.3,5.2-5.2,5.2H10.8C9.7,160.9,8.8,157.4,8,153.9z M34.2,206.1
			c-2.8-3.3-5.5-6.8-8-10.5H87c2.9,0,5.2,2.3,5.2,5.2s-2.3,5.2-5.2,5.2H69.7H34.2z M56.5,226.6h13.3h39.7h0.3c2.9,0,5.2,2.3,5.2,5.2
			s-2.3,5.2-5.2,5.2H74.1C67.9,234,62,230.5,56.5,226.6z M220.1,205.9h-37.8c-2.9,0-5.2-2.3-5.2-5.2s2.3-5.2,5.2-5.2h0.3h11.6h11.4
			c5.6,0,10.2-4.6,10.2-10.2c0-5.6-4.6-10.2-10.2-10.2h-11.4h-11.1c-2.9,0-5.2-2.3-5.2-5.2s2.3-5.2,5.2-5.2h60.1
			C238.2,179.9,230.3,193.9,220.1,205.9z M244.7,159.5h-61.6c-5.6,0-10.2,4.6-10.2,10.2c0,5.5,4.3,9.9,9.7,10.2v0h0.5h11.1h11.4
			c2.9,0,5.2,2.3,5.2,5.2s-2.3,5.2-5.2,5.2h-11.4h-11.6h-0.3c-5.6,0-10.2,4.6-10.2,10.2s4.6,10.2,10.2,10.2h33.4
			c-22.3,23.5-53.7,38.2-88.6,38.2c-14.4,0-28.1-2.5-40.9-7.1h23.6c5.6,0,10.2-4.6,10.2-10.2s-4.6-10.2-10.2-10.2h-0.3H69.7H49.9
			c-4-3.2-7.7-6.7-11.3-10.5h31.1H87h0.5v0c5.4-0.3,9.7-4.7,9.7-10.2c0-5.6-4.6-10.2-10.2-10.2H22.9c-4.1-6.7-7.6-13.8-10.4-21.3
			H105c5.6,0,10.2-4.6,10.2-10.2c0-5.5-4.3-9.9-9.7-10.2v0H105H87.7H76.3c-2.9,0-5.2-2.3-5.2-5.2s2.3-5.2,5.2-5.2h11.4h39.7h0.3
			c5.6,0,10.2-4.6,10.2-10.2c0-5.6-4.6-10.2-10.2-10.2H5.3c0.5-7,1.6-13.8,3.3-20.4h54.5c5.6,0,10.2-4.6,10.2-10.2
			s-4.6-10.2-10.2-10.2h-2h-0.9H49.8c-2.9,0-5.2-2.3-5.2-5.2s2.3-5.2,5.2-5.2h21.9h16.1h3.8c5.6,0,10.2-4.6,10.2-10.2
			s-4.6-10.2-10.2-10.2H35.7C58,21,90.7,5,127,5c16.7,0,32.6,3.4,47.1,9.4h-39.3c-5.6,0-10.2,4.6-10.2,10.2c0,5.5,4.3,9.9,9.7,10.2
			v0h10.6c2.9,0,5.2,2.3,5.2,5.2s-2.3,5.2-5.2,5.2h-11.2v0c-5.5,0.1-10,4.7-10,10.2c0,5.6,4.6,10.2,10.2,10.2h98.7
			c2,3.4,3.8,7,5.5,10.6h-43.9c-5.6,0-10.2,4.6-10.2,10.2c0,5.5,4.3,9.9,9.7,10.2v0h0.5h17.3h11.4c2.9,0,5.2,2.3,5.2,5.2
			s-2.3,5.2-5.2,5.2h-11.4h-39.7h-0.3c-5.6,0-10.2,4.6-10.2,10.2s4.6,10.2,10.2,10.2h77.7C249,138.7,247.5,149.4,244.7,159.5z"/>
		<path class="st14" d="M141.7,197.5c-6.4,0-11.7,5.2-11.7,11.7s5.2,11.7,11.7,11.7s11.7-5.2,11.7-11.7S148.1,197.5,141.7,197.5z
			 M141.7,215.9c-3.7,0-6.7-3-6.7-6.7c0-3.7,3-6.7,6.7-6.7s6.7,3,6.7,6.7C148.4,212.9,145.4,215.9,141.7,215.9z"/>
		<path class="st14" d="M96.8,16.9c-6.4,0-11.7,5.2-11.7,11.7s5.2,11.7,11.7,11.7s11.7-5.2,11.7-11.7S103.2,16.9,96.8,16.9z
			 M96.8,35.3c-3.7,0-6.7-3-6.7-6.7c0-3.7,3-6.7,6.7-6.7s6.7,3,6.7,6.7C103.4,32.3,100.4,35.3,96.8,35.3z"/>
		<path class="st15" d="M177.9,169.8c0,2.9,2.3,5.2,5.2,5.2h11.1h11.4c5.6,0,10.2,4.6,10.2,10.2c0,5.6-4.6,10.2-10.2,10.2h-11.4
			h-11.6h-0.3c-2.9,0-5.2,2.3-5.2,5.2s2.3,5.2,5.2,5.2h37.8c10.2-12,18.1-26,23.1-41.4h-60.1C180.2,164.5,177.9,166.9,177.9,169.8z
			 M182.3,202.9c-1.2,0-2.2-1-2.2-2.2s1-2.2,2.2-2.2h0.3h11.6h11.4c7.3,0,13.2-5.9,13.2-13.2c0-7.3-5.9-13.2-13.2-13.2h-11.4h-11.1
			c-1.2,0-2.2-1-2.2-2.2c0-1.2,1-2.2,2.2-2.2H239c-4.7,12.9-11.5,24.7-20.3,35.4H182.3z"/>
		<path class="st15" d="M68.3,87.4c0-2.9-2.3-5.2-5.2-5.2h-2h-0.9H49.8c-5.6,0-10.2-4.6-10.2-10.2c0-5.6,4.6-10.2,10.2-10.2h21.9
			h16.1h3.8c2.9,0,5.2-2.3,5.2-5.2s-2.3-5.2-5.2-5.2H31.5c-9.6,12.1-17,26.1-21.5,41.4h53.1C66,92.6,68.3,90.3,68.3,87.4z
			 M91.5,54.2c1.2,0,2.2,1,2.2,2.2c0,1.2-1,2.2-2.2,2.2h-3.8H71.6H49.8c-7.3,0-13.2,5.9-13.2,13.2c0,7.3,5.9,13.2,13.2,13.2h10.4
			h0.9h2c1.2,0,2.2,1,2.2,2.2c0,1.2-1,2.2-2.2,2.2H14c4.2-12.8,10.6-24.6,18.9-35.4H91.5z"/>
		<path class="st15" d="M188.3,45.3h29.3c-3.3-3.7-6.9-7.2-10.7-10.5h-18.7c-2.9,0-5.2,2.3-5.2,5.2S185.4,45.3,188.3,45.3z
			 M188.3,37.9h17.5c1.6,1.4,3.2,2.9,4.8,4.5h-22.3c-1.2,0-2.2-1-2.2-2.2C186.1,38.9,187.1,37.9,188.3,37.9z"/>
		<path class="st15" d="M240.2,81.4h-46.1c-2.9,0-5.2,2.3-5.2,5.2s2.3,5.2,5.2,5.2h17.3h11.4c5.6,0,10.2,4.6,10.2,10.2
			c0,5.6-4.6,10.2-10.2,10.2h-11.4h-39.7h-0.3c-2.9,0-5.2,2.3-5.2,5.2s2.3,5.2,5.2,5.2H249C248.5,108.2,245.4,94.2,240.2,81.4z
			 M169.2,117.5c0-1.2,1-2.2,2.2-2.2h0.3h39.7h11.4c7.3,0,13.2-5.9,13.2-13.2c0-7.3-5.9-13.2-13.2-13.2h-11.4h-17.3
			c-1.2,0-2.2-1-2.2-2.2s1-2.2,2.2-2.2h44.1c4.4,11.3,6.9,23.2,7.7,35.4h-74.5C170.2,119.7,169.2,118.7,169.2,117.5z"/>
		<path class="st15" d="M87,206.1c2.9,0,5.2-2.3,5.2-5.2s-2.3-5.2-5.2-5.2H26.2c2.5,3.6,5.1,7.1,8,10.5h35.6H87z M89.2,200.9
			c0,1.2-1,2.2-2.2,2.2H69.7H35.5c-1.2-1.5-2.4-2.9-3.5-4.5h55C88.2,198.6,89.2,199.6,89.2,200.9z"/>
		<path class="st15" d="M109.7,226.6h-0.3H69.7H56.5c5.6,4,11.5,7.5,17.7,10.5h35.6c2.9,0,5.2-2.3,5.2-5.2S112.6,226.6,109.7,226.6z
			 M109.7,234H74.8c-2.8-1.4-5.6-2.9-8.2-4.5h3.1h39.7h0.3c1.2,0,2.2,1,2.2,2.2C112,233,111,234,109.7,234z"/>
		<path class="st15" d="M141.7,194.5c-8.1,0-14.7,6.6-14.7,14.7c0,8.1,6.6,14.7,14.7,14.7s14.7-6.6,14.7-14.7
			C156.4,201.1,149.8,194.5,141.7,194.5z M141.7,220.9c-6.4,0-11.7-5.2-11.7-11.7s5.2-11.7,11.7-11.7s11.7,5.2,11.7,11.7
			S148.1,220.9,141.7,220.9z"/>
		<path class="st15" d="M141.7,202.5c-3.7,0-6.7,3-6.7,6.7c0,3.7,3,6.7,6.7,6.7s6.7-3,6.7-6.7C148.4,205.5,145.4,202.5,141.7,202.5z
			 M141.7,212.9c-2,0-3.7-1.7-3.7-3.7c0-2,1.7-3.7,3.7-3.7s3.7,1.7,3.7,3.7C145.4,211.2,143.7,212.9,141.7,212.9z"/>
		<path class="st15" d="M96.8,35.3c3.7,0,6.7-3,6.7-6.7c0-3.7-3-6.7-6.7-6.7s-6.7,3-6.7,6.7C90.1,32.3,93.1,35.3,96.8,35.3z
			 M96.8,24.9c2,0,3.7,1.7,3.7,3.7c0,2-1.7,3.7-3.7,3.7s-3.7-1.7-3.7-3.7C93.1,26.5,94.7,24.9,96.8,24.9z"/>
	</g>
	<path class="st5" d="M189.5,56H66.1c-5.2,0-9.5,4.3-9.5,9.5v123.4c0,5.2,4.3,9.5,9.5,9.5h123.4c5.2,0,9.5-4.3,9.5-9.5V65.5
		C199,60.2,194.7,56,189.5,56z"/>
	<g>
		<path class="st14" d="M189.5,51H66.1c-8,0-14.5,6.5-14.5,14.5v123.4c0,8,6.5,14.5,14.5,14.5h123.4c8,0,14.5-6.5,14.5-14.5V65.5
			C204,57.5,197.5,51,189.5,51z M199,188.9c0,5.2-4.3,9.5-9.5,9.5H66.1c-5.2,0-9.5-4.3-9.5-9.5V65.5c0-5.2,4.3-9.5,9.5-9.5h123.4
			c5.2,0,9.5,4.3,9.5,9.5V188.9z"/>
	</g>
	<g>
		<path class="st14" d="M173.4,98.5c0.2-3-0.1-5.9-0.9-8.6c-0.7-2.3-2.2-3.8-4.6-4.6c-2.2-0.7-4.4-1.1-7-1c-3.2,0-6.7,0.5-10.5,1.5
			c-4.1,1-8.2,2.5-12.4,4.5c-0.2,0.1-0.5,0.2-0.8,0.4c0,0,0,0-0.1,0l-4.7,2.5c-3.5,2-6.8,4.4-9.9,7c-0.3,0.3-0.4,0.3-0.6,0.2
			c-1.6-0.6-3.4-0.9-5.4-1.1c-8.1-0.7-15.3,1.5-21.2,6.4c-3.9,3.2-6.1,7.1-6.6,11.6c-0.1,1.1,0.1,1.9,0.6,2.5
			c0.5,0.6,1.3,0.8,2.5,0.7c2-0.1,4-0.2,5.9-0.4c3.3-0.2,6.7-0.4,10-0.6c0.7,0,1.1,0.1,1.5,0.5c-1.4,0.8-2.9,1.7-4.3,2.6l-1.5,0.9
			c-1,0.6-1.6,1.3-1.7,2.1c-0.1,0.8,0.3,1.6,1.1,2.5c8.9,8.9,17.8,17.8,26.7,26.7c0.6,0.6,1.5,1.3,2.5,1.2c1.1-0.1,1.8-1.1,2.2-1.8
			l0.6-1c0.9-1.6,1.9-3.1,2.8-4.7c0.4,0.5,0.6,0.9,0.5,1.6c-0.3,3.7-0.5,7.5-0.7,11.2c-0.1,1.5-0.2,3.1-0.3,4.6c0,0.7,0,1.8,0.7,2.5
			c0.6,0.5,1.3,0.7,1.9,0.7c0.2,0,0.4,0,0.6,0c3.1-0.3,6-1.6,8.8-3.9c8-6.6,11.4-18.8,8.2-29c-0.2-0.5-0.1-0.7,0.2-1.1
			C167.3,123.3,172.4,111.3,173.4,98.5z M165.9,90c1.1,0.3,1.7,0.9,2,2c0.8,3.2,0.6,6.4,0.3,9.1c-0.1,0.4-0.1,0.9-0.2,1.3
			c0,0.2-0.1,0.3-0.1,0.5c-1.6-1.7-3.3-3.3-5-5l-3.5-3.5c-1.5-1.5-3-3-4.5-4.5C158.4,89.4,162.2,89,165.9,90z M109.3,114.3
			c-0.2,0.3-0.3,0.3-0.4,0.3c-3.6,0.2-7.2,0.4-10.9,0.6l-3.4,0.2c-0.1,0-0.3,0-0.4,0c0.1-0.2,0.2-0.5,0.3-0.7
			c1.7-3.7,4.8-6.5,9.4-8.5c3.1-1.4,6.4-2.1,9.7-2.1c1.4,0,2.8,0.1,4.3,0.4C114.8,107.6,112,110.9,109.3,114.3z M134.1,145.1
			c-0.3,0.5-0.6,0.9-0.9,1.4c-0.6,1-1.2,2-1.8,3c-5.5-5.6-11.1-11.1-16.6-16.6l-4.5-4.5c-0.2-0.2-0.4-0.4-0.6-0.6
			c-0.4-0.4-0.8-0.9-1.3-1.3c1.7-1,3.1-1.8,4.3-2.6c0.1-0.1,0.1-0.1,0.2-0.1c0,0,0.1,0.1,0.2,0.2c4.2,4.3,8.5,8.5,12.7,12.8l4.6,4.6
			c1.2,1.2,2.4,2.4,3.6,3.6C134.1,145,134.1,145,134.1,145.1C134.1,145.1,134.1,145.1,134.1,145.1z M147.2,160.6
			c-1.4,1.4-2.9,2.4-4.7,3c0.3-4.9,0.6-9.8,0.8-14.7c0-0.1,0-0.2,0.2-0.3c3.6-2.7,6.9-5.6,9.8-8.7c0.2,1.2,0.4,2.7,0.4,4.2
			C153.5,151.1,151.4,156.5,147.2,160.6z M140.7,144.6c-0.9-0.9-1.8-1.8-2.7-2.7l-24.5-24.5l-0.1-0.1c0,0,0,0-0.1,0
			c5.8-7.4,11.4-12.7,17.5-16.9c1.1-0.7,2.2-1.4,3.3-2.1L140,95c2.6-1.3,5.6-2.5,9-3.6c0.3-0.1,0.3-0.1,0.6,0.1
			c6.4,6.4,11.6,11.7,16.6,16.6c0.4,0.4,0.4,0.5,0.2,1C162.1,123,153.6,134.6,140.7,144.6z"/>
		<path class="st14" d="M144.2,98.2C144.2,98.2,144.2,98.2,144.2,98.2c-8.5,0-15.3,6.9-15.3,15.4c0,4.1,1.6,8,4.5,10.9
			c2.9,2.9,6.8,4.5,10.9,4.5c0,0,0,0,0,0c4.2,0,8.1-1.6,11-4.5c2.9-2.9,4.5-6.8,4.5-11C159.7,105.1,152.8,98.2,144.2,98.2z
			 M154.7,113.7c0,2.8-1.1,5.4-3.1,7.4c-2,1.9-4.6,3-7.3,3c0,0-0.1,0-0.1,0c-5.7-0.1-10.4-4.8-10.4-10.4c0.1-5.9,4.7-10.5,10.6-10.5
			c0,0,0,0,0,0C150.1,103.2,154.8,107.9,154.7,113.7z"/>
		<path class="st14" d="M107.8,145.1c0.5-0.4,1.1-1.1,1-2.1c0-1-0.4-1.8-1.3-2.2c-0.9-0.5-1.8-0.4-2.6,0.1c-0.3,0.2-0.5,0.4-0.7,0.6
			l-0.1,0.1c-8.4,8.4-16.7,16.7-25.1,25.1l-0.1,0.1c-0.2,0.2-0.5,0.5-0.7,0.8c-0.4,0.6-0.5,1.3-0.3,2c0.2,0.7,0.7,1.3,1.3,1.6
			c0.3,0.2,0.7,0.3,1.1,0.3c0.6,0,1.2-0.2,1.9-0.9l25.4-25.4L107.8,145.1z"/>
		<path class="st14" d="M126.8,153.8c-0.7-0.3-1.8-0.5-2.9,0.7l-3.4,3.4c-4.3,4.3-8.5,8.5-12.8,12.8c-1.1,1.1-1.2,2.6-0.2,3.6
			c0.5,0.5,1.1,0.8,1.7,0.8c0,0,0,0,0,0c0.7,0,1.4-0.3,2-0.9c3.5-3.5,6.9-6.9,10.4-10.4l5.8-5.8c0.4-0.4,0.9-1,0.9-2l0-0.1l0-0.1
			C128.2,154.9,127.7,154.2,126.8,153.8z"/>
		<path class="st14" d="M93.9,142.3L93.9,142.3l0.2,0c0.7,0,1.3-0.3,1.8-0.8l0.9-0.9c2.3-2.3,4.6-4.6,6.9-6.9c0.9-0.9,1-2.1,0.4-3.2
			c-0.4-0.6-1-1-1.7-1.1c-0.8-0.1-1.6,0.2-2.3,0.9c-1.4,1.3-2.7,2.7-4.1,4.1l-2.2,2.2c-0.5,0.5-1,1-1.5,1.5
			c-0.7,0.8-0.9,1.8-0.5,2.8C92,141.4,92.6,142.1,93.9,142.3z"/>
		<path class="st14" d="M110.4,159.2l1.3-1.3c0.5-0.5,0.7-1.2,0.8-1.6l0-0.1l0-0.1c-0.1-1-0.6-1.8-1.5-2.1c-1-0.5-2.1-0.3-2.9,0.6
			l-0.9,0.9c-1.1,1.1-2.2,2.1-3.2,3.2c-1,1-1.1,2.6-0.2,3.5c0.5,0.5,1.1,0.8,1.7,0.8c0,0,0,0,0.1,0c0.7,0,1.3-0.3,1.8-0.8
			C108.5,161.1,109.4,160.1,110.4,159.2z"/>
		<path class="st14" d="M86.2,149.8C86.2,149.8,86.2,149.8,86.2,149.8c0.7,0,1.4-0.2,1.8-0.7c0.5-0.5,0.7-1.1,0.7-1.8
			c0-1.4-1.1-2.4-2.5-2.4c0,0,0,0,0,0c-1.4,0-2.4,1-2.5,2.4C83.8,148.7,84.8,149.8,86.2,149.8z"/>
		<path class="st14" d="M93.4,170.8C93.4,170.8,93.4,170.8,93.4,170.8c-1.4,0-2.4,1-2.5,2.4c0,1.4,1,2.4,2.4,2.5c0,0,0,0,0.1,0
			c0.7,0,1.3-0.2,1.8-0.7c0.5-0.5,0.7-1.1,0.7-1.8C95.8,171.8,94.8,170.8,93.4,170.8z"/>
	</g>
</g>
<g id="Слой_2">
</g>
</svg>
