<?xml version="1.0" encoding="utf-8"?>
<!-- Generator: Adobe Illustrator 19.1.0, SVG Export Plug-In . SVG Version: 6.00 Build 0)  -->
<svg version="1.1" id="Слой_1" xmlns="http://www.w3.org/2000/svg" xmlns:xlink="http://www.w3.org/1999/xlink" x="0px" y="0px"
	 viewBox="0 0 254.1 254.1" style="enable-background:new 0 0 254.1 254.1;" xml:space="preserve">
<style type="text/css">
	.st0{fill:#00129B;}
	.st1{fill:#92E8FF;}
	.st2{fill:#FFFFFF;}
</style>
<g>
	<path class="st0" d="M254,122.7c-0.5-14.5-3.4-28.5-8.4-41.4c-0.7-1.7-1.3-3.4-2.1-5c-1.7-4-3.7-7.9-5.8-11.7
		c-0.8-1.5-1.7-2.9-2.6-4.3c-2.1-3.5-4.4-6.8-6.9-10c-1.3-1.7-2.6-3.4-4-5c-3.1-3.7-6.4-7.2-9.8-10.5c-1.8-1.7-3.7-3.4-5.6-5
		c-4.5-3.8-9.3-7.3-14.3-10.5c-2.8-1.8-5.7-3.4-8.7-5C168.2,5.2,148.2,0,127,0c-39.4,0-74.6,18-98,46.2c-1.3,1.6-2.7,3.3-3.9,5
		C16,63.5,9,77.5,4.7,92.6c-0.5,1.7-0.9,3.3-1.3,5C1.9,104.2,0.8,111,0.3,118c-0.1,1.7-0.2,3.3-0.3,5c0,1.3-0.1,2.7-0.1,4.1
		c0,2.1,0.1,4.3,0.2,6.4c0.1,1.7,0.2,3.3,0.4,5c0.3,3.5,0.8,7,1.4,10.5c0.3,1.7,0.6,3.3,1,5c0.8,3.5,1.7,7,2.7,10.5
		c0.5,1.7,1.1,3.3,1.7,5c2.6,7.4,5.9,14.6,9.9,21.3c1,1.7,2,3.4,3.1,5c2.3,3.6,4.8,7.1,7.5,10.5c1.4,1.7,2.8,3.4,4.2,5
		c3.3,3.7,6.7,7.2,10.4,10.5c1.9,1.7,3.9,3.4,5.9,5c4.8,3.8,10,7.3,15.3,10.5c3.1,1.8,6.3,3.5,9.5,5c16.4,7.7,34.7,12.1,54,12.1
		c37.9,0,72.1-16.7,95.4-43.2c1.4-1.6,2.8-3.3,4.2-5c9.7-12.2,17.2-26.2,21.9-41.4c0.5-1.7,1-3.3,1.4-5c2.7-10.2,4.1-20.8,4.2-31.8
		c0-0.2,0-0.5,0-0.7C254.1,125.6,254,124.2,254,122.7z M249,122.7h-77.6c-2.9,0-5.2-2.3-5.2-5.2s2.3-5.2,5.2-5.2h0.3h39.7h11.4
		c5.6,0,10.2-4.6,10.2-10.2c0-5.6-4.6-10.2-10.2-10.2h-11.4h-17.3c-2.9,0-5.2-2.3-5.2-5.2s2.3-5.2,5.2-5.2h46.1
		C245.4,94.2,248.5,108.2,249,122.7z M217.6,45.3h-29.3c-2.9,0-5.2-2.3-5.2-5.2s2.3-5.2,5.2-5.2H207
		C210.7,38.2,214.3,41.7,217.6,45.3z M200.8,29.9h-12.5c-5.6,0-10.2,4.6-10.2,10.2s4.6,10.2,10.2,10.2h33.6
		c2.7,3.3,5.2,6.8,7.6,10.5h-95.6c-2.9,0-5.2-2.3-5.2-5.2s2.3-5.2,5.2-5.2h10.9c5.6,0,10.2-4.6,10.2-10.2s-4.6-10.2-10.2-10.2h-10.1
		c-2.9,0-5.2-2.3-5.2-5.2s2.3-5.2,5.2-5.2h49.8C190.3,22.5,195.7,26,200.8,29.9z M31.5,51.2h60.1c2.9,0,5.2,2.3,5.2,5.2
		s-2.3,5.2-5.2,5.2h-3.8H71.6H49.8c-5.6,0-10.2,4.6-10.2,10.2c0,5.6,4.6,10.2,10.2,10.2h10.4h0.9h2c2.9,0,5.2,2.3,5.2,5.2
		s-2.3,5.2-5.2,5.2H10C14.4,77.4,21.8,63.4,31.5,51.2z M7,148.9c-0.6-3.4-1.1-6.9-1.4-10.5h1.9h11.4c2.9,0,5.2,2.3,5.2,5.2
		s-2.3,5.2-5.2,5.2H7z M8,153.9h10.9c5.6,0,10.2-4.6,10.2-10.2c0-5.6-4.6-10.2-10.2-10.2H7.5H5.2C5.1,131.3,5,129.2,5,127
		c0-1.4,0-2.7,0.1-4.1h122.7c2.9,0,5.2,2.3,5.2,5.2s-2.3,5.2-5.2,5.2h-0.3H87.7H76.3c-5.6,0-10.2,4.6-10.2,10.2
		c0,5.6,4.6,10.2,10.2,10.2h11.4H105c2.9,0,5.2,2.3,5.2,5.2s-2.3,5.2-5.2,5.2H10.8C9.7,160.9,8.8,157.4,8,153.9z M34.2,206.1
		c-2.8-3.3-5.5-6.8-8-10.5H87c2.9,0,5.2,2.3,5.2,5.2s-2.3,5.2-5.2,5.2H69.7H34.2z M56.5,226.6h13.3h39.7h0.3c2.9,0,5.2,2.3,5.2,5.2
		s-2.3,5.2-5.2,5.2H74.1C67.9,234,62,230.5,56.5,226.6z M220.1,205.9h-37.8c-2.9,0-5.2-2.3-5.2-5.2s2.3-5.2,5.2-5.2h0.3h11.6h11.4
		c5.6,0,10.2-4.6,10.2-10.2c0-5.6-4.6-10.2-10.2-10.2h-11.4h-11.1c-2.9,0-5.2-2.3-5.2-5.2s2.3-5.2,5.2-5.2h60.1
		C238.2,179.9,230.3,193.9,220.1,205.9z M244.7,159.5h-61.6c-5.6,0-10.2,4.6-10.2,10.2c0,5.5,4.3,9.9,9.7,10.2v0h0.5h11.1h11.4
		c2.9,0,5.2,2.3,5.2,5.2s-2.3,5.2-5.2,5.2h-11.4h-11.6h-0.3c-5.6,0-10.2,4.6-10.2,10.2s4.6,10.2,10.2,10.2h33.4
		c-22.3,23.5-53.7,38.2-88.6,38.2c-14.4,0-28.1-2.5-40.9-7.1h23.6c5.6,0,10.2-4.6,10.2-10.2s-4.6-10.2-10.2-10.2h-0.3H69.7H49.9
		c-4-3.2-7.7-6.7-11.3-10.5h31.1H87h0.5v0c5.4-0.3,9.7-4.7,9.7-10.2c0-5.6-4.6-10.2-10.2-10.2H22.9c-4.1-6.7-7.6-13.8-10.4-21.3H105
		c5.6,0,10.2-4.6,10.2-10.2c0-5.5-4.3-9.9-9.7-10.2v0H105H87.7H76.3c-2.9,0-5.2-2.3-5.2-5.2s2.3-5.2,5.2-5.2h11.4h39.7h0.3
		c5.6,0,10.2-4.6,10.2-10.2s-4.6-10.2-10.2-10.2H5.3c0.5-7,1.6-13.8,3.3-20.4h54.5c5.6,0,10.2-4.6,10.2-10.2s-4.6-10.2-10.2-10.2h-2
		h-0.9H49.8c-2.9,0-5.2-2.3-5.2-5.2s2.3-5.2,5.2-5.2h21.9h16.1h3.8c5.6,0,10.2-4.6,10.2-10.2s-4.6-10.2-10.2-10.2H35.7
		C58,21,90.7,5,127,5c16.7,0,32.6,3.4,47.1,9.4h-39.3c-5.6,0-10.2,4.6-10.2,10.2c0,5.5,4.3,9.9,9.7,10.2v0h10.6
		c2.9,0,5.2,2.3,5.2,5.2s-2.3,5.2-5.2,5.2h-11.2v0c-5.5,0.1-10,4.7-10,10.2c0,5.6,4.6,10.2,10.2,10.2h98.7c2,3.4,3.8,7,5.5,10.6
		h-43.9c-5.6,0-10.2,4.6-10.2,10.2c0,5.5,4.3,9.9,9.7,10.2v0h0.5h17.3h11.4c2.9,0,5.2,2.3,5.2,5.2s-2.3,5.2-5.2,5.2h-11.4h-39.7
		h-0.3c-5.6,0-10.2,4.6-10.2,10.2s4.6,10.2,10.2,10.2h77.7C249,138.7,247.5,149.4,244.7,159.5z"/>
	<path class="st0" d="M141.7,197.5c-6.4,0-11.7,5.2-11.7,11.7s5.2,11.7,11.7,11.7s11.7-5.2,11.7-11.7S148.1,197.5,141.7,197.5z
		 M141.7,215.9c-3.7,0-6.7-3-6.7-6.7c0-3.7,3-6.7,6.7-6.7s6.7,3,6.7,6.7C148.4,212.9,145.4,215.9,141.7,215.9z"/>
	<path class="st0" d="M96.8,16.9c-6.4,0-11.7,5.2-11.7,11.7s5.2,11.7,11.7,11.7s11.7-5.2,11.7-11.7S103.2,16.9,96.8,16.9z
		 M96.8,35.3c-3.7,0-6.7-3-6.7-6.7c0-3.7,3-6.7,6.7-6.7s6.7,3,6.7,6.7C103.4,32.3,100.4,35.3,96.8,35.3z"/>
	<path class="st1" d="M177.9,169.8c0,2.9,2.3,5.2,5.2,5.2h11.1h11.4c5.6,0,10.2,4.6,10.2,10.2c0,5.6-4.6,10.2-10.2,10.2h-11.4h-11.6
		h-0.3c-2.9,0-5.2,2.3-5.2,5.2s2.3,5.2,5.2,5.2h37.8c10.2-12,18.1-26,23.1-41.4h-60.1C180.2,164.5,177.9,166.9,177.9,169.8z
		 M182.3,202.9c-1.2,0-2.2-1-2.2-2.2s1-2.2,2.2-2.2h0.3h11.6h11.4c7.3,0,13.2-5.9,13.2-13.2c0-7.3-5.9-13.2-13.2-13.2h-11.4h-11.1
		c-1.2,0-2.2-1-2.2-2.2c0-1.2,1-2.2,2.2-2.2H239c-4.7,12.9-11.5,24.7-20.3,35.4H182.3z"/>
	<path class="st1" d="M68.3,87.4c0-2.9-2.3-5.2-5.2-5.2h-2h-0.9H49.8c-5.6,0-10.2-4.6-10.2-10.2c0-5.6,4.6-10.2,10.2-10.2h21.9h16.1
		h3.8c2.9,0,5.2-2.3,5.2-5.2s-2.3-5.2-5.2-5.2H31.5c-9.6,12.1-17,26.1-21.5,41.4h53.1C66,92.6,68.3,90.3,68.3,87.4z M91.5,54.2
		c1.2,0,2.2,1,2.2,2.2c0,1.2-1,2.2-2.2,2.2h-3.8H71.6H49.8c-7.3,0-13.2,5.9-13.2,13.2c0,7.3,5.9,13.2,13.2,13.2h10.4h0.9h2
		c1.2,0,2.2,1,2.2,2.2c0,1.2-1,2.2-2.2,2.2H14c4.2-12.8,10.6-24.6,18.9-35.4H91.5z"/>
	<path class="st1" d="M188.3,45.3h29.3c-3.3-3.7-6.9-7.2-10.7-10.5h-18.7c-2.9,0-5.2,2.3-5.2,5.2S185.4,45.3,188.3,45.3z
		 M188.3,37.9h17.5c1.6,1.4,3.2,2.9,4.8,4.5h-22.3c-1.2,0-2.2-1-2.2-2.2C186.1,38.9,187.1,37.9,188.3,37.9z"/>
	<path class="st1" d="M240.2,81.4h-46.1c-2.9,0-5.2,2.3-5.2,5.2s2.3,5.2,5.2,5.2h17.3h11.4c5.6,0,10.2,4.6,10.2,10.2
		c0,5.6-4.6,10.2-10.2,10.2h-11.4h-39.7h-0.3c-2.9,0-5.2,2.3-5.2,5.2s2.3,5.2,5.2,5.2H249C248.5,108.2,245.4,94.2,240.2,81.4z
		 M169.2,117.5c0-1.2,1-2.2,2.2-2.2h0.3h39.7h11.4c7.3,0,13.2-5.9,13.2-13.2c0-7.3-5.9-13.2-13.2-13.2h-11.4h-17.3
		c-1.2,0-2.2-1-2.2-2.2s1-2.2,2.2-2.2h44.1c4.4,11.3,6.9,23.2,7.7,35.4h-74.5C170.2,119.7,169.2,118.7,169.2,117.5z"/>
	<path class="st1" d="M87,206.1c2.9,0,5.2-2.3,5.2-5.2s-2.3-5.2-5.2-5.2H26.2c2.5,3.6,5.1,7.1,8,10.5h35.6H87z M89.2,200.9
		c0,1.2-1,2.2-2.2,2.2H69.7H35.5c-1.2-1.5-2.4-2.9-3.5-4.5h55C88.2,198.6,89.2,199.6,89.2,200.9z"/>
	<path class="st1" d="M109.7,226.6h-0.3H69.7H56.5c5.6,4,11.5,7.5,17.7,10.5h35.6c2.9,0,5.2-2.3,5.2-5.2S112.6,226.6,109.7,226.6z
		 M109.7,234H74.8c-2.8-1.4-5.6-2.9-8.2-4.5h3.1h39.7h0.3c1.2,0,2.2,1,2.2,2.2C112,233,111,234,109.7,234z"/>
	<path class="st1" d="M141.7,194.5c-8.1,0-14.7,6.6-14.7,14.7c0,8.1,6.6,14.7,14.7,14.7s14.7-6.6,14.7-14.7
		C156.4,201.1,149.8,194.5,141.7,194.5z M141.7,220.9c-6.4,0-11.7-5.2-11.7-11.7s5.2-11.7,11.7-11.7s11.7,5.2,11.7,11.7
		S148.1,220.9,141.7,220.9z"/>
	<path class="st1" d="M141.7,202.5c-3.7,0-6.7,3-6.7,6.7c0,3.7,3,6.7,6.7,6.7s6.7-3,6.7-6.7C148.4,205.5,145.4,202.5,141.7,202.5z
		 M141.7,212.9c-2,0-3.7-1.7-3.7-3.7c0-2,1.7-3.7,3.7-3.7s3.7,1.7,3.7,3.7C145.4,211.2,143.7,212.9,141.7,212.9z"/>
	<path class="st1" d="M96.8,35.3c3.7,0,6.7-3,6.7-6.7c0-3.7-3-6.7-6.7-6.7s-6.7,3-6.7,6.7C90.1,32.3,93.1,35.3,96.8,35.3z
		 M96.8,24.9c2,0,3.7,1.7,3.7,3.7c0,2-1.7,3.7-3.7,3.7s-3.7-1.7-3.7-3.7C93.1,26.5,94.7,24.9,96.8,24.9z"/>
</g>
<path class="st2" d="M189.5,56H66.1c-5.2,0-9.5,4.3-9.5,9.5v123.4c0,5.2,4.3,9.5,9.5,9.5h123.4c5.2,0,9.5-4.3,9.5-9.5V65.5
	C199,60.2,194.7,56,189.5,56z"/>
<g>
	<path class="st0" d="M108.4,66.9h-3.9c-0.4,0-0.8,0.3-0.8,0.8V69c0,0.4,0.4,0.8,0.8,0.8h3.9c0.4,0,0.8-0.3,0.8-0.8v-1.3
		C109.2,67.3,108.8,66.9,108.4,66.9z"/>
	<path class="st0" d="M130.4,66.9h-3.9c-0.4,0-0.8,0.3-0.8,0.8V69c0,0.4,0.4,0.8,0.8,0.8h3.9c0.4,0,0.8-0.3,0.8-0.8v-1.3
		C131.2,67.3,130.8,66.9,130.4,66.9z"/>
	<path class="st0" d="M119.4,66.9h-3.9c-0.4,0-0.8,0.3-0.8,0.8V69c0,0.4,0.4,0.8,0.8,0.8h3.9c0.4,0,0.8-0.3,0.8-0.8v-1.3
		C120.2,67.3,119.8,66.9,119.4,66.9z"/>
	<path class="st0" d="M175.2,69v-1.3c0-0.4-0.4-0.8-0.8-0.8h-3.9c-0.4,0-0.8,0.3-0.8,0.8V69c0,0.4,0.4,0.8,0.8,0.8h3.9
		C174.8,69.7,175.2,69.4,175.2,69z"/>
	<path class="st0" d="M152.4,66.9h-3.9c-0.4,0-0.8,0.3-0.8,0.8V69c0,0.4,0.4,0.8,0.8,0.8h3.9c0.4,0,0.8-0.3,0.8-0.8v-1.3
		C153.2,67.3,152.8,66.9,152.4,66.9z"/>
	<path class="st0" d="M141.4,66.9h-3.9c-0.4,0-0.8,0.3-0.8,0.8V69c0,0.4,0.4,0.8,0.8,0.8h3.9c0.4,0,0.8-0.3,0.8-0.8v-1.3
		C142.2,67.3,141.8,66.9,141.4,66.9z"/>
	<path class="st0" d="M163.4,66.9h-3.9c-0.4,0-0.8,0.3-0.8,0.8V69c0,0.4,0.4,0.8,0.8,0.8h3.9c0.4,0,0.8-0.3,0.8-0.8v-1.3
		C164.2,67.3,163.8,66.9,163.4,66.9z"/>
	<path class="st0" d="M177.1,95.5h-3.9c-0.4,0-0.8,0.3-0.8,0.8v1.3c0,0.4,0.4,0.8,0.8,0.8h3.9c0.4,0,0.8-0.3,0.8-0.8v-1.3
		C177.9,95.9,177.6,95.5,177.1,95.5z"/>
	<path class="st0" d="M177.1,103.5h-3.9c-0.4,0-0.8,0.3-0.8,0.8v1.3c0,0.4,0.4,0.8,0.8,0.8h3.9c0.4,0,0.8-0.3,0.8-0.8v-1.3
		C177.9,103.8,177.6,103.5,177.1,103.5z"/>
	<path class="st0" d="M177.1,111.2h-3.9c-0.4,0-0.8,0.3-0.8,0.8v1.3c0,0.4,0.4,0.8,0.8,0.8h3.9c0.4,0,0.8-0.3,0.8-0.8V112
		C177.9,111.6,177.6,111.2,177.1,111.2z"/>
	<path class="st0" d="M177.1,119.2h-3.9c-0.4,0-0.8,0.3-0.8,0.8v1.3c0,0.4,0.4,0.8,0.8,0.8h3.9c0.4,0,0.8-0.3,0.8-0.8v-1.3
		C177.9,119.5,177.6,119.2,177.1,119.2z"/>
	<path class="st0" d="M177.1,126.9h-3.9c-0.4,0-0.8,0.3-0.8,0.8v1.3c0,0.4,0.4,0.8,0.8,0.8h3.9c0.4,0,0.8-0.3,0.8-0.8v-1.3
		C177.9,127.3,177.6,126.9,177.1,126.9z"/>
	<path class="st0" d="M177.1,134.8h-3.9c-0.4,0-0.8,0.3-0.8,0.8v1.3c0,0.4,0.4,0.8,0.8,0.8h3.9c0.4,0,0.8-0.3,0.8-0.8v-1.3
		C177.9,135.2,177.6,134.8,177.1,134.8z"/>
	<path class="st0" d="M177.1,142.6h-3.9c-0.4,0-0.8,0.3-0.8,0.8v1.3c0,0.4,0.4,0.8,0.8,0.8h3.9c0.4,0,0.8-0.3,0.8-0.8v-1.3
		C177.9,143,177.6,142.6,177.1,142.6z"/>
	<path class="st0" d="M177.1,150.5h-3.9c-0.4,0-0.8,0.3-0.8,0.8v1.3c0,0.4,0.4,0.8,0.8,0.8h3.9c0.4,0,0.8-0.3,0.8-0.8v-1.3
		C177.9,150.8,177.6,150.5,177.1,150.5z"/>
	<path class="st0" d="M177.1,158.6h-3.9c-0.4,0-0.8,0.3-0.8,0.8v1.3c0,0.4,0.4,0.8,0.8,0.8h3.9c0.4,0,0.8-0.3,0.8-0.8v-1.3
		C177.9,158.9,177.6,158.6,177.1,158.6z"/>
	<path class="st0" d="M177.1,166.5h-3.9c-0.4,0-0.8,0.3-0.8,0.8v1.3c0,0.4,0.4,0.8,0.8,0.8h3.9c0.4,0,0.8-0.3,0.8-0.8v-1.3
		C177.9,166.8,177.6,166.5,177.1,166.5z"/>
	<path class="st0" d="M177.1,174.2h-3.9c-0.4,0-0.8,0.3-0.8,0.8v1.3c0,0.4,0.4,0.8,0.8,0.8h3.9c0.4,0,0.8-0.3,0.8-0.8V175
		C177.9,174.6,177.6,174.2,177.1,174.2z"/>
	<path class="st0" d="M84.6,170.8h-1.3c-0.4,0-0.8,0.4-0.8,0.8v3.9c0,0.4,0.3,0.8,0.8,0.8h1.3c0.4,0,0.8-0.4,0.8-0.8v-3.9
		C85.3,171.2,85,170.8,84.6,170.8z"/>
	<path class="st0" d="M84.6,180.6h-1.3c-0.4,0-0.8,0.4-0.8,0.8v3.9c0,0.4,0.3,0.8,0.8,0.8h1.3c0.4,0,0.8-0.4,0.8-0.8v-3.9
		C85.3,180.9,85,180.6,84.6,180.6z"/>
</g>
<g>
	<path class="st0" d="M185,66.5l-0.3-0.1c-0.6-0.2-1.3,0-1.6,0.5L93.2,183.2c-0.3,0.5-0.4,1.1-0.2,1.6c0.3,0.5,0.8,0.8,1.3,0.8h1.7
		l86.7,0c2.5,0,3.2-0.7,3.2-3.2L186,68C186,67.3,185.6,66.7,185,66.5z M127.1,180.1c-4.7,0-9.5,0-14.2,0l-10.3,0l77.8-100.6l0,24.2
		c0,25.5,0,50.9,0,76.4C162.7,180.1,144.9,180.1,127.1,180.1z"/>
	<path class="st0" d="M95.4,150.3c0.3,0.1,1.4,0.2,2.2-0.5c0.9-0.7,0.9-1.9,0.9-2.3c0-17.6,0-35.1,0-52.7l0-14.1c0-0.2,0-0.5,0-0.7
		c0.1-0.9,0.2-2.1-0.5-3c-0.9-1.2-2.4-1-3.4-0.9c-0.1,0-0.1,0-0.2,0c0-1.2,0-2.5,0-3.7c0-1.4,0-2.8,0-4.2c0-0.4,0-1.3-0.6-1.9
		c-0.7-0.7-1.6-0.7-1.9-0.7c-4.9,0-10.2,0-16,0c-0.3,0-1.2,0-1.8,0.7c-0.7,0.7-0.6,1.5-0.6,1.9c0,1.8,0,3.5,0,5.3l0,1.8
		c0,0.3,0,0.6,0,0.9c-0.2,0-0.5,0-0.8,0H72c-0.8,0-1.5,0-2,0.6s-0.6,1.3-0.6,2.1l0,0.5c0,18.1,0,36.2,0,54.4l0,13.6
		c0,1,0,1.9,0.7,2.5c0.7,0.7,1.6,0.6,2.6,0.6c0.3,0,0.3,0,0.3,0s0.1,0.1,0.2,0.4c0.9,1.8,1.8,3.5,2.7,5.2c0.4,0.7,0.7,1.3,1.1,2
		l5.6,10.6c0.3,0.5,0.8,0.8,1.3,0.8c0,0,0,0,0,0c0.5,0,1-0.3,1.3-0.8l0.3-0.5c0.2-0.3,0.3-0.6,0.4-0.8l2.2-4.1
		c2.1-4,4.3-8.1,6.3-12.2C94.8,150.2,95,150.2,95.4,150.3z M79,71.1c3.3,0,6.5,0,9.9,0c0,1.4,0,3.2,0,5c-0.6,0-1.2,0-1.9,0
		c-0.5,0-1,0-1.6,0l-1.6,0l-1.5,0c-1.1,0-2.3,0-3.4,0C79,74.4,79,72.7,79,71.1z M75,144.8c0-7,0-14,0-21l0-6.4l0-9.5
		c0-8.8,0-17.5,0-26.3c1.8,0.1,3.8,0.1,6.2,0c0,9.5,0,19,0,28.5l0,7l0,6c0,7.2,0,14.4,0,21.6c-1,0-2-0.1-3-0.1
		C77.1,144.7,76.1,144.7,75,144.8z M84.5,158l-0.6,1.1l-2.3-4.3c-0.8-1.5-1.6-3-2.4-4.5c3.1,0,6.2,0,9.3,0
		C87.2,152.8,85.9,155.4,84.5,158z M89.8,144.7c-1,0-2,0-3.1,0.1c0-7.6,0-15.2,0-22.8l0-8.7v0l0-8.1c0-7.9,0-15.7,0-23.6
		c0,0,0,0,0,0c1.9,0.1,4,0.1,6.2,0c0,7,0,14.1,0,21.1l0,7l0,8.3c0,8.9,0,17.8,0,26.8C91.9,144.7,90.9,144.7,89.8,144.7z"/>
	<path class="st0" d="M165.6,118.5c-0.3-0.4-0.7-0.6-1.2-0.6c-0.5,0-0.9,0.2-1.2,0.6l-35.7,46.1c-0.3,0.4-0.4,1-0.2,1.5
		c0.2,0.5,0.7,0.8,1.2,0.9l0.4,0c0.3,0,0.4,0,0.6,0l8.3,0c8.6,0,17.1,0,25.7,0c0,0,0,0,0,0c0.3,0,1.2,0,1.8-0.7
		c0.6-0.6,0.6-1.5,0.6-2.1c0-8.1,0-16.1,0-24.2l0-19.6l0-0.1C166.1,120,166.1,119.3,165.6,118.5z M160.5,161.5c-4.4,0-8.8,0-13.1,0
		c-2,0-4,0-6.1,0l-4.4,0l23.6-30.6l0,8.4C160.5,146.7,160.5,154.1,160.5,161.5z"/>
	<path class="st0" d="M189.5,51H66.1c-8,0-14.5,6.5-14.5,14.5v123.4c0,8,6.5,14.5,14.5,14.5h123.4c8,0,14.5-6.5,14.5-14.5V65.5
		C204,57.5,197.5,51,189.5,51z M199,188.9c0,5.2-4.3,9.5-9.5,9.5H66.1c-5.2,0-9.5-4.3-9.5-9.5V65.5c0-5.2,4.3-9.5,9.5-9.5h123.4
		c5.2,0,9.5,4.3,9.5,9.5V188.9z"/>
</g>
</svg>
