<?xml version="1.0" encoding="utf-8"?>
<!-- Generator: Adobe Illustrator 19.1.0, SVG Export Plug-In . SVG Version: 6.00 Build 0)  -->
<svg version="1.1" xmlns="http://www.w3.org/2000/svg" xmlns:xlink="http://www.w3.org/1999/xlink" x="0px" y="0px"
	 viewBox="0 0 254.1 254.1" style="enable-background:new 0 0 254.1 254.1;" xml:space="preserve">
<style type="text/css">
	.st0{stroke:#000000;stroke-width:3;stroke-linecap:round;stroke-linejoin:round;stroke-miterlimit:10;}
	.st1{opacity:0.58;fill:#FFFFFF;}
	.st2{fill:#FFFFFF;stroke:#1D1D1B;stroke-width:3;stroke-miterlimit:10;}
	.st3{stroke:#FFFFFF;stroke-width:3;stroke-miterlimit:10;}
	.st4{opacity:0.37;}
	.st5{fill:#FFFFFF;}
	.st6{fill:#545454;stroke:#000000;stroke-width:5;stroke-miterlimit:10;}
	.st7{fill:#FFFFFF;stroke:#000000;stroke-width:5;stroke-miterlimit:10;}
	.st8{opacity:0.35;fill:#FFFFFF;}
	.st9{opacity:0.5;fill:#FFFFFF;}
	.st10{fill:#545454;}
	.st11{opacity:0.58;}
	.st12{opacity:0.6;fill:#FFFFFF;}
	.st13{fill:#B5B5B5;}
	.st14{fill:#00129B;}
	.st15{fill:#92E8FF;}
	.st16{opacity:0.6;}
</style>
<g id="Слой_1">
	<g>
		<path class="st14" d="M0.1,131.3c0.5,14.5,3.4,28.5,8.4,41.4c0.7,1.7,1.3,3.4,2.1,5c1.7,4,3.7,7.9,5.8,11.7
			c0.8,1.5,1.7,2.9,2.6,4.3c2.1,3.5,4.4,6.8,6.9,10c1.3,1.7,2.6,3.4,4,5c3.1,3.7,6.4,7.2,9.8,10.5c1.8,1.7,3.7,3.4,5.6,5
			c4.5,3.8,9.3,7.3,14.3,10.5c2.8,1.8,5.7,3.4,8.7,5c17.6,9.2,37.6,14.4,58.8,14.4c39.4,0,74.6-18,98-46.2c1.3-1.6,2.7-3.3,3.9-5
			c9.2-12.3,16.1-26.2,20.4-41.4c0.5-1.7,0.9-3.3,1.3-5c1.6-6.6,2.6-13.4,3.1-20.4c0.1-1.7,0.2-3.3,0.3-5c0-1.3,0.1-2.7,0.1-4.1
			c0-2.1-0.1-4.3-0.2-6.4c-0.1-1.7-0.2-3.3-0.4-5c-0.3-3.5-0.8-7-1.4-10.5c-0.3-1.7-0.6-3.3-1-5c-0.8-3.5-1.7-7-2.7-10.5
			c-0.5-1.7-1.1-3.3-1.7-5c-2.6-7.4-5.9-14.6-9.9-21.3c-1-1.7-2-3.4-3.1-5c-2.3-3.6-4.8-7.1-7.5-10.5c-1.4-1.7-2.8-3.4-4.2-5
			c-3.3-3.7-6.7-7.2-10.4-10.5c-1.9-1.7-3.9-3.4-5.9-5c-4.8-3.8-10-7.3-15.3-10.5c-3.1-1.8-6.3-3.5-9.5-5C164.7,4.3,146.3,0,127,0
			C89.1,0,55,16.7,31.7,43.2c-1.4,1.6-2.8,3.3-4.2,5C17.8,60.4,10.4,74.4,5.6,89.5c-0.5,1.7-1,3.3-1.4,5
			c-2.7,10.2-4.1,20.8-4.2,31.8c0,0.2,0,0.5,0,0.7C0,128.5,0,129.9,0.1,131.3z M5.1,131.3h77.6c2.9,0,5.2,2.3,5.2,5.2
			s-2.3,5.2-5.2,5.2h-0.3H42.7H31.2c-5.6,0-10.2,4.6-10.2,10.2c0,5.6,4.6,10.2,10.2,10.2h11.4H60c2.9,0,5.2,2.3,5.2,5.2
			s-2.3,5.2-5.2,5.2H13.9C8.7,159.9,5.6,145.9,5.1,131.3z M36.5,208.7h29.3c2.9,0,5.2,2.3,5.2,5.2s-2.3,5.2-5.2,5.2H47.1
			C43.3,215.9,39.8,212.4,36.5,208.7z M53.3,224.2h12.5c5.6,0,10.2-4.6,10.2-10.2s-4.6-10.2-10.2-10.2H32.2
			c-2.7-3.3-5.2-6.8-7.6-10.5h95.6c2.9,0,5.2,2.3,5.2,5.2s-2.3,5.2-5.2,5.2h-10.9c-5.6,0-10.2,4.6-10.2,10.2s4.6,10.2,10.2,10.2
			h10.1c2.9,0,5.2,2.3,5.2,5.2s-2.3,5.2-5.2,5.2H69.5C63.8,231.6,58.4,228.1,53.3,224.2z M222.6,202.8h-60.1c-2.9,0-5.2-2.3-5.2-5.2
			s2.3-5.2,5.2-5.2h3.8h16.1h21.9c5.6,0,10.2-4.6,10.2-10.2c0-5.6-4.6-10.2-10.2-10.2h-10.4h-0.9h-2c-2.9,0-5.2-2.3-5.2-5.2
			s2.3-5.2,5.2-5.2h53.1C239.6,176.7,232.3,190.7,222.6,202.8z M247.1,105.2c0.6,3.4,1.1,6.9,1.4,10.5h-1.9h-11.4
			c-2.9,0-5.2-2.3-5.2-5.2s2.3-5.2,5.2-5.2H247.1z M246.1,100.2h-10.9c-5.6,0-10.2,4.6-10.2,10.2c0,5.6,4.6,10.2,10.2,10.2h11.4h2.3
			c0.1,2.1,0.2,4.2,0.2,6.4c0,1.4,0,2.7-0.1,4.1H126.3c-2.9,0-5.2-2.3-5.2-5.2s2.3-5.2,5.2-5.2h0.3h39.7h11.4
			c5.6,0,10.2-4.6,10.2-10.2c0-5.6-4.6-10.2-10.2-10.2h-11.4h-17.3c-2.9,0-5.2-2.3-5.2-5.2s2.3-5.2,5.2-5.2h94.2
			C244.3,93.2,245.3,96.6,246.1,100.2z M219.9,48c2.8,3.3,5.5,6.8,8,10.5h-60.9c-2.9,0-5.2-2.3-5.2-5.2s2.3-5.2,5.2-5.2h17.3H219.9z
			 M197.6,27.5h-13.3h-39.7h-0.3c-2.9,0-5.2-2.3-5.2-5.2s2.3-5.2,5.2-5.2h35.6C186.1,20.1,192,23.6,197.6,27.5z M34,48.2h37.8
			c2.9,0,5.2,2.3,5.2,5.2s-2.3,5.2-5.2,5.2h-0.3H59.9H48.4c-5.6,0-10.2,4.6-10.2,10.2c0,5.6,4.6,10.2,10.2,10.2h11.4H71
			c2.9,0,5.2,2.3,5.2,5.2s-2.3,5.2-5.2,5.2H10.9C15.9,74.2,23.8,60.2,34,48.2z M9.4,94.5H71c5.6,0,10.2-4.6,10.2-10.2
			c0-5.5-4.3-9.9-9.7-10.2v0H71H59.9H48.4c-2.9,0-5.2-2.3-5.2-5.2s2.3-5.2,5.2-5.2h11.4h11.6h0.3c5.6,0,10.2-4.6,10.2-10.2
			s-4.6-10.2-10.2-10.2H38.4C60.7,19.7,92.2,5,127,5c14.4,0,28.1,2.5,40.9,7.1h-23.6c-5.6,0-10.2,4.6-10.2,10.2s4.6,10.2,10.2,10.2
			h0.3h39.7h19.8c4,3.2,7.7,6.7,11.3,10.5h-31.1h-17.3h-0.5v0c-5.4,0.3-9.7,4.7-9.7,10.2c0,5.6,4.6,10.2,10.2,10.2h64.1
			c4.1,6.7,7.6,13.8,10.4,21.3h-92.5c-5.6,0-10.2,4.6-10.2,10.2c0,5.5,4.3,9.9,9.7,10.2v0h0.5h17.3h11.4c2.9,0,5.2,2.3,5.2,5.2
			s-2.3,5.2-5.2,5.2h-11.4h-39.7h-0.3c-5.6,0-10.2,4.6-10.2,10.2s4.6,10.2,10.2,10.2h122.4c-0.5,7-1.6,13.8-3.3,20.4H191
			c-5.6,0-10.2,4.6-10.2,10.2s4.6,10.2,10.2,10.2h2h0.9h10.4c2.9,0,5.2,2.3,5.2,5.2s-2.3,5.2-5.2,5.2h-21.9h-16.1h-3.8
			c-5.6,0-10.2,4.6-10.2,10.2s4.6,10.2,10.2,10.2h55.9c-22.4,25.3-55,41.2-91.4,41.2c-16.7,0-32.6-3.4-47.1-9.4h39.3
			c5.6,0,10.2-4.6,10.2-10.2c0-5.5-4.3-9.9-9.7-10.2v0h-10.6c-2.9,0-5.2-2.3-5.2-5.2s2.3-5.2,5.2-5.2h11.2v0c5.5-0.1,10-4.7,10-10.2
			c0-5.6-4.6-10.2-10.2-10.2H21.5c-2-3.4-3.8-7-5.5-10.6H60c5.6,0,10.2-4.6,10.2-10.2c0-5.5-4.3-9.9-9.7-10.2v0H60H42.7H31.2
			c-2.9,0-5.2-2.3-5.2-5.2s2.3-5.2,5.2-5.2h11.4h39.7h0.3c5.6,0,10.2-4.6,10.2-10.2s-4.6-10.2-10.2-10.2H5
			C5.1,115.3,6.6,104.7,9.4,94.5z"/>
		<path class="st14" d="M112.4,56.6c6.4,0,11.7-5.2,11.7-11.7s-5.2-11.7-11.7-11.7s-11.7,5.2-11.7,11.7S106,56.6,112.4,56.6z
			 M112.4,38.2c3.7,0,6.7,3,6.7,6.7c0,3.7-3,6.7-6.7,6.7s-6.7-3-6.7-6.7C105.7,41.2,108.7,38.2,112.4,38.2z"/>
		<path class="st14" d="M157.3,237.2c6.4,0,11.7-5.2,11.7-11.7s-5.2-11.7-11.7-11.7s-11.7,5.2-11.7,11.7S150.9,237.2,157.3,237.2z
			 M157.3,218.8c3.7,0,6.7,3,6.7,6.7c0,3.7-3,6.7-6.7,6.7s-6.7-3-6.7-6.7C150.6,221.8,153.6,218.8,157.3,218.8z"/>
		<path class="st15" d="M76.2,84.3c0-2.9-2.3-5.2-5.2-5.2H59.9H48.4c-5.6,0-10.2-4.6-10.2-10.2c0-5.6,4.6-10.2,10.2-10.2h11.4h11.6
			h0.3c2.9,0,5.2-2.3,5.2-5.2s-2.3-5.2-5.2-5.2H34c-10.2,12-18.1,26-23.1,41.4H71C73.8,89.5,76.2,87.2,76.2,84.3z M71.8,51.2
			c1.2,0,2.2,1,2.2,2.2s-1,2.2-2.2,2.2h-0.3H59.9H48.4c-7.3,0-13.2,5.9-13.2,13.2c0,7.3,5.9,13.2,13.2,13.2h11.4H71
			c1.2,0,2.2,1,2.2,2.2c0,1.2-1,2.2-2.2,2.2H15.1c4.7-12.9,11.5-24.7,20.3-35.4H71.8z"/>
		<path class="st15" d="M185.8,166.7c0,2.9,2.3,5.2,5.2,5.2h2h0.9h10.4c5.6,0,10.2,4.6,10.2,10.2c0,5.6-4.6,10.2-10.2,10.2h-21.9
			h-16.1h-3.8c-2.9,0-5.2,2.3-5.2,5.2s2.3,5.2,5.2,5.2h60.1c9.6-12.1,17-26.1,21.5-41.4H191C188.1,161.5,185.8,163.8,185.8,166.7z
			 M162.6,199.8c-1.2,0-2.2-1-2.2-2.2c0-1.2,1-2.2,2.2-2.2h3.8h16.1h21.9c7.3,0,13.2-5.9,13.2-13.2c0-7.3-5.9-13.2-13.2-13.2h-10.4
			h-0.9h-2c-1.2,0-2.2-1-2.2-2.2c0-1.2,1-2.2,2.2-2.2h49c-4.2,12.8-10.6,24.6-18.9,35.4H162.6z"/>
		<path class="st15" d="M65.8,208.7H36.5c3.3,3.7,6.9,7.2,10.7,10.5h18.7c2.9,0,5.2-2.3,5.2-5.2S68.7,208.7,65.8,208.7z M65.8,216.2
			H48.2c-1.6-1.4-3.2-2.9-4.8-4.5h22.3c1.2,0,2.2,1,2.2,2.2C68,215.2,67,216.2,65.8,216.2z"/>
		<path class="st15" d="M13.9,172.7H60c2.9,0,5.2-2.3,5.2-5.2s-2.3-5.2-5.2-5.2H42.7H31.2c-5.6,0-10.2-4.6-10.2-10.2
			c0-5.6,4.6-10.2,10.2-10.2h11.4h39.7h0.3c2.9,0,5.2-2.3,5.2-5.2s-2.3-5.2-5.2-5.2H5.1C5.6,145.9,8.7,159.9,13.9,172.7z
			 M84.9,136.6c0,1.2-1,2.2-2.2,2.2h-0.3H42.7H31.2C24,138.8,18,144.7,18,152c0,7.3,5.9,13.2,13.2,13.2h11.4H60c1.2,0,2.2,1,2.2,2.2
			s-1,2.2-2.2,2.2H15.9c-4.4-11.3-6.9-23.2-7.7-35.4h74.5C83.9,134.3,84.9,135.3,84.9,136.6z"/>
		<path class="st15" d="M167.1,48c-2.9,0-5.2,2.3-5.2,5.2s2.3,5.2,5.2,5.2h60.9c-2.5-3.6-5.1-7.1-8-10.5h-35.6H167.1z M164.8,53.2
			c0-1.2,1-2.2,2.2-2.2h17.3h34.2c1.2,1.5,2.4,2.9,3.5,4.5h-55C165.8,55.4,164.8,54.4,164.8,53.2z"/>
		<path class="st15" d="M144.3,27.5h0.3h39.7h13.3c-5.6-4-11.5-7.5-17.7-10.5h-35.6c-2.9,0-5.2,2.3-5.2,5.2S141.5,27.5,144.3,27.5z
			 M144.3,20.1h34.9c2.8,1.4,5.6,2.9,8.2,4.5h-3.1h-39.7h-0.3c-1.2,0-2.2-1-2.2-2.2C142.1,21.1,143.1,20.1,144.3,20.1z"/>
		<path class="st15" d="M112.4,59.6c8.1,0,14.7-6.6,14.7-14.7c0-8.1-6.6-14.7-14.7-14.7s-14.7,6.6-14.7,14.7
			C97.7,53,104.3,59.6,112.4,59.6z M112.4,33.2c6.4,0,11.7,5.2,11.7,11.7s-5.2,11.7-11.7,11.7s-11.7-5.2-11.7-11.7
			S106,33.2,112.4,33.2z"/>
		<path class="st15" d="M112.4,51.6c3.7,0,6.7-3,6.7-6.7c0-3.7-3-6.7-6.7-6.7s-6.7,3-6.7,6.7C105.7,48.6,108.7,51.6,112.4,51.6z
			 M112.4,41.2c2,0,3.7,1.7,3.7,3.7c0,2-1.7,3.7-3.7,3.7s-3.7-1.7-3.7-3.7C108.7,42.9,110.4,41.2,112.4,41.2z"/>
		<path class="st15" d="M157.3,218.8c-3.7,0-6.7,3-6.7,6.7c0,3.7,3,6.7,6.7,6.7s6.7-3,6.7-6.7C164,221.8,161,218.8,157.3,218.8z
			 M157.3,229.2c-2,0-3.7-1.7-3.7-3.7c0-2,1.7-3.7,3.7-3.7s3.7,1.7,3.7,3.7C161,227.5,159.4,229.2,157.3,229.2z"/>
	</g>
	<path class="st5" d="M189.5,56H66.1c-5.2,0-9.5,4.3-9.5,9.5v123.4c0,5.2,4.3,9.5,9.5,9.5h123.4c5.2,0,9.5-4.3,9.5-9.5V65.5
		C199,60.2,194.7,56,189.5,56z"/>
	<g>
		<path class="st14" d="M189.5,51H66.1c-8,0-14.5,6.5-14.5,14.5v123.4c0,8,6.5,14.5,14.5,14.5h123.4c8,0,14.5-6.5,14.5-14.5V65.5
			C204,57.5,197.5,51,189.5,51z M199,188.9c0,5.2-4.3,9.5-9.5,9.5H66.1c-5.2,0-9.5-4.3-9.5-9.5V65.5c0-5.2,4.3-9.5,9.5-9.5h123.4
			c5.2,0,9.5,4.3,9.5,9.5V188.9z"/>
	</g>
	<g>
		<g>
			<path class="st14" d="M189.3,169.2C189.2,169.2,189.2,169.3,189.3,169.2c-1.1,4.8-6.6,7.3-11.4,3.8c-3.5-2.6-7.3-4.9-11-7.4
				c-1.5-1-3.2-1.5-5-1.5c-7.5,0-15,0-22.5,0c-4.3,0-7.5-2.7-8.1-6.7c-0.2-1-0.1-2-0.1-2.9c0-0.7-0.1-0.9-0.9-0.9
				c-8.3,0-16.6,0-24.9,0c-1.8,0-3.4,0.7-4.8,1.8c-5.6,4.2-11.2,8.4-16.8,12.6c-1.7,1.2-3.5,1.8-5.5,1.4c-3.1-0.6-5.3-3.2-5.3-6.4
				c0-21.6,0-43.2,0-64.8c0-4.5,3.5-7.9,8.2-7.9c20.2,0,40.5,0,60.7,0c4.2,0,8.5,0,12.7,0c4.8,0,8.2,3.4,8.2,8.2
				c0,7.4,0,21.1,0,28.5c0,1.1,0.3,1.4,1.4,1.3c5.1-0.1,10.2,0.1,15.3-0.1c5.3-0.2,8.6,2.2,9.7,6.8
				C189.3,148.5,189.3,155.7,189.3,169.2z M117.9,95.4c-12.1,0-24.3,0-36.4,0c-2.3,0-3.3,1-3.3,3.2c0,21.2,0,42.3,0,63.5
				c0,0.7,0,1.5,0.8,1.8c0.7,0.3,1.3-0.1,1.9-0.5c5.4-4.1,10.9-8.2,16.3-12.3c2.6-2,5.5-2.9,8.7-2.9c8,0,16,0,24,0
				c0.9,0,1.2-0.3,1.2-1.2c0-5.7,0-5,0-10.7c0-1.4,0.2-2.8,1-4c1.7-2.6,3.4-4.2,10.7-4.2c4.5,0,9,0,13.5,0c1,0,1.3-0.3,1.3-1.3
				c0-7.3,0-20.9,0-28.2c0-2.4-0.9-3.3-3.4-3.3C142.1,95.4,130,95.4,117.9,95.4z M160.3,133.5c-6.9,0-13.8,0-20.8,0
				c-2.1,0-3.1,1-3.1,3.1c0,8.4,0,10.4,0,18.8c0,2.5,0.9,3.4,3.3,3.4c6.1,0,12.1,0.2,18.2-0.1c5.8-0.3,10.8,1.1,15.3,4.7
				c2.6,2.1,5.5,3.7,8.3,5.6c1.3,0.8,2.4,0.2,2.5-1.3c0-0.3,0-0.5,0-0.8c0-12.2,0-18,0-30.2c0-2.2-1-3.2-3.2-3.2
				C174,133.5,167.1,133.5,160.3,133.5z"/>
			<path class="st14" d="M152.2,145.7c0,1.5-1.2,2.6-2.7,2.6c-1.5,0-2.6-1.2-2.6-2.7c0-1.4,1.2-2.6,2.6-2.6
				C151.1,143.1,152.3,144.2,152.2,145.7z"/>
			<path class="st14" d="M160.2,148.3c-1.5,0-2.7-1.2-2.6-2.7c0-1.5,1.3-2.6,2.7-2.6c1.4,0,2.6,1.2,2.6,2.6
				C162.9,147.2,161.6,148.4,160.2,148.3z"/>
			<path class="st14" d="M173.4,145.7c0,1.5-1.2,2.6-2.7,2.6c-1.5,0-2.6-1.2-2.6-2.7c0-1.4,1.2-2.6,2.6-2.6
				C172.2,143.1,173.4,144.2,173.4,145.7z"/>
		</g>
		<g>
			<path class="st14" d="M100.5,128.7h-9v-5.8h8c0.7,0,1.2-0.2,1.6-0.5c0.4-0.3,0.6-0.8,0.6-1.3c0-0.5-0.2-1-0.6-1.3
				c-0.4-0.3-0.9-0.5-1.6-0.5h-8v-5.1h8.7c0.7,0,1.3-0.2,1.7-0.5c0.4-0.3,0.6-0.8,0.6-1.4c0-0.6-0.2-1-0.6-1.4
				c-0.4-0.3-0.9-0.5-1.7-0.5H89.7c-0.6,0-1.1,0.1-1.5,0.3c-0.4,0.2-0.8,0.5-1,1c-0.2,0.4-0.3,0.9-0.3,1.6v16.7c0,1,0.2,1.7,0.7,2.1
				c0.4,0.5,1.2,0.7,2.1,0.7h10.9c0.7,0,1.3-0.2,1.7-0.5c0.4-0.4,0.6-0.8,0.6-1.4c0-0.6-0.2-1.1-0.6-1.4
				C101.8,128.9,101.2,128.7,100.5,128.7z"/>
			<path class="st14" d="M122.4,110c-0.7,0-1.2,0.2-1.6,0.7c-0.4,0.4-0.6,1.1-0.6,1.9v12.3l-7.1-12.3l0,0c-0.2-0.3-0.4-0.7-0.6-1
				c-0.2-0.3-0.4-0.6-0.6-0.8c-0.2-0.2-0.5-0.4-0.8-0.5c-0.3-0.1-0.7-0.2-1.1-0.2c-0.5,0-1,0.1-1.5,0.4c-0.5,0.3-0.8,0.7-1,1.2
				c-0.2,0.4-0.2,1-0.2,1.6v17.1c0,0.8,0.2,1.5,0.6,1.9c0.4,0.5,1,0.7,1.6,0.7c0.6,0,1.2-0.2,1.6-0.7c0.4-0.4,0.6-1.1,0.6-1.9v-12.1
				l6.9,12.2l0,0c0.2,0.3,0.4,0.6,0.7,0.9c0.2,0.3,0.5,0.6,0.8,0.8c0.3,0.3,0.6,0.4,0.9,0.6c0.3,0.1,0.7,0.2,1.1,0.2
				c1.1,0,2.5-0.5,2.5-2.9v-17.4c0-0.8-0.2-1.5-0.6-1.9C123.6,110.2,123.1,110,122.4,110z"/>
			<path class="st14" d="M148.7,121.6c-0.3-0.4-0.7-0.7-1.1-0.8c-0.4-0.1-0.9-0.2-1.5-0.2h-4.5c-0.6,0-1.1,0.2-1.5,0.5
				c-0.4,0.4-0.6,0.8-0.6,1.3c0,0.8,0.4,1.2,0.7,1.4c0.4,0.3,1,0.4,1.9,0.4h2.8v3.6c-0.8,0.4-1.5,0.7-2.2,0.9
				c-0.8,0.2-1.6,0.3-2.5,0.3c-1.8,0-3.2-0.6-4.2-1.8c-1-1.2-1.5-3.9-1.5-6c0-1,0.1-2.9,0.4-3.7c0.3-0.8,0.6-1.5,1.1-2.1
				c0.5-0.6,1.1-1,1.7-1.3c0.7-0.3,1.5-0.4,2.3-0.4c0.8,0,1.5,0.1,2.1,0.4c0.5,0.2,1,0.6,1.3,0.9c0.3,0.4,0.7,1,1.2,1.7l0,0
				c0.2,0.3,0.5,0.5,0.8,0.7c0.3,0.2,0.6,0.2,1,0.2c0.6,0,1.1-0.2,1.6-0.6c0.4-0.4,0.7-0.9,0.7-1.5c0-0.5-0.2-1.1-0.5-1.8
				c-0.3-0.6-0.9-1.2-1.5-1.8c-0.7-0.6-1.5-1-2.6-1.4c-1.1-0.4-2.3-0.6-3.6-0.6c-1.7,0-3.1,0.2-4.5,0.7c-1.3,0.5-2.4,1.2-3.4,2.1
				c-0.9,0.9-1.6,2.1-2.1,3.4c-0.5,1.3-0.7,3.6-0.7,5.2c0,1.6,0.3,4,0.7,5.3c0.5,1.3,1.2,2.4,2.1,3.4c0.9,0.9,2,1.6,3.3,2.1
				c1.3,0.5,2.7,0.7,4.3,0.7c1.3,0,2.6-0.2,3.7-0.5c1.1-0.3,2.3-0.8,3.5-1.4c0.4-0.2,0.8-0.5,1.1-0.7c0.3-0.3,0.5-0.6,0.6-1
				c0.1-0.3,0.2-0.8,0.2-1.3v-4.7C149.1,122.5,149,122,148.7,121.6z"/>
		</g>
	</g>
</g>
<g id="Слой_2">
</g>
</svg>
