<?xml version="1.0" encoding="utf-8"?>
<!-- Generator: Adobe Illustrator 19.1.0, SVG Export Plug-In . SVG Version: 6.00 Build 0)  -->
<svg version="1.1" id="Режим_изоляции"
	 xmlns="http://www.w3.org/2000/svg" xmlns:xlink="http://www.w3.org/1999/xlink" x="0px" y="0px" viewBox="-569.8 792.8 36 21"
	 style="enable-background:new -569.8 792.8 36 21;" xml:space="preserve">
<style type="text/css">
	.st0{fill:#576166;}
	.st1{fill:#0058DB;}
</style>
<path class="st1" d="M-537,795.8c0.2,0.4,0.3,0.7,0.3,1.1c0,0.7-0.3,1.4-0.9,1.9l-11.8,11c-0.6,0.6-1.4,0.9-2.3,0.9
	c-0.9,0-1.7-0.3-2.3-0.9l-11.8-11c-0.6-0.5-0.9-1.2-0.9-1.9c0-0.4,0.1-0.8,0.3-1.1H-537 M-535.6,792.8h-32.4c-2.4,2.3-2.4,6,0,8.2
	l11.8,11c1.2,1.1,2.8,1.7,4.4,1.7c1.6,0,3.2-0.6,4.4-1.7l11.8-11C-533.1,798.8-533.1,795.1-535.6,792.8L-535.6,792.8z"/>
</svg>
