<?xml version="1.0" encoding="utf-8"?>
<!-- Generator: Adobe Illustrator 19.1.0, SVG Export Plug-In . SVG Version: 6.00 Build 0)  -->
<svg version="1.1" id="Слой_1" xmlns="http://www.w3.org/2000/svg" xmlns:xlink="http://www.w3.org/1999/xlink" x="0px" y="0px"
	 viewBox="0 0 42 42" style="enable-background:new 0 0 42 42;" xml:space="preserve">
<style type="text/css">
	.st0{fill:#FFFFFF;}
	.st1{fill:none;stroke:#F2F2F2;stroke-miterlimit:10;}
	.st2{opacity:0.44;}
	.st3{fill:none;stroke:#4E53A0;stroke-width:2;stroke-miterlimit:10;}
	.st4{fill:none;stroke:#636363;stroke-width:2;stroke-miterlimit:10;}
	.st5{fill:#FFFFFF;stroke:#4E53A0;stroke-width:2;stroke-miterlimit:10;}
	.st6{fill:none;stroke:#AAD5E8;stroke-width:2;stroke-miterlimit:10;}
	.st7{fill:none;stroke:#BBBEBF;stroke-width:2;stroke-miterlimit:10;}
	.st8{fill:#576166;}
	.st9{fill:#D8D8D8;}
	.st10{fill:#FFFFFF;stroke:#00129A;stroke-width:2;stroke-miterlimit:10;}
	.st11{fill:#00129A;}
	.st12{fill:#B8E6FF;}
	.st13{fill:none;}
	.st14{fill:#BBBEBF;}
	.st15{fill:none;stroke:#B8E6FF;stroke-width:2;stroke-miterlimit:10;}
	.st16{fill:none;stroke:#00129A;stroke-width:2;stroke-miterlimit:10;}
</style>
<g>
	<g>
		<g>
			<path class="st11" d="M21,3C11.1,3,3,11.1,3,21s8.1,18,18,18s18-8.1,18-18S30.9,3,21,3z M21,37c-8.8,0-16-7.2-16-16S12.2,5,21,5
				s16,7.2,16,16S29.8,37,21,37z"/>
		</g>
		<g>
			<path class="st12" d="M21,0C9.4,0,0,9.4,0,21c0,11.6,9.4,21,21,21s21-9.4,21-21C42,9.4,32.6,0,21,0z M21,39c-9.9,0-18-8.1-18-18
				S11.1,3,21,3s18,8.1,18,18S30.9,39,21,39z"/>
		</g>
		<g>
			<path class="st12" d="M21,5C12.2,5,5,12.2,5,21s7.2,16,16,16s16-7.2,16-16S29.8,5,21,5z M21,34c-7.2,0-13-5.8-13-13S13.8,8,21,8
				s13,5.8,13,13S28.2,34,21,34z"/>
		</g>
		<g>
			<path class="st0" d="M21,34c-7.2,0-13-5.8-13-13S13.8,8,21,8s13,5.8,13,13S28.2,34,21,34L21,34z"/>
		</g>
	</g>
	<g>
		<path class="st11" d="M16.5,29.2h3.3V13.5h-2.6v-2.2h5.1v18h3.2v2.1h-9V29.2z"/>
	</g>
</g>
</svg>
