<?xml version="1.0" encoding="utf-8"?>
<!-- Generator: Adobe Illustrator 19.1.0, SVG Export Plug-In . SVG Version: 6.00 Build 0)  -->
<svg version="1.1" id="Слой_1" xmlns="http://www.w3.org/2000/svg" xmlns:xlink="http://www.w3.org/1999/xlink" x="0px" y="0px"
	 viewBox="0 0 1180 392" style="enable-background:new 0 0 1180 392;" xml:space="preserve">
<style type="text/css">
	.st0{fill:#B8E6FF;}
</style>
<path class="st0" d="M1165.6,234l-189.9,0v0H745.4c-7.7,0-14,6.3-14,14s6.3,14,14,14h12.3h7.8h4.2c6.6,0,12,5.4,12,12s-5.4,12-12,12
	h-349H417h-28c-6.6,0-12-5.4-12-12s5.4-12,12-12h9.3h2.6h3.1c7.7,0,14-6.3,14-14s-6.3-14-14-14H202.1v0h-48.9v0h-31.7
	c-6.6,0-12-5.4-12-12s5.4-12,12-12h31.2h0.5v0c7.5-0.3,13.5-6.4,13.5-14c0-7.7-6.3-14-14-14h-28.8H121H14c-6.6,0-12-5.4-12-12
	s5.4-12,12-12h39.3l0,0h4.7c7.7,0,14-6.3,14-14s-6.3-14-14-14h-0.1h-2.2h-2c-6.6,0-12-5.4-12-12s5.4-12,12-12h143.5h3.7h41
	c6.6,0,12,5.4,12,12s-5.4,12-12,12h-0.3h-31.6h-3.1c-7.7,0-14,6.3-14,14s6.3,14,14,14h16.9h39h40.8h4.2h124.9c6.6,0,12,5.4,12,12
	s-5.4,12-12,12h-3.1h-2.6h-0.3c-7.7,0-14,6.3-14,14s6.3,14,14,14h19h3.7h361.5c7.7,0,14-6.3,14-14s-6.3-14-14-14h-4.2h-1.8H639.4
	c-6.6,0-12-5.4-12-12s5.4-12,12-12h300h36.3H1164c7.7,0,14-6.3,14-14s-6.3-14-14-14h-9h-102H755.8c-6.6,0-12-5.4-12-12s5.4-12,12-12
	H1054h5.2c7.7,0,14-6.3,14-14s-6.3-14-14-14H1012v0H881.5h-9.1H549.2c-6.6,0-12-5.4-12-12s5.4-12,12-12h3.1h2.6h9.3
	c7.7,0,14-6.3,14-14s-6.3-14-14-14h-11.1h-20.6H215.1c-7.7,0-14,6.3-14,14s6.3,14,14,14h16.3h108.5h16.3c6.6,0,12,5.4,12,12
	s-5.4,12-12,12H211.4h-7H37.9c-6.6,0-12-5.4-12-12s5.4-12,12-12h1h86.7h24.3c7.7,0,14-6.3,14-14s-6.3-14-14-14h-26h-85H14
	C7.4,26,2,20.6,2,14S7.4,2,14,2h56.3V0H14C6.3,0,0,6.3,0,14s6.3,14,14,14h24.9h85h26c6.6,0,12,5.4,12,12s-5.4,12-12,12h-24.3H38.9
	h-1c-7.7,0-14,6.3-14,14s6.3,14,14,14h110.4v0h63.1v0h144.8c7.7,0,14-6.3,14-14s-6.3-14-14-14h-16.3H231.4h-16.3
	c-6.6,0-12-5.4-12-12s5.4-12,12-12h317.5h20.6h11.1c6.6,0,12,5.4,12,12s-5.4,12-12,12h-9.3h-2.6h-3.1c-7.7,0-14,6.3-14,14
	s6.3,14,14,14h323.1v0h186.8c6.6,0,12,5.4,12,12s-5.4,12-12,12h-5.2H755.8c-7.7,0-14,6.3-14,14s6.3,14,14,14H1053h102h9
	c6.6,0,12,5.4,12,12s-5.4,12-12,12H975.7h-36.3h-300c-7.7,0-14,6.3-14,14s6.3,14,14,14h165.2h1.8h4.2c6.6,0,12,5.4,12,12
	s-5.4,12-12,12H449.1h-3.7h-19c-6.6,0-12-5.4-12-12s5.4-12,12-12h0.3h2.6h3.1c7.7,0,14-6.3,14-14s-6.3-14-14-14H307.5h-4.2h-40.8
	h-39.1h-16.8c-6.6,0-12-5.4-12-12s5.4-12,12-12h3.1h31.6h0.3c7.7,0,14-6.3,14-14s-6.3-14-14-14h-41h-3.7H53.6c-7.7,0-14,6.3-14,14
	s6.3,14,14,14h2h2.2h0.1c6.6,0,12,5.4,12,12s-5.4,12-12,12h-6.2v0H14c-7.7,0-14,6.3-14,14s6.3,14,14,14h107h2.9h28.8
	c6.6,0,12,5.4,12,12s-5.4,12-12,12h-31.2H121v0c-7.5,0.3-13.5,6.4-13.5,14c0,7.7,6.3,14,14,14h25.7v0h64.1v0H404c6.6,0,12,5.4,12,12
	s-5.4,12-12,12H401h-2.6H389c-7.7,0-14,6.3-14,14s6.3,14,14,14h28h3.7h349c7.7,0,14-6.3,14-14s-6.3-14-14-14h-4.2h-7.8h-12.3
	c-6.6,0-12-5.4-12-12s5.4-12,12-12h194v0h226.3c6.2,0,11.7,4.6,12.3,10.8c0.7,7.1-4.9,13.2-11.9,13.2h-105.8h-7.2l-24.1,0
	c-7.4,0-13.8,5.6-14.3,12.9c-0.6,7.8,5.3,14.5,12.9,15v0.1h1.1h30.3c6.2,0,11.7,4.6,12.3,10.8c0.7,7.1-4.9,13.2-11.9,13.2h-31.7v0
	H211.4h-4H45.3c-8,0-14.4,6.7-14,14.7c0.4,7.5,6.9,13.3,14.4,13.3h65.4h26h5.3c6.2,0,11.7,4.6,12.3,10.8c0.7,7.1-4.9,13.2-11.9,13.2
	h-9.3h-2.6h-2.6c-7.5,0-14,5.8-14.4,13.3c-0.4,8,6,14.7,14,14.7h81.5v0h59.2c7.5,0,14-5.8,14.4-13.3c0.4-8-6-14.7-14-14.7h-0.1h-2.2
	h-1.6c-6.2,0-11.7-4.6-12.3-10.8c-0.7-7.1,4.9-13.2,11.9-13.2H609h3.7h40.7c5.9,0,11.2,4.1,12.2,10c1.2,7.5-4.6,14-11.8,14h-0.3
	h-153h-2.6c-7.5,0-14,5.8-14.4,13.3c-0.4,8,6,14.7,14,14.7h354.5v0h150.3v-2H850v0H497.3c-7,0-12.6-6-11.9-13.2
	c0.6-6.2,6.1-10.8,12.3-10.8h2.7h153h0.1c6.4,0,12.3-4.2,13.8-10.5c2.3-9.2-4.7-17.5-13.6-17.5h-41H609H264.9
	c-7.5,0-14,5.8-14.4,13.3c-0.4,8,6,14.7,14,14.7h2h2c6.2,0,11.7,4.6,12.3,10.8c0.7,7.1-4.9,13.2-11.9,13.2h-57.5v0h-83.3
	c-6.2,0-11.7-4.6-12.3-10.8c-0.7-7.1,4.9-13.2,11.9-13.2h3.1h2.6h8.9c7.5,0,14-5.8,14.4-13.3c0.4-8-6-14.7-14-14.7h-5.7h-26H45.6
	c-6.2,0-11.7-4.6-12.3-10.8C32.7,320,38.3,314,45.3,314h162.1h4H1031v0h27.8c7.4,0,13.8-5.6,14.3-12.9c0.6-7.8-5.3-14.5-12.9-15V286
	h-1.1h-30.3c-6.2,0-11.7-4.6-12.3-10.8c-0.7-7.1,4.9-13.2,11.9-13.2h24.5h7.2H1166c8,0,14.4-6.7,14-14.7
	C1179.6,239.8,1173.1,234,1165.6,234z"/>
</svg>
