<?xml version="1.0" encoding="utf-8"?>
<!-- Generator: Adobe Illustrator 19.1.0, SVG Export Plug-In . SVG Version: 6.00 Build 0)  -->
<svg version="1.1" id="Слой_1" xmlns="http://www.w3.org/2000/svg" xmlns:xlink="http://www.w3.org/1999/xlink" x="0px" y="0px"
	 viewBox="0 0 36 36" style="enable-background:new 0 0 36 36;" xml:space="preserve">
<style type="text/css">
	.st0{fill:#FFFFFF;}
	.st1{fill:none;stroke:#F2F2F2;stroke-miterlimit:10;}
	.st2{opacity:0.44;}
	.st3{fill:none;stroke:#4E53A0;stroke-width:2;stroke-miterlimit:10;}
	.st4{fill:none;stroke:#636363;stroke-width:2;stroke-miterlimit:10;}
	.st5{fill:#FFFFFF;stroke:#4E53A0;stroke-width:2;stroke-miterlimit:10;}
	.st6{fill:none;stroke:#AAD5E8;stroke-width:2;stroke-miterlimit:10;}
	.st7{fill:none;stroke:#BBBEBF;stroke-width:2;stroke-miterlimit:10;}
	.st8{fill:#576166;}
	.st9{fill:#D8D8D8;}
	.st10{fill:#FFFFFF;stroke:#00129A;stroke-width:2;stroke-miterlimit:10;}
	.st11{fill:#00129A;}
	.st12{fill:#B8E6FF;}
	.st13{fill:none;}
	.st14{fill:#BBBEBF;}
	.st15{fill:none;stroke:#B8E6FF;stroke-width:2;stroke-miterlimit:10;}
	.st16{fill:none;stroke:#00129A;stroke-width:2;stroke-miterlimit:10;}
</style>
<g>
	<g>
		<g>
			<path class="st0" d="M18,2C9.2,2,2,9.2,2,18s7.2,16,16,16s16-7.2,16-16S26.8,2,18,2z"/>
		</g>
		<g>
			<path class="st11" d="M18,0C8.1,0,0,8.1,0,18s8.1,18,18,18s18-8.1,18-18S27.9,0,18,0z M18,34C9.2,34,2,26.8,2,18S9.2,2,18,2
				s16,7.2,16,16S26.8,34,18,34z"/>
		</g>
	</g>
	<g>
		<path class="st11" d="M12.4,23.9c0-8.5,8.6-6.3,8.6-11.2c0-2-1-2.9-3.1-2.9c-2,0-3,1-3,3.4h-2.5c0-3.9,2.3-5.6,5.7-5.6
			c3.4,0,5.5,1.6,5.5,5.2c0,7.3-8.6,4.1-8.6,11.2v1.5h8.5v2.4h-11V23.9z"/>
	</g>
</g>
</svg>
