<?xml version="1.0" encoding="utf-8"?>
<!-- Generator: Adobe Illustrator 19.1.0, SVG Export Plug-In . SVG Version: 6.00 Build 0)  -->
<svg version="1.1" id="Слой_1" xmlns="http://www.w3.org/2000/svg" xmlns:xlink="http://www.w3.org/1999/xlink" x="0px" y="0px"
	 viewBox="0 0 56.3 392" style="enable-background:new 0 0 56.3 392;" xml:space="preserve">
<style type="text/css">
	.st0{fill:#B8E6FF;}
</style>
<path class="st0" d="M28.1,262h14.2c7.7,0,14-6.3,14-14s-6.3-14-14-14l-24.5,0c-6.6,0-12-5.4-12-12s5.4-12,12-12h1h1.4
	c7.7,0,14-6.3,14-14s-6.3-14-14-14H14c-6.6,0-12-5.4-12-12s5.4-12,12-12h2.8l0,0l22.5,0H42c7.7,0,14-6.3,14-14s-6.3-14-14-14H28.7
	h-0.6c-6.6,0-12-5.4-12-12s5.4-12,12-12h14.2c7.7,0,14-6.3,14-14s-6.3-14-14-14l-24.5,0c-6.6,0-12-5.4-12-12s5.4-12,12-12h1h1.4
	c7.7,0,14-6.3,14-14s-6.3-14-14-14H14C7.4,26,2,20.6,2,14S7.4,2,14,2h23.2V0H14C6.3,0,0,6.3,0,14s6.3,14,14,14h6.2
	c6.6,0,12,5.4,12,12s-5.4,12-12,12h-1.4h-1c-7.7,0-14,6.3-14,14s6.3,14,14,14l24.5,0c6.6,0,12,5.4,12,12s-5.4,12-12,12H28.1
	c-7.7,0-14,6.3-14,14s6.3,14,14,14h0.6H42c6.6,0,12,5.4,12,12s-5.4,12-12,12H19.2v0H14c-7.7,0-14,6.3-14,14s6.3,14,14,14h6.2
	c6.6,0,12,5.4,12,12s-5.4,12-12,12h-1.4h-1c-7.7,0-14,6.3-14,14s6.3,14,14,14l24.5,0c6.6,0,12,5.4,12,12s-5.4,12-12,12H28.1
	c-7.7,0-14,6.3-14,14s6.3,14,14,14h0.6H42c6.6,0,12,5.4,12,12s-5.4,12-12,12H16v0h-2c-7.7,0-14,6.3-14,14s6.3,14,14,14h6.2
	c6.6,0,12,5.4,12,12s-5.4,12-12,12h-1.4h-1c-7.7,0-14,6.3-14,14s6.3,14,14,14l16.7,0v-2l-16.7,0c-6.6,0-12-5.4-12-12s5.4-12,12-12h1
	h1.4c7.7,0,14-6.3,14-14s-6.3-14-14-14H14c-6.6,0-12-5.4-12-12s5.4-12,12-12h2.8l0,0l22.5,0H42c7.7,0,14-6.3,14-14s-6.3-14-14-14
	H28.7h-0.6c-6.6,0-12-5.4-12-12S21.5,262,28.1,262z"/>
</svg>
