<?xml version="1.0" encoding="utf-8"?>
<!-- Generator: Adobe Illustrator 19.1.0, SVG Export Plug-In . SVG Version: 6.00 Build 0)  -->
<svg version="1.1" id="Слой_1" xmlns="http://www.w3.org/2000/svg" xmlns:xlink="http://www.w3.org/1999/xlink" x="0px" y="0px"
	 viewBox="0 0 36 36" style="enable-background:new 0 0 36 36;" xml:space="preserve">
<style type="text/css">
	.st0{fill:#FFFFFF;}
	.st1{fill:none;stroke:#F2F2F2;stroke-miterlimit:10;}
	.st2{opacity:0.44;}
	.st3{fill:none;stroke:#4E53A0;stroke-width:2;stroke-miterlimit:10;}
	.st4{fill:none;stroke:#636363;stroke-width:2;stroke-miterlimit:10;}
	.st5{fill:#FFFFFF;stroke:#4E53A0;stroke-width:2;stroke-miterlimit:10;}
	.st6{fill:none;stroke:#AAD5E8;stroke-width:2;stroke-miterlimit:10;}
	.st7{fill:none;stroke:#BBBEBF;stroke-width:2;stroke-miterlimit:10;}
	.st8{fill:#576166;}
	.st9{fill:#D8D8D8;}
	.st10{fill:#FFFFFF;stroke:#00129A;stroke-width:2;stroke-miterlimit:10;}
	.st11{fill:#00129A;}
	.st12{fill:#B8E6FF;}
	.st13{fill:none;}
	.st14{fill:#BBBEBF;}
	.st15{fill:none;stroke:#B8E6FF;stroke-width:2;stroke-miterlimit:10;}
	.st16{fill:none;stroke:#00129A;stroke-width:2;stroke-miterlimit:10;}
</style>
<g>
	<g>
		<circle class="st0" cx="18" cy="18" r="17"/>
		<path class="st11" d="M18,36C8.1,36,0,27.9,0,18S8.1,0,18,0s18,8.1,18,18S27.9,36,18,36z M18,2C9.2,2,2,9.2,2,18s7.2,16,16,16
			s16-7.2,16-16S26.8,2,18,2z"/>
	</g>
	<g>
		<path class="st11" d="M14.9,22.9c0,2.4,0.9,3.4,3.1,3.4c2.2,0,3.3-1,3.3-3.7c0-2.9-1.6-3.8-3.5-3.8h-2.1v-1.2l4.3-7h-6.8V8.5H24
			v0.3l-4.8,8c3.2,0.4,4.9,2.1,4.9,5.9c0,3.7-2,6-6,6c-4.1,0-5.6-1.9-5.6-5.8H14.9z"/>
	</g>
</g>
</svg>
