<?xml version="1.0" encoding="utf-8"?>
<!-- Generator: Adobe Illustrator 19.1.0, SVG Export Plug-In . SVG Version: 6.00 Build 0)  -->
<svg version="1.1" id="Слой_1" xmlns="http://www.w3.org/2000/svg" xmlns:xlink="http://www.w3.org/1999/xlink" x="0px" y="0px"
	 viewBox="0 0 380 392" style="enable-background:new 0 0 380 392;" xml:space="preserve">
<style type="text/css">
	.st0{fill:#B8E6FF;}
</style>
<path class="st0" d="M365.9,234H154v0h-31.8c-6.6,0-12.1-5.4-12.1-12s5.4-12,12.1-12h31.3h0.5v0c7.5-0.3,13.5-6.4,13.5-14
	c0-7.7-6.3-14-14.1-14h-28.9h-2.9H14.1C7.4,182,2,176.6,2,170s5.4-12,12.1-12h72.5v0h279.3c7.8,0,14.1-6.3,14.1-14s-6.3-14-14.1-14
	h-9H254.4h-8c-6.6,0-12.1-5.4-12.1-12s5.4-12,12.1-12h9h5.2c7.8,0,14.1-6.3,14.1-14s-6.3-14-14.1-14h-47.4v0h-175
	c-6.6,0-12.1-5.4-12.1-12s5.4-12,12.1-12h1h87.1h24.4c7.8,0,14.1-6.3,14.1-14s-6.3-14-14.1-14h-26.1H39.2H14.1C7.4,26,2,20.6,2,14
	S7.4,2,14.1,2h56.7V0H14.1C6.3,0,0,6.3,0,14s6.3,14,14.1,14h25.1h85.4h26.1c6.6,0,12.1,5.4,12.1,12s-5.4,12-12.1,12h-24.4H39.2h-1
	c-7.8,0-14.1,6.3-14.1,14s6.3,14,14.1,14h110.9v0h111.5c6.6,0,12.1,5.4,12.1,12s-5.4,12-12.1,12h-5.2h-9c-7.8,0-14.1,6.3-14.1,14
	s6.3,14,14.1,14h8h102.5h9c6.6,0,12.1,5.4,12.1,12s-5.4,12-12.1,12H67.5v0H14.1C6.3,156,0,162.3,0,170s6.3,14,14.1,14h107.6h2.9
	h28.9c6.6,0,12.1,5.4,12.1,12s-5.4,12-12.1,12h-31.3h-0.5v0c-7.5,0.3-13.5,6.4-13.5,14c0,7.7,6.3,14,14.1,14h25.9v0h217.9
	c6.6,0,12.1,5.4,12.1,12s-5.4,12-12.1,12H261.7h-7.3h-24.6c-7.8,0-14.1,6.3-14.1,14c0,7.4,5.7,13.4,13,13.9v0.1h1.1h30.8
	c6.6,0,12.1,5.4,12.1,12s-5.4,12-12.1,12h-31.8v0H45.6c-7.8,0-14.1,6.3-14.1,14s6.3,14,14.1,14h46.1h26.1h5.7
	c6.6,0,12.1,5.4,12.1,12s-5.4,12-12.1,12h-9.4h-2.6h-3.1c-7.8,0-14.1,6.3-14.1,14s6.3,14,14.1,14h90v-2h-90c-6.6,0-12.1-5.4-12.1-12
	s5.4-12,12.1-12h3.1h2.6h9.4c7.8,0,14.1-6.3,14.1-14s-6.3-14-14.1-14h-5.7H91.7H45.6c-6.6,0-12.1-5.4-12.1-12s5.4-12,12.1-12h186.7
	v0h28.3c7.8,0,14.1-6.3,14.1-14c0-7.4-5.7-13.4-13-13.9V286h-1.1h-30.8c-6.6,0-12.1-5.4-12.1-12s5.4-12,12.1-12h24.6h7.3h104.3
	c7.8,0,14.1-6.3,14.1-14S373.7,234,365.9,234z"/>
</svg>
