<?xml version="1.0" encoding="utf-8"?>
<!-- Generator: Adobe Illustrator 19.1.0, SVG Export Plug-In . SVG Version: 6.00 Build 0)  -->
<svg version="1.1" id="Слой_1" xmlns="http://www.w3.org/2000/svg" xmlns:xlink="http://www.w3.org/1999/xlink" x="0px" y="0px"
	 viewBox="0 0 450 392" style="enable-background:new 0 0 450 392;" xml:space="preserve">
<style type="text/css">
	.st0{fill:#B8E6FF;}
</style>
<path class="st0" d="M436,234H153.2v0h-31.7c-6.6,0-12-5.4-12-12s5.4-12,12-12h31.2h0.5v0c7.5-0.3,13.5-6.4,13.5-14
	c0-7.7-6.3-14-14-14h-28.8H121H14c-6.6,0-12-5.4-12-12s5.4-12,12-12h72.1v0H436c7.7,0,14-6.3,14-14s-6.3-14-14-14h-9H325h-8
	c-6.6,0-12-5.4-12-12s5.4-12,12-12h9h5.2c7.7,0,14-6.3,14-14s-6.3-14-14-14H284v0H37.9c-6.6,0-12-5.4-12-12s5.4-12,12-12h1h86.7
	h24.3c7.7,0,14-6.3,14-14s-6.3-14-14-14h-26h-85H14C7.4,26,2,20.6,2,14S7.4,2,14,2h56.3V0H14C6.3,0,0,6.3,0,14s6.3,14,14,14h24.9h85
	h26c6.6,0,12,5.4,12,12s-5.4,12-12,12h-24.3H38.9h-1c-7.7,0-14,6.3-14,14s6.3,14,14,14h110.4v0h182.9c6.6,0,12,5.4,12,12
	s-5.4,12-12,12H326h-9c-7.7,0-14,6.3-14,14s6.3,14,14,14h8h102h9c6.6,0,12,5.4,12,12s-5.4,12-12,12H67.1v0H14c-7.7,0-14,6.3-14,14
	s6.3,14,14,14h107h2.9h28.8c6.6,0,12,5.4,12,12s-5.4,12-12,12h-31.2H121v0c-7.5,0.3-13.5,6.4-13.5,14c0,7.7,6.3,14,14,14h25.7v0H436
	c6.6,0,12,5.4,12,12s-5.4,12-12,12H332.2H325h-24.5c-7.7,0-14,6.3-14,14c0,7.4,5.7,13.4,12.9,13.9v0.1h1.1h30.6c6.6,0,12,5.4,12,12
	s-5.4,12-12,12h-31.7v0H45.3c-7.7,0-14,6.3-14,14s6.3,14,14,14h47.2h26h5.7c6.6,0,12,5.4,12,12s-5.4,12-12,12h-9.3h-2.6h-3.1
	c-7.7,0-14,6.3-14,14s6.3,14,14,14h160.2v-2H109.1c-6.6,0-12-5.4-12-12s5.4-12,12-12h3.1h2.6h9.3c7.7,0,14-6.3,14-14s-6.3-14-14-14
	h-5.7h-26H45.3c-6.6,0-12-5.4-12-12s5.4-12,12-12H303v0h28.2c7.7,0,14-6.3,14-14c0-7.4-5.7-13.4-12.9-13.9V286h-1.1h-30.6
	c-6.6,0-12-5.4-12-12s5.4-12,12-12H325h7.2H436c7.7,0,14-6.3,14-14S443.7,234,436,234z"/>
</svg>
