<?xml version="1.0" encoding="utf-8"?>
<!-- Generator: Adobe Illustrator 19.1.0, SVG Export Plug-In . SVG Version: 6.00 Build 0)  -->
<svg version="1.1" id="Слой_1" xmlns="http://www.w3.org/2000/svg" xmlns:xlink="http://www.w3.org/1999/xlink" x="0px" y="0px"
	 viewBox="0 0 799.6 392" style="enable-background:new 0 0 799.6 392;" xml:space="preserve">
<style type="text/css">
	.st0{fill:#B8E6FF;}
</style>
<path class="st0" d="M785.2,234l-220.5,0v0h-90.7c-7.7,0-14,6.3-14,14s6.3,14,14,14h12.3h7.8h4.2c6.6,0,12,5.4,12,12s-5.4,12-12,12
	H360.8h-3.7h-28c-6.6,0-12-5.4-12-12s5.4-12,12-12h9.3h2.6h3.1c7.7,0,14-6.3,14-14s-6.3-14-14-14h-142v0h-48.9v0h-31.7
	c-6.6,0-12-5.4-12-12s5.4-12,12-12h31.2h0.5v0c7.5-0.3,13.5-6.4,13.5-14c0-7.7-6.3-14-14-14h-28.8H121H14c-6.6,0-12-5.4-12-12
	s5.4-12,12-12h39.3l0,0h4.7c7.7,0,14-6.3,14-14s-6.3-14-14-14h-0.1h-2.2h-2c-6.6,0-12-5.4-12-12s5.4-12,12-12h55.5h3.7h41
	c6.6,0,12,5.4,12,12s-5.4,12-12,12h-0.3h-31.6h-3.1c-7.7,0-14,6.3-14,14s6.3,14,14,14h16.9h39h36.8h64c6.6,0,12,5.4,12,12
	s-5.4,12-12,12h-3.1h-2.6h-0.3c-7.7,0-14,6.3-14,14s6.3,14,14,14h19h3.7h257c7.7,0,14-6.3,14-14s-6.3-14-14-14h-4.2h-1.8H377.9
	c-6.6,0-12-5.4-12-12s5.4-12,12-12H561h10.1h214.5c7.7,0,14-6.3,14-14s-6.3-14-14-14h-9h-102H493.6c-6.6,0-12-5.4-12-12
	s5.4-12,12-12h181.9h5.2c7.7,0,14-6.3,14-14s-6.3-14-14-14h-47.2v0H499.6H494h-64c-6.6,0-12-5.4-12-12s5.4-12,12-12h3.1h2.6h9.3
	c7.7,0,14-6.3,14-14s-6.3-14-14-14h-11.1h-20.6H215.1c-7.7,0-14,6.3-14,14s6.3,14,14,14h16.3h108.5h16.3c6.6,0,12,5.4,12,12
	s-5.4,12-12,12H211.4h-7H37.9c-6.6,0-12-5.4-12-12s5.4-12,12-12h1h86.7h24.3c7.7,0,14-6.3,14-14s-6.3-14-14-14h-26h-85H14
	C7.4,26,2,20.6,2,14S7.4,2,14,2h56.3V0H14C6.3,0,0,6.3,0,14s6.3,14,14,14h24.9h85h26c6.6,0,12,5.4,12,12s-5.4,12-12,12h-24.3H38.9
	h-1c-7.7,0-14,6.3-14,14s6.3,14,14,14h110.4v0h63.1v0h144.8c7.7,0,14-6.3,14-14s-6.3-14-14-14h-16.3H231.4h-16.3
	c-6.6,0-12-5.4-12-12s5.4-12,12-12h198.2h20.6H445c6.6,0,12,5.4,12,12s-5.4,12-12,12h-9.3H433H430c-7.7,0-14,6.3-14,14s6.3,14,14,14
	h64v0h186.8c6.6,0,12,5.4,12,12s-5.4,12-12,12h-5.2H493.6c-7.7,0-14,6.3-14,14s6.3,14,14,14h180.9h102h9c6.6,0,12,5.4,12,12
	s-5.4,12-12,12H571.1H561H377.9c-7.7,0-14,6.3-14,14s6.3,14,14,14h165.2h1.8h4.2c6.6,0,12,5.4,12,12s-5.4,12-12,12h-257h-3.7h-19
	c-6.6,0-12-5.4-12-12s5.4-12,12-12h0.3h2.6h3.1c7.7,0,14-6.3,14-14s-6.3-14-14-14h-64h-36.8h-39.1h-16.8c-6.6,0-12-5.4-12-12
	s5.4-12,12-12h3.1h31.6h0.3c7.7,0,14-6.3,14-14s-6.3-14-14-14h-41h-3.7H53.6c-7.7,0-14,6.3-14,14s6.3,14,14,14h2h2.2h0.1
	c6.6,0,12,5.4,12,12s-5.4,12-12,12h-6.2v0H14c-7.7,0-14,6.3-14,14s6.3,14,14,14h107h2.9h28.8c6.6,0,12,5.4,12,12s-5.4,12-12,12
	h-31.2H121v0c-7.5,0.3-13.5,6.4-13.5,14c0,7.7,6.3,14,14,14h25.7v0h64.1v0h132.8c6.6,0,12,5.4,12,12s-5.4,12-12,12h-3.1h-2.6h-9.3
	c-7.7,0-14,6.3-14,14s6.3,14,14,14h28h3.7h137.5c7.7,0,14-6.3,14-14s-6.3-14-14-14h-4.2h-7.8h-12.3c-6.6,0-12-5.4-12-12
	s5.4-12,12-12H561v0h224.3c6.2,0,11.7,4.6,12.3,10.8c0.7,7.1-4.9,13.2-11.9,13.2H681.8h-7.2h-24.1c-7.4,0-13.8,5.6-14.3,12.9
	c-0.6,7.8,5.3,14.5,12.9,15v0.1h1.1h30.3c6.2,0,11.7,4.6,12.3,10.8c0.7,7.1-4.9,13.2-11.9,13.2h-31.7v0H211.4h-4.8H45.3
	c-7.7,0-14,6.3-14,14s6.3,14,14,14h65.8h26h5.7c6.6,0,12,5.4,12,12s-5.4,12-12,12h-9.3h-2.6h-3.1c-7.7,0-14,6.3-14,14s6.3,14,14,14
	h81.5v0h59.2c7.5,0,14-5.8,14.4-13.3c0.4-8-6-14.7-14-14.7h-0.1h-2.2h-1.6c-6.2,0-11.7-4.6-12.3-10.8c-0.7-7.1,4.9-13.2,11.9-13.2
	H320h3.7h40.7c6.2,0,11.7,4.6,12.3,10.8c0.7,7.1-4.9,13.2-11.9,13.2h-0.3h-31.6H330c-7.5,0-14,5.8-14.4,13.3c-0.4,8,6,14.7,14,14.7
	h233.2v0h56.1v-2H561v0H329.6c-7,0-12.6-6-11.9-13.2c0.6-6.2,6.1-10.8,12.3-10.8h2.7h31.6h0.1c6.8,0,12.8-4.7,14-11.4
	c1.6-8.9-5.2-16.6-13.8-16.6h-41H320h-55c-7.5,0-14,5.8-14.4,13.3c-0.4,8,6,14.7,14,14.7h2h2c6.2,0,11.7,4.6,12.3,10.8
	c0.7,7.1-4.9,13.2-11.9,13.2h-57.5v0h-83.6c-6.6,0-12-5.4-12-12s5.4-12,12-12h3.1h2.6h9.3c7.7,0,14-6.3,14-14s-6.3-14-14-14h-5.7
	h-26H45.3c-6.6,0-12-5.4-12-12s5.4-12,12-12h161.3h4.8h441.2v0h27.8c7.4,0,13.8-5.6,14.3-12.9c0.6-7.8-5.3-14.5-12.9-15V286h-1.1
	h-30.3c-6.2,0-11.7-4.6-12.3-10.8c-0.7-7.1,4.9-13.2,11.9-13.2h24.5h7.2h103.8c8,0,14.4-6.7,14-14.7
	C799.2,239.8,792.7,234,785.2,234z"/>
</svg>
