<?xml version="1.0" encoding="utf-8"?>
<!-- Generator: Adobe Illustrator 19.1.0, SVG Export Plug-In . SVG Version: 6.00 Build 0)  -->
<svg version="1.1" id="Слой_1" xmlns="http://www.w3.org/2000/svg" xmlns:xlink="http://www.w3.org/1999/xlink" x="0px" y="0px"
	 viewBox="0 0 471.4 471.4" style="enable-background:new 0 0 471.4 471.4;" xml:space="preserve">
<style type="text/css">
	.st0{fill:#576166;}
</style>
<g>
	<path class="st0" d="M268.7,163c6.3-0.2,12.7-0.2,19,0c2.8,0.1,4.2-0.4,4.1-3.7c-0.2-10.5-0.2-21,0-31.5c0-2.8-0.9-3.8-3.7-3.7
		c-13.5,0.3-27-0.4-40.5,0.7c-26.9,2.1-42,17.5-43,44.3c-0.3,8.2-0.3,16.3-0.1,24.5c0.1,3.6-1.1,4.6-4.6,4.4c-5.7-0.2-11.3,0-17-0.1
		c-2.6-0.1-3.5,0.7-3.5,3.4c0.1,10.8,0.1,21.7,0,32.5c0,2.4,0.9,3.2,3.2,3.1c5.3-0.1,10.7,0.3,16-0.1c5.1-0.5,6,1.5,5.9,6.1
		c-0.3,16.7-0.1,33.3-0.1,50c0,17.3,0.1,34.7-0.1,52c0,3.7,0.9,4.9,4.7,4.8c12.8-0.2,25.7-0.1,38.5-0.1c6.8,0,6.8,0,6.8-6.6
		c0-33.7,0.1-67.3-0.1-101c0-4.2,1.1-5.4,5.3-5.2c8.1,0.3,16.3,0,24.5,0.2c2.7,0,3.7-0.7,4-3.5c1-10.4,2.3-20.8,3.7-31.2
		c0.4-3.2-0.4-4.4-3.9-4.3c-9.8,0.2-19.7,0-29.5,0.1c-3,0-4.1-0.8-4-3.9c0.2-5.5,0-11,0.1-16.5C254.6,166.6,257.6,163.4,268.7,163z"
		/>
	<path class="st0" d="M235.7,0C105.5,0,0,105.5,0,235.7s105.5,235.7,235.7,235.7s235.7-105.5,235.7-235.7S365.9,0,235.7,0z
		 M388.2,388.2c-19.8,19.8-42.9,35.4-68.6,46.2c-26.6,11.2-54.8,16.9-84,16.9c-29.1,0-57.4-5.7-84-16.9
		c-25.7-10.9-48.8-26.4-68.6-46.2s-35.4-42.9-46.2-68.6c-11.2-26.6-16.9-54.8-16.9-84c0-29.1,5.7-57.4,16.9-84
		c10.9-25.7,26.4-48.8,46.2-68.6s42.9-35.4,68.6-46.2c26.6-11.2,54.8-16.9,84-16.9c29.1,0,57.4,5.7,84,16.9
		c25.7,10.9,48.8,26.4,68.6,46.2s35.4,42.9,46.2,68.6c11.2,26.6,16.9,54.8,16.9,84c0,29.1-5.7,57.4-16.9,84
		C423.6,345.3,408,368.4,388.2,388.2z"/>
</g>
</svg>
