<?xml version="1.0" encoding="utf-8"?>
<!-- Generator: Adobe Illustrator 19.1.0, SVG Export Plug-In . SVG Version: 6.00 Build 0)  -->
<svg version="1.1" id="Слой_1" xmlns="http://www.w3.org/2000/svg" xmlns:xlink="http://www.w3.org/1999/xlink" x="0px" y="0px"
	 viewBox="0 0 471.4 471.4" style="enable-background:new 0 0 471.4 471.4;" xml:space="preserve">
<style type="text/css">
	.st0{fill:#576166;}
</style>
<g>
	<path class="st0" d="M356.5,234.8c-0.9-14-5.7-26.9-15.1-37.8c-17.6-20.3-60.3-24.2-79.6,3.3c-0.7,1-1.6,2-2.3,3
		c-0.3-0.1-0.7-0.2-1-0.3c0-4,0-8,0-11.9c-0.1-7.4,0.9-6.8-6.6-6.8c-9.3,0-18.7-0.1-28,0c-4.4,0.1-10.3-2-12.9,1
		c-2.1,2.6-0.6,8.3-0.6,12.6c-0.1,43.3-0.1,86.7-0.4,130c0,4.2,1.2,5.4,5.3,5.3c12.8-0.2,25.7-0.2,38.5,0c3.8,0.1,4.8-1.2,4.7-4.8
		c-0.2-20.5-0.1-41-0.1-61.5c0-7.7-0.2-15.3,0.3-23c0.8-12.5,11.8-23.2,24.2-24c13.1-0.9,21.9,6.3,24.9,20.2
		c1.1,5.1,1.2,10.2,1.2,15.4c0,24.3,0,48.7,0,73c0,2.7,0,4.8,3.8,4.7c13.7-0.2,27.3-0.1,41,0c2.4,0,3.7-0.6,3.6-3.4
		C357,298.1,358.6,266.5,356.5,234.8z"/>
	<path class="st0" d="M175.7,180.7c-13,0.2-26,0.3-39,0c-4.2-0.1-4.9,1.4-4.9,5.1c0.1,23,0.1,46,0.1,69c0,23.5,0.1,47-0.1,70.5
		c0,3.4,0.8,4.6,4.4,4.6c13.2-0.2,26.3-0.2,39.5,0c3.4,0,4.6-0.8,4.6-4.4c-0.1-46.8-0.1-93.6,0-140.4
		C180.4,181.2,179,180.7,175.7,180.7z"/>
	<path class="st0" d="M159.4,107.9c-15.8,0-27.2,10.6-27.4,25.5c-0.2,15,11.2,26,26.9,26c15.9,0,27.4-10.6,27.4-25.5
		C186.4,118.8,175.1,107.9,159.4,107.9z"/>
	<path class="st0" d="M235.7,0C105.5,0,0,105.5,0,235.7s105.5,235.7,235.7,235.7s235.7-105.5,235.7-235.7S365.9,0,235.7,0z
		 M388.2,388.2c-19.8,19.8-42.9,35.4-68.6,46.2c-26.6,11.2-54.8,16.9-84,16.9c-29.1,0-57.4-5.7-84-16.9
		c-25.7-10.9-48.8-26.4-68.6-46.2s-35.4-42.9-46.2-68.6c-11.2-26.6-16.9-54.8-16.9-84c0-29.1,5.7-57.4,16.9-84
		c10.9-25.7,26.4-48.8,46.2-68.6s42.9-35.4,68.6-46.2c26.6-11.2,54.8-16.9,84-16.9c29.1,0,57.4,5.7,84,16.9
		c25.7,10.9,48.8,26.4,68.6,46.2s35.4,42.9,46.2,68.6c11.2,26.6,16.9,54.8,16.9,84c0,29.1-5.7,57.4-16.9,84
		C423.6,345.3,408,368.4,388.2,388.2z"/>
</g>
</svg>
