<?xml version="1.0" encoding="utf-8"?>
<!-- Generator: Adobe Illustrator 19.1.0, SVG Export Plug-In . SVG Version: 6.00 Build 0)  -->
<svg version="1.1" id="Слой_1" xmlns="http://www.w3.org/2000/svg" xmlns:xlink="http://www.w3.org/1999/xlink" x="0px" y="0px"
	 viewBox="0 0 353 481.1" style="enable-background:new 0 0 353 481.1;" xml:space="preserve">
<style type="text/css">
	.st0{fill:#0058DB;}
</style>
<g>
	<path class="st0" d="M148.7,448.4c-4.9-6.2-8.8-11.1-12.7-16c-28.4-35.8-55.3-72.7-79.4-111.5c-17.7-28.3-33.5-57.5-45.7-88.7
		c-16.9-43.3-13.6-85.9,5.6-127.1c26.9-57.9,72.2-93.4,135.6-103c48.2-7.3,92.4,4.8,131,34.8c35.2,27.3,56.9,63.4,66.3,106.8
		c6.8,31.4,3.4,61.8-8.4,91.6c-16.2,40.7-38.7,77.8-62.9,114c-21.8,32.6-45.6,63.7-69.8,94.4c-1,1.2-3.2,2.3-2.2,4
		c0.9,1.5,3.1,0.7,4.7,0.7c20.8,0.1,41.7,0,62.5,0.1c8.3,0.1,14.8,6.1,15.6,14c0.9,8.5-3.8,15.9-11.7,18c-1.9,0.5-4,0.6-5.9,0.6
		c-63.2,0-126.3,0-189.5,0c-10.6,0-17.5-6.5-17.5-16.3c0-9.9,6.8-16.3,17.4-16.4c20-0.1,40,0,60,0
		C143.4,448.4,145.2,448.4,148.7,448.4z M178,33.1c-22.5,0.6-42.3,4.4-60.9,13.6c-39,19.3-64.7,50.1-77.4,91.5
		c-9,29.2-8.8,58.3,2.3,87.1c7.3,19,16.1,37.3,26.2,55c30.2,52.6,66.4,101,105,147.7c2.6,3.2,3.9,3.3,6.6,0
		c18.7-22.6,36.8-45.7,53.9-69.5c26.9-37.2,51.8-75.5,71-117.4c15.5-33.8,19.6-68.1,8.5-103.9C295.2,79.2,243.8,33.9,178,33.1z"/>
	<path class="st0" d="M96.2,176.4c0.2-45.1,36-80.2,81.6-80c44.1,0.2,79.3,36.4,79.1,81c-0.3,44.8-36.1,79.9-81.4,79.7
		C131.4,256.9,96,220.9,96.2,176.4z M224.2,177c-1-27.1-20.2-47-47.3-47.7c-26.2-0.6-48,21.5-47.9,47.5c0.1,26,21.8,47.5,48,47.6
		C202.2,224.4,223.9,202.7,224.2,177z"/>
</g>
</svg>
