<?xml version="1.0" encoding="utf-8"?>
<!-- Generator: Adobe Illustrator 19.1.0, SVG Export Plug-In . SVG Version: 6.00 Build 0)  -->
<svg version="1.1" id="Слой_1" xmlns="http://www.w3.org/2000/svg" xmlns:xlink="http://www.w3.org/1999/xlink" x="0px" y="0px"
	 viewBox="0 0 471.4 471.4" style="enable-background:new 0 0 471.4 471.4;" xml:space="preserve">
<style type="text/css">
	.st0{fill:#576166;}
</style>
<g>
	<path class="st0" d="M342,170.6c-2.7,0.9-5.3,2-8,2.7c-2.2,0.6-5,2.7-6.4,0.7c-1.4-2.1,1.5-4,2.9-5.6c4.6-5.5,8.7-11.2,11.3-18.1
		c-1.8-0.6-2.8,0.1-3.8,0.6c-5.9,3.2-12.3,5.1-18.4,7.6c-4.6,1.9-8,1.1-11.8-1.9c-5.5-4.3-11.3-8.3-18.3-9.9
		c-24.3-5.6-48.2,8.2-55.9,32.1c-2.5,7.6-2.4,15.4-2,23.2c0.1,2.1,0.4,3.7-3,3.3c-24.6-2.7-46.8-11.3-66.4-26.3
		c-8.8-6.7-16.4-14.6-24-22.5c-1.2-1.2-2.4-3.4-3.7,0.1c-7.3,20.1-6.4,38.9,8,55.8c1.6,1.8,3.7,3.4,3.9,6.4
		c-5.2,0.6-9.4-2.3-13.9-3.5c-2.9-0.8-4.1-0.4-3.6,2.9c2.9,19.2,12.3,33.9,30.1,42.6c1.5,0.7,3.3,1.1,4.5,3.1c-3.9,0-7.3,0-10.6,0
		c-6.7,0.1-7.5,1.1-4.4,7.3c6.1,12.3,16.5,19.7,29,24.7c3,1.2,6.1,2.2,9.7,3.6c-1.2,1-1.8,1.5-2.5,1.9c-15.7,10.7-33,16.3-52.1,16.5
		c-3.3,0-6.7,0-10.2,1.3c1.8,2.4,4.1,3.2,6.1,4.3c15.6,8.2,31.9,14.4,49.6,15.9c34,2.9,65.6-3.8,92.5-25.5
		c34.5-27.9,51.5-65.1,54.6-108.8c0.5-7.4,2.6-13.1,7.7-18.1c4-3.9,7.7-8.3,11.4-12.6c1-1.2,3-2.7,2-4.2
		C345.4,168.5,343.5,170.1,342,170.6z"/>
	<path class="st0" d="M235.7,0C105.5,0,0,105.5,0,235.7s105.5,235.7,235.7,235.7s235.7-105.5,235.7-235.7S365.9,0,235.7,0z
		 M388.2,388.2c-19.8,19.8-42.9,35.4-68.6,46.2c-26.6,11.2-54.8,16.9-84,16.9c-29.1,0-57.4-5.7-84-16.9
		c-25.7-10.9-48.8-26.4-68.6-46.2s-35.4-42.9-46.2-68.6c-11.2-26.6-16.9-54.8-16.9-84c0-29.1,5.7-57.4,16.9-84
		c10.9-25.7,26.4-48.8,46.2-68.6s42.9-35.4,68.6-46.2c26.6-11.2,54.8-16.9,84-16.9c29.1,0,57.4,5.7,84,16.9
		c25.7,10.9,48.8,26.4,68.6,46.2s35.4,42.9,46.2,68.6c11.2,26.6,16.9,54.8,16.9,84c0,29.1-5.7,57.4-16.9,84
		C423.6,345.3,408,368.4,388.2,388.2z"/>
</g>
</svg>
