<?xml version="1.0" encoding="utf-8"?>
<!-- Generator: Adobe Illustrator 19.1.0, SVG Export Plug-In . SVG Version: 6.00 Build 0)  -->
<svg version="1.1" id="Режим_изоляции"
	 xmlns="http://www.w3.org/2000/svg" xmlns:xlink="http://www.w3.org/1999/xlink" x="0px" y="0px" viewBox="0 0 3547.7 385.3"
	 style="enable-background:new 0 0 3547.7 385.3;" xml:space="preserve">
<style type="text/css">
	.st0{opacity:0.4;fill:#0027A2;}
</style>
<path class="st0" d="M16.6,40.5c2.2-3.3,4.2-6.8,6.5-10.1c2.6-3.8,4.3-8.5,6.9-12.5c0.2-0.3,0.3-0.5,0.5-0.8C34.1,11.6,37.9,6,41,0
	l3506.7,0c-48.6,113-150.6,213.7-258.5,93.5c-30.4,74.9-60.7,136.3-157.4,117.1c-50.7-11-101.1-61.3-110-109.6
	c-10.1,94.1-166.5,135.3-229,73.6c-8.8,117.8-287.6,250.1-361.8,84.8c-60.9,163.4-351.7,180.3-327.7-23.4
	c-38.4,86.1-150.1,86.5-233.1,52.6c-4.9-6.4-12.4-11.5-17.9-16.7c-10.3-9.8-13.2-24.4-19.8-36.6c-1.6-3-5.5-3-7.9-1
	c-10,8.6-15.2,21.5-21.5,32.7c-6.5,11.5-14.5,19.6-26.5,25.3c-10.7,5.1-22.4,7.9-33.9,10.5c-14.3,3.3-29,5.6-43.5,7.7
	c-30.9,4.6-61.5,5.9-92.7,4c-13.9-0.9-27.6-2.6-40.8-7c-13.4-4.4-27.6-7.8-40.5-13.6c-11.7-5.3-22.2-14.1-31.4-22.8
	c-9.8-9.3-18.5-20-23.5-32.6c-1.6-4-8.8-5.4-9.6,0c-1.2,7.5-5.5,13.5-9.4,19.8c-1.8,2.8-3.4,5.8-5.1,8.7
	c-56.8,60.3-172.8,75.7-207.6-7.5c-52.8,82-254.3,118.2-283.2,3.3c11.5,118.9-236.2,98.6-256.4,28.7
	c-74.2,116.6-315.2,53.5-284-49.1c-71.3,80.7-177.9,8.1-189.6-69.6C138.8,241.7-58.1,192.4,16.6,40.5z"/>
</svg>
