<?xml version="1.0" encoding="utf-8"?>
<!-- Generator: Adobe Illustrator 19.1.0, SVG Export Plug-In . SVG Version: 6.00 Build 0)  -->
<svg version="1.1" id="Режим_изоляции"
	 xmlns="http://www.w3.org/2000/svg" xmlns:xlink="http://www.w3.org/1999/xlink" x="0px" y="0px" viewBox="0 0 2751.9 269.7"
	 style="enable-background:new 0 0 2751.9 269.7;" xml:space="preserve">
<style type="text/css">
	.st0{opacity:0.2;}
	.st1{fill:#0033AB;}
</style>
<g class="st0">
	<path class="st1" d="M256,15.5C160.5,65.6,348.2,132.2,416.6,98c-31.8,62.7,13.8,156.3,140.3,169.6
		c141.8,14.9,235.6-50.4,248.8-120.6c62.6,48.5,142.2,29,152.2-17.9c5.9,43,75,69.2,142,66.7c81.2-2.2,97.4-39.9,131.8-72
		c-12.5,63.1,119.1,55.4,165.8,24.6c-141.1,103.2,281.6,176.3,272.7,14.3c125.5,116.9,316.5,76.2,266.7-50.7
		c50.6,55.4,244.7,108,271.3,28.5c15.8-34.1-60.1-85-100.8-114.3l18.1,5.5c34.5,28.7,123.2,77.3,141.1,22
		c21.9,30.9,78.2,90.5,146.8,90.5c100.1-3.8,38.9-78.2,17.4-112.7c28.4,28,179.3,54.3,241,53.5c52.7-0.7,74.2-33.6,79.9-85H0
		C-1,63.1,185.4,51.1,256,15.5z"/>
</g>
</svg>
