<?xml version="1.0" encoding="utf-8"?>
<!-- Generator: Adobe Illustrator 19.1.0, SVG Export Plug-In . SVG Version: 6.00 Build 0)  -->
<svg version="1.1" id="Режим_изоляции"
	 xmlns="http://www.w3.org/2000/svg" xmlns:xlink="http://www.w3.org/1999/xlink" x="0px" y="0px" viewBox="-259.5 384.6 80 80.1"
	 style="enable-background:new -259.5 384.6 80 80.1;" xml:space="preserve">
<style type="text/css">
	.st0{fill:#576166;}
</style>
<g>
	<g>
		<path class="st0" d="M-247.1,451.9L-247.1,451.9L-247.1,451.9z"/>
		<path class="st0" d="M-187.1,445.9C-187.1,445.9-187,445.9-187.1,445.9L-187.1,445.9z"/>
		<path class="st0" d="M-240.8,457.2L-240.8,457.2L-240.8,457.2z"/>
		<path class="st0" d="M-238,458.7L-238,458.7L-238,458.7z"/>
		<path class="st0" d="M-201.6,459.5L-201.6,459.5L-201.6,459.5z"/>
		<path class="st0" d="M-200.5,458.8L-200.5,458.8L-200.5,458.8z"/>
		<path class="st0" d="M-245.6,453.1L-245.6,453.1L-245.6,453.1z"/>
		<path class="st0" d="M-185.6,443.9L-185.6,443.9L-185.6,443.9z"/>
		<path class="st0" d="M-191.7,451.8L-191.7,451.8L-191.7,451.8z"/>
		<path class="st0" d="M-193,453.1L-193,453.1L-193,453.1z"/>
		<path class="st0" d="M-188.3,447.5L-188.3,447.5L-188.3,447.5z"/>
		<path class="st0" d="M-256,438.4C-256,438.4-256,438.6-256,438.4L-256,438.4z"/>
		<path class="st0" d="M-188.5,450L-188.5,450L-188.5,450z"/>
		<path class="st0" d="M-188.6,450.2L-188.6,450.2L-188.6,450.2z"/>
		<path class="st0" d="M-187.6,448.8L-187.6,448.8L-187.6,448.8z"/>
		<path class="st0" d="M-193.8,455.3L-193.8,455.3L-193.8,455.3z"/>
		<path class="st0" d="M-188.7,450.3L-188.7,450.3L-188.7,450.3z"/>
		<path class="st0" d="M-191.7,453.4L-191.7,453.4L-191.7,453.4z"/>
		<path class="st0" d="M-193.9,455.4L-193.9,455.4L-193.9,455.4z"/>
		<path class="st0" d="M-193.3,455L-193.3,455L-193.3,455z"/>
		<path class="st0" d="M-196.8,457.6L-196.8,457.6L-196.8,457.6z"/>
		<path class="st0" d="M-196.6,457.5L-196.6,457.5L-196.6,457.5z"/>
		<path class="st0" d="M-194.7,456.1L-194.7,456.1L-194.7,456.1z"/>
		<path class="st0" d="M-189.7,451.4C-189.7,451.5-189.7,451.4-189.7,451.4L-189.7,451.4z"/>
		<path class="st0" d="M-255.5,410C-255.5,410.1-255.5,410.1-255.5,410C-255.5,410.1-255.5,410-255.5,410z"/>
		<path class="st0" d="M-182.2,438.8L-182.2,438.8L-182.2,438.8z"/>
		<path class="st0" d="M-251.3,402.2L-251.3,402.2L-251.3,402.2z"/>
		<path class="st0" d="M-250.8,447.7L-250.8,447.7L-250.8,447.7z"/>
		<path class="st0" d="M-251.4,446.7C-251.4,446.7-251.4,446.8-251.4,446.7L-251.4,446.7z"/>
		<path class="st0" d="M-258.3,422.7C-258.3,422.7-258.4,422.7-258.3,422.7L-258.3,422.7z"/>
		<path class="st0" d="M-250.6,447.7L-250.6,447.7L-250.6,447.7z"/>
		<path class="st0" d="M-187.2,448.3L-187.2,448.3L-187.2,448.3z"/>
		<path class="st0" d="M-187,448.1L-187,448.1L-187,448.1z"/>
		<path class="st0" d="M-257.5,416.5C-257.5,416.5-257.5,416.6-257.5,416.5L-257.5,416.5z"/>
		<path class="st0" d="M-187.3,448.4L-187.3,448.4L-187.3,448.4z"/>
		<path class="st0" d="M-250.6,447.8L-250.6,447.8L-250.6,447.8z"/>
		<path class="st0" d="M-250.3,448.2C-250.3,448.2-250.3,448.1-250.3,448.2L-250.3,448.2z"/>
		<path class="st0" d="M-187.5,448.7L-187.5,448.7L-187.5,448.7z"/>
		<path class="st0" d="M-187.4,448.6C-187.4,448.4-187.4,448.4-187.4,448.6L-187.4,448.6z"/>
		<path class="st0" d="M-179.6,424.5c0,0.1,0,0.3,0.1,0.3C-179.5,424.9-179.5,424.3-179.6,424.5
			C-179.6,424.6-179.6,424.5-179.6,424.5z"/>
		<path class="st0" d="M-221.2,415.2L-221.2,415.2L-221.2,415.2z"/>
		<path class="st0" d="M-229.9,412.9L-229.9,412.9L-229.9,412.9z"/>
		<path class="st0" d="M-222.2,424.1L-222.2,424.1L-222.2,424.1z"/>
		<path class="st0" d="M-214.7,411.7L-214.7,411.7L-214.7,411.7z"/>
		<path class="st0" d="M-222,426.7L-222,426.7L-222,426.7z"/>
		<path class="st0" d="M-215.3,413L-215.3,413L-215.3,413z"/>
		<path class="st0" d="M-215.4,413.3L-215.4,413.3L-215.4,413.3z"/>
		<path class="st0" d="M-214.5,411.5L-214.5,411.5L-214.5,411.5z"/>
		<path class="st0" d="M-220.1,428.9C-220.2,428.8-220.2,428.8-220.1,428.9L-220.1,428.9z"/>
		<path class="st0" d="M-221.5,429.2L-221.5,429.2L-221.5,429.2z"/>
		<path class="st0" d="M-219.9,428.7C-220,428.7-220,428.7-219.9,428.7L-219.9,428.7z"/>
		<path class="st0" d="M-227.8,422.7L-227.8,422.7L-227.8,422.7z"/>
		<path class="st0" d="M-223.4,427.8L-223.4,427.8L-223.4,427.8z"/>
		<path class="st0" d="M-230.3,429.3L-230.3,429.3L-230.3,429.3z"/>
		<path class="st0" d="M-207.5,418.2L-207.5,418.2L-207.5,418.2z"/>
		<path class="st0" d="M-210.2,416.9C-210.2,416.9-210.2,416.8-210.2,416.9C-210.2,416.9-210.2,416.8-210.2,416.9z"/>
		<path class="st0" d="M-215.8,424.6C-215.8,424.6-215.8,424.7-215.8,424.6L-215.8,424.6z"/>
		<path class="st0" d="M-210.5,425.2C-210.5,425.2-210.6,425.2-210.5,425.2L-210.5,425.2z"/>
		<path class="st0" d="M-208.1,418.3L-208.1,418.3L-208.1,418.3z"/>
		<path class="st0" d="M-208.6,423.7L-208.6,423.7L-208.6,423.7z"/>
		<path class="st0" d="M-210.4,425.1L-210.4,425.1L-210.4,425.1z"/>
		<path class="st0" d="M-210.8,425.3L-210.8,425.3L-210.8,425.3z"/>
		<path class="st0" d="M-219.2,428.1L-219.2,428.1L-219.2,428.1z"/>
		<path class="st0" d="M-217.1,424.9L-217.1,424.9L-217.1,424.9z"/>
		<path class="st0" d="M-218.7,427.5L-218.7,427.5L-218.7,427.5z"/>
		<path class="st0" d="M-215.9,424.5L-215.9,424.5L-215.9,424.5z"/>
		<path class="st0" d="M-216.2,424.1L-216.2,424.1L-216.2,424.1z"/>
		<path class="st0" d="M-210.4,411.5L-210.4,411.5L-210.4,411.5z"/>
		<path class="st0" d="M-213.4,410.4L-213.4,410.4L-213.4,410.4z"/>
		<path class="st0" d="M-211.2,410.9L-211.2,410.9L-211.2,410.9z"/>
		<path class="st0" d="M-209.9,421.8L-209.9,421.8L-209.9,421.8z"/>
		<path class="st0" d="M-213.9,410.8L-213.9,410.8L-213.9,410.8z"/>
		<path class="st0" d="M-214.6,424.2L-214.6,424.2L-214.6,424.2z"/>
		<path class="st0" d="M-214.7,424.1L-214.7,424.1L-214.7,424.1z"/>
		<path class="st0" d="M-214.3,418.9L-214.3,418.9L-214.3,418.9z"/>
		<path class="st0" d="M-213.3,415.5L-213.3,415.5L-213.3,415.5z"/>
		<path class="st0" d="M-212.3,424.3L-212.3,424.3L-212.3,424.3z"/>
		<path class="st0" d="M-208.3,423.2L-208.3,423.2L-208.3,423.2z"/>
		<path class="st0" d="M-218.4,427L-218.4,427L-218.4,427z"/>
		<path class="st0" d="M-211.7,415.9L-211.7,415.9L-211.7,415.9z"/>
		<path class="st0" d="M-229.6,416.1L-229.6,416.1L-229.6,416.1z"/>
		<path class="st0" d="M-229.6,416.1L-229.6,416.1L-229.6,416.1z"/>
		<path class="st0" d="M-219.8,428.6c0.2-0.2,0.7-0.4,0.8-0.8c0.1-0.1,0.3-0.3,0.4-0.5c0.3-0.3,0.5-0.8,0.8-1.2c0,0,0-0.1,0.1-0.1
			c0.1-0.3,0.2-0.8,0.5-1c0.1-0.2,0.1-0.4,0.2-0.7c0.1-0.1,0.1-0.3,0.2-0.4c0.1-0.5,0.5,0.4,0.7,0.7c0.1,0.1,0.1,0.1,0.1,0.1
			c0.1,0.2,0.7,0.4,0.8,0.7c-0.1-0.3,0,0.1,0.1,0.1c0.1,0.1,0.2,0.1,0.2,0.2c1.2,0.8,2.5,0.5,3.7,0.2l0,0c0.4-0.2,0.9-0.5,1.2-0.8
			c0.1-0.1,0.7-0.3,0.7-0.4l0.1-0.1l0.1-0.1l0.2-0.2c0,0,0.3-0.2,0.3-0.3c0.3-0.3,0.5-0.8,0.9-1.1c0.1-0.1,0.2-0.4,0.3-0.7
			c0.1-0.2,0.2-0.3,0.2-0.7c0-0.2,0-0.3,0-0.4c0-0.4,0.3-1,0.3-1.4c0-0.2,0-0.8-0.2-0.9c0,0,0-0.1-0.1-0.1c-0.1-0.1-0.2,0-0.3-0.1
			c-0.2-0.2-0.1-1-0.4-0.3c-0.2,0.3-0.3,0.7-0.5,1.1c-0.1,0.3-0.3,0.5-0.4,0.9c-0.1,0.2-0.2,1-0.4,1.1l0,0c-0.1,0-0.2,0.2-0.2,0.3
			c0,0-0.1,0.1-0.1,0.2c-0.2,0.2-0.4,0.8-0.7,1c-0.2,0.1-0.4,0.7-0.7,0.9c-0.2,0.2-0.7,0.4-0.8,0.7c-0.2,0.2-0.5,0.4-0.9,0.5
			c-0.3,0.1-0.7,0.1-1,0.2c-0.3,0-0.5,0.1-0.9-0.1c0,0-0.2-0.1-0.1-0.1c0-0.1-0.1-0.1-0.1-0.2c0,0-0.3-0.4-0.4-0.4
			c-0.5-0.7-0.2-1.8-0.2-2.6c0-0.2,0-0.5,0.1-0.8c0,0,0.1-0.1,0.2-0.1c0.1-0.1,0-0.3,0.1-0.4c0-0.3,0-0.7,0.2-1
			c0-0.1,0.1-0.1,0.2-0.2c0.1-0.1,0.1-0.3,0.1-0.5c0.1-0.3,0.2-0.7,0.3-1c0.1-0.5,0.3-1,0.5-1.4c0.1-0.1,0.1-0.4,0.2-0.5
			c0.1-0.2,0.2-0.4,0.2-0.5c0.1-0.1,0.2-0.4,0.2-0.5c0.1,0,0.1-0.4,0.3-0.5l0.1-0.1c0.1-0.1,0.2-0.5,0.3-0.7c0.1-0.2,0-0.7,0.2-0.3
			c0.1,0.1,0.1,0.5,0.1,0.8c0,0.3,0.1,0.5,0.1,0.9c0,0.5,0,1.3-0.2,1.8s-0.2,1-0.4,1.5c-0.1,0.1-0.1,0.3-0.3,0.4
			c-0.1,0.1-0.3,0.1-0.3,0.2c-0.1,0.2,0.1,0.2,0,0.4c0,0.1,0.3,0.3,0.4,0.4c0.1,0.1,0.7,0.2,0.8-0.1c0.1-0.2,0.5-0.3,0.7-0.4
			c0-0.1,0.2-0.1,0.2-0.3c0.1-0.3,0.3-0.8,0.4-1.1c0.2-0.4,0.3-0.9,0.4-1.4c0.1-0.9-0.1-2-0.1-2.8c0-0.3-0.2-1-0.5-1.2l-0.1-0.1
			c-0.2-0.3-0.8-0.4-1.1-0.7c-0.2-0.1-0.3-0.2-0.5-0.3s-1.1-0.2-1.2,0.1l-0.1,0.1c0-0.7-0.1-0.4-0.1-0.4c-0.1,0.1-0.1,0.1-0.1,0.1
			l0,0l-0.1,0.1c0,0,0,0-0.1,0.1c0,0.1-0.1,0.2-0.2,0.2c-0.4,0.3-0.8,1.2-1,1.6c-0.1,0.3-0.3,0.7-0.4,1c-0.1,0.1-0.1,0.3-0.1,0.4
			c-0.1,0.2-0.1,0.7-0.2,0.9c-0.2,0.2-0.2,0.8-0.3,1c-0.2,0.5-0.3,1.1-0.4,1.7c-0.1,0.3-0.1,0.5-0.2,0.9c-0.1,0.4,0,1-0.1,1.4
			c-0.1,0.2-0.2,0.8-0.4,1c-0.1,0.3-0.3,0.5-0.4,0.9c-0.2,0.2-0.3,0.8-0.4,1c-0.1,0.3-0.2,0.5-0.3,0.9c-0.1,0.3-0.1,0.5-0.2,0.9
			c-0.2,0.7-0.5,1.4-1,1.8c-0.3,0.5-1.3,1-1.7,0.4l0,0c-0.1-0.2-0.2-0.4-0.2-0.7c-0.1-0.3-0.1-0.8-0.1-1.1c0-0.3-0.1-0.8,0-1.1
			c0-0.2,0.1-0.3,0.2-0.5c0-0.3,0-0.8,0.1-1.1c0.1-0.5,0.2-1,0.2-1.5c0.2-0.1,0-0.7,0.1-0.9c0.1-0.1,0.2-0.9,0.2-1.1
			c0-0.3,0-0.7,0.1-1c0-0.2,0-0.7,0.1-0.8c0.1-0.2,0.1-0.5,0.1-0.9c0.1-0.3,0-0.5-0.1-0.9c0-0.3,0.1-0.4-0.2-0.8
			c-0.3-0.4-1.4-0.2-1.8-0.1s-0.9,0.2-1.3,0.4c-0.2,0.1-0.5,0.2-0.8,0.3s-0.7,0.3-0.9,0.5c-0.2,0.2-0.2-0.3-0.2-0.4
			c0-0.2,0.1-0.4,0.1-0.7c0-0.1-0.1-0.1-0.1-0.2c-0.1-0.8-0.1-1.4-0.3-2.1c-0.1-0.2-0.2-0.7-0.3-0.9c-0.1-0.1-0.1-0.2-0.2-0.3
			c-0.1-0.1-0.8-0.4-0.9-0.1c-0.1,0.1-0.2,0.2-0.4,0.2c-0.4,0.1-0.5,0-0.7,0.4c-0.1,0.3-0.2,0.3-0.4,0.5c-0.5,0.3-0.3,1.3-0.3,1.8
			c0,0.4,0.1,1,0.4,1.4l0,0c0,0,0,0.1,0.1,0.1c0,0,0,0.1,0.1,0.1c0,0.1,0.1,0.3,0.2,0.3c0.2,0.2,0.4,0.3,0.8,0.4
			c0.5,0.2,0.3,0.5,0.2,1c-0.1,1.3-0.3,2.6-0.5,3.8c-0.4,0.7-0.5,1.1-0.5,1.5c0,0.2,0,0.2,0,0.4c0,0.1-0.1,0.3-0.1,0.4
			c-0.2,0.7-0.4,1.2-0.7,1.8c-0.2,0.4-0.4,1-0.7,1.4l0,0c-0.1,0.2-0.4,0.4-0.4,0.7c-0.3,0.4-0.7,1-1.1,0.2s-0.5-1.8-0.5-2.7
			c0-0.4,0-0.9,0-1.3s0.1-0.9,0.1-1.3c0-0.9,0-1.6-0.1-2.4c-0.1-0.5-0.2-1-0.3-1.4c0-0.3-0.2-0.8-0.2-1.2c0-0.3-0.1-0.7,0-1
			c0-0.2,0.2-0.4,0.2-0.7c0.2-0.3-0.3-0.7-0.5-0.7c-0.3-0.1-0.8-0.1-1-0.1c-0.1,0-0.2,0.1-0.3,0.1c-0.2,0.1-0.5,0-0.8,0.1
			c-0.1,0-0.3,0.2-0.4,0.3c-0.2,0.2-0.1,0.1,0,0.4c0.1,0.4,0.3,0.8,0.3,1.2c0.1,0.8,0,1.6,0.2,2.4c0.1,0.7,0.1,1.3,0.2,1.8
			c0.2,1.4,0.3,2.7,0.5,4.1c0.1,0.5,0.2,1.1,0.3,1.5c0.1,0.2,0.2,0.9,0.4,1c0.1,0.1,0.1,0.2,0.2,0.2c0,0,0,0,0.1,0.1
			c0,0,0,0.1,0.1,0.1c0.3,0.1,0.7,0.2,1,0.4c0.2,0.3,1,0.2,1.2,0.2c0.3,0,1-0.1,1.2-0.2c0.3-0.1,0.5-0.7,0.8-1
			c0.2-0.1,0.4-0.7,0.4-0.9c0.2-0.1,0.3-0.7,0.4-0.9c0.1-0.3,0.1-0.7,0.3-1c0.2-0.4,0.2-0.7,0.3-1.2c0.1-0.3,0.2-0.7,0.2-1
			c0-0.2-0.1-0.4-0.2-0.7c-0.1-0.2,0-0.2,0.2-0.4c0-0.1,0.1-0.2,0.1-0.2c0.1-0.2,0.2-0.5,0.3-0.8c0.2-0.7,0-1.3,0.1-2.1
			c0-0.1,0.1-0.2,0.1-0.3c0-0.2,0-0.8,0.1-0.9c0.1-0.2,0.1-0.3,0.3-0.4c0.1,0,0.7-0.1,0.8-0.2c0.1,0,0.3-0.1,0.4-0.2
			c0.2-0.1,0.4-0.2,0.7-0.4c0.1-0.1,0.2-0.2,0.4-0.2c0.2-0.1,0.2-0.1,0.3,0.1c0.1,0.3-0.1,0.9-0.2,1.2c0,0.2-0.1,0.5-0.1,0.8
			c-0.3,0.8-0.5,1.4-0.5,2.1c-0.1,1.6-0.1,3.3,0.3,4.9c0.1,0.3,0.2,0.8,0.4,1.1c0.1,0.1,0.3,0.8,0.4,0.8c0.1,0.1,0.2,0.2,0.2,0.3
			c0.1,0.1,0.1,0.1,0.1,0.1c0,0.1,0.3,0.4,0.4,0.4l0.1,0.1c0,0.1,0.4,0.3,0.4,0.3c0.2,0.1,0.4,0.1,0.7,0.2c0.1,0.3,1.2,0.1,1.3-0.1
			C-220.1,428.9-220,428.7-219.8,428.6z M-210.8,425.2L-210.8,425.2L-210.8,425.2z M-212.7,425.7c0,0,0.3-0.1,0.3,0
			c0,0.2-0.7,0.1-0.8,0C-213,425.7-212.9,425.7-212.7,425.7C-212.7,425.6-212.9,425.7-212.7,425.7z M-228.9,423.2L-228.9,423.2
			L-228.9,423.2z M-230,426.4L-230,426.4L-230,426.4z M-228.5,415.8c-0.3-0.7-0.7-1.7,0.1-2.3c0.2,0.9,0.3,1.8,0.3,2.8
			C-228.3,416.2-228.4,415.9-228.5,415.8C-228.6,415.6-228.4,415.9-228.5,415.8z M-226.8,412.6L-226.8,412.6L-226.8,412.6z
			 M-225.4,417.5L-225.4,417.5L-225.4,417.5z M-220.5,429L-220.5,429L-220.5,429z"/>
		<path class="st0" d="M-215.8,424.6L-215.8,424.6L-215.8,424.6z"/>
		<path class="st0" d="M-219.1,424.9L-219.1,424.9L-219.1,424.9z"/>
		<path class="st0" d="M-219.3,425.6L-219.3,425.6L-219.3,425.6z"/>
		<path class="st0" d="M-223.5,427.6C-223.5,427.6-223.6,427.6-223.5,427.6L-223.5,427.6z"/>
		<path class="st0" d="M-225.3,415.6L-225.3,415.6L-225.3,415.6z"/>
		<path class="st0" d="M-229.6,428.4L-229.6,428.4L-229.6,428.4z"/>
		<path class="st0" d="M-220.1,426.7L-220.1,426.7L-220.1,426.7z"/>
		<path class="st0" d="M-240,434.4c0.1-0.1,0.2-0.2,0.2-0.3c0-0.1,0.1-0.2,0.2-0.2c0.2-0.1,0.5-0.7,0.7-0.9c0.2-0.3,0.4-0.7,0.7-1
			c0.2-0.3,0.5-0.7,0.8-1.1c0.2-0.1,0.3-1,0.4-1.2c0.1-0.3,0.3-0.7,0.4-1c0.1-0.3,0.3-0.9,0.3-1.2s0-0.9,0-1.2s0.1-0.9-0.1-1.1
			c-0.1-0.2-0.3-0.3-0.4-0.4c-0.1-0.2-0.1-0.3-0.2-0.4c-0.1,0-0.1-0.1-0.2-0.2c-0.1,0-0.1,0-0.2-0.1c-0.1-0.2,0.1-0.4-0.1-0.7
			c-0.1-0.2-0.3,0.1-0.3-0.2c0,0,0.1-0.1,0.1-0.2s0-0.5-0.2-0.2h-0.1c-0.1-0.2-0.1-0.5-0.3-0.1c-0.1,0.1,0,0.5-0.2,0.7
			c-0.2,0.3-0.1,0.8-0.2,1.1c-0.1,0.2-0.1,0.2-0.3,0.3c-0.1,0.1-0.1,0.3-0.2,0.4c-0.1,0.2-0.1,0.5-0.2,0.8c-0.1,0.3-0.1,0.4-0.3,0.7
			c-0.2,0.3-0.3,0.8-0.4,1.2c-0.2,0.3-0.3,0.8-0.4,1.1c-0.1,0.3-0.2,0.8-0.4,1.1c-0.2,0.2-0.4,0.8-0.5,1.1c-0.2,0.4-0.4,0.8-0.7,1.1
			c-0.1,0-0.2,0.3-0.2,0.4c-0.5,0.9-1.3,1.6-2.2,2.4c-0.1,0-0.2,0.2-0.3,0.3c-0.2,0.1-0.4,0.2-0.8,0.3c-0.7,0.1-1.1-0.1-1.6-0.4
			c0.1-0.2,0.1-0.2,0.1-0.1l-0.1-0.1c0-0.2-0.3-0.4-0.4-0.5c-0.1-0.2-0.3-0.5-0.4-0.8c-0.2-0.2-0.2-0.7-0.4-0.9
			c-0.2-0.3-0.3-1.1-0.4-1.4c-0.2-0.5-0.3-1.1-0.4-1.6c-0.2-0.7-0.2-1.4-0.4-2.1c-0.1-0.3-0.1-0.7-0.2-1.1c-0.1-0.3-0.2-0.7-0.2-1
			c0-0.8-0.1-1.5-0.1-2.3c0.1-0.9,0.1-1.8,0.2-2.8c0.1-0.7,0.2-1.4,0.3-2.1c0.1-0.5,0.1-1.2,0.3-1.6c0.2-0.5,0.3-1.2,0.4-1.7
			c0-0.3,0.1-0.8,0.2-1.1c0-0.1,0.1-0.7,0.1-0.7c0.2-0.5,0.4-1.1,0.7-1.5c0.1-0.4,0.2-1,0.3-1.4c0-0.2,0-0.9,0.3-1
			c0.1,0.2,0.3,0.4,0.4,0.7c0.1,0.3,0.2,0.5,0.3,0.9c0.3,1.1,0.5,2.1,0.7,3.2c0.2,1.6,0.2,3.3-0.1,4.8c-0.1,0.4-0.2,0.9-0.3,1.3
			c-0.1,0.4-0.1,0.9-0.1,1.3c0,0.3,0.1,0.5,0.1,0.9c0,0.1-0.1,0.4,0,0.5c0,0,0.2-0.1,0.3-0.1c0.1,0,0.1,0.1,0.2,0.1
			c0.1,0,0.1,0,0.2,0s0.2,0,0.3-0.1c0.2,0,0.4,0,0.5,0c0.1,0,0.3-0.3,0.4-0.2c0,0.1,0,0.2,0,0.3c0.1,0,0.4-0.5,0.4-0.7
			c0.1-0.5,0-1.1,0.2-1.6c0.1-0.3,0.1-0.5,0.1-0.9c0-0.4-0.1-0.8-0.1-1.2c0-0.7,0-1.2,0-1.8c0-0.5,0.1-1.1,0-1.6
			c-0.4-1.7-0.4-3.7-1.4-5.3l0,0c-0.1-0.1-0.1-0.2-0.2-0.3c0-0.1-0.3-0.4-0.4-0.4c-0.1-0.1-0.4-0.2-0.7-0.3c-0.4-0.1-1.1,0-1.4-0.2
			c-0.2-0.4-1.3-0.4-1.5,0.1c0,0,0,0-0.1,0.1c-0.1,0.1-0.3,0.3-0.4,0.4c-0.2,0-0.7,0.5-0.7,0.8c-0.1,0.1-0.2,0.3-0.3,0.5
			c-0.3,0.2-0.4,1-0.7,1.3c-1,2.2-1.5,4.6-1.8,7c-0.2,1.5-0.2,3.3-0.2,5c0,2,0,3.9,0.5,5.8c0.3,1,0.5,2,1,2.8l0,0
			c0.1,0.3,0.2,0.5,0.4,0.9l0,0c0,0.1,0.2,0.5,0.3,0.7c0.1,0.1,0.2,0.5,0.3,0.5c0.1,0.1,0.2,0.4,0.4,0.5l0.1,0.1
			c0.1,0.1,0.1,0.2,0.2,0.2l0.1,0.1c0.1,0.2,0.5,0.8,0.9,0.8c0,0,0,0,0.1,0.1c0.1,0.1,0.2,0.2,0.3,0.2c0.1,0.1,0.3,0.2,0.4,0.3
			s0.7,0.2,0.8,0.3c0.3,0.1,0.5,0.2,0.8,0.3c0.2,0.1,0.8,0.1,1,0.1c0.4,0,0.8,0.1,1.2,0.1c0.2,0,1.1,0,1.3-0.2
			c0.1,0,0.9-0.2,0.9-0.4c0.1,0,0.2-0.1,0.3-0.2c0.2-0.1,0.5-0.2,0.8-0.4c0.2-0.1,0.5-0.3,0.7-0.5c0.1-0.1,0.2-0.2,0.2-0.2l0,0
			c0,0-0.3,0.7,0.1-0.1c0.2-0.2,0.4-0.4,0.7-0.7c0,0,0,0,0.1-0.1C-240.2,434.6-240.1,434.5-240,434.4z M-247.9,409.2L-247.9,409.2
			L-247.9,409.2z"/>
		<path class="st0" d="M-244.9,435.1L-244.9,435.1L-244.9,435.1z"/>
		<path class="st0" d="M-246.2,408.8L-246.2,408.8L-246.2,408.8z"/>
		<path class="st0" d="M-236.4,428.3L-236.4,428.3L-236.4,428.3z"/>
		<path class="st0" d="M-252.6,412.9L-252.6,412.9L-252.6,412.9z"/>
		<path class="st0" d="M-242,431.6L-242,431.6L-242,431.6z"/>
		<path class="st0" d="M-242.5,436.6L-242.5,436.6L-242.5,436.6z"/>
		<path class="st0" d="M-240.2,434.6C-240.1,434.6-240.2,434.6-240.2,434.6L-240.2,434.6z"/>
		<path class="st0" d="M-249.7,408.2L-249.7,408.2L-249.7,408.2z"/>
		<path class="st0" d="M-254,422.1L-254,422.1L-254,422.1z"/>
		<path class="st0" d="M-242.5,432.4L-242.5,432.4L-242.5,432.4z"/>
		<path class="st0" d="M-238.1,422.5L-238.1,422.5L-238.1,422.5z"/>
		<path class="st0" d="M-244.1,419.1L-244.1,419.1L-244.1,419.1z"/>
		<path class="st0" d="M-244.6,422.5L-244.6,422.5L-244.6,422.5z"/>
		<path class="st0" d="M-239.6,426.5L-239.6,426.5L-239.6,426.5z"/>
		<path class="st0" d="M-249.7,436.2C-249.7,436.2-249.7,436.3-249.7,436.2L-249.7,436.2z"/>
		<path class="st0" d="M-240.2,434.7L-240.2,434.7L-240.2,434.7z"/>
		<path class="st0" d="M-242.1,436.4L-242.1,436.4L-242.1,436.4z"/>
		<path class="st0" d="M-240.5,435L-240.5,435L-240.5,435z"/>
		<path class="st0" d="M-240.4,435L-240.4,435L-240.4,435z"/>
		<path class="st0" d="M-245.1,422.7L-245.1,422.7L-245.1,422.7z"/>
		<path class="st0" d="M-238.4,423.2L-238.4,423.2L-238.4,423.2z"/>
		<path class="st0" d="M-238.9,433.2L-238.9,433.2L-238.9,433.2z"/>
		<path class="st0" d="M-239.3,433.7C-239.3,433.8-239.3,433.7-239.3,433.7L-239.3,433.7z"/>
		<path class="st0" d="M-197.7,403.4L-197.7,403.4L-197.7,403.4z"/>
		<path class="st0" d="M-196.8,418.8L-196.8,418.8L-196.8,418.8z"/>
		<path class="st0" d="M-195.9,424.3L-195.9,424.3L-195.9,424.3z"/>
		<path class="st0" d="M-195.9,417.2L-195.9,417.2L-195.9,417.2z"/>
		<path class="st0" d="M-198,402.1L-198,402.1L-198,402.1z"/>
		<path class="st0" d="M-203.7,404.5L-203.7,404.5L-203.7,404.5z"/>
		<path class="st0" d="M-198,402.1L-198,402.1L-198,402.1z"/>
		<path class="st0" d="M-196.5,418.3c-0.2,0.3-0.4,0.7-0.7,1.1l-0.1,0.2c-0.8,1.4-1.6,2.8-2.9,3.6c-0.1,0-0.1,0.1-0.2,0.1
			c-0.2,0.2-0.8,0.4-1.1,0.2c-0.1-0.2-0.3-0.3-0.5-0.4c-0.1-0.1-0.2-0.3-0.3-0.4c-0.2-0.2-0.2-0.5-0.2-0.8c-0.1-0.4-0.2-0.9-0.3-1.3
			c-0.1-0.7-0.1-1.4,0-2.1c0-0.2,0.1-0.4,0.2-0.7c0.1-0.1,0-0.4,0.1-0.5c0,0,0.2-0.1,0.2,0c0-0.1,0-0.2,0-0.3c0-0.2,0.2-0.4,0.3-0.7
			c0.2-0.4,0.2-0.9,0.5-1.2c0.1,0,0.2-0.3,0.2-0.4c0-0.2,0-0.4,0.1-0.7c0.1-0.2,0.1-0.4,0.2-0.7c0.2-0.2,0.1-0.7,0.4-0.8
			c0.2-0.2,0.2-0.7,0.3-0.9c0.1-0.1,0.2-0.5,0.3-0.7c0.1-0.1,0.3-0.2,0.3-0.4c0.2-0.3,0.2-0.8,0.4-1.1c0.1-0.1,0.1-0.3,0.1-0.4
			l0.1-0.4l0,0c0.2-0.7,0.3-1.3,0.5-1.8c0.1-0.3,0.2-0.7,0.3-1.1c0.1-0.4,0.1-1,0.2-1.4c0.1-0.3,0.2-0.5,0.2-0.9v-0.1
			c0-0.1-0.1-0.3-0.1-0.4c0-0.3-0.1-0.4-0.2-0.8c-0.1-0.1-0.2-0.7-0.3-0.8c-0.2-0.3-0.5-0.5-1-0.7c-0.4-0.2-0.8-0.2-1.2-0.2
			c-0.3,0-0.2,0.1-0.3,0.3c-0.1,0.1-0.4,0.1-0.7,0.3c-0.2,0.1-0.4,0.3-0.5,0.5c-0.3,0.2-0.4,0.8-0.5,1.1c-0.1,0.2-0.1,0.4-0.2,0.7
			c0,0.1-0.1,0.1-0.1,0.2c-0.1,0.1-0.1,0.1-0.2,0.2c0,0.1,0,0.2-0.1,0.3c-0.1,0.2-0.2,0.2-0.3,0.4c-0.2,0.2-0.2,0.7-0.2,0.9
			c-0.2,0.7-0.3,1.3-0.4,1.8c-0.3,1.3-0.4,2.6-0.8,3.9c-0.5,2-0.7,4.1-0.7,6.2c0,1.3-0.1,2.7,0.2,4c0.1,0.3,0.2,0.7,0.2,1
			c0,0.1,0.1,0.7,0.3,0.8c0.2,0.4,0.4,0.7,0.8,1c0.2,0.2,0.5,0.7,0.9,0.8c0.4,0.2,1,0.4,1.4,0.4c0.3,0,0.5-0.2,0.9-0.3
			c0.4-0.1,0.9,0,1.3-0.2l0,0c0-0.1,0.7-0.3,0.9-0.4c-0.1,0.1,0.3-0.2,0.2-0.1c0.1,0,0.1-0.1,0.2-0.1c0.1-0.1,0.3-0.2,0.3-0.3
			c0.2-0.1,0.8-0.5,0.8-0.8c0,0.1,0.1-0.1,0.1-0.1l0,0l0.1-0.1l0.1-0.1c0.1,0,0.4-0.8,0.4-0.8c0.1-0.2,0.1-0.4,0.2-0.7
			c0.1,0.2,0,0.4-0.1,0.5c0,0.2,0,0.4,0,0.7c0,0.3,0.1,0.7,0.2,1.1c0.1,0.3,0.2,0.5,0.4,0.9c0.1,0.2,0.5,0.8,0.8,0.9
			c0.1,0.2,0.2,0,0.3,0.1c0.2,0,0.4,0.1,0.7,0.1c0.7,0.2,1.2,0.3,1.8,0.2c0.9-0.2,1.8-0.4,2.6-0.8c0.1,0,0.2-0.2,0.3-0.2
			c0.2-0.2,0.5-0.3,0.8-0.4c0.3-0.2,0.5-0.7,1-0.8c0,0,0.1,0,0.1-0.1c0.3-0.2,0.5-0.5,0.8-0.8c0.1,0,0.3-0.4,0.4-0.4
			c0.2-0.1,0.4-0.5,0.5-0.7c0.1-0.1,0.3-0.3,0.4-0.5c0.2-0.3,0.5-0.5,0.7-0.9c0.1-0.1,0.2-0.5,0-0.8c-0.3-0.2-0.8,0-1,0.2
			c-0.2,0.2-0.5,0.4-0.9,0.7c-0.1,0.1-0.1,0.1-0.1,0.1l-0.1,0.1l-0.2,0.2c0,0.1-0.1,0.2-0.1,0.3c-0.1,0-0.4,0.5-0.5,0.7
			c-0.2,0.2-0.4,0.4-0.7,0.7c-0.1,0-0.3,0.2-0.3,0.3l-0.1,0.1c-0.3,0.2-0.5,0.4-0.9,0.5c-0.4,0.2-0.9,0.3-1.2,0.5c0,0-0.1,0-0.1,0.1
			c-0.1,0.1-0.7,0.2-0.9,0.2c-0.5,0.1-1,0.1-1.5,0c-0.4-0.1-0.9-0.1-1.1-0.4c-0.1-0.1-0.3-0.3-0.4-0.4c-0.1-0.2-0.3-0.5-0.3-0.9
			c0-0.1,0-0.5,0.1-0.7c0.1-0.3,0.2-0.1,0.5-0.2c0.1,0,0.2-0.2,0.3-0.2c0.4-0.2,1.1-0.2,1.6-0.3c0.2-0.1,1-0.2,1.1-0.4
			c0.2-0.1,0.4-0.1,0.5-0.3c0.2-0.1,0.4-0.2,0.5-0.4l0,0c0.1-0.1,0.1-0.3,0.3-0.4c0.1-0.1,0.2-0.1,0.3-0.2c0.1,0,0.2-0.2,0.3-0.3
			l0.1-0.1c0.1-0.1,0.1-0.1,0.1-0.1s0,0,0.1-0.1c0.1-0.1,0.2-0.2,0.3-0.3c0.2-0.2,0.7-0.7,0.7-0.9l0.1-0.1c0.1-0.3,0.4-0.5,0.7-1
			c0.3-0.4,0.4-1.1,0.7-1.6c0-0.1,0.1-0.2,0.1-0.3c0.1-0.2,0-0.5,0-0.8c0-0.4,0.3-1.1-0.1-1.4c-0.2-0.2-0.5-0.3-0.8-0.5
			c-0.1-0.1-0.2-0.2-0.3-0.3c-0.2-0.1-0.3-0.1-0.4-0.2l-0.1-0.1c-0.3-0.3-1.1,0-1.4,0.1c-0.3,0.1-1.2,0.3-1.4,0.7
			c-0.3,0.3-0.9,0.7-1.2,1c0,0-0.2,0.2-0.3,0.3c-0.5,0.7-1.4,1.4-1.7,2.3c-0.1,0.2-0.3,0.4-0.4,0.8c-0.1,0.2-0.3,0.8-0.4,1
			c-0.2,0.4-0.3,1-0.7,1.3C-196.4,417.8-196.4,418.2-196.5,418.3L-196.5,418.3z M-203,416.8c-0.2-0.4-0.1-1.1,0-1.5
			c0.1-0.7,0.2-1.2,0.2-1.8c0.1-1.2,0.3-2.5,0.7-3.7c0.2-1.2,0.3-2.4,0.7-3.6c0.1-0.4,0.5-0.9,0.7-1.3c0.1-0.2,0.3-1.2,0.5-1.3
			c0.5,1,0.2,2.6,0.1,3.6c-0.2,1.2-0.5,2.3-0.8,3.4c-0.1,0.5-0.1,1.1-0.3,1.6c-0.2,0.4-0.3,1-0.5,1.4
			C-202.2,414.7-202.7,415.7-203,416.8C-203.1,416.7-203,416.7-203,416.8z M-189,423.8L-189,423.8L-189,423.8z M-193.5,417.4
			c0.7-1.3,1.7-2.3,2.8-3.4c0.4-0.3,0.8-0.8,1.2-1.1c0.2-0.2,0.5-0.4,0.8-0.8c0.1-0.2,0.3-0.9,0.5-0.5c0.3,0.4-0.2,1.6-0.4,2.1
			c-0.4,0.8-0.9,1.3-1.4,2c-0.5,0.7-1.2,1.3-1.8,1.8c-0.5,0.4-1.4,1-2.1,0.9C-193.9,417.9-193.7,417.7-193.5,417.4
			C-193.3,416.8-193.7,417.6-193.5,417.4z"/>
		<path class="st0" d="M-185.8,418.8L-185.8,418.8L-185.8,418.8z"/>
		<path class="st0" d="M-189.6,422.6L-189.6,422.6L-189.6,422.6z"/>
		<path class="st0" d="M-192.5,412.1L-192.5,412.1L-192.5,412.1z"/>
		<path class="st0" d="M-194.7,415L-194.7,415L-194.7,415z"/>
		<path class="st0" d="M-199.8,410.9L-199.8,410.9L-199.8,410.9z"/>
		<path class="st0" d="M-189.7,418.6L-189.7,418.6L-189.7,418.6z"/>
		<path class="st0" d="M-200,424.6L-200,424.6L-200,424.6z"/>
		<path class="st0" d="M-197.7,423C-197.8,423-197.8,423-197.7,423L-197.7,423z"/>
		<path class="st0" d="M-197.7,423L-197.7,423L-197.7,423z"/>
		<path class="st0" d="M-188.7,423.7L-188.7,423.7L-188.7,423.7z"/>
		<path class="st0" d="M-189.6,424.3C-189.6,424.3-189.7,424.3-189.6,424.3L-189.6,424.3z"/>
		<path class="st0" d="M-189.1,423.9C-189.1,423.9-189.1,424-189.1,423.9L-189.1,423.9z"/>
		<path class="st0" d="M-203.7,424.4L-203.7,424.4L-203.7,424.4z"/>
		<path class="st0" d="M-201.7,425.1L-201.7,425.1L-201.7,425.1z"/>
		<path class="st0" d="M-204.1,423.9C-204.1,423.9-204.2,424-204.1,423.9L-204.1,423.9z"/>
		<path class="st0" d="M-204.7,423.4C-204.7,423.4-204.8,423.4-204.7,423.4L-204.7,423.4z"/>
		<path class="st0" d="M-203.8,405.2L-203.8,405.2L-203.8,405.2z"/>
		<path class="st0" d="M-186.3,421.3L-186.3,421.3L-186.3,421.3z"/>
		<path class="st0" d="M-202.6,425C-202.6,425-202.6,425.1-202.6,425L-202.6,425z"/>
		<path class="st0" d="M-203.4,424.6C-203.4,424.6-203.4,424.7-203.4,424.6L-203.4,424.6z"/>
		<path class="st0" d="M-203.5,424.6C-203.5,424.6-203.6,424.6-203.5,424.6L-203.5,424.6z"/>
		<path class="st0" d="M-187.6,410.9L-187.6,410.9L-187.6,410.9z"/>
		<path class="st0" d="M-189.9,418.7L-189.9,418.7L-189.9,418.7z"/>
		<path class="st0" d="M-185.8,420.6L-185.8,420.6L-185.8,420.6z"/>
		<path class="st0" d="M-189.3,418.3L-189.3,418.3L-189.3,418.3z"/>
		<path class="st0" d="M-188.4,410.5L-188.4,410.5L-188.4,410.5z"/>
		<path class="st0" d="M-190.3,419.3L-190.3,419.3L-190.3,419.3z"/>
		<path class="st0" d="M-188.4,417.1L-188.4,417.1L-188.4,417.1z"/>
		<path class="st0" d="M-187.3,411.2L-187.3,411.2L-187.3,411.2z"/>
		<path class="st0" d="M-188.6,417.5L-188.6,417.5L-188.6,417.5z"/>
		<path class="st0" d="M-185.2,420L-185.2,420L-185.2,420z"/>
		<path class="st0" d="M-190.3,419.4L-190.3,419.4L-190.3,419.4z"/>
		<path class="st0" d="M-185.2,420.1C-185.3,420.1-185.3,420.1-185.2,420.1L-185.2,420.1z"/>
		<path class="st0" d="M-185.4,420.3L-185.4,420.3L-185.4,420.3z"/>
		<path class="st0" d="M-190.9,419.7L-190.9,419.7L-190.9,419.7z"/>
		<path class="st0" d="M-190.4,419.4L-190.4,419.4L-190.4,419.4z"/>
		<path class="st0" d="M-194.2,420.8L-194.2,420.8L-194.2,420.8z"/>
		<path class="st0" d="M-198.5,401.2L-198.5,401.2L-198.5,401.2z"/>
		<path class="st0" d="M-191.7,411.5L-191.7,411.5L-191.7,411.5z"/>
		<path class="st0" d="M-193.9,413.7C-193.9,413.7-193.8,413.7-193.9,413.7L-193.9,413.7z"/>
		<path class="st0" d="M-196.1,417.5L-196.1,417.5L-196.1,417.5z"/>
		<path class="st0" d="M-194,413.9L-194,413.9L-194,413.9z"/>
		<path class="st0" d="M-201.5,401.1L-201.5,401.1L-201.5,401.1z"/>
		<path class="st0" d="M-196.3,417.8C-196.3,417.8-196.2,417.8-196.3,417.8L-196.3,417.8z"/>
		<path class="st0" d="M-199.7,410.8L-199.7,410.8L-199.7,410.8z"/>
		<path class="st0" d="M-199.7,410.7L-199.7,410.7L-199.7,410.7z"/>
		<path class="st0" d="M-198.6,401.1L-198.6,401.1L-198.6,401.1z"/>
		<path class="st0" d="M-199.3,400.6L-199.3,400.6L-199.3,400.6z"/>
		<path class="st0" d="M-198.6,401.1L-198.6,401.1L-198.6,401.1z"/>
		<path class="st0" d="M-198.5,432.5L-198.5,432.5L-198.5,432.5z"/>
		<path class="st0" d="M-211.6,436.1L-211.6,436.1L-211.6,436.1z"/>
		<path class="st0" d="M-207,439.1C-207,439.1-206.8,439.2-207,439.1L-207,439.1z"/>
		<path class="st0" d="M-198.5,433.9L-198.5,433.9L-198.5,433.9z"/>
		<path class="st0" d="M-207.4,439.6L-207.4,439.6L-207.4,439.6z"/>
		<path class="st0" d="M-198.1,432.8L-198.1,432.8L-198.1,432.8z"/>
		<path class="st0" d="M-210.6,430.6C-210.6,430.6-210.6,430.7-210.6,430.6L-210.6,430.6z"/>
		<path class="st0" d="M-207.1,437.6L-207.1,437.6L-207.1,437.6z"/>
		<path class="st0" d="M-207.7,438.7C-207.7,438.7-207.7,438.6-207.7,438.7L-207.7,438.7z"/>
		<path class="st0" d="M-201.8,433.8L-201.8,433.8L-201.8,433.8z"/>
		<path class="st0" d="M-206.8,437.2L-206.8,437.2L-206.8,437.2z"/>
		<path class="st0" d="M-202.6,432.6L-202.6,432.6L-202.6,432.6z"/>
		<path class="st0" d="M-211,434.3C-211,434.2-211,434.2-211,434.3L-211,434.3z"/>
		<path class="st0" d="M-212.1,433.3L-212.1,433.3L-212.1,433.3z"/>
		<path class="st0" d="M-212,433.3C-212,433.3-212.1,433.4-212,433.3L-212,433.3z"/>
		<path class="st0" d="M-199.7,432.5L-199.7,432.5L-199.7,432.5z"/>
		<path class="st0" d="M-202,433.7L-202,433.7L-202,433.7z"/>
		<path class="st0" d="M-212,436.4L-212,436.4L-212,436.4z"/>
		<path class="st0" d="M-212.7,436.5C-212.7,436.5-212.7,436.4-212.7,436.5L-212.7,436.5z"/>
		<path class="st0" d="M-195,437.7L-195,437.7L-195,437.7z"/>
		<path class="st0" d="M-195.2,437.9L-195.2,437.9L-195.2,437.9z"/>
		<path class="st0" d="M-196.4,446.7L-196.4,446.7L-196.4,446.7z"/>
		<path class="st0" d="M-205.9,439C-205.8,439-205.8,439-205.9,439L-205.9,439z"/>
		<path class="st0" d="M-188.4,440.2L-188.4,440.2L-188.4,440.2z"/>
		<path class="st0" d="M-192.9,440.9L-192.9,440.9L-192.9,440.9z"/>
		<path class="st0" d="M-188.4,439.7L-188.4,439.7L-188.4,439.7z"/>
		<path class="st0" d="M-193,440.8L-193,440.8L-193,440.8z"/>
		<path class="st0" d="M-190.6,439.1L-190.6,439.1L-190.6,439.1z"/>
		<path class="st0" d="M-189.7,435.8L-189.7,435.8L-189.7,435.8z"/>
		<path class="st0" d="M-191.6,434.1C-191.6,434.1-191.5,434.1-191.6,434.1L-191.6,434.1z"/>
		<path class="st0" d="M-192.6,434.4L-192.6,434.4L-192.6,434.4z"/>
		<path class="st0" d="M-191.8,433.9L-191.8,433.9L-191.8,433.9z"/>
		<path class="st0" d="M-192.4,434L-192.4,434L-192.4,434z"/>
		<path class="st0" d="M-192.3,433.9L-192.3,433.9L-192.3,433.9z"/>
		<path class="st0" d="M-203.9,439.9L-203.9,439.9L-203.9,439.9z"/>
		<path class="st0" d="M-209.7,440.4L-209.7,440.4L-209.7,440.4z"/>
		<path class="st0" d="M-208.1,439.2C-208.1,439.2-208.1,439.1-208.1,439.2L-208.1,439.2z"/>
		<path class="st0" d="M-211.8,436.4L-211.8,436.4L-211.8,436.4z"/>
		<path class="st0" d="M-188.4,439.3L-188.4,439.3L-188.4,439.3z"/>
		<path class="st0" d="M-197.7,445.9L-197.7,445.9L-197.7,445.9z"/>
		<path class="st0" d="M-207.8,438.8L-207.8,438.8L-207.8,438.8z"/>
		<path class="st0" d="M-202.7,438.4L-202.7,438.4L-202.7,438.4z"/>
		<path class="st0" d="M-199.2,439.1L-199.2,439.1L-199.2,439.1z"/>
		<path class="st0" d="M-199.1,439L-199.1,439L-199.1,439z"/>
		<path class="st0" d="M-199.1,439.1C-199.1,439.1-199.2,439.1-199.1,439.1L-199.1,439.1z"/>
		<path class="st0" d="M-200.1,439.4L-200.1,439.4L-200.1,439.4z"/>
		<path class="st0" d="M-197.7,440.1C-197.7,440.1-197.7,440-197.7,440.1L-197.7,440.1z"/>
		<path class="st0" d="M-197.2,446.3L-197.2,446.3L-197.2,446.3z"/>
		<path class="st0" d="M-200.2,439.3L-200.2,439.3L-200.2,439.3z"/>
		<path class="st0" d="M-197.5,440.2L-197.5,440.2L-197.5,440.2z"/>
		<path class="st0" d="M-203.5,439.6C-203.5,439.6-203.6,439.6-203.5,439.6L-203.5,439.6z"/>
		<path class="st0" d="M-203.1,439.2L-203.1,439.2L-203.1,439.2z"/>
		<path class="st0" d="M-200.5,439.1L-200.5,439.1L-200.5,439.1z"/>
		<path class="st0" d="M-237.2,443.1L-237.2,443.1L-237.2,443.1z"/>
		<path class="st0" d="M-226,441.5L-226,441.5L-226,441.5z"/>
		<path class="st0" d="M-228.4,434.3L-228.4,434.3L-228.4,434.3z"/>
		<path class="st0" d="M-224,441.3L-224,441.3L-224,441.3z"/>
		<path class="st0" d="M-226.8,438L-226.8,438L-226.8,438z"/>
		<path class="st0" d="M-237.8,445.6L-237.8,445.6L-237.8,445.6z"/>
		<path class="st0" d="M-234.5,444.6L-234.5,444.6L-234.5,444.6z"/>
		<path class="st0" d="M-229.7,442L-229.7,442L-229.7,442z"/>
		<path class="st0" d="M-221,440.9L-221,440.9L-221,440.9z"/>
		<path class="st0" d="M-229.8,442C-229.8,442-229.8,441.9-229.8,442L-229.8,442z"/>
		<path class="st0" d="M-227.4,439.1L-227.4,439.1L-227.4,439.1z"/>
		<path class="st0" d="M-219.9,437.5c0.3-0.3,0.1-1.1,0.1-1.4c0-0.3,0-0.9-0.2-1.2c-0.2-0.2-0.3-0.3-0.3-0.4c-0.7-1-2-0.3-2.6,0.2
			c-0.1,0.1-0.3,0.3-0.4,0.4c0,0-0.1,0.2-0.2,0.2c-0.1,0-0.2-1.7-0.3-2c-0.1-0.9-0.1-1.8-0.2-2.7c-0.1-0.3,0-0.8,0-1.1
			c0-0.3-0.1-0.7,0-1c0.1-0.2,0.3-0.2,0.3-0.4c0-0.1-0.2-0.3-0.3-0.3c0,0,0,0-0.1-0.1c-0.1-0.1-0.7-0.1-0.8-0.1
			c-0.3,0-0.4,0.1-0.7,0.3c-0.1,0.8,0,1.6,0,2.4c0,1,0,1.8,0.1,2.8c0.1,1.5,0.2,3.2,0.3,4.7c0,0.4-0.2,0.5-0.3,0.9
			c-0.1,0.3-0.1,0.7-0.2,0.9c-0.2,0.4-0.4,0.9-0.7,1.2l-0.1,0.1c-0.2,0.1-0.3,0.3-0.5,0.4c-0.2,0.2-0.5,0.3-0.8,0.3
			c-0.4,0.1-0.7,0-1.1-0.2c-0.1-0.1-0.1-0.2-0.2-0.3c-0.1-0.4,0.1-0.2,0.3-0.5c0.2-0.3,0.7-0.4,1-0.7l0.1-0.1
			c0.1-0.2,0.3-0.3,0.4-0.5c0.1-0.2,0.1-0.5,0.2-0.7l0.1-0.1c0.3-0.2,0.4-1.3,0.4-1.6c0-0.4,0-0.9,0-1.3c0-0.1-0.1-0.5-0.2-0.7
			c-0.2-0.2-0.4-0.3-0.8-0.4c-0.1-0.1-0.4-0.1-0.5-0.1c-0.2,0-0.3,0-0.4,0.2l0,0c-0.1,0.1-0.5,0.3-0.7,0.4c-0.1,0.1-0.1,0.2-0.2,0.2
			l-0.1,0.2l-0.1,0.2c-0.2,0.1-0.3,0.7-0.3,0.8c-0.1,0.4-0.2,0.9-0.3,1.3s-0.1,0.9-0.3,1.3c-0.1,0.2-0.2,0.7-0.3,0.8
			c0,0.1-0.1,0.3-0.2,0.4c-0.3,0.2-0.4,1-0.9,0.9c-0.3,0-0.5-0.9-0.7-1.2c-0.3-0.3-0.3-1.1-0.4-1.4c-0.1-0.3-0.2-0.9-0.4-1.1
			c0,0-0.2-0.2-0.2-0.3c-0.2-0.2-0.3-0.4-0.7-0.2c-0.1,0-0.4,0.2-0.4,0.3c0,0.1,0.1,0.8,0.2,0.8c0.2,0.7,0.4,1.3,0.7,2
			c0.1,0.7,0.2,1.2,0.2,1.8c0,0.3,0.2,2.4-0.1,2.3c-0.1-0.2-0.2-0.7-0.4-0.8c-0.1-0.1-0.2-0.5-0.3-0.7c-0.5-0.9-0.9-1.8-1.2-2.8
			c-0.1-0.2-0.1-0.5-0.3-0.7c-0.5-0.2-0.7,0.4-0.7,0.8c0,0.8,0.1,1.4,0.1,2.2c0,0.3,0,0.5,0,0.9c0,0.1-0.1,1.1-0.1,1.1
			c-0.1,0-0.2-0.7-0.2-0.8c-0.1-0.2-0.2-0.5-0.3-0.8c-0.2-0.4-0.4-0.9-0.5-1.4c-0.1-0.4-0.3-0.9-0.4-1.2c-0.1-0.2-0.2-0.3-0.2-0.5
			c0-0.2,0.1-0.5,0-0.8c-0.2-0.3-0.7-0.2-1,0c-0.4,0.3-0.2,0.7-0.1,1.1c0.2,0.9,0.4,1.7,0.8,2.6c0.2,0.4,0.2,1,0.4,1.5
			c0.2,0.4,0.2,1.3,0.7,1.5c0.2,0.4,0.8,0.7,1.3,0.8c0.5,0.1,0.4-0.2,0.7-0.5l0.1-0.1c0.1-0.3,0.2-0.7,0.2-1.1c0-0.2,0-0.4,0-0.7
			c0-0.3,0-0.8,0-1c0.1,0.2,0.3,0.9,0.5,1c0,0,0,0.1,0.1,0.1c0.3,0.5,1.2,1.4,2,1.1c0.1-0.1,0.1-0.1,0.1-0.1l0.1-0.1
			c0.2-0.3,0.2-0.7,0.3-1c0-0.4,0-0.9,0-1.3c0-0.1-0.2-1,0-1.1l0.3,0.2c0.3,0.1,0.5,0.2,1,0.1c0.4-0.1,0.7-0.5,0.9-0.9
			c0.1-0.1,0.1-0.3,0.2-0.3l0.1,0.3c0.1,0.2,0.1,0.5,0.3,0.8c0,0,0,0.1,0.1,0.1c0.2,0.3,0.8,0.9,1.1,0.9c0.2,0,0.7-0.1,0.9-0.1
			s0.3-0.1,0.5-0.2s0.3-0.2,0.5-0.3c0.1,0,0.2-0.2,0.3-0.2c0.1-0.1,0.3-0.2,0.4-0.3c0.1-0.2,0.2-0.4,0.3-0.5
			c0.2-0.2,0.2-0.7,0.4-0.9c0-0.1,0.1-0.3,0.2-0.4c0,0.2,0,0.5,0.1,0.8c0.1,0.3,0.2,0.3,0.4,0.4c0.1,0.1,0.2,0.2,0.3,0.3
			c0.2,0.2,0.9,0.2,1-0.1c0.3-0.2,0-1.2,0-1.4c0-0.7,0.2-1.4,0.4-2.1c0.1-0.4,0.5-3.3,1.5-2.6c0.3,0.2,0.3,1.3,0.3,1.5
			c0,0.7,0,1.3,0,2c-0.1,0.7-0.2,1.2-0.5,1.7c-0.1,0.2-0.2,0.4-0.4,0.5s-0.8-0.2-0.9,0c0.2,0,0.3,0.3,0.4,0.4c0.1,0,0.2,0.1,0.2,0.1
			c0.2,0.1,0.3,0.2,0.5,0.1c0.3-0.2,0.5-0.7,0.9-0.8c0.2-0.3,0.4-0.8,0.5-1.2c0.1-0.2,0.2-0.4,0.2-0.7
			C-219.9,438.6-220,437.9-219.9,437.5z M-227.2,438.7L-227.2,438.7L-227.2,438.7z M-238.4,444.7L-238.4,444.7L-238.4,444.7z
			 M-229.3,439.2c0-0.9,0.2-1.6,0.7-2.4c0.3-0.7,1-1.4,0.9-2.1c0.7-0.1,0.1,2,0,2.3c-0.1,0.4-0.3,0.9-0.5,1.2
			C-228.6,438.7-228.9,438.9-229.3,439.2C-229.3,438.7-229,439-229.3,439.2z M-225.1,439.7c0-0.1,0-0.1,0.1-0.1
			C-225,439.6-225,439.7-225.1,439.7z M-225,439.6c0,0-0.1-0.1,0-0.1C-225,439.5-225,439.5-225,439.6z"/>
		<path class="st0" d="M-237.9,445.6L-237.9,445.6L-237.9,445.6z"/>
		<path class="st0" d="M-239.8,438.8L-239.8,438.8L-239.8,438.8z"/>
		<path class="st0" d="M-240,439L-240,439L-240,439z"/>
		<path class="st0" d="M-234.3,444.6C-234.3,444.6-234.5,444.7-234.3,444.6L-234.3,444.6z"/>
		<path class="st0" d="M-234.9,444.2L-234.9,444.2L-234.9,444.2z"/>
		<path class="st0" d="M-236.3,446.2L-236.3,446.2L-236.3,446.2z"/>
		<path class="st0" d="M-236.7,446.3L-236.7,446.3L-236.7,446.3z"/>
		<path class="st0" d="M-229.1,434.9C-229.1,434.9-229.1,434.7-229.1,434.9L-229.1,434.9z"/>
		<path class="st0" d="M-236.2,439.3C-236.2,439.3-236.2,439.4-236.2,439.3L-236.2,439.3z"/>
		<path class="st0" d="M-233.7,437.4L-233.7,437.4L-233.7,437.4z"/>
		<path class="st0" d="M-229,434.7L-229,434.7L-229,434.7z"/>
		<path class="st0" d="M-234,436.9L-234,436.9L-234,436.9z"/>
		<path class="st0" d="M-234.2,443.4C-234.2,443.4-234.2,443.6-234.2,443.4L-234.2,443.4z"/>
		<path class="st0" d="M-235,442.1L-235,442.1L-235,442.1z"/>
		<path class="st0" d="M-234,436.8L-234,436.8L-234,436.8z"/>
		<path class="st0" d="M-233,444.9L-233,444.9L-233,444.9z"/>
		<path class="st0" d="M-222.6,441.2L-222.6,441.2L-222.6,441.2z"/>
		<path class="st0" d="M-223.1,441.3C-223.3,441.3-223.3,441.3-223.1,441.3C-223.3,441.3-223.1,441.3-223.1,441.3z"/>
		<path class="st0" d="M-220.5,440.4L-220.5,440.4L-220.5,440.4z"/>
		<path class="st0" d="M-221,441.1C-221.1,441.1-221.1,441.1-221,441.1L-221,441.1z"/>
		<path class="st0" d="M-230.6,440.9L-230.6,440.9L-230.6,440.9z"/>
		<path class="st0" d="M-231.3,441.6L-231.3,441.6L-231.3,441.6z"/>
		<path class="st0" d="M-232.8,444.5L-232.8,444.5L-232.8,444.5z"/>
		<path class="st0" d="M-226.1,441.6L-226.1,441.6L-226.1,441.6z"/>
		<path class="st0" d="M-225.9,441.2L-225.9,441.2L-225.9,441.2z"/>
		<path class="st0" d="M-225.3,440.3L-225.3,440.3L-225.3,440.3z"/>
		<path class="st0" d="M-237.4,442.7L-237.4,442.7L-237.4,442.7z"/>
		<path class="st0" d="M-220.6,434.1L-220.6,434.1L-220.6,434.1z"/>
		<path class="st0" d="M-219.9,435.2L-219.9,435.2L-219.9,435.2z"/>
		<path class="st0" d="M-220.5,434.1L-220.5,434.1L-220.5,434.1z"/>
		<path class="st0" d="M-225.3,438.3L-225.3,438.3L-225.3,438.3z"/>
		<path class="st0" d="M-224.1,428.6L-224.1,428.6L-224.1,428.6z"/>
		<path class="st0" d="M-227.9,439.7L-227.9,439.7L-227.9,439.7z"/>
		<path class="st0" d="M-225.5,438.6L-225.5,438.6L-225.5,438.6z"/>
		<path class="st0" d="M-223.9,428.4C-223.9,428.4-224,428.4-223.9,428.4L-223.9,428.4z"/>
		<path class="st0" d="M-223.9,428.3L-223.9,428.3L-223.9,428.3z"/>
		<path class="st0" d="M-223.8,428L-223.8,428L-223.8,428z"/>
		<path class="st0" d="M-216.6,432.7L-216.6,432.7L-216.6,432.7z"/>
		<path class="st0" d="M-216.6,440.8C-216.6,440.8-216.6,440.7-216.6,440.8L-216.6,440.8z"/>
		<path class="st0" d="M-215.9,438.7L-215.9,438.7L-215.9,438.7z"/>
		<path class="st0" d="M-217.6,442.6L-217.6,442.6L-217.6,442.6z"/>
		<path class="st0" d="M-217.1,433L-217.1,433L-217.1,433z"/>
		<path class="st0" d="M-212.4,437.1c-0.3,0.1-1.1,0.4-1.4,0.8c-0.1,0.1-0.3,0.3-0.4,0.2c-0.1-0.1,0-0.9,0-1c0-0.3,0-0.8,0.1-1.1
			c0.1-0.3,0.1-0.2,0.3-0.4c0.1-0.2-0.1-0.4-0.1-0.5c-0.1-0.5,0-1.3,0.1-2c0.1-0.5-0.1-0.8-0.2-1.2c-0.1-0.1-0.3-0.3-0.4-0.2
			c-0.2,0-0.3,0.5-0.4,0.7c0,0.4-0.2,0.2-0.4,0.2c-0.3,0-0.7,0.1-1,0.2c-0.2,0.1-0.9,0.5-1,0.8c-0.1,0.1-0.2,0.3-0.3,0.4l-0.1,0.2
			c-0.5,0.4-0.5,1.3-1,1.7c-0.5,0.9-1.1,2.4-0.5,3.4l0,0c0.2,0.3,0.4,0.8,0.8,1c0.2,0.1,0.4,0.2,0.7,0.3c0.2,0,1,0,1.1-0.4l0.1-0.1
			c0.1-0.2,0.1-0.5,0.3-0.8c0.1-0.2,0.4-0.7,0.7-0.8c0.1,0.2,0,1-0.1,1.2c-0.1,0.1-0.2,0.2-0.3,0.3c0,0.1-0.2,0.2-0.3,0.3
			c-0.1,0.2-0.3,0.4-0.4,0.7c-0.1,0.1-0.1,0.2-0.2,0.3c-0.1,0.1-0.1,0.2-0.2,0.3c-0.4,0.7-0.5,1.5-0.8,2.3c-0.2,0.5-0.3,1.1-0.2,1.7
			c0.1,0.2,0.1,0.3,0.2,0.5c0.1,0.1,0.4,0.3,0.4,0.4h-0.1c0,0.1,0.1,0,0.2,0.1c0,0,0,0.2,0.1,0.2s0.3-0.1,0.4-0.1
			c0.4,0.1,0,0,0.2,0.2c0.1,0.2,0.4,0,0.7,0s0.3,0.2,0.5,0.2c0.3-0.1,0.4-0.5,0.7-0.8c0.1-0.1,0.2-0.1,0.2-0.2
			c0.1-0.1,0.1-0.3,0.1-0.4c0.1-0.4,0.2-0.8,0.3-1.2c0.1-0.5,0.1-1.1,0-1.7c0-0.8,0.1-1.4,0-2.2c0-0.3-0.1-0.7-0.1-0.9
			c0-0.1-0.1-0.7,0-0.7c0.1-0.2,0.1-0.3,0.3-0.4c0.1-0.1,0.2-0.2,0.3-0.3c0.1-0.1,0.2-0.2,0.3-0.2
			C-213,437.9-212.3,437.5-212.4,437.1C-212.2,437.2-212.4,437-212.4,437.1C-212.4,437.1-212.3,437.1-212.4,437.1z M-215.5,441.7
			c-0.3,0.9-0.2,2-0.4,2.8c-0.1,0.4,0,1-0.5,1c-0.4,0-0.7-0.1-0.9-0.4c-0.2-0.8,0.2-1.8,0.5-2.5c0.1-0.4,0.2-0.7,0.5-1
			c0.3-0.3,0.5-0.7,0.8-1C-215.4,440.9-215.4,441.4-215.5,441.7C-215.6,442.1-215.4,441.4-215.5,441.7z M-215.4,433.8
			c-0.1,0.5-0.2,1-0.2,1.5c-0.1,0.4-0.2,0.8-0.5,1.1c-0.5,0.9-1,1.7-1.7,2.5c-0.2-0.5-0.4-0.9-0.3-1.4c0.1-0.7,0.4-1.3,0.7-1.8
			c0.4-1.1,1-2.1,2.2-2.4C-215.3,433.4-215.3,433.7-215.4,433.8C-215.5,434.4-215.3,433.7-215.4,433.8z M-212.7,437.4L-212.7,437.4
			L-212.7,437.4z"/>
		<path class="st0" d="M-213.5,438.2L-213.5,438.2L-213.5,438.2z"/>
		<path class="st0" d="M-214.1,431.9L-214.1,431.9L-214.1,431.9z"/>
		<path class="st0" d="M-214.5,431.6L-214.5,431.6L-214.5,431.6z"/>
		<path class="st0" d="M-214,438.6L-214,438.6L-214,438.6z"/>
		<path class="st0" d="M-214.8,431.7L-214.8,431.7L-214.8,431.7z"/>
		<path class="st0" d="M-214.9,431.9L-214.9,431.9L-214.9,431.9z"/>
		<path class="st0" d="M-217.6,433.7L-217.6,433.7L-217.6,433.7z"/>
		<path class="st0" d="M-212.8,437.7L-212.8,437.7L-212.8,437.7z"/>
		<path class="st0" d="M-212.4,437.4L-212.4,437.4L-212.4,437.4z"/>
		<path class="st0" d="M-218,446.1L-218,446.1L-218,446.1z"/>
		<path class="st0" d="M-217.1,440.5L-217.1,440.5L-217.1,440.5z"/>
		<path class="st0" d="M-218.4,440.4L-218.4,440.4L-218.4,440.4z"/>
		<path class="st0" d="M-218.7,440.1C-218.7,440-218.7,440-218.7,440.1C-218.7,440.1-218.7,440-218.7,440.1z"/>
		<path class="st0" d="M-218,434.3C-218,434.3-218,434.2-218,434.3L-218,434.3z"/>
		<path class="st0" d="M-218.7,440.1L-218.7,440.1L-218.7,440.1z"/>
		<path class="st0" d="M-217,440.4L-217,440.4L-217,440.4z"/>
		<path class="st0" d="M-213.8,435.4L-213.8,435.4L-213.8,435.4z"/>
		<path class="st0" d="M-216.7,440.2L-216.7,440.2L-216.7,440.2z"/>
		<path class="st0" d="M-216.8,440.3L-216.8,440.3L-216.8,440.3z"/>
		<path class="st0" d="M-235.5,389.7L-235.5,389.7L-235.5,389.7z"/>
		<path class="st0" d="M-243,394C-243,393.9-243,393.9-243,394L-243,394z"/>
		<path class="st0" d="M-243.4,394.2L-243.4,394.2L-243.4,394.2z"/>
		<path class="st0" d="M-237.3,390L-237.3,390L-237.3,390z"/>
		<path class="st0" d="M-247.3,397.7C-247.3,397.7-247.3,397.8-247.3,397.7L-247.3,397.7z"/>
		<path class="st0" d="M-234.9,388.2C-234.9,388.2-234.9,388.1-234.9,388.2L-234.9,388.2z"/>
		<path class="st0" d="M-198.3,390.9L-198.3,390.9L-198.3,390.9z"/>
		<path class="st0" d="M-199.9,389.9L-199.9,389.9L-199.9,389.9z"/>
		<path class="st0" d="M-233.9,413.3C-233.8,413.3-233.9,413.3-233.9,413.3L-233.9,413.3z"/>
		<path class="st0" d="M-235.9,413c-0.1,0.2-0.1,0.2,0,0.4c0,0.1,0.1,0.3,0.2,0.4c0.2,0.2,0.3,0.2,0.7,0.3c0.1,0,0.3,0.1,0.4,0.1
			c0.3,0,0.3,0,0.5-0.1c0.2-0.2,0-0.8,0.3-1c0.1,0,0.2-0.1,0.2-0.2c0,0-0.1-0.3-0.2-0.4c-0.2-0.2-0.4-0.2-0.7-0.2
			C-234.8,412.6-235.6,412.6-235.9,413C-235.9,412.9-235.9,412.9-235.9,413L-235.9,413z"/>
		<path class="st0" d="M-235.6,413.9L-235.6,413.9L-235.6,413.9z"/>
		<path class="st0" d="M-196.3,393.2C-196.2,393.2-196.2,393.2-196.3,393.2L-196.3,393.2z"/>
		<path class="st0" d="M-195,393.7L-195,393.7L-195,393.7z"/>
		<path class="st0" d="M-194.8,394.3L-194.8,394.3L-194.8,394.3z"/>
		<path class="st0" d="M-193.9,395.1C-193.9,395.1-193.9,395-193.9,395.1L-193.9,395.1z"/>
		<path class="st0" d="M-194.9,393.8L-194.9,393.8L-194.9,393.8z"/>
		<path class="st0" d="M-248.5,398.9L-248.5,398.9L-248.5,398.9z"/>
		<path class="st0" d="M-240.2,392.1L-240.2,392.1L-240.2,392.1z"/>
		<path class="st0" d="M-240.6,392.2c-0.2,0.1-0.2,0.4,0.1,0.2c0.1-0.1,0.3-0.2,0.4-0.2c0.1-0.1,0.7-0.7,0.7-0.7
			c-0.2,0-0.2,0.1-0.4,0.2C-240.1,391.7-240.5,392.1-240.6,392.2z"/>
		<path class="st0" d="M-240.5,392.5L-240.5,392.5L-240.5,392.5z"/>
		<path class="st0" d="M-193.1,394.5C-193.1,394.5-193.1,394.6-193.1,394.5L-193.1,394.5z"/>
		<path class="st0" d="M-193.4,394.6L-193.4,394.6L-193.4,394.6z"/>
		<path class="st0" d="M-207.4,461.9C-207.4,461.9-207.5,461.8-207.4,461.9L-207.4,461.9z"/>
		<path class="st0" d="M-182.7,409.4L-182.7,409.4L-182.7,409.4z"/>
		<path class="st0" d="M-182.7,409.4c0.1,0.1,0.1,0.5,0.3,0.7c0.2-0.1,0-0.4-0.1-0.5c0-0.1-0.1-0.3-0.1-0.3
			C-182.7,409.2-182.8,409.3-182.7,409.4C-182.7,409.4-182.8,409.3-182.7,409.4z"/>
		<path class="st0" d="M-185.1,404.7c-0.1-0.2-0.4-0.4-0.3,0C-185.3,405.1-184.9,405-185.1,404.7z"/>
		<path class="st0" d="M-185.3,404.4C-185.3,404.4-185.3,404.5-185.3,404.4L-185.3,404.4z"/>
		<path class="st0" d="M-183.3,407.7c0.1,0.1,0.3,0.9,0.4,0.9c0.1,0-0.1-0.7-0.2-0.8c0-0.1-0.1-0.2-0.2-0.3
			C-183.4,407.5-183.3,407.8-183.3,407.7C-183.1,407.8-183.3,407.7-183.3,407.7z"/>
		<path class="st0" d="M-188.8,399L-188.8,399L-188.8,399z"/>
		<path class="st0" d="M-189.3,398.7C-189.3,398.7-189.5,398.7-189.3,398.7L-189.3,398.7z"/>
		<path class="st0" d="M-179.6,425.4c0.1-0.1,0-0.8-0.2-0.2C-179.8,425.4-179.8,425.6-179.6,425.4z"/>
		<path class="st0" d="M-197.1,391.6L-197.1,391.6L-197.1,391.6z"/>
		<path class="st0" d="M-187.1,401.6c0,0.1,0.1,0.3,0.2,0.3l0,0c0.1,0-0.1-0.5-0.2-0.5C-187.1,401.4-187,401.5-187.1,401.6z"/>
		<path class="st0" d="M-248,450.7c0.1,0,0-0.3-0.3-0.3c-0.1-0.1-0.2-0.1-0.2-0.2c-0.1,0.1-0.1-0.2-0.2-0.1c0,0,0,0,0,0.1
			c0.2,0,0.3,0.5,0.7,0.7C-248.3,450.6-248.3,450.6-248,450.7C-248.1,450.7-248.1,450.7-248,450.7L-248,450.7z M-248.7,450.1
			L-248.7,450.1L-248.7,450.1z"/>
		<path class="st0" d="M-248.3,450.9L-248.3,450.9L-248.3,450.9z"/>
		<path class="st0" d="M-249.6,449L-249.6,449L-249.6,449z"/>
		<path class="st0" d="M-252.6,445.4L-252.6,445.4L-252.6,445.4z"/>
		<path class="st0" d="M-244.8,454.1C-244.8,454.1-244.8,454.2-244.8,454.1L-244.8,454.1z"/>
		<path class="st0" d="M-181.4,436.3L-181.4,436.3L-181.4,436.3z"/>
		<path class="st0" d="M-194,455.5L-194,455.5L-194,455.5z"/>
		<path class="st0" d="M-251.4,402.5L-251.4,402.5L-251.4,402.5z"/>
		<path class="st0" d="M-251,401.9L-251,401.9L-251,401.9z"/>
		<path class="st0" d="M-200.8,459L-200.8,459L-200.8,459z"/>
		<path class="st0" d="M-197,456.5L-197,456.5L-197,456.5z"/>
		<path class="st0" d="M-253.5,443.8L-253.5,443.8L-253.5,443.8z"/>
		<path class="st0" d="M-253.5,443.8L-253.5,443.8L-253.5,443.8z"/>
		<path class="st0" d="M-186,444.4L-186,444.4L-186,444.4z"/>
		<path class="st0" d="M-179.8,426.1c0,0-0.1,0.3-0.1,0.4l-0.1,0.1c-0.2,0.2-0.2,0.7-0.3,0.9c0,0.1-0.2,0.2-0.2,0.3
			c-0.1,0.2,0,0.7-0.1,1c-0.1,0.5-0.2,1-0.3,1.5c-0.1,0.7-0.1,1.2-0.2,1.8c-0.3,1.7-0.8,3.4-1.4,5c-0.1,0.3-0.2,0.7-0.3,1
			c-0.1,0.3-0.2,0.8-0.4,1c-0.1,0.3-0.2,0.5-0.3,0.9c-0.1,0.2-0.4,0.7-0.2,0.8c-0.1,0.2-0.2,0.4-0.3,0.5c-0.2,0.1-0.2,0.5-0.3,0.8
			l-0.1,0.1c-0.2,0.2-0.4,0.8-0.5,1.1c-0.1,0.3-0.3,0.7-0.5,0.9c-0.1,0.1-0.2,0.3-0.2,0.4c-0.1,0.2-0.4,0.4-0.5,0.7
			c-0.1,0.1-0.1,0.3-0.2,0.5c0,0.1-0.1,0.1-0.1,0.1c-0.1,0.1-0.1,0.2-0.1,0.3c-0.1,0.2-0.7,0.8-0.7,0.7c0.1,0,0.2-0.2,0.2-0.2
			c-0.1,0-0.2,0.1-0.2,0.1h0.1c-0.2,0-0.4,0.5-0.7,0.8l-0.1,0.2c-0.1,0-0.3,0.4-0.3,0.4c-0.2,0.4-0.5,0.9-0.9,1.2
			c-0.1,0.2-0.8,0.7-0.8,0.9c-0.1,0.1-0.3,0.3-0.4,0.4c-0.2,0.1-0.8,0.9-1,1c-0.2,0.2-0.9,0.7-0.9,0.9c-0.1,0.1-0.7,0.4-0.7,0.7
			c-0.7,0.7-1.4,1.5-2.3,2.1c-0.3,0.1-0.7,0.4-1,0.7c-0.3,0.2-0.7,0.4-1,0.7l-0.1,0.1c-0.5,0.5-1.1,0.8-1.7,1
			c-0.2,0-0.8,0.4-0.9,0.7c-0.1,0-0.1,0.1-0.2,0.1c-0.1,0-0.2,0.2-0.3,0.2l0,0c-0.3,0.3-0.5,0.3-1,0.5c-0.2,0.1-0.8,0.4-0.9,0.7
			c0,0-0.5,0.2-0.5,0.1c0,0,0.1-0.1,0-0.1c-0.3-0.1-1.1,0.4-1.4,0.5c-0.4,0.2-0.9,0.4-1.3,0.7c-0.2,0.1-0.4,0.2-0.7,0.3
			c-0.2,0-0.9,0-1,0.2c-0.1,0.2,0.4,0,0.5,0c0.2-0.1,0.7-0.2,0.9-0.3c-0.1,0.3-0.9,0.5-1.2,0.7c-0.7,0.2-1.3,0.2-2,0.3
			c-0.7,0.1-1.4,0.2-2.1,0.4c-0.3,0.1-0.7,0.2-1,0.2c-0.2,0-0.7,0.2-0.9,0.2c0.2-0.2-0.2-0.1-0.4-0.1c-0.1,0-0.2,0.1-0.3,0.1
			c-0.2,0-1.1,0-1.2,0.2l1-0.1c0,0.1,0.4-0.1,0.5-0.1c0,0-0.2,0.1-0.2,0.2c0.2,0.1,0.5-0.2,0.8,0c-0.2,0-2.3,0.5-2.4,0.3l0.4-0.1
			c0,0.1-1,0.1-1.2,0.1c0.1-0.1,0.5-0.1,0.5-0.2c-0.7,0-1.4,0.1-2,0.1c-0.2,0-0.5,0-0.8,0c-0.3,0-0.9-0.2-1.3-0.1
			c-0.3,0,0,0-0.2,0.1c-0.1,0.1-0.2,0.1-0.4,0.1c-0.4,0-0.8,0-1.2-0.1c-0.3-0.1-0.7-0.2-1-0.2c-0.1,0-0.9-0.2-0.9-0.1s0.2,0,0.2,0.1
			c0,0-1.2-0.1-1.3-0.2c-0.2,0-1-0.2-1.1-0.1l0.3,0.1c0,0-1-0.1-1.1-0.1c-0.2,0-0.5,0-0.8-0.1c-0.1,0-0.1-0.1-0.1-0.1
			c-0.3-0.1-0.8-0.2-1.2-0.2c-0.2,0-0.3,0.1-0.7,0c-0.2,0-0.3-0.1-0.5-0.1c0.1,0,0.3,0.1,0.4-0.1c0,0-0.2-0.1-0.3-0.1
			c-0.1,0-0.2,0-0.2-0.1c0,0,0,0,0-0.1c-0.2-0.1-0.4-0.1-0.5-0.1c-0.4-0.1-0.9-0.2-1.2-0.3c-0.1-0.1-0.3-0.2-0.5-0.2s-0.4,0.1-0.8,0
			c-0.2-0.1-0.9-0.5-1.1-0.5l0,0c0.2,0,1,0.7,1.2,0.3c-0.2-0.2-0.7-0.3-0.9-0.3c-0.4-0.2-0.9-0.2-1.3-0.4c-0.3-0.1-0.7-0.2-0.9-0.3
			s-0.4-0.2-0.7-0.3s-0.4-0.1-0.5-0.2c-0.1-0.1,0.4,0,0.2-0.1c0-0.1-1.1-0.5-1.3-0.7c-0.3-0.2-0.5-0.4-1-0.7c-0.2-0.2-0.8-0.2-1-0.4
			c-0.3-0.1-0.7-0.3-0.9-0.4c-0.2-0.2-0.5-0.3-0.8-0.5c0.1,0,0.1,0,0.1-0.1c-0.1,0-0.1-0.1-0.2-0.1c-0.1,0-0.2,0-0.3-0.1
			c-0.1-0.1-0.3-0.2-0.4-0.2c-0.2-0.1-0.4-0.3-0.7-0.4c-0.1-0.2-0.7-0.5-0.8-0.7c-0.2-0.3-0.9-0.4-1-0.8c-0.2-0.1-0.3-0.3-0.5-0.4
			l0,0c-0.1-0.1-0.1-0.1-0.1-0.1c-0.1-0.1-0.4-0.4-0.4-0.7c-0.1-0.1-0.2-0.1-0.2-0.2c-0.2,0,0,0.2,0,0.3c0-0.1-0.7-0.5-0.8-0.7
			c-0.1-0.1-0.2-0.2-0.3-0.2c-0.1-0.2,0-0.3-0.1-0.4c-0.3-0.3-1.1-0.7-1.3-1.1c-0.2-0.3-0.3-0.7-0.7-0.9c0,0,0-0.2-0.1-0.2
			c0.1,0,0.1,0,0.1,0.1c0,0,0,0,0.1,0c0-0.1-0.2-0.2-0.2-0.2c0-0.2-0.7-0.9-0.9-1.1c0-0.1-0.2-0.3-0.3-0.4c-0.1-0.1-0.2-0.3-0.3-0.4
			c0,0-0.2-0.2-0.3-0.3c-0.2-0.1-0.3-0.3-0.4-0.7c-0.2-0.3-0.5-0.5-0.8-0.8c-0.1-0.2-0.4-0.5-0.7-0.8c0.1,0,0-0.3-0.1-0.7l-0.1-0.2
			l-0.1-0.2c-0.2-0.3-0.3-0.7-0.5-1l0,0c-0.2-0.3-0.4-0.8-0.5-1.1c-0.2-0.3-0.4-0.7-0.7-1c0,0.2-0.2-0.4-0.3-0.5
			c0-0.1-0.3-0.4-0.2-0.5c0.1-0.1,0.5,1,0.7,1.1c0-0.7-0.5-1.4-0.8-2.1c0.2,0.1-0.1-0.9-0.1-1c-0.1-0.3-0.2-0.7-0.3-1
			c-0.2,0.2,0.2,0.9,0,1.1c-0.1-0.2-0.2-0.7-0.3-0.9c-0.1-0.2-0.2-0.4-0.2-0.7c-0.1-0.2-0.1-0.5-0.1-0.9c0-0.1-0.1-0.3-0.1-0.4
			c0-0.1,0.1-0.2,0.1-0.3c0-0.3-0.3-0.5-0.4-0.9c-0.1-0.3-0.2-0.8-0.2-1.1c0-0.2,0.2-0.9-0.1-0.9c0,0.1-0.1,0.2,0,0.3
			c0,0,0-0.1-0.1,0c0,0-0.1-0.7-0.1-0.8c0-0.3-0.1-0.7-0.1-1.1c-0.1-0.5-0.2-1.1-0.3-1.7c0-0.1-0.1-0.3-0.1-0.5
			c0-0.1,0.1-0.3,0.1-0.4c0-0.2-0.1-0.4-0.2-0.7c0-0.4-0.2-0.9-0.2-1.3c-0.1-0.8,0.1-1.6,0.2-2.4c0-0.1-0.1-0.5,0-0.7
			c-0.1-0.1,0.1-0.1,0.1-0.1c0.1-0.4,0-1,0-1.4c0-0.8,0-1.4,0.1-2.2c0.1-0.4,0-0.8,0-1.2c0-0.2,0-0.8-0.2-0.3c-0.2-0.3,0-1,0.1-1.3
			c0.1,0.2,0,0.1,0.1,0.1c0-0.1,0.1-0.3,0.2-0.4c0.1,0.3,0,0.5-0.1,0.8c0,0.1-0.1,0-0.1,0.1s0,0.2,0,0.3s0,0.8,0.2,0.5
			c0,0,0,0,0,0.1c0.1-0.1,0.1-0.4,0.1-0.7c0-0.1,0.3-0.5,0.2-0.7c0,0,0.3-1.3,0.4-1.4c0.2-0.7,0.3-1.4,0.4-2.2
			c0.1-0.7,0.2-1.3,0.4-1.8c0.1-0.3,0.3-1.5,0.4-1.5c0,0.2,0-0.1,0-0.1l0.1,0.2c0.1,0.1,0.1,0,0,0.2c0,0.2-0.1,0.3-0.2,0.5
			c0,0.3-0.1,0.5-0.2,0.9c-0.1,0.2-0.3,0.7-0.2,0.9c0.2,0,0.3-0.4,0.3-0.7c0.1-0.3,0.2-0.8,0.3-1.2c0.1-0.3,0.4-0.8,0.5-1
			c0,0,0.1-0.7,0.1-0.8c0.1-0.1,0.3-0.7,0.3-0.7s0,0-0.1,0c0.1-0.3,0.3-0.7,0.4-1c0.1,0.1,0,0.2,0.1,0.3c0,0-0.2,0.3-0.2,0.4
			c0,0,0,0,0.1,0c0.1-0.3,0.2-0.8,0.4-1.2c0.1-0.1,0.2-0.5,0.3-0.7c0,0,0.2-0.3,0.2-0.4l0,0c0.2-0.3,0.4-0.7,0.7-1
			c0.3-0.2,0.5-0.9,0.8-1.2c0.2-0.3,0.5-0.7,0.8-1.1c0.1-0.1,0.1-0.2,0.2-0.3c0,0,0.2-0.3,0.3-0.4c0.1-0.2,0.4-0.4,0.4-0.7
			c0,0,0.1-0.1,0.1-0.2c0.1-0.2,0.2-0.4,0.3-0.5c0,0.1,0.1,0.2,0.1,0.2s0.1-0.2,0.1-0.3c0.1,0,0.3-0.5,0.3-0.7c0,0,0.1-0.2,0.1-0.1
			c0.2-0.3,0.3-0.7,0.5-1c0.1-0.2,0.3-0.7,0.7-0.4c0.3,0.2,0,0.4,0,0.7c0.1,0,0.3-0.2,0.4-0.3l0.1-0.1c0.1-0.1,0.1-0.2,0.2-0.2
			c0,0,0.3-0.3,0.3-0.4c-0.1,0-0.4,0.1-0.3-0.1c0.1-0.1,0.3-0.2,0.4-0.3c0.1,0,0.1-0.1,0.2-0.1c0.1,0,0.2-0.1,0.2-0.2
			c0.1-0.1,0.4-0.2,0.5-0.3c0.1-0.1,0-0.3,0.2-0.4l0,0c0-0.1,0.1-0.1,0.1-0.2c0.2-0.1,0.2-0.2,0.2-0.1c0-0.1,0.1-0.1,0.1-0.1l0,0
			c0.1,0,0.1,0,0.1,0c0.2,0.1,0.1,0.1,0.2,0c0.1,0,0.1-0.1,0.1-0.2c0.1-0.2,0.3-0.4,0.4-0.5c0.3-0.1,0.7-0.1,1-0.3
			c0.1-0.1,0.3-0.2,0.4-0.3c0.1,0,0.4-0.2,0.4-0.3c0.2-0.2,0.4-0.3,0.7-0.5c0.1-0.1,0.3-0.3,0.4-0.4l0.1-0.1
			c0.1-0.1,0.1-0.1,0.1-0.1c0.2-0.1,0.8-0.7,0.9-0.9c0.1,0,0.2-0.1,0.3-0.2l0.2-0.1c0.2,0.2,0,0.3,0.4,0.2c0.1,0,0.2-0.1,0.3-0.1
			c0.2-0.2,0.4-0.4,0.7-0.7c0.2-0.2,0.8-0.5,1-0.9c0.2-0.1,0.5-0.3,0.7-0.5c0.1-0.1,0.3-0.2,0.4-0.3c0.2-0.1,0.4-0.1,0.7-0.2
			c0.3-0.1,0.5-0.4,0.9-0.4c0,0.1-0.2,0.2-0.2,0.2c0,0.1-0.7,0.5-0.8,0.7c-0.2,0.1-0.7,0.3-0.8,0.5c-0.3,0.3-0.8,0.7-1.1,0.9
			c-0.1,0.1-0.5,0.3-0.2,0.3c0.3,0.1,0.5-0.4,1-0.4c0,0.1-0.3,0.2-0.2,0.3l0.3-0.1c0,0.1,0.3-0.1,0.4-0.1l0,0
			c0.2-0.1,1.2-0.3,1.2-0.7l0.1-0.1l0,0c0.2-0.2,0.7-0.3,0.8-0.4c0.2-0.1,0.4-0.2,0.7-0.4c-0.9,0.1-1.5,1-2.4,1.1
			c0.1-0.2,0.4-0.3,0.5-0.4c0.1-0.1,0.7-0.3,0.8-0.4c0.2-0.1,0.4-0.2,0.7-0.3c0.1-0.1,0.3-0.2,0.4-0.2c0.1,0,0.3-0.1,0.3-0.1
			c0.3,0,0.1,0,0,0.2c-0.2,0.2,0.1,0.2,0.2,0c0.7-0.2,1.1-0.3,1.7-0.5c0.7-0.3,1.3-0.4,2-0.5c0.1,0,0.9,0,0.9-0.2
			c0.1-0.2-0.2-0.2-0.3-0.3c-0.8-0.7,0.8-0.8,1.1-0.8c0,0.1-0.1,0.2,0,0.2c0.2,0,0.2-0.1,0.2-0.3c0.4,0,0.8-0.1,1.2,0
			c0,0.1-0.7,0.4-0.3,0.5c-0.1-0.1,0.2-0.1,0.2-0.1c0.2,0,0.3,0,0.5,0c0.5,0,1-0.2,1.5-0.3c0.4-0.1,0.9,0,1.3-0.1
			c0.4-0.1,0.9-0.4,1.4-0.5c0.5-0.1,0.9,0,1.3,0c0.5,0,1.1,0,1.7,0c0.9,0,1.7,0.1,2.6,0.2c0.4,0,0.7,0.2,1,0.1
			c0.4-0.2,1.2-0.2,1.8-0.2c0.5,0,1.2,0,1.7,0.2c0.4,0.2,0.8,0.3,1.2,0.4c1,0.2,2.1,0.2,2.9,0.5l0.3,0.1c0,0.1,0.3,0.1,0.4,0.2
			c0.3,0.1,0,0.2-0.1,0.2c-0.2,0-0.8-0.2-0.9-0.2c-0.3-0.1-0.5-0.2-1-0.3c0.1-0.2-0.1,0-0.3,0c0,0-0.4-0.2-0.4-0.1s0.5,0.2,0.8,0.3
			c0.2,0,0.4,0.1,0.5,0.1c0.3,0.1,1,0.3,1.4,0.5c0.1,0.2,1,0.3,1.3,0.4c0.4,0.1,0.9,0.3,1.2,0.5l0.2,0.1c0,0.1,0.2,0.1,0.2,0.1
			c0.1,0.1,0.7,0.3,0.8,0.3c0.7-0.1-0.5-0.2-0.4-0.4c0.1-0.1,0.5,0.1,0.5,0.2c0.2,0,0.3,0,0.4,0.1c0.1,0.2,1,0.4,1.2,0.4
			c0.2,0.1,0.3,0.2,0.5,0.3c0.1,0.1,0.4,0.2,0.5,0.2c0.1,0,0.3,0.3,0.2,0.3c0.2,0.2,0.7,0.4,0.9,0.5l0.2,0.1c0.2,0-0.3-0.3-0.3-0.4
			c0.3,0.1,0.5,0.3,0.9,0.4c0.2,0.1,0.4,0.2,0.5,0.3c0.2,0.1,0.4,0.4,0.8,0.4c0.1-0.2-0.8-0.7-1-0.8c-0.1-0.1-0.8-0.3-0.8-0.7h-0.1
			c-0.1,0,0.1-0.1-0.1-0.1c0,0,0,0,0,0.1c0,0,0.1,0,0.1,0.1c-0.1,0-0.8-0.4-0.9-0.4c-0.1-0.2-0.4-0.3-0.7-0.4c0,0-0.1-0.1-0.2-0.1
			c-0.1-0.1-0.3-0.3-0.4-0.3c-0.1-0.1-0.5-0.3-0.8-0.3c0,0.1,0.3,0.2,0.2,0.3c-0.1,0.1-2.1-0.8-2.3-0.9c-0.1-0.1,0-0.1-0.1-0.2
			c-0.1,0-0.3,0-0.3-0.1c-0.1,0-1-0.4-0.8-0.5c-0.9-0.2-1.6-0.8-2.5-1c-0.9-0.2-1.8-0.4-2.7-0.7c-1.6-0.3-3.3-0.7-4.9-0.9
			c0.1,0.1,0.2,0,0.2,0.1c-0.1-0.1-1.2-0.2-1.2-0.2s0.4,0,0.4-0.1c-0.9-0.1-1.6,0-2.5,0c-0.3,0-0.7,0-1.1-0.1c-0.1,0-0.5-0.1-0.7,0
			c-0.1-0.1,0.1,0.2,0-0.1c-0.2,0-0.5,0-0.7,0.1c-0.1,0,0.1,0.2,0-0.1c-0.3,0-0.9,0.1-1.1,0.1c0,0-1.1,0-1.4,0
			c-0.9,0-1.8,0.1-2.7,0.3c-0.4,0.1-1.2,0.1-1.6,0.3c-0.3,0.1-0.5,0.2-0.9,0.3c-0.5,0.1-1.1,0.2-1.6,0.4c-0.4,0.1-0.7,0.2-1,0.4
			c-0.4,0.2-1.1,0.3-1.6,0.4c-0.5,0.1-1.1,0.3-1.6,0.4c-1,0.3-2,0.7-2.9,1.2c-0.9,0.5-1.8,0.9-2.7,1.4c-0.4,0.2-0.8,0.4-1.2,0.7
			c-0.3,0.2-0.5,0.5-0.9,0.7c0-0.2,0.4-0.3,0.5-0.4c-0.2,0-0.8,0.3-0.9,0.4c0.1-0.1-0.1,0.3-0.1,0.3c0,0.1,0.1,0,0,0.2
			c-0.2,0.3-0.9,0.7-1.2,0.9c-0.4,0.3-1,0.7-1.3,1c-0.9,0.8-1.5,1.7-2.4,2.4c-0.1,0.1-0.3,0.1-0.5,0.3c-0.2,0.1-0.3,0.4-0.4,0.7
			c-0.1,0.1-0.7,0.8-0.8,0.7v-0.1c-0.8,0.9-1.5,1.8-2.2,2.8c-0.5,0.9-1.3,1.5-1.8,2.4c-0.7,1-1.3,2-1.8,3c-0.2,0.4-0.5,1-0.8,1.4
			c-0.2,0.4-0.7,1-0.8,1.5c-0.1,0.3-0.1,0.5-0.3,0.9c-0.2,0.3-0.2,0.7-0.4,1c0,0.1-0.1,0.1-0.2,0.1c0,0.1-0.1,0.2-0.1,0.4
			c-0.1,0.2-0.2,0.4-0.2,0.7c-0.2,0.5-0.2,1.1-0.4,1.5c-0.1,0.1-0.1,0.2-0.2,0.4c0,0.1,0,0.3-0.1,0.4h-0.1c0,0.1,0,0.1,0,0.2
			c-0.1,0.2-0.1,0.7-0.1,0.9c0,0.2,0.2,0.4,0.2,0.7c0,0.2-0.1,0.3-0.2,0.5c-0.1,0.4,0,1-0.2,1.4c0,0,0-0.1-0.1-0.1
			c-0.1,0.1-0.2,0.9-0.2,1.1c-0.1,0.4-0.1,0.9-0.1,1.3c0,0.9-0.1,1.7-0.1,2.6c-0.1,0.3-0.2,0.4-0.2,0.9c0,0.2,0,0.4,0,0.5
			c0,0.1,0.1,0.1,0.1,0.3c0.2,0.8,0,1.7,0,2.5c0,0.4,0.1,0.9,0.1,1.3c0,0.3-0.1,0.9,0.1,1.2c0,0.1,0.1,0,0.2,0
			c0.1,0.1,0.1,0.2,0.1,0.3c0.1,0.4,0,1,0.1,1.4c0,0.4,0.1,0.9,0.2,1.2c0,0.1,0.1,0.2,0.1,0.3c0,0.2,0,2,0,2.1c0,0.2,0,0.5,0.1,0.8
			c0.1,0.1,0.2,0.1,0.3,0.3c0,0.1,0.1,0.2,0,0.3c-0.1,0-0.1,0.1-0.1,0.2s0,0.1,0,0.2c0,0.2,0.1,0.5,0.2,0.8c0.2,0.5,0.4,1,0.7,1.4
			c0.2,0.4,0.3,1.1,0.7,1.5c0,0.1,0.2,0.1,0.2,0.2c0.1,0.1,0.2,0.4,0.3,0.7c0.4,1,0.8,2,1.3,2.8c0.1,0,0.1,0.2,0.2,0.3
			c0.3,0.4,0.5,1,0.9,1.4c0.3,0.4,0.7,0.8,0.9,1.2s0.4,0.8,0.7,1.2c0.7,0.9,1.5,1.6,2.1,2.6c0.2,0.4,0.7,0.8,1,1.1
			c0.4,0.4,0.8,0.9,1.2,1.3c0.3,0.3,0.8,0.7,1.1,0.9c0.4,0.3,0.7,0.7,1,1c0.4,0.3,0.9,0.7,1.3,1c0.4,0.3,1,0.5,1.3,0.9
			c0.3,0.2,0.5,0.5,0.9,0.8c0.4,0.3,0.9,0.7,1.4,1c1,0.7,2.1,1.2,3.2,1.7c1.1,0.5,2.3,1.2,3.5,1.6c0.5,0.2,1.2,0.4,1.8,0.5
			c0.5,0.1,1.2,0.3,1.7,0.3c0,0-0.4-0.2-0.5-0.2c0.4-0.1,0.7-0.1,1.1,0.1c0.1,0.1,0.5,0.1,0.5,0.2c-0.1,0.1-0.3-0.2-0.4-0.1
			c-0.1,0.1,1.5,0.5,1.6,0.5c0.8,0.2,1.4,0.4,2.2,0.5c1.6,0.3,3.3,0.4,4.9,0.5c1.1,0.1,2.1,0.1,3.2,0.1c0.4,0,0.8,0,1.1,0
			c0.4,0,0.9,0,1.2,0c0,0,0.5-0.1,0.2-0.2c0.2,0.1,1,0,1.2-0.1c-0.1,0.1-0.2,0.1-0.3,0.1c0.1,0.1,0.3,0.1,0.4-0.1
			c0.2,0.3,1.1-0.2,1.5-0.2c-0.1,0.1-0.3,0.1-0.4,0.1c0,0,0,0,0,0.1c0.3,0,0.8-0.1,1.1-0.2c0.4-0.1,0.9-0.2,1.3-0.3
			c0.5,0,1-0.1,1.4-0.2c0.2-0.1,1-0.2,1-0.4c-0.1-0.1-0.3,0-0.5,0c0.2-0.1,0.2,0,0.3-0.1c0.2-0.1,0.4-0.2,0.8-0.2
			c0.5-0.2,1.2-0.3,1.7-0.5c1.2-0.4,2.3-0.9,3.4-1.4c1.1-0.5,2.1-1.1,3-1.7c0.2-0.1,0.5-0.3,0.8-0.4c0.1-0.1,0.2-0.3,0.3-0.4
			c0.2-0.2,0.7-0.1,0.8-0.3l0,0c0.1,0,0.2-0.1,0.2-0.1c0.2-0.2,1-0.4,1.2-0.8c0,0,0.3-0.1,0.3-0.2l0,0c0,0,0.1,0,0.1-0.1
			c0.2-0.1,0.5-0.3,0.7-0.5c0.2-0.2,0.5-0.5,0.9-0.7c0-0.1,0,0,0,0l0.1-0.1c0.2,0,0.3-0.5,0.4-0.5c0.1,0,0.2,0,0.2,0
			c0.1,0,0.1-0.1,0.2-0.1c0.2-0.1,0.4-0.4,0.7-0.7c0.3-0.3,0.7-0.7,1-0.9c0.3-0.3,1.1-0.8,1.3-1.3c0.1-0.1,0.5-0.4,0.5-0.5
			c0.1-0.2,0.7-0.5,0.7-0.8c0,0,0,0,0.1-0.1c0.1,0,0.4-0.3,0.4-0.4c0.1-0.1,0.2-0.2,0.2-0.3c0.1-0.1,0.3-0.4,0.4-0.5
			c-0.2-0.2,0.2-0.5,0.4-0.7l0.1-0.1l0,0c0.1-0.1,0.1-0.1,0.2-0.2c0.1-0.1,0.2-0.2,0.3-0.4c0.1-0.1,0.1-0.5,0.2-0.7l0.1-0.2
			c0.2-0.1,0.2-0.5,0.4-0.8c0.2-0.2,0.3-0.4,0.4-0.7c0.1,0,0.3-0.4,0.3-0.5c0.2-0.1,0.5-0.9,0.7-1.1c0.2-0.4,0.5-0.8,0.7-1.2
			c0.1-0.3,0.3-0.9,0.5-1.2c0.1-0.2,0.2-0.5,0.3-0.8c0.1-0.2,0.2-0.5,0.3-0.8c0.1-0.1,0.2-0.5,0.3-0.7c0.1-0.3,0.2-0.5,0.3-0.9
			c0.3-0.8,0.5-1.6,0.8-2.4c0.2-0.9,0.5-1.6,0.8-2.5c0.1-0.4,0.2-0.9,0.3-1.2c0.2-0.7,0.1-1.2,0.2-1.8c0-0.7,0.3-1.3,0.3-2
			c0-0.5,0-1.1,0-1.6C-179.8,426.8-179.7,426.4-179.8,426.1z M-213,463.2c0,0.1-0.1,0.1-0.2,0.1v-0.1
			C-213,463.1-212.9,463.1-213,463.2z M-236.3,389.9C-236.3,390-236.3,390-236.3,389.9C-236.4,389.9-236.3,389.7-236.3,389.9
			C-236.3,390-236.3,389.9-236.3,389.9z M-208.5,387C-208.5,387-208.4,387.1-208.5,387L-208.5,387z M-216,384.9c0.1,0-0.1,0-0.2,0
			C-216.1,384.9-216.1,384.9-216,384.9z M-232.2,388C-232.2,388-232.2,388.1-232.2,388C-232.2,388.1-232.3,388.1-232.2,388
			C-232.2,388-232.2,388.1-232.2,388z M-232.3,388.1c0,0.1-0.1,0.1-0.1,0.1C-232.4,388.1-232.4,388.1-232.3,388.1
			C-232.3,388.2-232.4,388.1-232.3,388.1z M-257.2,434L-257.2,434L-257.2,434z M-255.6,438.8c-0.1,0-0.4-0.4-0.3-0.5
			c-0.1,0.1-0.1-0.2-0.1-0.3C-256,438-255.8,438.7-255.6,438.8z M-252.8,445.1L-252.8,445.1L-252.8,445.1z M-249.1,450
			C-249.1,450-249,450.1-249.1,450C-249.1,450-249,450.1-249.1,450z M-248.9,450.2C-248.9,450.3-248.9,450.2-248.9,450.2
			L-248.9,450.2z M-248.9,450.1L-248.9,450.1L-248.9,450.1z M-248.9,450.2C-248.9,450.2-248.9,450.3-248.9,450.2
			C-248.9,450.3-248.9,450.2-248.9,450.2z M-248.8,450.3C-248.8,450.3-248.8,450.4-248.8,450.3
			C-248.9,450.3-248.8,450.3-248.8,450.3z M-248.7,450.4C-248.7,450.3-248.7,450.3-248.7,450.4L-248.7,450.4z M-248.3,450.8
			C-248.3,450.8-248.3,450.9-248.3,450.8L-248.3,450.8z M-245.9,453.3C-246,453.3-245.8,453.3-245.9,453.3
			C-245.9,453.3-245.8,453.3-245.9,453.3z M-241.3,456.8h0.1v0.1C-241.3,456.9-241.3,456.9-241.3,456.8z M-212.6,463.2
			c0,0.1-0.1,0-0.1,0C-212.6,463.2-212.6,463.2-212.6,463.2z M-206,461.4L-206,461.4L-206,461.4z M-197.5,458L-197.5,458L-197.5,458
			z M-197.2,457.8L-197.2,457.8L-197.2,457.8z M-184.9,444.5L-184.9,444.5L-184.9,444.5z M-184,443L-184,443L-184,443z M-184,440.7
			l0.1-0.1C-184,440.6-184,440.7-184,440.7L-184,440.7z M-183.9,440.6L-183.9,440.6C-183.9,440.6-183.9,440.5-183.9,440.6z
			 M-183.9,440.6C-183.9,440.6-183.8,440.5-183.9,440.6C-183.8,440.4-183.9,440.6-183.9,440.6z M-183.8,442.6L-183.8,442.6
			L-183.8,442.6z"/>
		<path class="st0" d="M-245.1,454L-245.1,454L-245.1,454z"/>
		<path class="st0" d="M-186,444.4L-186,444.4L-186,444.4z"/>
		<path class="st0" d="M-198.9,391.2L-198.9,391.2L-198.9,391.2z"/>
		<path class="st0" d="M-179.6,426.6c-0.1,0.1-0.1,0.2,0,0.4C-179.5,426.9-179.5,426.7-179.6,426.6
			C-179.6,426.5-179.6,426.5-179.6,426.6L-179.6,426.6z"/>
		<path class="st0" d="M-192.7,395.9c-0.1,0-0.2-0.1-0.2-0.1s0.3,0.5,0.4,0.4c0-0.1,0-0.1-0.1-0.1
			C-192.6,396.1-192.7,395.9-192.7,395.9z"/>
		<path class="st0" d="M-209.5,386.9c-0.1,0.3,0.4,0.2,0.2,0.1C-209.2,386.9-209.3,387-209.5,386.9
			C-209.5,387.1-209.3,386.9-209.5,386.9z"/>
		<path class="st0" d="M-198,391.7c0-0.1-0.2,0-0.2,0C-198.3,391.8-198.3,391.8-198,391.7c-0.1,0.1,0.1,0.2,0.1,0.2
			C-197.7,391.9-197.9,391.7-198,391.7z"/>
		<path class="st0" d="M-212.1,386.1c-0.1,0-1.1-0.1-1,0c0,0.1,1,0.1,1.1,0.1C-212,386.1-212.1,386.1-212.1,386.1
			C-212.2,386.1-212.1,386.1-212.1,386.1z"/>
		<path class="st0" d="M-181.4,413.9c0.1,0.1,0.3,0.9,0.3,1c0,0.2,0.1,0.4,0.1,0.7c0,0.2,0.1,0.5,0.1,0.8l0.1,0.1l0,0
			c0,0.1,0,0.2,0.1,0.1c0-0.5-0.3-1.2-0.4-1.6c0-0.1-0.3-1.3-0.4-1.2C-181.5,413.7-181.5,413.8-181.4,413.9
			C-181.4,413.9-181.5,413.8-181.4,413.9z"/>
		<path class="st0" d="M-187.8,439.1c-0.1-0.1-0.9,0.4-1.1,0.5l0,0c0,0-0.1,0-0.1,0.1c-0.2,0.2-0.9,0.4-1.2,0.5
			c-0.3,0.1-0.9,0.3-1.2,0.3c-0.5-0.1-0.1-0.2,0-0.4c0.2-0.3,0.4-0.7,0.7-1c0.2-0.1,0.3-0.8,0.4-0.9c0.1-0.2,0.4-0.5,0.4-0.8
			c0.1-0.2,0.4-1.2,0.3-1.3c0-0.1-0.1-0.3-0.2-0.4c-0.4-0.3-1.2-0.3-1.7-0.1c-0.2,0.1-0.4,0.3-0.5,0.1c0-0.1,0.1-0.8,0.2-0.8
			c0.2-0.1,0.1-0.7,0.2-0.8c0.1-0.2-0.5-0.7-0.8-0.3c-0.3,0.3-0.5,0.8-0.8,1.2c-0.1,0-0.3,0.4-0.3,0.5c-0.1,0.1-0.1,0.3-0.2,0.3
			c-0.1,0.1-0.2,0.2-0.2,0.4c-0.1,0-0.3,0.3-0.3,0.5c-0.1,0.1-0.2,0.3-0.3,0.4c-0.1,0.2-0.3,0.1-0.4,0.2c-0.1,0.1-0.2,0.2-0.3,0.3
			l-0.1,0.1c-0.1,0-0.5,0.4-0.5,0.4c-0.3,0.2-0.7,0.5-1,0.7c-0.7,0.2-0.3-0.7-0.2-1c0-0.3,0.1-0.7,0.2-1c0.2-1.1,0.5-2.2,1-3.2
			c0.2-0.2-0.1-0.4-0.2-0.5c-0.2-0.2-0.4,0.1-0.4,0.2c0,0,0,0.1-0.1,0.1c-0.1,0.2-0.1,0.4-0.2,0.7l-0.1,0.1l-0.1,0.1
			c-0.3,0.5-0.4,1.2-0.9,1.7c-0.2,0.3-0.7,0.7-1,1c-0.1,0.1-0.8,0.8-0.9,0.7c-0.1-0.1,0.1-1.1,0.2-1.2c0.2-0.1,0.2-0.7,0.3-0.9
			c0.2-0.1,0.3-0.9,0.4-1.1c0.1-0.3,0.2-0.5,0.4-0.9c0-0.1,0.1-0.3,0.1-0.4c0.1-0.1,0.2-0.2,0.3-0.3c0.2-0.3,0-0.8-0.3-1
			c-0.1-0.3-0.9-0.3-1.1-0.1c-0.2,0.2-0.3,0.7-0.4,0.9c-0.3,0.8-0.4,1.4-0.8,2.2c-0.1,0.2-0.1,0.3-0.3,0.4s-0.4,0.1-0.7,0.2
			c-0.1,0-0.1,0.1-0.2,0.1c-0.3,0-0.2,0.1-0.1-0.2c0-0.3,0.1-0.5,0.1-0.9c0-0.2,0-0.5,0-0.8c0-0.1,0-0.2,0-0.2c0-0.1,0.2,0,0.2-0.1
			c0-0.1-0.3-0.7-0.3-0.7c-0.1-0.2-0.3-0.7-0.7-0.8c-0.2-0.1-0.5,0-0.8,0s-0.3-0.1-0.4,0c-0.2,0.1-0.3,0.4-0.4,0.7
			c-0.1,0.1-0.3,0.3-0.4,0.4c-0.1,0.1-0.2,0.3-0.3,0.4c-0.3,0.2-0.4,1-0.7,1.3c-0.1,0.3-0.2,0.5-0.3,0.9c-0.1,0.3-0.2,0.4-0.3,0.7
			c0,0-0.1,0.1-0.1,0.2c-0.1,0.1-0.2,0.3-0.3,0.4c-0.1,0.1-0.2,0.3-0.3,0.4c-0.1,0.2-0.2,0.4-0.3,0.7c-0.2,0.1-0.4,0.5-0.7,0.8
			c-0.1,0.2-0.7,0.3-0.9,0.2c-0.4-0.2-0.3-1.1-0.2-1.5c0.1-0.4,0.3-1,0.5-1.4c0.2-0.7,0.4-1.2,0.7-1.8c0.1-0.4,0.7-1.3,0.2-1.7
			c-0.3-0.3-1-0.2-1.4-0.1c-0.3,0-0.5,0.1-0.8,0.2c-0.2,0.1-0.4,0.2-0.4-0.1c0-0.1,0.1-0.2,0.1-0.3c0-0.3,0.1-0.7,0.1-1
			s0-1.1-0.4-1.1c-0.1,0-0.4,0.1-0.5,0.1c-0.3,0.1-0.1,0-0.3,0.1c0,0-0.1,0.1-0.1,0.2c-0.1,0.1-0.3,0.1-0.4,0.3
			c-0.1,0.2-0.1,0.5-0.1,0.8c0,0.3,0,0.8,0.2,1.1c0.1,0.1,0.4,0.3,0.5,0.4c0,0.2-0.3,0.8-0.3,1c-0.1,0.3-0.2,0.5-0.3,0.9
			c-0.1,0.3-0.2,0.5-0.3,0.8c-0.2,0.7,0.2,0.3,0.7,0.2c0.2-0.1,0.4-0.5,0.4-0.7c0.1-0.3,0.2-0.8,0.3-1.1c0.1-0.4,0.1-0.5,0.5-0.7
			c0.3-0.1,0.8-0.3,1.1-0.3c0.2,0,0.2,0,0.1,0.2c0,0.1-0.1,0.3-0.1,0.4c-0.1,0.2-0.2,0.5-0.3,0.8c-0.3,0.8-0.5,1.7-0.7,2.6
			c0,0.8,0.1,1.7,0.7,2.3c0.1,0.2,0.7,0.5,0.9,0.5c0.3,0,0.9-0.2,1.1-0.4c0.2-0.1,0.5-0.4,0.7-0.7l0.1-0.1c0,0,0.2-0.2,0.2-0.3
			c0.1-0.1,0.1-0.2,0.2-0.2c0.2-0.1,0.2-0.4,0.4-0.5c0.3-0.2,0.4,0.4,0.7,0.7c0,0.1,0.2,0.2,0.2,0.3c0.2,0.1,0.4,0.4,0.7,0.5
			c0.4,0.2,1.2,0.1,1.5-0.3l0.1-0.1c0,0,0-0.1,0.1-0.1c0,0,0.1-0.1,0.2-0.2l0,0c0.3-0.2,0.3-0.9,0.5-1.2c0.1-0.1,0.1-0.4,0.2-0.5
			c0.1-0.1,0.8-0.2,1-0.2s0.1-0.1,0.2,0c0.1,0.1,0,0.7,0,0.9c0.1,0.2,0.2,0.4,0.3,0.7c0.1,0.2,0.2,0.2,0.3,0.4
			c0.1,0.1,0.8,0.7,0.9,0.2c0.3-0.3,0.7-0.5,0.9-0.9c0.1-0.1,0.1-0.2,0.2-0.2c0.3-0.1,0.1,0,0.1,0.3s0.1,0.8,0.2,1.1
			c0.1,0.2,0.4,0.7,0.7,0.7c0.1,0,1.3,0,1.3-0.2c0,0.3-0.3,1.1-0.5,1.2c-0.2,0.5-0.4,1.2-0.7,1.7c-0.2,0.1-0.3,0.9-0.4,1.2
			c-0.2,0.5-0.2,1.1-0.1,1.6c0,0.1,0.1,0.3,0.2,0.3c0.3,0.1,0-0.1,0.2-0.1c0.1,0.1,0.2,0.2,0.3,0.3s0.2,0,0.3,0.1l0.1,0.2
			c0.1,0,0.2-0.2,0.2-0.3c0.2-0.5,0.3-1.3,0.5-1.8c0.1-0.2,0.2-0.4,0.3-0.8c0.1-0.2,0.2-0.9,0.3-1c0.2-0.4,0.3-0.9,0.7-1.3
			c0,0,0-0.1,0.1-0.1l0,0c0,0,0-0.1,0.1-0.1c0,0,0-0.1,0.1-0.1c0,0,0.1-0.2,0.1-0.1c0.1-0.1,0.1-0.2,0.1-0.2l0.1-0.1
			c0.1-0.1,0.1-0.3,0.2-0.4c0,0,0-0.1,0.1-0.1c0.2-0.1,0.1,0.1,0.2,0.2c0,0.1,0.1,0.2,0.2,0.3c0.2,0.7,1.2,0.9,1.7,0.8
			c0.3,0,1.6,0,1.8-0.3c0.1-0.1,0.5-0.2,0.7-0.3c0.1-0.1,0.3-0.2,0.4-0.3c0.3-0.3,0.1-0.1,0.1-0.5
			C-188.4,439.5-187.9,439.4-187.8,439.1C-187.8,439.1-187.8,439.2-187.8,439.1z M-211.5,433c-0.3-0.2-0.3-1.2,0.1-1.4
			C-211.3,432.1-211.4,432.6-211.5,433z M-203.4,436.9c-0.3,0.5-0.5,1.1-1.1,1.5s-1,0.3-1.1-0.3c-0.1-0.7,0-1.3,0.2-2
			c0.1-0.3,0.2-0.7,0.3-0.9c0.1-0.2,0.3-0.4,0.3-0.7c0,0.5,0.2,1,0.5,1.4C-204.1,436.2-203.3,436.7-203.4,436.9
			C-203.6,437.4-203.4,436.8-203.4,436.9z M-202.9,435.9c-0.1,0.3-0.3,0.3-0.5,0.1c-0.3-0.2-0.3-0.5-0.4-0.9c-0.1-0.3-0.1-0.7,0-1.1
			c0.1-0.3,0-0.8,0.2-1c0.4-0.8,1,0.1,1,0.7C-202.6,434.4-202.8,435.2-202.9,435.9C-203,436.2-202.8,435.3-202.9,435.9z
			 M-200.2,439.3L-200.2,439.3L-200.2,439.3z M-198.3,438.1L-198.3,438.1L-198.3,438.1z M-197.9,439.6L-197.9,439.6L-197.9,439.6z
			 M-196.1,440.1V440C-196.1,439.9-196,440-196.1,440.1C-196.1,440-196,440-196.1,440.1z M-192.9,439.7c-0.5-0.1-0.3-0.5-0.2-1
			c0.1-0.2,0.2-0.4,0.3-0.7c0.1-0.2,0-0.3,0.1-0.5c0.2-0.4,0.7-0.9,1-1.2c0.2-0.2,1-0.8,1.3-0.5c0.8,0.4-0.5,2.4-0.8,2.8
			c-0.2,0.3-0.5,1-0.9,1.1C-192.3,440-192.6,439.9-192.9,439.7C-193.1,439.7-192.2,440-192.9,439.7z"/>
		<path class="st0" d="M-194.3,393.8c0.1,0.1,0.4,0.3,0.4,0.1C-194,393.9-194.3,393.6-194.3,393.8z"/>
		<path class="st0" d="M-182.2,410.2c0.1,0.1,0.1,0.4,0.2,0.4c0.1-0.1-0.1-0.8-0.3-0.7C-182.3,410.1-182.3,410.1-182.2,410.2
			C-182.2,410.2-182.3,410.2-182.2,410.2z"/>
		<path class="st0" d="M-214.9,463.4c-0.1,0-0.2,0-0.4,0C-215.4,463.6-215,463.4-214.9,463.4C-215,463.4-215,463.6-214.9,463.4z"/>
		<path class="st0" d="M-256.6,435.7c0.1,0,0.1-0.2,0.1-0.3C-256.7,435.5-256.6,435.6-256.6,435.7
			C-256.5,435.7-256.6,435.7-256.6,435.7z"/>
		<path class="st0" d="M-186.5,403.1c0.1,0.1,0.3,0.9,0.5,0.9c-0.2,0.3,0.5,0.9,0.1,0c-0.1-0.2-0.4-0.8-0.5-1.1
			C-186.6,402.9-186.5,403-186.5,403.1C-186.5,403.1-186.5,403-186.5,403.1z"/>
		<path class="st0" d="M-181.5,413.7c0.1,0,0-0.4-0.1-0.5C-181.6,413.1-181.6,413.6-181.5,413.7
			C-181.4,413.7-181.5,413.6-181.5,413.7z"/>
		<path class="st0" d="M-182.9,408.4L-182.9,408.4L-182.9,408.4z"/>
		<path class="st0" d="M-213,386.1C-213,386.1-213,385.9-213,386.1L-213,386.1z"/>
		<path class="st0" d="M-252.4,445.4c0,0.1,0.1,0.1,0.1,0.1C-252.3,445.6-252.3,445.1-252.4,445.4
			C-252.4,445.3-252.4,445.3-252.4,445.4C-252.3,445.4-252.4,445.3-252.4,445.4z"/>
		<path class="st0" d="M-252.3,445.3L-252.3,445.3L-252.3,445.3z"/>
		<path class="st0" d="M-181.8,413.1c0,0.1,0.1,0.4,0.2,0.5c0.1-0.2-0.1-0.5-0.1-0.9C-182,412.8-181.8,413-181.8,413.1
			C-181.8,413.1-181.8,413-181.8,413.1z"/>
		<path class="st0" d="M-198.6,391.2L-198.6,391.2L-198.6,391.2z"/>
		<path class="st0" d="M-212.2,386.6C-212.2,386.6-212.2,386.5-212.2,386.6c-0.1-0.1-0.7-0.2-0.5,0c0.2,0.1,0.9,0.2,1.1,0
			C-211.7,386.5-212.2,386.4-212.2,386.6C-212.2,386.6-212.2,386.5-212.2,386.6z"/>
		<path class="st0" d="M-234.5,389.1L-234.5,389.1L-234.5,389.1z"/>
		<path class="st0" d="M-189.6,397.9c0.1,0.1,0.9,1.1,0.9,1c0,0.1,0.1,0,0.1-0.1l-0.1-0.2l-0.1-0.1
			C-188.9,398.3-189.6,397.8-189.6,397.9z"/>
		<path class="st0" d="M-183.4,407.6c0-0.1-0.1-0.1-0.1-0.1C-183.5,407.6-183.5,407.6-183.4,407.6L-183.4,407.6
			C-183.4,407.5-183.4,407.6-183.4,407.6z"/>
		<path class="st0" d="M-248.9,399.4c0,0.1,0.2,0,0.2-0.1c0.1-0.1,0.4-0.5,0.5-0.7c-0.2,0-0.4-0.1-0.5,0.1
			C-248.8,398.9-248.9,399.2-248.9,399.4C-248.9,399.4-248.9,399.3-248.9,399.4z"/>
		<path class="st0" d="M-196.3,393.2c0.2,0.2,0.5,0.4,0.8,0.7c0.2,0.2,0.5,0.3,0.9,0.5c0,0,0.3,0.2,0.4,0.3s0.3,0.3,0.4,0.3
			c0.4,0.1,0.2-0.5,0.1-0.8c0.2,0.3,0.7,0.7,1,0.8c0-0.2-0.8-1.1-1-1c0.1,0.1,0.1,0,0.1,0.1c-0.1,0-0.2-0.2-0.2-0.2
			c-0.1-0.1-0.4-0.3-0.7-0.3c0-0.1-0.1,0-0.1,0s0.2,0.3,0.3,0.3l0.5,0.5c-0.1,0-0.4-0.3-0.4-0.4c-0.1-0.1-0.7-0.7-0.8-0.7
			c0,0-0.2,0-0.2-0.1c-0.1-0.1-0.3-0.2-0.4-0.3C-195.9,393.1-196.3,393-196.3,393.2C-196.4,393.1-196.3,393.2-196.3,393.2z"/>
		<path class="st0" d="M-239.6,391.7L-239.6,391.7L-239.6,391.7z"/>
		<path class="st0" d="M-188.8,400c0.3,0-0.2-0.4-0.3-0.5c0,0-0.1-0.2-0.2-0.2c0,0-0.1-0.2-0.2-0.2c0,0.1,0,0.1,0.1,0.2l0,0
			c0,0,0.1,0.1,0.1,0C-189.3,399.4-188.9,400-188.8,400z M-189.3,399.2L-189.3,399.2L-189.3,399.2z"/>
		<path class="st0" d="M-186.4,402.7c0,0.1,0.1,0.3,0.2,0.4c0.1,0.1,0.3,0.1,0.1-0.1C-186.2,402.8-186.3,402.6-186.4,402.7
			C-186.4,402.6-186.4,402.7-186.4,402.7L-186.4,402.7z M-186.3,402.8L-186.3,402.8L-186.3,402.8z"/>
		<path class="st0" d="M-191.8,396.5L-191.8,396.5L-191.8,396.5z"/>
		<path class="st0" d="M-191.8,396.3L-191.8,396.3L-191.8,396.3z"/>
		<path class="st0" d="M-254.5,407.7c0.1,0,0.1,0,0.1-0.1C-254.5,407.6-254.5,407.6-254.5,407.7
			C-254.5,407.7-254.5,407.6-254.5,407.7z"/>
		<path class="st0" d="M-212.2,437.1c0,0,0.1-0.3-0.1,0C-212.3,437-212.3,437.1-212.2,437.1L-212.2,437.1z"/>
		<path class="st0" d="M-201.7,389.5h-0.1c0,0.1,0.1,0.1,0.2,0.2h0.1c0,0,0.5,0.4,0.5,0.2c-0.1,0-0.3-0.2-0.3-0.1
			C-201.4,389.7-201.7,389.5-201.7,389.5C-201.8,389.5-201.7,389.5-201.7,389.5z"/>
		<path class="st0" d="M-196.7,392c0,0.1,0.1,0.1,0.2,0.1c0-0.2-0.1-0.2-0.2-0.2C-196.7,392.1-196.7,392-196.7,392L-196.7,392z"/>
		<path class="st0" d="M-190,397.9L-190,397.9L-190,397.9z"/>
		<path class="st0" d="M-190,397.9c0.1,0.1,0.2,0.2,0.3,0.3c0,0.1,0.2,0.4,0.3,0.4c0.2,0.1,0.1-0.1,0-0.2s-0.5-0.4-0.4-0.4
			C-189.8,398-190.1,397.8-190,397.9C-190,398-190,397.9-190,397.9z"/>
		<path class="st0" d="M-228.6,462.6h-0.1C-228.8,462.7-228.7,462.7-228.6,462.6C-228.7,462.6-228.7,462.7-228.6,462.6z"/>
		<path class="st0" d="M-207.7,387.4C-207.8,387.4-207.6,387.4-207.7,387.4C-207.8,387.2-207.8,387.2-207.7,387.4z"/>
		<path class="st0" d="M-193.7,394.2C-193.7,394.2-193.8,394.1-193.7,394.2C-193.8,394.2-193.7,394.2-193.7,394.2z"/>
		<path class="st0" d="M-248.7,397.6L-248.7,397.6C-248.7,397.5-248.7,397.5-248.7,397.6C-248.8,397.7-248.7,397.5-248.7,397.6z"/>
		<path class="st0" d="M-254.7,444.2C-254.6,444.2-254.6,444.2-254.7,444.2L-254.7,444.2L-254.7,444.2z"/>
		<path class="st0" d="M-254.6,444.2C-254.7,444.2-254.7,444.2-254.6,444.2C-254.6,444.3-254.6,444.2-254.6,444.2z"/>
		<path class="st0" d="M-254.6,444.2L-254.6,444.2L-254.6,444.2z"/>
		<path class="st0" d="M-203.3,388.2L-203.3,388.2c0.1-0.2-0.8-0.3-0.8-0.3C-203.9,388.1-203.5,388.2-203.3,388.2
			C-203.3,388.2-203.5,388.2-203.3,388.2z"/>
		<path class="st0" d="M-215.4,385c0,0-0.1-0.1-0.1,0C-215.6,385-215.5,385-215.4,385C-215.5,384.9-215.5,384.9-215.4,385z"/>
		<path class="st0" d="M-200.1,390.3L-200.1,390.3C-200,390.4-200.1,390.3-200.1,390.3L-200.1,390.3z"/>
		<path class="st0" d="M-200.1,390.4L-200.1,390.4L-200.1,390.4z"/>
		<path class="st0" d="M-197.9,391.6c0.2,0.1,0.5,0.5,0.8,0.4c0.2,0-0.8-0.7-0.9-0.7C-198,391.6-197.9,391.5-197.9,391.6
			C-197.8,391.7-197.9,391.6-197.9,391.6z"/>
		<path class="st0" d="M-183.3,408c0,0.1,0,0.1,0.1,0.1C-183.1,408.2-183.1,407.9-183.3,408L-183.3,408z"/>
		<path class="st0" d="M-193.7,394.2L-193.7,394.2L-193.7,394.2z"/>
		<path class="st0" d="M-183.4,407.8L-183.4,407.8C-183.4,407.9-183.4,407.9-183.4,407.8c0,0.1,0.1,0.1,0.1,0.1s0,0,0.1,0.1v-0.2
			C-183.4,407.7-183.4,407.7-183.4,407.8C-183.4,407.8-183.4,407.7-183.4,407.8z"/>
		<path class="st0" d="M-214.6,386.1c-0.2,0-0.3,0-0.5,0l0,0c0.3,0.1,1,0,1.4,0.1c0.2,0,0.7,0.2,0.9,0.1s-0.2-0.2-0.3-0.2
			c-0.4-0.1-1-0.1-1.4-0.1C-214.7,385.9-214.7,385.9-214.6,386.1L-214.6,386.1L-214.6,386.1z"/>
		<path class="st0" d="M-190.9,397.1L-190.9,397.1L-190.9,397.1z"/>
		<path class="st0" d="M-188.9,399.2L-188.9,399.2C-188.8,399.2-188.9,399.1-188.9,399.2C-189,399.2-189,399.2-188.9,399.2
			L-188.9,399.2z"/>
		<path class="st0" d="M-192,396.1l0.1,0.1C-191.7,395.9-191.8,395.9-192,396.1C-192,395.8-192,395.9-192,396.1z"/>
		<path class="st0" d="M-195.8,392.6C-195.4,392.8-195.4,392.7-195.8,392.6L-195.8,392.6z"/>
		<path class="st0" d="M-191.7,396.1c0,0.1,0.2,0.2,0.2,0.2h-0.1c0.1,0.1,0.1,0.1,0.1,0.2c0,0,0,0,0.1,0.1c-0.1-0.2-0.7-0.4-0.3,0
			c0.2,0.2,0.8,0.8,0.9,0.8l0,0c0-0.1-0.1-0.1-0.1-0.1v-0.1c0,0,0.1,0,0.2-0.1l0.1,0.1c0-0.1-0.1-0.3-0.2-0.3
			c-0.1-0.1-0.2-0.2-0.2-0.3c-0.1-0.2-0.3-0.2-0.4-0.3C-191.6,396.2-191.6,396.1-191.7,396.1L-191.7,396.1z"/>
		<path class="st0" d="M-246.5,452.1c-0.1,0-0.1-0.2-0.2-0.2C-246.8,452-246.7,452.1-246.5,452.1c0,0.1,0,0.3,0.1,0.2
			C-246.3,452.2-246.5,452.1-246.5,452.1C-246.6,452.1-246.5,452.1-246.5,452.1z"/>
		<path class="st0" d="M-199.9,390.4C-200,390.4-199.8,390.5-199.9,390.4L-199.9,390.4z"/>
		<path class="st0" d="M-196.5,392.6C-196.5,392.6-196.5,392.5-196.5,392.6C-196.5,392.5-196.5,392.5-196.5,392.6
			C-196.6,392.6-196.6,392.5-196.5,392.6z"/>
		<path class="st0" d="M-186.7,402.1C-186.8,402.1-186.8,402.1-186.7,402.1c0.1,0.1-0.1,0.1,0.1,0.1
			C-186.7,402.1-186.7,402.2-186.7,402.1C-186.8,402.1-186.7,402.1-186.7,402.1z"/>
		<path class="st0" d="M-185.8,403.4c0.1,0,0.3,0.4,0.5,0.5c0,0,0.1,0.3,0.1,0l-0.3-0.5v0.2c0,0-0.2-0.3-0.2-0.2
			C-185.6,403.4-185.8,403.3-185.8,403.4L-185.8,403.4z M-185.4,403.8L-185.4,403.8L-185.4,403.8z"/>
		<path class="st0" d="M-188.5,399.6c0.1,0,0.1,0.2,0.2,0.1c-0.1,0-0.2-0.2-0.2-0.2C-188.6,399.5-188.5,399.5-188.5,399.6
			L-188.5,399.6z"/>
	</g>
</g>
</svg>
